<svg width="17" height="17" viewBox="0 0 17 17" fill="none" xmlns="http://www.w3.org/2000/svg">
<g clip-path="url(#clip0)">
<path d="M8.44662 0.539728C8.40583 0.546939 8.36641 0.56252 8.33013 0.585774L0.697008 5.2167C0.638749 5.25199 0.589845 5.30567 0.555693 5.37183C0.52154 5.438 0.503466 5.51407 0.503466 5.59164C0.503466 5.66922 0.52154 5.74528 0.555693 5.81144C0.589845 5.8776 0.638749 5.9313 0.697008 5.96659L8.33013 10.5975C8.37997 10.6276 8.43509 10.6432 8.491 10.6432C8.5469 10.6432 8.60202 10.6276 8.65186 10.5975L16.285 5.96659C16.3432 5.9313 16.3921 5.8776 16.4263 5.81144C16.4605 5.74528 16.4785 5.66922 16.4785 5.59164C16.4785 5.51407 16.4605 5.438 16.4263 5.37183C16.3921 5.30567 16.3432 5.25199 16.285 5.2167L8.65186 0.585774C8.58889 0.54637 8.51738 0.530327 8.44662 0.539728ZM8.491 1.43434L15.3475 5.59164L8.491 9.74895L1.6345 5.59164L8.491 1.43434ZM0.846777 8.11101C0.766018 8.11114 0.68771 8.14391 0.624771 8.20391C0.561833 8.26391 0.518025 8.34757 0.500575 8.44107C0.483126 8.53457 0.493078 8.63234 0.528788 8.71823C0.564499 8.80412 0.623836 8.873 0.697008 8.91353L8.33013 13.5445C8.37997 13.5745 8.43509 13.5902 8.491 13.5902C8.5469 13.5902 8.60202 13.5745 8.65186 13.5445L16.285 8.91353C16.3285 8.88989 16.3675 8.85608 16.3997 8.81411C16.4319 8.77214 16.4567 8.72288 16.4724 8.66929C16.4882 8.61571 16.4946 8.5589 16.4914 8.50229C16.4881 8.44567 16.4753 8.3904 16.4536 8.33983C16.4319 8.28925 16.4018 8.24439 16.3651 8.20796C16.3284 8.17152 16.2859 8.14426 16.2401 8.1278C16.1943 8.11134 16.1462 8.10603 16.0986 8.11219C16.051 8.11835 16.005 8.13585 15.9633 8.16363L8.491 12.6959L1.01873 8.16363C0.9661 8.1291 0.90693 8.11099 0.846777 8.11101ZM0.846777 11.058C0.766018 11.0581 0.68771 11.0909 0.624771 11.1509C0.561833 11.2109 0.518025 11.2945 0.500575 11.388C0.483126 11.4815 0.493078 11.5793 0.528788 11.6652C0.564499 11.7511 0.623836 11.82 0.697008 11.8605L8.33013 16.4914C8.37997 16.5215 8.43509 16.5371 8.491 16.5371C8.5469 16.5371 8.60202 16.5215 8.65186 16.4914L16.285 11.8605C16.3285 11.8369 16.3675 11.803 16.3997 11.7611C16.4319 11.7191 16.4567 11.6699 16.4724 11.6163C16.4882 11.5627 16.4946 11.5059 16.4914 11.4492C16.4881 11.3926 16.4753 11.3374 16.4536 11.2868C16.4319 11.2362 16.4018 11.1914 16.3651 11.1549C16.3284 11.1185 16.2859 11.0912 16.2401 11.0748C16.1943 11.0583 16.1462 11.053 16.0986 11.0592C16.051 11.0653 16.005 11.0828 15.9633 11.1106L8.491 15.6428L1.01873 11.1106C0.9661 11.0761 0.90693 11.058 0.846777 11.058Z" fill="#8E97A7"/>
</g>
<defs>
<clipPath id="clip0">
<rect width="16" height="16" fill="white" transform="translate(0.492188 0.537109)"/>
</clipPath>
</defs>
</svg>
