<svg width="17" height="17" viewBox="0 0 17 17" fill="none" xmlns="http://www.w3.org/2000/svg">
<g clip-path="url(#clip0)">
<path d="M15.7347 3.93964C15.4102 3.81812 15.0451 3.85863 14.8018 4.10167L13.5849 5.31686C13.4632 5.43837 13.3821 5.43838 13.3821 5.43838L11.354 3.41306V3.37255L12.7331 1.99534C12.9765 1.7523 13.0576 1.38774 12.8954 1.06369C12.7737 0.739641 12.4492 0.537109 12.0841 0.537109C11.0295 0.577616 10.056 0.982679 9.28536 1.71179C8.19019 2.80546 7.82513 4.42572 8.31187 5.88394V5.92445L0.889071 13.3371C0.321207 13.8637 0.118398 14.5523 0.280645 15.2004C0.442892 15.808 0.929633 16.3346 1.57862 16.4966C1.74087 16.5371 1.86255 16.5371 2.0248 16.5371C2.5521 16.5371 3.03885 16.2941 3.44446 15.889L10.8267 8.51686H10.8673C12.3275 9.00293 13.8688 8.63838 14.964 7.62572C15.7752 6.8561 16.2214 5.84344 16.2214 4.74977C16.262 4.38521 16.0592 4.06116 15.7347 3.93964ZM14.3961 7.01812C13.5443 7.82825 12.2869 8.11179 11.1106 7.74724C10.7861 7.66622 10.4616 7.70673 10.2183 7.94977L2.8766 15.2814C2.5521 15.6055 2.14649 15.7675 1.78143 15.646C1.45694 15.565 1.173 15.2814 1.09188 14.9574C1.01076 14.5928 1.13244 14.2282 1.4975 13.9042L8.83918 6.57255C9.08255 6.32951 9.16367 6.00546 9.04199 5.68141C8.63637 4.50673 8.96086 3.21053 9.85322 2.31939C10.4616 1.71179 11.2323 1.38774 12.0841 1.34724C12.0841 1.34724 12.1247 1.34724 12.1247 1.38774C12.1247 1.42825 12.1247 1.42825 12.1247 1.42825L10.7456 2.80546C10.4211 3.12951 10.4211 3.6966 10.7456 4.02065L12.7737 6.04597C12.9359 6.208 13.1793 6.28901 13.4632 6.28901C13.7066 6.2485 13.9094 6.12698 14.1528 5.92445L15.4102 4.66876C15.4507 4.66876 15.4507 4.70926 15.4507 4.70926C15.4102 5.6004 15.0451 6.41053 14.3961 7.01812Z" fill="#8E97A7"/>
</g>
<defs>
<clipPath id="clip0">
<rect width="16" height="16" fill="white" transform="translate(0.226562 0.537109)"/>
</clipPath>
</defs>
</svg>
