<svg width="17" height="16" viewBox="0 0 17 16" fill="none" xmlns="http://www.w3.org/2000/svg">
<path d="M8.83239 1.28119L10.7217 5.10834L14.9461 5.72311C15.1365 5.75056 15.2947 5.88379 15.3542 6.06669C15.4136 6.24959 15.364 6.45039 15.2262 6.58453L12.1687 9.5612L12.8904 13.7686C12.9229 13.9582 12.8449 14.1498 12.6893 14.2629C12.5337 14.3759 12.3274 14.3909 12.1572 14.3014L8.37921 12.318L4.60066 14.3032C4.43025 14.3923 4.2241 14.3771 4.06861 14.264C3.91313 14.1509 3.83517 13.9594 3.86742 13.7699L4.58911 9.56485L1.53164 6.58817C1.39382 6.45403 1.34419 6.25323 1.40365 6.07033C1.46312 5.88743 1.62134 5.75421 1.81169 5.72676L6.03614 5.10895L7.92542 1.28179C8.01067 1.10933 8.18634 1.00013 8.37872 1C8.5711 0.999871 8.74691 1.10884 8.83239 1.28119Z" fill="#F8E3B0"/>
<path d="M6.03595 5.10834L7.92523 1.28119C8.01071 1.10884 8.18653 0.999871 8.37891 1L8.37841 12.318L4.60047 14.3014C4.4302 14.3909 4.22391 14.3759 4.06831 14.2629C3.91271 14.1498 3.83476 13.9582 3.86723 13.7686L4.58893 9.5612L1.53146 6.58453C1.39363 6.45039 1.344 6.24959 1.40347 6.06669C1.46293 5.88379 1.62115 5.75056 1.81151 5.72311L6.03595 5.10834Z" fill="#FFD36A"/>
</svg>
