<svg width="17" height="16" viewBox="0 0 17 16" fill="none" xmlns="http://www.w3.org/2000/svg">
<path d="M8.64294 1.28119L10.5322 5.10834L14.7567 5.72311C14.947 5.75056 15.1052 5.88379 15.1647 6.06669C15.2242 6.24959 15.1745 6.45039 15.0367 6.58453L11.9792 9.5612L12.7009 13.7686C12.7334 13.9582 12.6555 14.1498 12.4999 14.2629C12.3443 14.3759 12.138 14.3909 11.9677 14.3014L8.18976 12.318L4.4112 14.3032C4.2408 14.3923 4.03464 14.3771 3.87916 14.264C3.72367 14.1509 3.64572 13.9594 3.67797 13.7699L4.39966 9.56485L1.34219 6.58817C1.20437 6.45403 1.15474 6.25323 1.2142 6.07033C1.27366 5.88743 1.43189 5.75421 1.62224 5.72676L5.84669 5.10895L7.73597 1.28179C7.82122 1.10933 7.99688 1.00013 8.18926 1C8.38165 0.999871 8.55746 1.10884 8.64294 1.28119Z" fill="#FFD36A"/>
</svg>
