<svg width="17" height="16" viewBox="0 0 17 16" fill="none" xmlns="http://www.w3.org/2000/svg">
<path d="M8.54821 1.28119L10.4375 5.10834L14.6619 5.72311C14.8523 5.75056 15.0105 5.88379 15.07 6.06669C15.1294 6.24959 15.0798 6.45039 14.942 6.58453L11.8845 9.5612L12.6062 13.7686C12.6387 13.9582 12.5607 14.1498 12.4051 14.2629C12.2495 14.3759 12.0432 14.3909 11.873 14.3014L8.09503 12.318L4.31648 14.3032C4.14607 14.3923 3.93992 14.3771 3.78443 14.264C3.62895 14.1509 3.55099 13.9594 3.58324 13.7699L4.30493 9.56485L1.24746 6.58817C1.10964 6.45403 1.06001 6.25323 1.11948 6.07033C1.17894 5.88743 1.33716 5.75421 1.52751 5.72676L5.75196 5.10895L7.64124 1.28179C7.72649 1.10933 7.90216 1.00013 8.09454 1C8.28692 0.999871 8.46273 1.10884 8.54821 1.28119Z" fill="#E9EBEF"/>
<path d="M5.75177 5.10834L7.64105 1.28119C7.72653 1.10884 7.90235 0.999871 8.09473 1L8.09423 12.318L4.31629 14.3014C4.14602 14.3909 3.93973 14.3759 3.78413 14.2629C3.62853 14.1498 3.55058 13.9582 3.58305 13.7686L4.30475 9.5612L1.24728 6.58453C1.10945 6.45039 1.05982 6.24959 1.11929 6.06669C1.17875 5.88379 1.33697 5.75056 1.52733 5.72311L5.75177 5.10834Z" fill="#FFD36A"/>
</svg>
