<svg width="16" height="17" viewBox="0 0 16 17" fill="none" xmlns="http://www.w3.org/2000/svg">
<g clip-path="url(#clip0)">
<path d="M2.47363 7.99805C1.92135 7.99805 1.47363 8.44576 1.47363 8.99805C1.47363 9.55033 1.92135 9.99805 2.47363 9.99805V7.99805ZM13.9811 9.99805C14.5334 9.99805 14.9811 9.55033 14.9811 8.99805C14.9811 8.44576 14.5334 7.99805 13.9811 7.99805V9.99805ZM2.47363 9.99805H13.9811V7.99805H2.47363V9.99805Z" fill="white"/>
<path d="M7.22656 15.3281C7.22656 15.8804 7.67428 16.3281 8.22656 16.3281C8.77885 16.3281 9.22656 15.8804 9.22656 15.3281L7.22656 15.3281ZM9.22656 2.66987C9.22656 2.11759 8.77885 1.66987 8.22656 1.66987C7.67428 1.66987 7.22656 2.11759 7.22656 2.66987L9.22656 2.66987ZM9.22656 15.3281L9.22656 2.66987L7.22656 2.66987L7.22656 15.3281L9.22656 15.3281Z" fill="white"/>
</g>
<defs>
<clipPath id="clip0">
<rect width="16" height="16" fill="white" transform="translate(0 0.998047)"/>
</clipPath>
</defs>
</svg>
