<svg width="33" height="25" viewBox="0 0 33 25" fill="none" xmlns="http://www.w3.org/2000/svg">
<path d="M18.8506 6.4861L19.2831 6.23536L19.1793 6.05629L18.9793 6.00297L18.8506 6.4861ZM19.9998 8.48291L19.5625 8.72565L19.5672 8.73365L19.9998 8.48291ZM20.353 8.66031L20.3652 8.16046L20.3644 8.16044L20.353 8.66031ZM21.5542 7.95586L21.9908 8.19956L21.9919 8.19762L21.5542 7.95586ZM21.5694 7.58541L21.1406 7.84251L21.1423 7.84529L21.5694 7.58541ZM20.4841 5.72006L20.9167 5.46932L20.4841 5.72006ZM20.4059 5.56399L20.309 5.07347L19.6633 5.20104L19.9594 5.78892L20.4059 5.56399ZM23.602 8.19488L24.1019 8.18693L24.1019 8.18559L23.602 8.19488ZM23.2068 9.62393L22.7855 9.35451L22.7846 9.35597L23.2068 9.62393ZM23.2139 10.0472L23.6462 9.79566L23.6413 9.78765L23.2139 10.0472ZM26.4673 15.6529L26.8999 15.4022L26.4673 15.6529ZM26.5007 16.8582L26.074 16.5976L26.0709 16.6027L26.5007 16.8582ZM24.6824 16.93L25.0915 16.6425L25.0889 16.6388L24.6824 16.93ZM24.5122 16.6505L24.9448 16.3998L24.5122 16.6505ZM21.3149 11.1273L21.7484 10.878L21.7475 10.8766L21.3149 11.1273ZM20.9668 10.9305L20.954 10.4307L20.9536 10.4307L20.9668 10.9305ZM18.3154 7.40451L18.7923 7.55475L18.7925 7.55405L18.3154 7.40451ZM18.7667 6.46895L18.8143 5.97122L18.4673 5.93803L18.3162 6.2521L18.7667 6.46895ZM18.418 6.73684C18.8062 7.40659 19.1928 8.05945 19.5626 8.7256L20.4369 8.24022C20.0611 7.56328 19.6652 6.89444 19.2831 6.23536L18.418 6.73684ZM19.5672 8.73365C19.6476 8.87244 19.764 9.00587 19.944 9.08529C20.0995 9.15389 20.2555 9.15823 20.3417 9.16019L20.3644 8.16044C20.3276 8.15961 20.3129 8.15814 20.308 8.15745C20.3051 8.15705 20.322 8.15905 20.3477 8.17038C20.376 8.18286 20.4007 8.20031 20.4189 8.21821C20.4349 8.23388 20.4384 8.24261 20.4323 8.23217L19.5672 8.73365ZM20.3409 9.16017C20.6965 9.16879 21.0268 9.097 21.319 8.92228C21.6091 8.74885 21.8255 8.49563 21.9908 8.19956L21.1176 7.71215C21.015 7.89601 20.9099 8.00179 20.8058 8.06398C20.704 8.12489 20.5676 8.16537 20.3652 8.16046L20.3409 9.16017ZM21.9919 8.19762C22.0339 8.12149 22.1086 7.98284 22.1228 7.81063C22.1389 7.61334 22.073 7.45112 21.9966 7.32553L21.1423 7.84529C21.1487 7.8559 21.1423 7.84782 21.1355 7.82507C21.1277 7.79877 21.1231 7.76508 21.1261 7.72892C21.1288 7.69556 21.1368 7.67501 21.1374 7.67354C21.1377 7.67291 21.1366 7.67569 21.133 7.68296C21.1294 7.69026 21.1242 7.70021 21.1165 7.71409L21.9919 8.19762ZM21.9982 7.32831C21.6296 6.71339 21.2802 6.09641 20.9167 5.46932L20.0515 5.9708C20.4083 6.58641 20.7669 7.21926 21.1406 7.84251L21.9982 7.32831ZM20.9167 5.46932C20.8961 5.43385 20.901 5.43533 20.8525 5.33906L19.9594 5.78892C19.9654 5.80079 20.015 5.90783 20.0515 5.9708L20.9167 5.46932ZM20.5028 6.05451C21.7971 5.79883 23.0758 6.79264 23.1021 8.20417L24.1019 8.18559C24.0642 6.15757 22.2199 4.69599 20.309 5.07347L20.5028 6.05451ZM23.102 8.20284C23.1088 8.62837 23.0049 9.01157 22.7855 9.35451L23.628 9.89335C23.96 9.37422 24.1116 8.79566 24.1019 8.18693L23.102 8.20284ZM22.7846 9.35597C22.6968 9.49435 22.6249 9.66701 22.6371 9.87257C22.6484 10.0641 22.7302 10.2139 22.7865 10.3067L23.6413 9.78765C23.626 9.7625 23.6231 9.75455 23.6242 9.75729C23.6262 9.76224 23.6335 9.7826 23.6353 9.81359C23.6372 9.84605 23.6322 9.87365 23.6264 9.89178C23.6215 9.90716 23.6185 9.9082 23.6289 9.8919L22.7846 9.35597ZM22.7818 10.2986C23.8668 12.1635 24.9507 14.0334 26.0347 15.9037L26.8999 15.4022C25.8159 13.532 24.7317 11.6615 23.6461 9.79571L22.7818 10.2986ZM26.0347 15.9037C26.1234 16.0566 26.1596 16.1792 26.1648 16.2789C26.1697 16.3717 26.1495 16.474 26.074 16.5976L26.9275 17.1187C27.1006 16.8353 27.1795 16.5349 27.1635 16.2268C27.1478 15.9256 27.043 15.6491 26.8999 15.4022L26.0347 15.9037ZM26.0709 16.6027C25.8599 16.9577 25.3268 16.9773 25.0915 16.6425L24.2733 17.2175C24.9286 18.1499 26.3517 18.0876 26.9306 17.1136L26.0709 16.6027ZM25.0889 16.6388C25.0428 16.5745 25.0092 16.5109 24.9448 16.3998L24.0797 16.9013C24.1222 16.9747 24.193 17.1054 24.276 17.2212L25.0889 16.6388ZM24.9448 16.3998C23.8781 14.5594 22.8079 12.7201 21.7484 10.878L20.8815 11.3766C21.9421 13.2206 23.014 15.0628 24.0797 16.9013L24.9448 16.3998ZM21.7475 10.8766C21.6848 10.7684 21.5883 10.6331 21.4261 10.5392C21.2616 10.4439 21.0922 10.4271 20.954 10.4307L20.9796 11.4303C21.0194 11.4293 20.9813 11.4371 20.9249 11.4045C20.8709 11.3732 20.8595 11.3386 20.8823 11.3781L21.7475 10.8766ZM20.9536 10.4307C19.4328 10.4708 18.3315 9.01729 18.7923 7.55475L17.8385 7.25427C17.1715 9.37132 18.7722 11.4885 20.98 11.4303L20.9536 10.4307ZM18.7925 7.55405C18.8298 7.43496 18.8879 7.3115 18.9651 7.16516C19.0347 7.0331 19.137 6.85245 19.2172 6.68579L18.3162 6.2521C18.2455 6.39892 18.1733 6.52284 18.0806 6.69859C17.9954 6.86005 17.9032 7.04764 17.8383 7.25496L18.7925 7.55405ZM18.7191 6.96667C18.7154 6.96632 18.7117 6.96584 18.7085 6.96531C18.7053 6.96479 18.7031 6.96433 18.7024 6.96418C18.7019 6.96406 18.7027 6.96424 18.706 6.96508C18.7097 6.96602 18.714 6.96714 18.7218 6.96922L18.9793 6.00297C18.953 5.99594 18.8913 5.97858 18.8143 5.97122L18.7191 6.96667Z" fill="#8E97A7"/>
<path d="M14.6239 11.5469C14.6239 11.2707 14.4001 11.0469 14.1239 11.0469C13.8478 11.0469 13.6239 11.2707 13.6239 11.5469H14.6239ZM7.66859 11.5469C7.66859 11.2707 7.44473 11.0469 7.16859 11.0469C6.89245 11.0469 6.66859 11.2707 6.66859 11.5469H7.66859ZM3.78087 21.1315C3.693 21.3933 3.83399 21.6768 4.09578 21.7646C4.35756 21.8525 4.64102 21.7115 4.72889 21.4497L3.78087 21.1315ZM16.2991 21.3998C16.3594 21.6693 16.6268 21.8389 16.8962 21.7786C17.1657 21.7182 17.3353 21.4509 17.275 21.1814L16.2991 21.3998ZM13.6239 11.5469C13.6239 13.1914 12.2908 14.5245 10.6463 14.5245V15.5245C12.8431 15.5245 14.6239 13.7437 14.6239 11.5469H13.6239ZM10.6463 14.5245C9.00174 14.5245 7.66859 13.1914 7.66859 11.5469H6.66859C6.66859 13.7437 8.44945 15.5245 10.6463 15.5245V14.5245ZM4.25488 21.2906C4.72889 21.4497 4.72882 21.4499 4.72875 21.4501C4.72874 21.4502 4.72868 21.4504 4.72865 21.4505C4.72859 21.4506 4.72855 21.4507 4.72854 21.4508C4.72851 21.4509 4.72857 21.4507 4.72872 21.4502C4.72902 21.4494 4.72969 21.4474 4.73073 21.4445C4.73281 21.4386 4.73637 21.4287 4.74147 21.415C4.75168 21.3877 4.76804 21.3453 4.79101 21.29C4.83698 21.1794 4.90923 21.0177 5.01141 20.822C5.21624 20.4297 5.53848 19.9062 6.00597 19.384C6.93432 18.3468 8.43563 17.3104 10.7716 17.3104V16.3104C8.09472 16.3104 6.33767 17.514 5.26087 18.717C4.72578 19.3148 4.35876 19.9114 4.12497 20.3592C4.00783 20.5835 3.92342 20.7718 3.86758 20.9062C3.83963 20.9735 3.81879 21.0273 3.80452 21.0656C3.79738 21.0847 3.79189 21.1 3.78797 21.111C3.78601 21.1166 3.78444 21.1211 3.78326 21.1245C3.78267 21.1262 3.78218 21.1277 3.78178 21.1288C3.78158 21.1294 3.78141 21.1299 3.78126 21.1304C3.78118 21.1306 3.78109 21.1309 3.78105 21.131C3.78096 21.1313 3.78087 21.1315 4.25488 21.2906ZM10.7716 17.3104C13.1022 17.3104 14.4685 18.3412 15.2655 19.3588C15.6693 19.8743 15.93 20.3917 16.0895 20.7804C16.169 20.9741 16.2226 21.1341 16.2558 21.2434C16.2723 21.298 16.2838 21.3398 16.2908 21.3666C16.2943 21.38 16.2967 21.3897 16.298 21.3953C16.2987 21.3981 16.2991 21.3999 16.2993 21.4007C16.2994 21.4011 16.2994 21.4012 16.2994 21.401C16.2994 21.401 16.2993 21.4008 16.2993 21.4006C16.2993 21.4005 16.2992 21.4003 16.2992 21.4003C16.2992 21.4 16.2991 21.3998 16.787 21.2906C17.275 21.1814 17.2749 21.1812 17.2749 21.1809C17.2748 21.1808 17.2748 21.1804 17.2747 21.1802C17.2746 21.1797 17.2745 21.1792 17.2743 21.1786C17.2741 21.1773 17.2737 21.1758 17.2733 21.1741C17.2725 21.1705 17.2714 21.1659 17.27 21.1602C17.2673 21.1489 17.2634 21.1334 17.2583 21.114C17.2482 21.0752 17.2332 21.0207 17.2126 20.9528C17.1714 20.8171 17.1075 20.6271 17.0147 20.4008C16.8295 19.9494 16.5263 19.3467 16.0528 18.7422C15.0953 17.5197 13.4539 16.3104 10.7716 16.3104V17.3104Z" fill="#8E97A7"/>
<path d="M11.5866 5.63281C11.943 5.84249 12.0583 6.11506 11.9325 6.54489C11.7858 7.0481 11.7334 7.57229 11.6809 8.08598C11.6705 8.23275 11.8172 8.39001 11.8906 8.54726C12.0059 8.42146 12.1946 8.31662 12.2261 8.18034C12.3624 7.6247 12.4462 7.05859 12.5616 6.49247C13.6519 6.76505 14.4486 7.97066 14.8575 9.97304C14.9728 10.0045 15.1615 10.0045 15.2244 10.0884C15.3607 10.2666 15.5494 10.5077 15.5179 10.6964C15.4865 10.8746 15.2349 11.0424 15.0567 11.1787C14.9728 11.2416 14.8155 11.1996 14.7002 11.1996C12.0688 11.1996 9.42696 11.1996 6.79556 11.1891C6.56492 11.1891 6.28186 11.1367 6.12461 11.0004C5.71575 10.644 5.95687 10.1827 6.66976 9.9311C6.78508 8.40049 7.46652 7.20536 8.91326 6.38763C9.02858 7.01665 9.11245 7.57229 9.24873 8.11743C9.29067 8.27469 9.47937 8.40049 9.59469 8.53678C9.66808 8.36904 9.81485 8.19082 9.79388 8.02308C9.75195 7.51987 9.68905 7.01665 9.55276 6.53441C9.43744 6.11506 9.54228 5.84249 9.9092 5.63281C10.4648 5.63281 11.031 5.63281 11.5866 5.63281Z" stroke="#8E97A7"/>
</svg>
