<svg width="24" height="25" viewBox="0 0 24 25" fill="none" xmlns="http://www.w3.org/2000/svg">
<path d="M4.72754 8.9668V8.9668C4.72754 6.75766 6.5184 4.9668 8.72754 4.9668H15.273C17.4821 4.9668 19.273 6.75766 19.273 8.9668V16.9668C19.273 19.1759 17.4821 20.9668 15.273 20.9668H8.72754C6.5184 20.9668 4.72754 19.1759 4.72754 16.9668V16.9668" stroke="white" stroke-width="1.5"/>
<path d="M4.72754 12.2168C4.31333 12.2168 3.97754 12.5526 3.97754 12.9668C3.97754 13.381 4.31333 13.7168 4.72754 13.7168V12.2168ZM15.6366 13.7168C16.0508 13.7168 16.3866 13.381 16.3866 12.9668C16.3866 12.5526 16.0508 12.2168 15.6366 12.2168V13.7168ZM4.72754 13.7168H15.6366V12.2168H4.72754V13.7168Z" fill="white"/>
<path d="M11.4454 16.4623C11.1668 16.7688 11.1894 17.2431 11.4959 17.5218C11.8023 17.8004 12.2767 17.7778 12.5553 17.4713L11.4454 16.4623ZM15.6367 12.9668L16.1917 13.4713C16.4517 13.1852 16.4517 12.7484 16.1917 12.4623L15.6367 12.9668ZM12.5553 8.46229C12.2767 8.1558 11.8023 8.13321 11.4959 8.41184C11.1894 8.69047 11.1668 9.16481 11.4454 9.4713L12.5553 8.46229ZM12.5553 17.4713L16.1917 13.4713L15.0818 12.4623L11.4454 16.4623L12.5553 17.4713ZM16.1917 12.4623L12.5553 8.46229L11.4454 9.4713L15.0818 13.4713L16.1917 12.4623Z" fill="white"/>
</svg>
