<svg width="24" height="25" viewBox="0 0 24 25" fill="none" xmlns="http://www.w3.org/2000/svg">
<path d="M4.72754 8.96875V8.96875C4.72754 6.75961 6.5184 4.96875 8.72754 4.96875H15.273C17.4821 4.96875 19.273 6.75961 19.273 8.96875V16.9688C19.273 19.1779 17.4821 20.9688 15.273 20.9688H8.72753C6.5184 20.9688 4.72754 19.1779 4.72754 16.9688V16.9688" stroke="white" stroke-width="1.5"/>
<path d="M15.6367 12.2188C16.0509 12.2188 16.3867 12.5545 16.3867 12.9688C16.3867 13.383 16.0509 13.7188 15.6367 13.7188V12.2188ZM4.72763 13.7188C4.31341 13.7188 3.97763 13.383 3.97763 12.9688C3.97763 12.5545 4.31341 12.2188 4.72763 12.2188V13.7188ZM15.6367 13.7188H4.72763V12.2188H15.6367V13.7188Z" fill="white"/>
<path d="M8.91886 16.4642C9.19749 16.7707 9.1749 17.2451 8.86841 17.5237C8.56191 17.8023 8.08758 17.7797 7.80895 17.4733L8.91886 16.4642ZM4.72754 12.9688L4.17258 13.4733C3.91252 13.1872 3.91252 12.7503 4.17258 12.4642L4.72754 12.9688ZM7.80895 8.46425C8.08758 8.15775 8.56191 8.13516 8.86841 8.41379C9.1749 8.69242 9.19749 9.16676 8.91886 9.47325L7.80895 8.46425ZM7.80895 17.4733L4.17258 13.4733L5.28249 12.4642L8.91886 16.4642L7.80895 17.4733ZM4.17258 12.4642L7.80895 8.46425L8.91886 9.47325L5.28249 13.4733L4.17258 12.4642Z" fill="white"/>
</svg>
