<svg width="33" height="25" viewBox="0 0 33 25" fill="none" xmlns="http://www.w3.org/2000/svg">
<path d="M21.083 11.2502V16.9446L15.9091 19.1112L11.0836 16.9446V11.2502L15.9091 9.11133L21.083 11.2502Z" stroke="#8E97A7" stroke-miterlimit="10" stroke-linecap="round" stroke-linejoin="round"/>
<path d="M13.496 10.166L18.6699 12.3049V14.4437" stroke="#8E97A7" stroke-miterlimit="10" stroke-linecap="round" stroke-linejoin="round"/>
<path d="M15.9081 19.111V13.3889L11.0827 11.25L15.9081 13.3889L21.082 11.25" stroke="#8E97A7" stroke-miterlimit="10" stroke-linecap="round" stroke-linejoin="round"/>
<path d="M28.083 20.7773V21.2773C28.3591 21.2773 28.583 21.0535 28.583 20.7773H28.083ZM28.083 6.77734H28.583C28.583 6.5012 28.3591 6.27734 28.083 6.27734V6.77734ZM3.72945 6.42379C3.53419 6.61905 3.53419 6.93563 3.72945 7.1309L6.91143 10.3129C7.1067 10.5081 7.42328 10.5081 7.61854 10.3129C7.8138 10.1176 7.8138 9.80103 7.61854 9.60577L4.79011 6.77734L7.61854 3.94892C7.8138 3.75365 7.8138 3.43707 7.61854 3.24181C7.42328 3.04655 7.1067 3.04655 6.91143 3.24181L3.72945 6.42379ZM4.08301 21.2773H28.083V20.2773H4.08301V21.2773ZM28.583 20.7773V6.77734H27.583V20.7773H28.583ZM28.083 6.27734H4.08301V7.27734H28.083V6.27734Z" fill="#8E97A7"/>
</svg>
