<svg width="33" height="25" viewBox="0 0 33 25" fill="none" xmlns="http://www.w3.org/2000/svg">
<path d="M21.2703 4.96289H4.88574V14.6664H21.2703V4.96289Z" stroke="#8E97A7" stroke-miterlimit="10" stroke-linecap="round" stroke-linejoin="round"/>
<path d="M13.7005 20.962C14.4142 20.962 14.9928 20.4213 14.9928 19.7544C14.9928 19.0875 14.4142 18.5469 13.7005 18.5469C12.9868 18.5469 12.4082 19.0875 12.4082 19.7544C12.4082 20.4213 12.9868 20.962 13.7005 20.962Z" stroke="#8E97A7" stroke-miterlimit="10"/>
<path d="M25.7005 20.962C26.4142 20.962 26.9928 20.4213 26.9928 19.7544C26.9928 19.0875 26.4142 18.5469 25.7005 18.5469C24.9868 18.5469 24.4082 19.0875 24.4082 19.7544C24.4082 20.4213 24.9868 20.962 25.7005 20.962Z" stroke="#8E97A7" stroke-miterlimit="10"/>
<path d="M6.87109 16.5641H22.8864V7.59375H26.4864L28.8863 10.9576V16.5641H22.8864" stroke="#8E97A7" stroke-miterlimit="10" stroke-linecap="round" stroke-linejoin="round"/>
<path d="M24.501 8.96289V10.688H26.5779L25.5625 8.96289H24.501Z" stroke="#8E97A7" stroke-miterlimit="10" stroke-linecap="round" stroke-linejoin="round"/>
</svg>
