<svg width="33" height="25" viewBox="0 0 33 25" fill="none" xmlns="http://www.w3.org/2000/svg">
<path d="M26.7232 20.9629H6.5127V9.57306L16.618 4.96289L26.7232 9.57306V20.9629Z" stroke="#8E97A7"/>
<path d="M9.6709 20.9619V12.1992C9.6709 11.6469 10.1186 11.1992 10.6709 11.1992H22.5656C23.1179 11.1992 23.5656 11.6469 23.5656 12.1992V20.9619" stroke="#8E97A7"/>
<path d="M28.4122 10.8422C28.6639 10.956 28.9601 10.8442 29.0738 10.5926C29.1875 10.3409 29.0757 10.0447 28.8241 9.931L28.4122 10.8422ZM16.6182 4.96289L16.8241 4.50727L16.6182 4.41419L16.4122 4.50727L16.6182 4.96289ZM4.41223 9.931C4.1606 10.0447 4.04881 10.3409 4.16254 10.5926C4.27627 10.8442 4.57246 10.956 4.8241 10.8422L4.41223 9.931ZM28.8241 9.931L16.8241 4.50727L16.4122 5.41851L28.4122 10.8422L28.8241 9.931ZM16.4122 4.50727L4.41223 9.931L4.8241 10.8422L16.8241 5.41851L16.4122 4.50727Z" fill="#8E97A7"/>
<path d="M12.8281 20.9626V17.166H16.6176V20.9626" stroke="#8E97A7" stroke-linecap="round" stroke-linejoin="round"/>
<path d="M14.7227 17.166V18.2508" stroke="#8E97A7" stroke-linecap="round"/>
<path d="M16.6182 20.9626V17.166H20.4076V20.9626" stroke="#8E97A7" stroke-linecap="round" stroke-linejoin="round"/>
<path d="M18.5127 17.166V18.2508" stroke="#8E97A7" stroke-linecap="round"/>
<path d="M14.7236 17.1658V13.3691H18.5131V17.1658" stroke="#8E97A7" stroke-linecap="round" stroke-linejoin="round"/>
<path d="M16.6182 13.3691V14.4539" stroke="#8E97A7" stroke-linecap="round"/>
</svg>
