<?xml version="1.0" encoding="utf-8"?>
<!-- Generator: Adobe Illustrator 21.0.0, SVG Export Plug-In . SVG Version: 6.00 Build 0)  -->
<svg version="1.1" id="图层_1" xmlns="http://www.w3.org/2000/svg" xmlns:xlink="http://www.w3.org/1999/xlink" x="0px" y="0px"
	 viewBox="0 0 25.8 25.8" style="enable-background:new 0 0 25.8 25.8;" xml:space="preserve">
<style type="text/css">
	.st0{clip-path:url(#SVGID_2_);}
	.st1{fill:#D5E9FA;}
	.st2{fill:none;stroke:#2C3C59;stroke-width:0.8056;stroke-linecap:round;stroke-linejoin:round;stroke-miterlimit:10;}
	.st3{fill:#2C3C59;}
</style>
<g>
	<defs>
		<rect id="SVGID_1_" width="25.8" height="25.8"/>
	</defs>
	<clipPath id="SVGID_2_">
		<use xlink:href="#SVGID_1_"  style="overflow:visible;"/>
	</clipPath>
	<g class="st0">
		<path class="st1" d="M2.9,14.4v7l4.7,1.9l5.1-2.3v-6.3l-5.1-2.2L2.9,14.4z"/>
		<path class="st2" d="M1.6,13.5v6.2L7.5,22l5.4-2.3v-6.2l-5.4-2.3L1.6,13.5z"/>
		<path class="st2" d="M10.2,12.3l-5.8,2.3v2.3"/>
		<path class="st2" d="M7.5,22v-6.2l5.4-2.3l-5.4,2.3l-5.8-2.3"/>
		<path class="st1" d="M22.9,14.4v7l-4.7,1.9L13.1,21v-6.3l5.1-2.2L22.9,14.4z"/>
		<path class="st2" d="M24.1,13.5v6.2L18.3,22l-5.4-2.3v-6.2l5.4-2.3L24.1,13.5z"/>
		<path class="st2" d="M15.6,12.3l5.8,2.3v2.3"/>
		<path class="st2" d="M18.3,22v-6.2l-5.4-2.3l5.4,2.3l5.8-2.3"/>
		<path class="st1" d="M17.4,5.8v5.8l-4.7,1.9l-5.1-2.3V6l5.1-2.2L17.4,5.8z"/>
		<path class="st2" d="M18.7,4.8V11l-5.8,2.3L7.4,11V4.8l5.4-2.3L18.7,4.8z"/>
		<path class="st2" d="M10.1,3.7L16,6v2.3"/>
		<path class="st2" d="M12.9,13.3V7.1L7.4,4.8l5.4,2.3l5.8-2.3"/>
		<path class="st3" d="M0,4.3c0-0.2,0-0.9,0-1.1c0.2,1.7,2,3.2,4.1,3.2V5.5l1.7,1.8L4.1,9.1V8.2C1.8,8.1,0,6.6,0,4.3z"/>
	</g>
</g>
</svg>
