<?xml version="1.0" encoding="utf-8"?>
<!-- Generator: Adobe Illustrator 21.0.0, SVG Export Plug-In . SVG Version: 6.00 Build 0)  -->
<svg version="1.1" id="图层_1" xmlns="http://www.w3.org/2000/svg" xmlns:xlink="http://www.w3.org/1999/xlink" x="0px" y="0px"
	 viewBox="0 0 22.9 17.7" style="enable-background:new 0 0 22.9 17.7;" xml:space="preserve">
<style type="text/css">
	.st0{fill:#D5E9FA;}
	.st1{fill:#2C3C59;}
	.st2{fill:none;stroke:#2C3C59;stroke-width:0.8056;}
</style>
<path class="st0" d="M12.3,12.4c1.3,0,2.4-1.1,2.4-2.4c0-1.3-1.1-2.4-2.4-2.4S10,8.8,10,10.1C10,11.4,11,12.4,12.3,12.4z"/>
<path class="st0" d="M8.2,17.4c0,0,0.9-3.7,4-3.7c3.1,0,3.8,3.7,3.8,3.7H8.2z"/>
<path class="st1" d="M6.5,16.5c-0.1,0.2,0,0.4,0.3,0.5c0.2,0.1,0.4,0,0.5-0.3L6.5,16.5z M15.6,16.7c0,0.2,0.3,0.4,0.5,0.3
	c0.2,0,0.4-0.3,0.3-0.5L15.6,16.7z M13.6,9.6c0,1.2-0.9,2.1-2.1,2.1v0.8c1.6,0,2.9-1.3,2.9-2.9H13.6z M11.5,11.7
	c-1.2,0-2.1-0.9-2.1-2.1H8.6c0,1.6,1.3,2.9,2.9,2.9V11.7z M9.4,9.6c0-1.2,0.9-2.1,2.1-2.1V6.7C9.9,6.7,8.6,8,8.6,9.6H9.4z M11.5,7.5
	c1.2,0,2.1,0.9,2.1,2.1h0.8c0-1.6-1.3-2.9-2.9-2.9V7.5z M6.9,16.6c0.4,0.1,0.4,0.1,0.4,0.1v0l0,0l0,0c0,0,0,0,0,0c0,0,0,0,0,0
	c0,0,0-0.1,0-0.1c0-0.1,0.1-0.2,0.2-0.3c0.1-0.3,0.4-0.7,0.7-1c0.7-0.7,1.7-1.5,3.4-1.5V13c-2,0-3.2,0.9-4,1.8
	c-0.4,0.4-0.7,0.9-0.8,1.2c-0.1,0.2-0.1,0.3-0.2,0.4c0,0,0,0.1,0,0.1c0,0,0,0,0,0c0,0,0,0,0,0c0,0,0,0,0,0c0,0,0,0,0,0l0,0
	C6.5,16.5,6.5,16.5,6.9,16.6z M11.6,13.8c1.7,0,2.7,0.7,3.2,1.5c0.3,0.4,0.5,0.7,0.6,1c0.1,0.1,0.1,0.3,0.1,0.3c0,0,0,0.1,0,0.1
	c0,0,0,0,0,0c0,0,0,0,0,0l0,0c0,0,0,0,0,0l0,0c0,0,0,0,0.4-0.1c0.4-0.1,0.4-0.1,0.4-0.1l0,0c0,0,0,0,0,0c0,0,0,0,0,0c0,0,0,0,0,0
	c0,0,0,0,0,0c0,0,0-0.1,0-0.1c0-0.1-0.1-0.2-0.1-0.4c-0.1-0.3-0.4-0.8-0.7-1.2c-0.7-0.9-1.9-1.8-3.9-1.8V13.8z"/>
<path class="st2" d="M2.2,17.4c-1.1-1.7-1.8-3.8-1.8-6c0-6.1,4.9-11,11-11c6.1,0,11,4.9,11,11c0,2.2-0.7,4.3-1.8,6"/>
<path class="st2" d="M4.3,15.9c-0.9-1.3-1.4-2.9-1.4-4.6c0-4.7,3.8-8.5,8.5-8.5c4.7,0,8.5,3.8,8.5,8.5c0,1.7-0.5,3.3-1.4,4.6"/>
</svg>
