<?xml version="1.0" encoding="utf-8"?>
<!-- Generator: Adobe Illustrator 21.0.0, SVG Export Plug-In . SVG Version: 6.00 Build 0)  -->
<svg version="1.1" id="图层_1" xmlns="http://www.w3.org/2000/svg" xmlns:xlink="http://www.w3.org/1999/xlink" x="0px" y="0px"
	 viewBox="0 0 276.4 151" style="enable-background:new 0 0 276.4 151;" xml:space="preserve">
<style type="text/css">
	.st0{clip-path:url(#SVGID_2_);}
	.st1{fill:#FFEED2;}
	.st2{fill:#ECAC72;}
	.st3{fill:#CD9467;}
	.st4{fill:#AD7850;}
	.st5{opacity:0.25;fill:#773918;enable-background:new    ;}
	.st6{opacity:0.26;fill:#502D16;enable-background:new    ;}
	.st7{fill:#FFE1AA;}
	.st8{fill:#604B43;}
	.st9{fill:none;stroke:#604B43;stroke-width:0.2143;stroke-miterlimit:10;}
</style>
<g>
	<defs>
		<rect id="SVGID_1_" width="276.4" height="151"/>
	</defs>
	<clipPath id="SVGID_2_">
		<use xlink:href="#SVGID_1_"  style="overflow:visible;"/>
	</clipPath>
	<g class="st0">
		<path class="st1" d="M276.4,111.2c-82.1,0-163.8,0-245.9,0c-1.5,1.5-3,3-4.4,4.4c82.1,0,164.3,0,246.4,0
			C274,114.1,275.4,112.6,276.4,111.2z"/>
		<path class="st2" d="M272.5,115.6v2l3.9-4.4v-2L272.5,115.6z"/>
		<path class="st2" d="M273,115.6H26.6v2.5H273V115.6z"/>
		<path class="st3" d="M33.4,105.3H28v9.8h5.4V105.3z"/>
		<path class="st1" d="M276.4,100.8c-82.1,0-163.8,0-245.9,0c-1.5,1.5-3,3-4.4,4.4c82.1,0,164.3,0,246.4,0
			C274,103.8,275.4,102.3,276.4,100.8z"/>
		<path class="st2" d="M272.5,105.3v2.5l3.9-4.4v-2.5L272.5,105.3z"/>
		<path class="st2" d="M273,105.3H26.6v2.5H273V105.3z"/>
		<path class="st4" d="M33.4,115.6l4.4-4.4v-3.4h-4.4V115.6z"/>
		<path class="st3" d="M143.6,107.7h-7.9v7.9h7.9V107.7z"/>
		<path class="st3" d="M267.1,107.7h-7.9v7.9h7.9V107.7z"/>
		<path class="st4" d="M143.6,115.6c1-1.5,2-3,2.9-4.4c0-1,0-2.5,0-3.4c-1,0-2,0-2.9,0V115.6z"/>
		<path class="st4" d="M267.1,115.6l4.4-4.4v-3.4h-4.4V115.6z"/>
		<path class="st1" d="M269.5,119.5c-82.1,0-163.8,0-245.9,0c-1.5,1.5-3,3-4.4,4.4c82.1,0,164.3,0,246.4,0
			C266.6,122.5,268.1,121,269.5,119.5z"/>
		<path class="st2" d="M265.1,123.9v2l4.4-4.4v-2L265.1,123.9z"/>
		<path class="st2" d="M265.6,123.9H19.2v2.5h246.4V123.9z"/>
		<path class="st3" d="M26.6,113.6h-5.4v9.8h5.4V113.6z"/>
		<path class="st1" d="M269.5,109.2c-82.1,0-163.8,0-245.9,0c-1.5,1.5-3,3-4.4,4.4c82.1,0,164.3,0,246.4,0
			C266.6,112.1,268.1,110.7,269.5,109.2z"/>
		<path class="st2" d="M265.1,113.6v2.5l4.4-4.4v-2.5L265.1,113.6z"/>
		<path class="st2" d="M265.6,113.6H19.2v2.5h246.4V113.6z"/>
		<path class="st4" d="M26.6,123.9l4.4-4.4v-3.4h-4.4V123.9z"/>
		<path class="st3" d="M136.3,116.1h-7.9v7.9h7.9V116.1z"/>
		<path class="st3" d="M260.2,116.1h-7.9v7.9h7.9V116.1z"/>
		<path class="st4" d="M136.2,123.9c1-1.5,2-3,3-4.4c0-1,0-2.5,0-3.4c-1,0-2,0-3,0V123.9z"/>
		<path class="st4" d="M260.2,123.9l3.9-4.4v-3.4h-3.9V123.9z"/>
		<path class="st1" d="M262.2,127.9c-82.1,0-163.8,0-245.9,0c-1.5,1.5-3,3-4.4,4.4c82.1,0,164.3,0,246.4,0
			C259.7,130.8,261.2,129.4,262.2,127.9z"/>
		<path class="st2" d="M258.2,132.3v2l3.9-4.4v-2L258.2,132.3z"/>
		<path class="st2" d="M258.7,132.3H12.3v2.5h246.4V132.3z"/>
		<path class="st3" d="M19.2,122h-5.4v9.8h5.4V122z"/>
		<path class="st1" d="M262.2,117.6c-82.1,0-163.8,0-245.9,0c-1.5,1.5-3,3-4.4,4.4c82.1,0,164.3,0,246.4,0
			C259.7,120.5,261.2,119,262.2,117.6z"/>
		<path class="st2" d="M258.2,122v2.5l3.9-4.4v-2.5L258.2,122z"/>
		<path class="st2" d="M258.7,122H12.3v2.5h246.4V122z"/>
		<path class="st4" d="M19.2,132.3l4.4-4.4v-3.4h-4.4V132.3z"/>
		<path class="st3" d="M129.4,124.4h-7.9v7.9h7.9V124.4z"/>
		<path class="st3" d="M252.8,124.4h-7.9v7.9h7.9V124.4z"/>
		<path class="st4" d="M129.4,132.3c1-1.5,2-3,3-4.4c0-1,0-2.5,0-3.4c-1,0-2,0-3,0V132.3z"/>
		<path class="st4" d="M252.8,132.3l4.4-4.4v-3.4h-4.4V132.3z"/>
		<path class="st1" d="M256.3,136.2c-82.1,0-163.8,0-245.9,0c-1.5,1.5-3,3-4.4,4.4c82.1,0,164.3,0,246.4,0
			C253.3,139.2,254.8,137.7,256.3,136.2z"/>
		<path class="st2" d="M251.8,140.7v2l4.4-4.4v-2L251.8,140.7z"/>
		<path class="st2" d="M252.3,140.7H5.9v2.5h246.4V140.7z"/>
		<path class="st3" d="M12.8,130.3H7.4v9.8h5.4V130.3z"/>
		<path class="st1" d="M256.3,125.9c-82.1,0-163.8,0-245.9,0c-1.5,1.5-3,3-4.4,4.4c82.1,0,164.3,0,246.4,0
			C253.3,128.9,254.8,127.4,256.3,125.9z"/>
		<path class="st2" d="M251.8,130.3v2.5l4.4-4.4v-2.5L251.8,130.3z"/>
		<path class="st2" d="M252.3,130.3H5.9v2.5h246.4V130.3z"/>
		<path class="st4" d="M12.8,140.7l4.4-4.4v-3.4h-4.4V140.7z"/>
		<path class="st3" d="M123,132.8h-7.9v7.9h7.9V132.8z"/>
		<path class="st3" d="M246.4,132.8h-7.9v7.9h7.9V132.8z"/>
		<path class="st4" d="M123,140.7c1-1.5,2-3,3-4.4c0-1,0-2.5,0-3.4c-1,0-2,0-3,0V140.7z"/>
		<path class="st4" d="M246.4,140.7l4.4-4.4v-3.4h-4.4V140.7z"/>
		<path class="st1" d="M250.4,144.6c-82.2,0-163.8,0-245.9,0c-1.5,1.5-3,3-4.4,4.4c82.1,0,164.3,0,246.4,0
			C247.4,147.6,248.9,146.1,250.4,144.6z"/>
		<path class="st2" d="M246.4,149v2l3.9-4.4v-2L246.4,149z"/>
		<path class="st2" d="M246.4,149H0v2.5h246.4V149z"/>
		<path class="st3" d="M7.4,138.7H2v9.8h5.4V138.7z"/>
		<path class="st1" d="M250.4,134.3c-82.2,0-163.8,0-245.9,0c-1.5,1.5-3,3-4.4,4.4c82.1,0,164.3,0,246.4,0
			C247.4,137.2,248.9,135.8,250.4,134.3z"/>
		<path class="st2" d="M246.4,138.7v2.5l3.9-4.4v-2.5L246.4,138.7z"/>
		<path class="st2" d="M246.4,138.7H0v2.5h246.4V138.7z"/>
		<path class="st4" d="M7.4,149l4.4-4.4v-3.4H7.4V149z"/>
		<path class="st3" d="M117.1,141.2h-7.9v7.9h7.9V141.2z"/>
		<path class="st3" d="M241,141.2h-7.9v7.9h7.9V141.2z"/>
		<path class="st4" d="M117.1,149c1-1.5,2-3,2.9-4.4c0-1,0-2.5,0-3.4c-1,0-2,0-2.9,0V149z"/>
		<path class="st4" d="M241,149l3.9-4.4v-3.4H241V149z"/>
		<path class="st5" d="M249.9,130.3c-74.3,0.5-148.5,1-222.8,1c4.4-9.3,8.9-18.7,13.8-28.5c77.2,0,154.9,0,232.2,0
			C265.1,112.1,257.2,121.5,249.9,130.3z"/>
		<path class="st6" d="M27.1,131.8v2.5h221.3v-1.5h1l0.5-2.5L27.1,131.8z"/>
		<path class="st7" d="M255.8,63.9h-54.1V118h54.1V63.9z"/>
		<path class="st2" d="M255.3,118c3-3.9,5.9-7.4,8.9-11.3c0-17.2,0-34.9,0-52.1c-2.9,3.4-5.9,6.4-8.9,9.8V118z"/>
		<path class="st1" d="M264.1,54.6c-16.2,0.5-33,1-49.2,1.5c-4.4,3-8.8,5.4-13.3,8.4h54.1C258.2,61,261.2,57.5,264.1,54.6z"/>
		<path class="st8" d="M246.4,106.2v2v1c0,1,0.5,1.5,1.5,1.5v3h-1v0.5h2.5v-0.5h-1v-3c1,0,1.5-0.5,1.5-1.5v-1v-2H246.4z"/>
		<path class="st9" d="M251.8,105.7h-7.4v8.9h7.4V105.7z"/>
		<path class="st9" d="M242,105.7h-7.4v8.9h7.4V105.7z"/>
		<path class="st8" d="M237.1,107.7h-0.5v5.9h0.5V107.7z"/>
		<path class="st8" d="M236.1,107.7l1-1.5l1,1.5"/>
		<path class="st8" d="M239.5,107.7H239v5.9h0.5V107.7z"/>
		<path class="st8" d="M238.6,107.7l1-1.5l1,1.5"/>
		<path class="st8" d="M240.5,114.1h-4.4v0.5h4.4V114.1z"/>
		<path class="st7" d="M90.5,8.4H36.4v54.1h54.1V8.4z"/>
		<path class="st2" d="M90.5,62.5c3.4-3.4,6.9-6.4,10.3-9.8c0-17.7,0.5-34.9,0.5-52.6c-3.4,3-6.9,5.4-10.8,8.4V62.5z"/>
		<path class="st1" d="M101.3,0C84.1,0,67.4,0,50.2,0c-4.4,3-8.9,5.4-13.8,8.4h54.1C93.9,5.4,97.4,3,101.3,0z"/>
		<path class="st8" d="M81.6,50.2v2v1c0,1,0.5,1.5,1.5,1.5v3h-1V58h2.5v-0.5h-1v-3c1,0,1.5-0.5,1.5-1.5v-1v-2H81.6z"/>
		<path class="st9" d="M87.1,50.2h-7.4V59h7.4V50.2z"/>
		<path class="st9" d="M77.2,50.2h-7.4V59h7.4V50.2z"/>
		<path class="st8" d="M72.3,51.6h-0.5v5.9h0.5V51.6z"/>
		<path class="st8" d="M71.3,51.6l1-1l1,1"/>
		<path class="st8" d="M74.8,51.6h-0.5v5.9h0.5V51.6z"/>
		<path class="st8" d="M73.8,51.6l1-1l1,1"/>
		<path class="st8" d="M75.7,58h-4.4v0.5h4.4V58z"/>
		<path class="st7" d="M143.1,62.5c-17.2-0.5-33.9-0.5-51.2-1c0-17.7,0-35.4-0.5-53.1c17.2,0,34.4,0,51.6,0V62.5z"/>
		<path class="st2" d="M143.1,62.5l8.8-9.3V0l-8.8,8.4V62.5z"/>
		<path class="st1" d="M152,0c-16.7,0-32.9,0-49.7,0C98.4,3,94.9,5.9,91,8.4c17.2,0,34.4,0,51.6,0L152,0z"/>
		<path class="st8" d="M134.3,50.2v2v1c0,1,0.5,1.5,1.5,1.5v3h-1V58h2.5v-0.5h-1v-3c1,0,1.5-0.5,1.5-1.5v-1v-2H134.3z"/>
		<path class="st9" d="M139.7,50.2h-7.4V59h7.4V50.2z"/>
		<path class="st9" d="M129.8,50.2h-7.4V59h7.4V50.2z"/>
		<path class="st8" d="M124.9,51.6h-0.5v5.9h0.5V51.6z"/>
		<path class="st8" d="M124,51.6l1-1l0.5,1"/>
		<path class="st8" d="M127.4,51.6h-0.5v5.9h0.5V51.6z"/>
		<path class="st8" d="M126.4,51.6l1-1l1,1"/>
		<path class="st8" d="M128.4,58H124v0.5h4.4V58z"/>
		<path class="st7" d="M197.7,8.4h-54.1v54.1h54.1V8.4z"/>
		<path class="st2" d="M197.7,62.5l8.8-9.3V0l-8.8,8.4V62.5z"/>
		<path class="st1" d="M206.6,0c-17.2,0-34.4,0-52.1,0c-3.4,3-7.4,5.4-10.8,8.4h54.1L206.6,0z"/>
		<path class="st8" d="M188.9,50.2v2v1c0,1,0.5,1.5,1.5,1.5v3h-1V58h2.5v-0.5h-1v-3c1,0,1.5-0.5,1.5-1.5v-1v-2H188.9z"/>
		<path class="st9" d="M194.3,50.2h-7.4V59h7.4V50.2z"/>
		<path class="st9" d="M184.4,50.2h-7.4V59h7.4V50.2z"/>
		<path class="st8" d="M179.5,51.6H179v5.9h0.5V51.6z"/>
		<path class="st8" d="M178.5,51.6l0.5-1l1,1"/>
		<path class="st8" d="M182,51.6h-0.5v5.9h0.5V51.6z"/>
		<path class="st8" d="M181,51.6l1-1l1,1"/>
		<path class="st8" d="M183,58h-4.4v0.5h4.4V58z"/>
		<path class="st7" d="M255.3,8.4h-54.1v54.1h54.1V8.4z"/>
		<path class="st2" d="M254.8,62.5l9.3-9.3V0l-9.3,8.4V62.5z"/>
		<path class="st1" d="M264.1,0c-18.2,0-35.9,0.5-54.1,0.5c-3,2.5-5.9,5.4-8.9,7.9h54.1L264.1,0z"/>
		<path class="st8" d="M246.4,50.2v2v1c0,1,0.5,1.5,1.5,1.5v3h-1V58h2.4v-0.5h-1v-3c1,0,1.5-0.5,1.5-1.5v-1v-2H246.4z"/>
		<path class="st9" d="M251.3,50.2H244V59h7.4V50.2z"/>
		<path class="st9" d="M241.5,50.2h-7.4V59h7.4V50.2z"/>
		<path class="st8" d="M236.6,51.6h-0.5v5.9h0.5V51.6z"/>
		<path class="st8" d="M235.6,51.6l1-1l1,1"/>
		<path class="st8" d="M239.5,51.6H239v5.9h0.5V51.6z"/>
		<path class="st8" d="M238.1,51.6l1-1l1,1"/>
		<path class="st8" d="M240,58h-4.4v0.5h4.4V58z"/>
		<path class="st7" d="M77.2,74.8H23.1v54.1h54.1V74.8z"/>
		<path class="st2" d="M76.7,128.4l9.3-8.9V66.4l-9.3,8.4V128.4z"/>
		<path class="st1" d="M86.1,66.4c-16.7,0-33,0-49.7,0c-4.4,3-8.9,5.4-13.3,8.4h54.1L86.1,66.4z"/>
		<path class="st8" d="M67.9,116.6v2v1c0,1,0.5,1.5,1.5,1.5v3h-0.5v0.5h2.5v-0.5h-1v-3c1,0,1.5-0.5,1.5-1.5v-1v-2H67.9z"/>
		<path class="st9" d="M73.3,116.6h-7.4v8.9h7.4V116.6z"/>
		<path class="st9" d="M63.5,116.6h-7.4v8.9h7.4V116.6z"/>
		<path class="st8" d="M58.5,118H58v5.9h0.5V118z"/>
		<path class="st8" d="M57.5,118l1-1l1,1"/>
		<path class="st8" d="M61.5,118H61v5.9h0.5V118z"/>
		<path class="st8" d="M60,118l1-1l1,1"/>
		<path class="st8" d="M62,124.4h-4.4v0.5H62V124.4z"/>
		<path class="st7" d="M77.2,18.7H23.1v54.1h54.1V18.7z"/>
		<path class="st2" d="M76.7,72.8c4.4-3.9,8.4-7.9,12.8-11.8c0-16.7-0.5-33.4-0.5-50.2c-3.9,3-7.9,5.4-11.8,8.4v53.6H76.7z"/>
		<path class="st1" d="M88.5,10.8c-17.2,0-34.9,0-52.1,0c-4.4,2.5-8.9,4.9-13.3,7.9h54.1C80.7,16.2,84.6,13.3,88.5,10.8z"/>
		<path class="st8" d="M67.9,60.5v2v1.5c0,1,0.5,1.5,1.5,1.5v3.4h-0.5h2.5h-1v-3c1,0,1.5-0.5,1.5-1.5v-1v-2h-3.9V60.5z"/>
		<path class="st9" d="M73.3,60.5h-7.4v8.9h7.4V60.5z"/>
		<path class="st9" d="M63.5,60.5h-7.4v8.9h7.4V60.5z"/>
		<path class="st8" d="M58.5,62H58v5.9h0.5V62z"/>
		<path class="st8" d="M57.5,62l1-1l1,1"/>
		<path class="st8" d="M61.5,62H61v5.9h0.5V62z"/>
		<path class="st8" d="M60,62l1-1l1,1"/>
		<path class="st8" d="M62,68.4h-4.4v0.5H62V68.4z"/>
		<path class="st7" d="M132.8,74.8H78.7v54.1h54.1V74.8z"/>
		<path class="st2" d="M132.8,128.4l8.9-8.9V66.4l-8.9,8.4V128.4z"/>
		<path class="st1" d="M141.7,66.4c-16.7,0-33,0-49.7,0c-4.4,3-8.9,5.4-13.3,8.4h54.1L141.7,66.4z"/>
		<path class="st8" d="M124,116.6v2v1c0,1,0.5,1.5,1.5,1.5v3h-1v0.5h2.5v-0.5h-1v-3c1,0,1.5-0.5,1.5-1.5v-1v-2H124z"/>
		<path class="st9" d="M129.4,116.6H122v8.9h7.4V116.6z"/>
		<path class="st9" d="M119,116.6h-7.4v8.9h7.4V116.6z"/>
		<path class="st8" d="M114.6,118h-0.5v5.9h0.5V118z"/>
		<path class="st8" d="M113.1,118l1-1l1,1"/>
		<path class="st8" d="M117.1,118h-0.5v5.9h0.5V118z"/>
		<path class="st8" d="M116.1,118l0.5-1l1,1"/>
		<path class="st8" d="M117.6,124.4h-4.4v0.5h4.4V124.4z"/>
		<path class="st7" d="M132.8,18.7H78.7v54.1h54.1V18.7z"/>
		<path class="st2" d="M132.8,72.8l8.9-9.3V10.3l-8.9,8.4V72.8z"/>
		<path class="st1" d="M141.7,10.3c-16.7,0-33,0-49.7,0c-4.4,3-8.9,5.4-13.3,8.4h54.1L141.7,10.3z"/>
		<path class="st8" d="M124,60.5v2v1.5c0,1,0.5,1.5,1.5,1.5v3.4h-1h2.5h-1v-3c1,0,1.5-0.5,1.5-1.5v-1v-2H124V60.5z"/>
		<path class="st9" d="M129.4,60.5H122v8.9h7.4V60.5z"/>
		<path class="st9" d="M119,60.5h-7.4v8.9h7.4V60.5z"/>
		<path class="st8" d="M114.6,62h-0.5v5.9h0.5V62z"/>
		<path class="st8" d="M113.1,62l1-1l1,1"/>
		<path class="st8" d="M117.1,62h-0.5v5.9h0.5V62z"/>
		<path class="st8" d="M116.1,62l0.5-1l1,1"/>
		<path class="st8" d="M117.6,68.4h-4.4v0.5h4.4V68.4z"/>
		<path class="st7" d="M189.4,74.8h-54.1v54.1h54.1V74.8z"/>
		<path class="st2" d="M188.9,128.4l9.3-8.9V66.4l-9.3,8.4V128.4z"/>
		<path class="st1" d="M198.2,66.4c-16.7,0-33,0-49.7,0c-4.4,3-8.9,5.4-13.3,8.4h54.1L198.2,66.4z"/>
		<path class="st8" d="M180.5,116.6v2v1c0,1,0.5,1.5,1.5,1.5v3h-1v0.5h2.4v-0.5H182v-3c1,0,1.5-0.5,1.5-1.5v-1v-2H180.5z"/>
		<path class="st9" d="M185.4,116.6h-7.4v8.9h7.4V116.6z"/>
		<path class="st9" d="M175.6,116.6h-7.4v8.9h7.4V116.6z"/>
		<path class="st8" d="M170.7,118h-0.5v5.9h0.5V118z"/>
		<path class="st8" d="M169.7,118l1-1l1,1"/>
		<path class="st8" d="M173.6,118h-0.5v5.9h0.5V118z"/>
		<path class="st8" d="M172.2,118l1-1l1,1"/>
		<path class="st8" d="M174.1,124.4h-4.4v0.5h4.4V124.4z"/>
		<path class="st7" d="M189.4,18.7h-54.1v54.1h54.1V18.7z"/>
		<path class="st2" d="M188.9,72.8l9.3-9.3V10.3l-9.3,8.4V72.8z"/>
		<path class="st1" d="M198.2,10.3c-18.2,0.5-36.4,0.5-54.6,1c-3,2.5-5.9,4.9-8.8,7.4h54.1L198.2,10.3z"/>
		<path class="st8" d="M180.5,60.5v2v1.5c0,1,0.5,1.5,1.5,1.5v3.4h-1h2.5H182v-3c1,0,1.5-0.5,1.5-1.5v-1v-2h-2.9V60.5z"/>
		<path class="st9" d="M185.4,60.5h-7.4v8.9h7.4V60.5z"/>
		<path class="st9" d="M175.6,60.5h-7.4v8.9h7.4V60.5z"/>
		<path class="st8" d="M170.7,62h-0.5v5.9h0.5V62z"/>
		<path class="st8" d="M169.7,62l1-1l1,1"/>
		<path class="st8" d="M173.6,62h-0.5v5.9h0.5V62z"/>
		<path class="st8" d="M172.2,62l1-1l1,1"/>
		<path class="st8" d="M174.1,68.4h-4.4v0.5h4.4V68.4z"/>
		<path class="st7" d="M244.9,74.8h-54.1v54.1h54.1V74.8z"/>
		<path class="st2" d="M244.9,128.4c3-3.9,5.9-7.4,8.9-11.3c0-17.2,0-34.9,0-52.1c-3,3.4-5.9,6.4-8.9,9.8V128.4z"/>
		<path class="st1" d="M253.8,64.9c-16.2,0.5-33,1-49.2,1.5c-4.4,3-8.9,5.4-13.3,8.4h54.1C247.9,71.3,250.8,68.4,253.8,64.9z"/>
		<path class="st8" d="M236.1,116.6v2v1c0,1,0.5,1.5,1.5,1.5v3h-1v0.5h2.5v-0.5h-1v-3c1,0,1.5-0.5,1.5-1.5v-1v-2H236.1z"/>
		<path class="st9" d="M241.5,116.6h-7.4v8.9h7.4V116.6z"/>
		<path class="st9" d="M231.2,116.6h-7.4v8.9h7.4V116.6z"/>
		<path class="st8" d="M226.8,118h-0.5v5.9h0.5V118z"/>
		<path class="st8" d="M225.3,118l1-1l1,1"/>
		<path class="st8" d="M229.2,118h-0.5v5.9h0.5V118z"/>
		<path class="st8" d="M228.2,118l1-1l0.5,1"/>
		<path class="st8" d="M229.7,124.4h-4.4v0.5h4.4V124.4z"/>
		<path class="st7" d="M244.9,18.7h-54.1v54.1h54.1V18.7z"/>
		<path class="st2" d="M244.9,72.8l8.9-9.3V10.3l-8.9,8.4V72.8z"/>
		<path class="st1" d="M253.8,10.3c-17.7,0-35.9,0-53.6,0.5c-2.9,2.5-6.4,5.4-9.3,7.9h54.1L253.8,10.3z"/>
		<path class="st8" d="M236.1,60.5v2v1.5c0,1,0.5,1.5,1.5,1.5v3.4h-1h2.5h-1v-3c1,0,1.5-0.5,1.5-1.5v-1v-2h-3.5V60.5z"/>
		<path class="st9" d="M241.5,60.5h-7.4v8.9h7.4V60.5z"/>
		<path class="st9" d="M231.2,60.5h-7.4v8.9h7.4V60.5z"/>
		<path class="st8" d="M226.8,62h-0.5v5.9h0.5V62z"/>
		<path class="st8" d="M225.3,62l1-1l1,1"/>
		<path class="st8" d="M229.2,62h-0.5v5.9h0.5V62z"/>
		<path class="st8" d="M228.2,62l1-1l0.5,1"/>
		<path class="st8" d="M229.7,68.4h-4.4v0.5h4.4V68.4z"/>
	</g>
</g>
</svg>
