<?xml version="1.0" encoding="utf-8"?>
<!-- Generator: Adobe Illustrator 21.0.0, SVG Export Plug-In . SVG Version: 6.00 Build 0)  -->
<svg version="1.1" id="图层_1" xmlns="http://www.w3.org/2000/svg" xmlns:xlink="http://www.w3.org/1999/xlink" x="0px" y="0px"
	 viewBox="0 0 25.8 25.8" style="enable-background:new 0 0 25.8 25.8;" xml:space="preserve">
<style type="text/css">
	.st0{clip-path:url(#SVGID_2_);}
	.st1{fill:#D5E9FA;}
	.st2{fill:#2C3C59;}
	.st3{fill:none;stroke:#2C3C59;stroke-width:1.0742;}
</style>
<g>
	<defs>
		<rect id="SVGID_1_" width="25.8" height="25.8"/>
	</defs>
	<clipPath id="SVGID_2_">
		<use xlink:href="#SVGID_1_"  style="overflow:visible;"/>
	</clipPath>
	<g class="st0">
		<ellipse class="st1" cx="14" cy="12.9" rx="10.7" ry="11.7"/>
		<path class="st2" d="M11,13.5c0.3-0.3,0.8-0.8,1-1.1c0.6-0.6,1-1.1,1.6-1.7c0.2-0.1,0.3-0.1,0.5-0.1c0.1,0.1,0.1,0.1,0.2,0.1
			c0.2,0.1,0.2,0.3,0.1,0.5c-0.6,0.6-1,1.1-1.6,1.7c-0.5,0.5-1.6,1.7-1.6,1.7c-0.1,0.1-0.2,0.1-0.2,0c-0.5-0.4-0.8-0.7-1.4-1.1
			c-0.1-0.1-0.2-0.2-0.3-0.3c-0.1-0.1-0.1-0.1,0-0.2c0.2-0.1,0.3-0.3,0.3-0.3c0.2-0.1,0.3-0.1,0.5,0C10.4,12.9,10.7,13.3,11,13.5z"
			/>
		<path class="st2" d="M6.6,10l0.2,0.5l0,0L6.6,10z M17,10l-0.2,0.5L17,10z M6.3,10.5l0.5-0.2L6.3,10.5z M17.2,10.7l0.5,0.2
			L17.2,10.7z M17.3,10.6l-0.5-0.2L17.3,10.6z M11.4,7.2l0.3,0.4L11.4,7.2z M11,6.8c-1.4,1.1-2.8,2-4.6,2.7l0.4,1
			c1.9-0.7,3.4-1.6,4.9-2.8L11,6.8z M5.9,10.8c0.1,0.4,0.8,2.5,1.8,4.5c0.5,1,1.1,2,1.7,2.8c0.6,0.7,1.4,1.4,2.3,1.4l0-1.1
			c-0.4,0-0.9-0.3-1.5-1c-0.6-0.7-1.1-1.6-1.6-2.5c-1-1.9-1.6-4-1.8-4.3L5.9,10.8z M6.4,9.5c-0.5,0.2-0.8,0.8-0.6,1.3l1-0.4
			c0,0,0,0.1,0,0.1c0,0,0,0,0,0L6.4,9.5z M11.7,7.6c1.5,1.2,3.1,2.1,5.1,2.8l0.4-1c-1.8-0.7-3.4-1.5-4.8-2.7L11.7,7.6z M16.7,10.5
			c-0.1,0.4-0.9,2.4-1.9,4.3c-0.5,1-1.1,1.9-1.6,2.6c-0.6,0.7-1.1,1-1.5,1l0,1.1c0.9,0,1.7-0.6,2.3-1.4c0.7-0.8,1.3-1.8,1.8-2.8
			c1-2,1.8-4.1,1.9-4.4L16.7,10.5z M16.8,10.5C16.8,10.5,16.8,10.5,16.8,10.5c0-0.1,0-0.1,0-0.1l1,0.4c0.2-0.5-0.1-1.1-0.6-1.3
			L16.8,10.5z M6.9,10.5c0,0,0-0.1,0-0.1c0,0,0,0,0-0.1l-1,0.4c0,0,0,0,0,0c0,0,0,0,0,0c0,0,0,0,0,0L6.9,10.5z M17.7,10.8
			C17.7,10.8,17.7,10.8,17.7,10.8C17.7,10.8,17.7,10.8,17.7,10.8C17.8,10.8,17.8,10.8,17.7,10.8l-0.9-0.5c0,0,0,0,0,0
			c0,0,0,0.1,0,0.1L17.7,10.8z M11.7,7.6C11.7,7.6,11.7,7.6,11.7,7.6C11.7,7.6,11.7,7.6,11.7,7.6l0.7-0.8c-0.4-0.3-1-0.3-1.4,0
			L11.7,7.6z"/>
		<circle class="st3" cx="11.8" cy="12" r="10.8"/>
	</g>
</g>
</svg>
