<?xml version="1.0" encoding="utf-8"?>
<!-- Generator: Adobe Illustrator 21.0.0, SVG Export Plug-In . SVG Version: 6.00 Build 0)  -->
<svg version="1.1" id="图层_1" xmlns="http://www.w3.org/2000/svg" xmlns:xlink="http://www.w3.org/1999/xlink" x="0px" y="0px"
	 viewBox="0 0 23 16.1" style="enable-background:new 0 0 23 16.1;" xml:space="preserve">
<style type="text/css">
	.st0{fill:#D5E9FA;}
	.st1{fill:none;stroke:#2C3C59;stroke-width:0.8056;stroke-linecap:round;stroke-linejoin:round;stroke-miterlimit:10;}
	.st2{fill:none;stroke:#2C3C59;stroke-width:0.8056;stroke-miterlimit:10;}
</style>
<path class="st0" d="M14.7,2.7H1v7.7h13.7V2.7z"/>
<path class="st0" d="M18.6,5.2v6.9h4.8V6.7l-1.1-1.4H18.6z"/>
<path class="st1" d="M15.5,1.1H2.4v8.2h13.2V1.1z"/>
<path class="st2" d="M7.3,15c0.6,0,1.1-0.5,1.1-1c0-0.6-0.5-1-1.1-1s-1.1,0.5-1.1,1C6.2,14.6,6.7,15,7.3,15z"/>
<path class="st2" d="M20,15c0.6,0,1.1-0.5,1.1-1c0-0.6-0.5-1-1.1-1S19,13.5,19,14C19,14.6,19.4,15,20,15z"/>
<path class="st1" d="M2.4,11.3h15.1 M17.5,11.3V3.8h2.9l1.9,2.8v4.7H17.5z"/>
</svg>
