<?xml version="1.0" encoding="utf-8"?>
<!-- Generator: Adobe Illustrator 21.0.0, SVG Export Plug-In . SVG Version: 6.00 Build 0)  -->
<svg version="1.1" id="图层_1" xmlns="http://www.w3.org/2000/svg" xmlns:xlink="http://www.w3.org/1999/xlink" x="0px" y="0px"
	 viewBox="0 0 21.4 22.2" style="enable-background:new 0 0 21.4 22.2;" xml:space="preserve">
<style type="text/css">
	.st0{fill:#D5E9FA;}
	.st1{fill:none;stroke:#2C3C59;stroke-width:0.8056;}
	.st2{fill:#2C3C59;}
</style>
<path class="st0" d="M7.2,4.7l13.4,7.7c0.7,0.4,1,1.4,0.6,2.1l-4,6.9c-0.4,0.7-1.4,1-2.1,0.6L1.7,14.2c-0.7-0.4-1-1.4-0.6-2.1l4-6.9
	C5.5,4.5,6.5,4.3,7.2,4.7z"/>
<path class="st1" d="M6.7,2.8l13.4,7.7c0.7,0.4,1,1.4,0.6,2.1l-4,6.9c-0.4,0.7-1.4,1-2.1,0.6L1.2,12.3c-0.7-0.4-1-1.4-0.6-2.1l4-6.9
	C5,2.6,5.9,2.4,6.7,2.8z"/>
<rect x="10.3" y="0.8" transform="matrix(0.5 -0.866 0.866 0.5 -2.9821 14.9046)" class="st2" width="2.2" height="18.5"/>
<path class="st1" d="M3.4,8.9L8,11.5"/>
<path class="st2" d="M14.8,4.7l3.7-0.5l-4.6-1.8L14.8,4.7z"/>
<path class="st2" d="M16.3,2.3L20,1.8L15.3,0L16.3,2.3z"/>
</svg>
