<?xml version="1.0" encoding="utf-8"?>
<!-- Generator: Adobe Illustrator 21.0.0, SVG Export Plug-In . SVG Version: 6.00 Build 0)  -->
<svg version="1.1" id="图层_1" xmlns="http://www.w3.org/2000/svg" xmlns:xlink="http://www.w3.org/1999/xlink" x="0px" y="0px"
	 viewBox="0 0 23.9 23.1" style="enable-background:new 0 0 23.9 23.1;" xml:space="preserve">
<style type="text/css">
	.st0{fill:#D5E9FA;}
	.st1{fill:none;stroke:#2C3C59;stroke-width:1.0742;stroke-linecap:round;stroke-linejoin:round;stroke-miterlimit:10;}
	.st2{fill:#2C3C59;stroke:#2C3C59;stroke-width:0.3438;stroke-linejoin:round;}
</style>
<path class="st0" d="M13.2,23.1c5.9,0,10.7-4.6,10.7-10.4c0-5.7-4.8-10.4-10.7-10.4C7.3,2.4,2.5,7.1,2.5,12.8
	C2.5,18.5,7.3,23.1,13.2,23.1z"/>
<path class="st1" d="M11.2,21.2c5.9,0,10.7-4.6,10.7-10.4c0-5.7-4.8-10.4-10.7-10.4C5.3,0.5,0.5,5.2,0.5,10.9
	C0.5,16.6,5.3,21.2,11.2,21.2z"/>
<path class="st2" d="M10.3,11.2c-0.4-0.1-0.8-0.2-1.2-0.4c-0.4-0.2-0.7-0.4-1-0.6C7.9,10,7.6,9.7,7.4,9.4C7.3,9.1,7.2,8.7,7.2,8.2
	c0-0.4,0.1-0.8,0.3-1.2c0.2-0.3,0.4-0.6,0.7-0.9c0.3-0.2,0.6-0.4,1-0.6c0.4-0.1,0.8-0.2,1.2-0.3v-1h0.8v1c0.5,0,1.1,0.1,1.6,0.3
	c0.6,0.2,1,0.5,1.4,0.8l-1.1,0.9c-0.2-0.3-0.5-0.5-0.9-0.7c-0.4-0.1-0.7-0.2-1.1-0.2V10c0.4,0.1,0.8,0.3,1.2,0.4
	c0.4,0.2,0.7,0.4,1,0.6c0.3,0.2,0.6,0.5,0.7,0.9c0.2,0.3,0.3,0.8,0.3,1.2c0,0.5-0.1,0.9-0.3,1.2c-0.2,0.4-0.4,0.7-0.7,0.9
	c-0.3,0.3-0.6,0.5-1,0.6c-0.4,0.1-0.8,0.2-1.2,0.2v1.1h-0.8v-1.1c-0.7,0-1.3-0.2-1.9-0.4c-0.6-0.3-1.1-0.6-1.5-1.1L8,13.8
	c0.1,0.2,0.3,0.4,0.5,0.5c0.2,0.1,0.4,0.3,0.6,0.4c0.2,0.1,0.4,0.2,0.6,0.2c0.2,0,0.4,0.1,0.6,0.1V11.2z M11.1,15
	c0.2,0,0.4-0.1,0.7-0.1c0.2-0.1,0.4-0.2,0.5-0.3c0.2-0.1,0.3-0.3,0.4-0.5c0.1-0.2,0.2-0.5,0.2-0.8c0-0.5-0.2-0.8-0.5-1.1
	c-0.3-0.3-0.7-0.5-1.2-0.6V15z M10.3,6.5C9.9,6.5,9.5,6.7,9.1,7C8.8,7.3,8.7,7.6,8.7,8.1c0,0.5,0.2,0.8,0.5,1.1
	c0.3,0.2,0.7,0.4,1.2,0.6V6.5z"/>
</svg>
