<?xml version="1.0" encoding="utf-8"?>
<!-- Generator: Adobe Illustrator 21.0.0, SVG Export Plug-In . SVG Version: 6.00 Build 0)  -->
<svg version="1.1" id="图层_1" xmlns="http://www.w3.org/2000/svg" xmlns:xlink="http://www.w3.org/1999/xlink" x="0px" y="0px"
	 viewBox="0 0 25.8 25.8" style="enable-background:new 0 0 25.8 25.8;" xml:space="preserve">
<style type="text/css">
	.st0{clip-path:url(#SVGID_2_);}
	.st1{fill:#D5E9FA;}
	.st2{fill:none;stroke:#2C3C59;stroke-width:1.0742;stroke-linecap:round;stroke-linejoin:round;stroke-miterlimit:10;}
	.st3{fill:#2C3C59;stroke:#4C5263;stroke-width:0.1437;stroke-linejoin:round;}
</style>
<g>
	<defs>
		<rect id="SVGID_1_" width="25.8" height="25.8"/>
	</defs>
	<clipPath id="SVGID_2_">
		<use xlink:href="#SVGID_1_"  style="overflow:visible;"/>
	</clipPath>
	<g class="st0">
		<path class="st1" d="M2.2,24.9h5.6l1.4-1.4h5.8l9.6-9c0,0,0.8-1.2-0.2-1.8c-1-0.6-1.8,0.2-1.8,0.2l-5.2,4.8H6.6L2.2,24.9z"/>
		<path class="st2" d="M0.9,22.9c0,0,3.1-7.2,5-7.2c1.9,0,7.3,0,8.8,0c1.5,0,1.6,2.1,0.5,2.1c-1,0-4.7,0-4.7,0"/>
		<path class="st2" d="M17.8,15.5c0,0,2.8-2.5,4.3-3.8c1.5-1.3,3.5-0.8,2.4,0.8c-1.1,1.6-8.5,8.5-9.6,8.5c-1.1,0-6.7,0-6.7,0
			l-1.9,1.9"/>
		<path class="st1" d="M13.4,13.3c3,0,5.5-2.4,5.5-5.3c0-2.9-2.4-5.3-5.5-5.3S7.9,5.1,7.9,8.1C7.9,11,10.4,13.3,13.4,13.3z"/>
		<path class="st2" d="M12.4,12.1c3,0,5.5-2.4,5.5-5.3c0-2.9-2.4-5.3-5.5-5.3c-3,0-5.5,2.4-5.5,5.3C6.9,9.7,9.4,12.1,12.4,12.1z"/>
		<path class="st3" d="M12.2,7C12,7,11.8,6.9,11.6,6.8c-0.2-0.1-0.4-0.2-0.5-0.3c-0.1-0.1-0.3-0.3-0.3-0.4c-0.1-0.2-0.1-0.3-0.1-0.6
			c0-0.2,0-0.4,0.1-0.6c0.1-0.2,0.2-0.3,0.3-0.4c0.1-0.1,0.3-0.2,0.5-0.3c0.2-0.1,0.4-0.1,0.6-0.1V3.7h0.4v0.5
			c0.3,0,0.6,0.1,0.8,0.1c0.3,0.1,0.5,0.2,0.7,0.4l-0.5,0.5c-0.1-0.1-0.3-0.2-0.5-0.3c-0.2-0.1-0.4-0.1-0.6-0.1v1.7
			c0.2,0.1,0.4,0.1,0.6,0.2c0.2,0.1,0.4,0.2,0.5,0.3c0.2,0.1,0.3,0.3,0.4,0.4c0.1,0.2,0.1,0.4,0.1,0.6c0,0.2,0,0.4-0.1,0.6
			C14.1,8.7,14,8.9,13.8,9c-0.1,0.1-0.3,0.2-0.5,0.3c-0.2,0.1-0.4,0.1-0.6,0.1v0.5h-0.4V9.4c-0.4,0-0.7-0.1-1-0.2
			c-0.3-0.1-0.6-0.3-0.8-0.5l0.6-0.4c0.1,0.1,0.2,0.2,0.3,0.2c0.1,0.1,0.2,0.1,0.3,0.2c0.1,0,0.2,0.1,0.3,0.1c0.1,0,0.2,0,0.3,0V7z
			 M12.6,8.8c0.1,0,0.2,0,0.3-0.1c0.1,0,0.2-0.1,0.3-0.2c0.1-0.1,0.1-0.2,0.2-0.3c0.1-0.1,0.1-0.2,0.1-0.4c0-0.2-0.1-0.4-0.3-0.5
			c-0.2-0.1-0.4-0.2-0.6-0.3V8.8z M12.2,4.7c-0.2,0-0.4,0.1-0.6,0.2c-0.2,0.1-0.2,0.3-0.2,0.6c0,0.2,0.1,0.4,0.2,0.5
			c0.2,0.1,0.4,0.2,0.6,0.3V4.7z"/>
	</g>
</g>
</svg>
