<?xml version="1.0" encoding="utf-8"?>
<!-- Generator: Adobe Illustrator 21.0.0, SVG Export Plug-In . SVG Version: 6.00 Build 0)  -->
<svg version="1.1" id="图层_1" xmlns="http://www.w3.org/2000/svg" xmlns:xlink="http://www.w3.org/1999/xlink" x="0px" y="0px"
	 viewBox="0 0 18.8 24.1" style="enable-background:new 0 0 18.8 24.1;" xml:space="preserve">
<style type="text/css">
	.st0{fill:#2C3C59;}
	.st1{fill:none;stroke:#FFFFFF;stroke-width:0.5371;stroke-linecap:round;stroke-linejoin:round;stroke-miterlimit:10;}
	.st2{fill:#D5E9FA;}
	.st3{fill:none;stroke:#2C3C59;stroke-width:1.0742;stroke-linecap:round;stroke-linejoin:round;stroke-miterlimit:10;}
</style>
<path class="st0" d="M2.6,5.2c1.4,0,2.6-1.2,2.6-2.6C5.2,1.2,4.1,0,2.6,0S0,1.2,0,2.6C0,4.1,1.2,5.2,2.6,5.2z"/>
<path class="st1" d="M3.3,1.9L1.9,3.3"/>
<path class="st1" d="M3.3,3.3L1.9,1.9"/>
<path class="st2" d="M3,10.6v10.6l7.2,2.9l7.8-3.5v-9.6l-7.8-3.3L3,10.6z"/>
<path class="st3" d="M1.1,9.1v9.5l8.9,3.5l8.3-3.5V9.1L10,5.5L1.1,9.1z"/>
<path class="st3" d="M14.1,7.3l-8.9,3.5v3.5"/>
<path class="st3" d="M10,22.1v-9.5l8.3-3.5L10,12.6L1.1,9.1"/>
</svg>
