<?xml version="1.0" encoding="utf-8"?>
<!-- Generator: Adobe Illustrator 21.0.0, SVG Export Plug-In . SVG Version: 6.00 Build 0)  -->
<svg version="1.1" id="图层_1" xmlns="http://www.w3.org/2000/svg" xmlns:xlink="http://www.w3.org/1999/xlink" x="0px" y="0px"
	 viewBox="0 0 25.8 25.8" style="enable-background:new 0 0 25.8 25.8;" xml:space="preserve">
<style type="text/css">
	.st0{clip-path:url(#SVGID_2_);}
	.st1{fill:#D5E9FA;}
	.st2{fill:none;stroke:#2C3C59;stroke-width:0.5371;stroke-linecap:round;stroke-linejoin:round;stroke-miterlimit:10;}
	.st3{fill:#2C3C59;stroke:#2C3C59;stroke-width:0.1448;stroke-linejoin:round;}
	.st4{fill:#2C3C59;}
	.st5{fill:none;stroke:#2C3C59;stroke-width:0.8056;}
</style>
<g>
	<defs>
		<rect id="SVGID_1_" width="25.8" height="25.8"/>
	</defs>
	<clipPath id="SVGID_2_">
		<use xlink:href="#SVGID_1_"  style="overflow:visible;"/>
	</clipPath>
	<g class="st0">
		<path class="st1" d="M14.2,9.9c1.4,0,2.6-1.1,2.6-2.5c0-1.4-1.2-2.5-2.6-2.5S11.6,6,11.6,7.3C11.6,8.7,12.8,9.9,14.2,9.9z"/>
		<path class="st2" d="M13.8,9.3c1.4,0,2.6-1.1,2.6-2.5c0-1.4-1.2-2.5-2.6-2.5s-2.6,1.1-2.6,2.5C11.2,8.1,12.3,9.3,13.8,9.3z"/>
		<path class="st3" d="M13.7,6.8c-0.1,0-0.2-0.1-0.3-0.1c-0.1,0-0.2-0.1-0.2-0.1C13.1,6.6,13,6.5,13,6.4s-0.1-0.2-0.1-0.3
			c0-0.1,0-0.2,0.1-0.3c0-0.1,0.1-0.1,0.2-0.2c0.1-0.1,0.1-0.1,0.2-0.1c0.1,0,0.2-0.1,0.3-0.1V5.3h0.2v0.2c0.1,0,0.3,0,0.4,0.1
			c0.1,0,0.3,0.1,0.3,0.2L14.4,6c-0.1-0.1-0.1-0.1-0.2-0.1c-0.1,0-0.2-0.1-0.3-0.1v0.8c0.1,0,0.2,0.1,0.3,0.1c0.1,0,0.2,0.1,0.3,0.1
			c0.1,0.1,0.1,0.1,0.2,0.2c0,0.1,0.1,0.2,0.1,0.3c0,0.1,0,0.2-0.1,0.3c0,0.1-0.1,0.2-0.2,0.2c-0.1,0.1-0.2,0.1-0.2,0.1
			c-0.1,0-0.2,0-0.3,0v0.2h-0.2V8c-0.2,0-0.3,0-0.5-0.1c-0.1-0.1-0.3-0.1-0.4-0.2l0.3-0.2c0,0,0.1,0.1,0.1,0.1c0,0,0.1,0.1,0.1,0.1
			c0,0,0.1,0,0.2,0.1c0.1,0,0.1,0,0.1,0V6.8z M13.9,7.7c0.1,0,0.1,0,0.2,0s0.1,0,0.1-0.1c0,0,0.1-0.1,0.1-0.1c0-0.1,0-0.1,0-0.2
			c0-0.1,0-0.2-0.1-0.3C14.1,7,14,6.9,13.9,6.9V7.7z M13.7,5.8c-0.1,0-0.2,0-0.3,0.1c-0.1,0.1-0.1,0.2-0.1,0.3c0,0.1,0,0.2,0.1,0.3
			c0.1,0.1,0.2,0.1,0.3,0.1V5.8z"/>
		<path class="st4" d="M25.3,6H19c-0.2,0-0.4,0.2-0.4,0.4l0,0c0,0.2,0.2,0.4,0.4,0.4h6.3c0.2,0,0.4-0.2,0.4-0.4l0,0
			C25.8,6.2,25.6,6,25.3,6z"/>
		<path class="st4" d="M21.8,7.7h-3.5c-0.2,0-0.4,0.2-0.4,0.4l0,0c0,0.2,0.2,0.4,0.4,0.4h3.5c0.2,0,0.4-0.2,0.4-0.4l0,0
			C22.3,7.9,22.1,7.7,21.8,7.7z"/>
		<path class="st4" d="M19.6,4.2h-1.3c-0.2,0-0.4,0.2-0.4,0.4l0,0c0,0.2,0.2,0.4,0.4,0.4h1.3c0.2,0,0.4-0.2,0.4-0.4l0,0
			C20,4.4,19.8,4.2,19.6,4.2z"/>
		<path class="st4" d="M23.2,4.2H21c-0.2,0-0.4,0.2-0.4,0.4l0,0c0,0.2,0.2,0.4,0.4,0.4h2.2c0.2,0,0.4-0.2,0.4-0.4l0,0
			C23.6,4.4,23.4,4.2,23.2,4.2z"/>
		<path class="st1" d="M7.7,15.3c1.7,0,3.1-1.3,3.1-3c0,0-1.4,0-3.1,0c-1.7,0-3.1,0-3.1,0C4.7,14,6,15.3,7.7,15.3z"/>
		<path class="st1" d="M2.3,21.6c0,0,1.2-4.6,5.2-4.6c4,0,4.9,4.6,4.9,4.6H2.3z"/>
		<path class="st4" d="M10,11.7c0-0.2-0.2-0.4-0.4-0.4c-0.2,0-0.4,0.2-0.4,0.4H10z M3.7,11.7c0-0.2-0.2-0.4-0.4-0.4
			c-0.2,0-0.4,0.2-0.4,0.4H3.7z M0.3,20.4c-0.1,0.2,0,0.4,0.3,0.5C0.7,21,1,20.9,1,20.7L0.3,20.4z M11.7,20.6c0,0.2,0.3,0.4,0.5,0.3
			c0.2,0,0.4-0.3,0.3-0.5L11.7,20.6z M9.2,11.7c0,1.5-1.2,2.8-2.8,2.8v0.8c2,0,3.6-1.6,3.6-3.6H9.2z M6.5,14.5
			c-1.5,0-2.8-1.2-2.8-2.8H2.9c0,2,1.6,3.6,3.6,3.6V14.5z M0.6,20.6C1,20.7,1,20.7,1,20.7l0,0l0,0l0,0c0,0,0,0,0,0c0,0,0,0,0,0
			c0,0,0-0.1,0-0.1c0-0.1,0.1-0.3,0.2-0.4c0.2-0.4,0.5-0.8,0.9-1.3c0.9-1,2.2-1.9,4.4-1.9v-0.8c-2.4,0-4,1.1-5,2.2
			c-0.5,0.5-0.8,1.1-1,1.5c-0.1,0.2-0.2,0.4-0.2,0.5c0,0.1,0,0.1-0.1,0.1c0,0,0,0,0,0c0,0,0,0,0,0c0,0,0,0,0,0v0l0,0
			C0.3,20.4,0.3,20.4,0.6,20.6z M6.6,16.9c2.1,0,3.4,0.9,4.1,1.9c0.4,0.5,0.6,1,0.8,1.3c0.1,0.2,0.1,0.3,0.2,0.4c0,0.1,0,0.1,0,0.1
			c0,0,0,0,0,0c0,0,0,0,0,0l0,0l0,0l0,0c0,0,0,0,0.4-0.1c0.4-0.1,0.4-0.1,0.4-0.1s0,0,0,0v0c0,0,0,0,0,0c0,0,0,0,0,0c0,0,0,0,0,0
			c0,0,0-0.1,0-0.1c0-0.1-0.1-0.3-0.2-0.5c-0.2-0.4-0.4-1-0.9-1.5c-0.9-1.1-2.3-2.2-4.8-2.2V16.9z"/>
		<path class="st1" d="M7.6,6.8C7.9,7,8,7.2,7.9,7.6C7.8,8.1,7.7,8.6,7.7,9c0,0.1,0.1,0.3,0.2,0.4C8,9.3,8.2,9.3,8.2,9.1
			c0.1-0.5,0.2-1,0.3-1.5c1,0.2,1.7,1.3,2.1,3.2c0.1,0,0.3,0,0.3,0.1c0.1,0.2-0.1-0.1-0.2,0.1c0,0.2-0.3,0.3-0.4,0.4
			c-0.1,0.1-0.2,0-0.3,0c-2.4,0-4.8,0-7.2,0c-0.2,0-0.5,0-0.6-0.2c-0.4-0.3,0.3-0.3,0.9-0.5c0.1-1.4,0.7-2.5,2-3.2
			c0.1,0.6,0.2,1.1,0.3,1.6c0,0.1,0.2,0.3,0.3,0.4C5.9,9.3,6,9.1,6,9c0-0.5-0.1-0.9-0.2-1.4C5.6,7.2,5.7,7,6.1,6.8
			C6.6,6.8,7.1,6.8,7.6,6.8z"/>
		<path class="st5" d="M7.3,6.3c0.3,0.2,0.4,0.4,0.3,0.8C7.5,7.6,7.5,8.1,7.4,8.5c0,0.1,0.1,0.3,0.2,0.4c0.1-0.1,0.3-0.2,0.3-0.3
			c0.1-0.5,0.2-1,0.3-1.5c1,0.2,1.7,1.3,2.1,3.2c0.1,0,0.3,0,0.3,0.1c0.1,0.2,0.3,0.4,0.3,0.6c0,0.2-0.3,0.3-0.4,0.4
			c-0.1,0.1-0.2,0-0.3,0c-2.4,0-4.8,0-7.2,0c-0.2,0-0.5,0-0.6-0.2c-0.4-0.3-0.2-0.7,0.5-1C3,8.8,3.6,7.7,4.9,7
			C5,7.6,5.1,8.1,5.2,8.6c0,0.1,0.2,0.3,0.3,0.4c0.1-0.2,0.2-0.3,0.2-0.5c0-0.5-0.1-0.9-0.2-1.4c-0.1-0.4,0-0.6,0.3-0.8
			C6.3,6.3,6.8,6.3,7.3,6.3z"/>
	</g>
</g>
</svg>
