<?xml version="1.0" encoding="utf-8"?>
<!-- Generator: Adobe Illustrator 21.0.0, SVG Export Plug-In . SVG Version: 6.00 Build 0)  -->
<svg version="1.1" id="图层_1" xmlns="http://www.w3.org/2000/svg" xmlns:xlink="http://www.w3.org/1999/xlink" x="0px" y="0px"
	 viewBox="0 0 22.4 22.4" style="enable-background:new 0 0 22.4 22.4;" xml:space="preserve">
<style type="text/css">
	.st0{fill:#D5E9FA;}
	.st1{fill:#2C3C59;}
	.st2{fill:none;stroke:#2C3C59;stroke-width:0.6459;stroke-miterlimit:10;}
	.st3{fill:none;stroke:#2C3C59;stroke-width:0.4844;stroke-miterlimit:10;}
	.st4{fill:#2C3C59;stroke:#4C5263;stroke-width:8.073160e-02;}
	.st5{fill:none;stroke:#2C3C59;stroke-width:0.6459;stroke-miterlimit:10;stroke-dasharray:3.27,3.27;}
</style>
<path class="st0" d="M16.1,7.7v9.1c0,0.3-0.2,0.4-0.5,0.4H8.5c-0.3,0-0.5-0.2-0.5-0.4V9.5c0-0.1,0.1-0.3,0.2-0.3l2.2-1.9
	c0.1-0.1,0.2-0.1,0.3-0.1h4.9C15.9,7.2,16.1,7.4,16.1,7.7z"/>
<path class="st1" d="M9,10.5h1.2c0.1,0,0.2,0.1,0.2,0.2c0,0.1-0.1,0.2-0.2,0.2H9.4c-0.1,0-0.2,0.1-0.2,0.2v0.2
	c0,0.1,0.1,0.2,0.2,0.2h0.7c0.1,0,0.2,0.1,0.2,0.2c0,0.1-0.1,0.2-0.2,0.2H9.4c-0.1,0-0.2,0.1-0.2,0.2v0.3c0,0.1,0.1,0.2,0.2,0.2h0.8
	c0.1,0,0.2,0.1,0.2,0.2v0c0,0.1-0.1,0.2-0.2,0.2H9c-0.1,0-0.2-0.1-0.2-0.2v-1.9C8.9,10.6,9,10.5,9,10.5z"/>
<path class="st1" d="M10.8,10.7c0-0.1,0.1-0.2,0.2-0.2h0.6c0.1,0,0.3,0,0.4,0.1c0.1,0,0.3,0.1,0.4,0.2c0.1,0.1,0.2,0.2,0.3,0.3
	c0.1,0.1,0.1,0.3,0.1,0.5c0,0.2,0,0.4-0.1,0.5c-0.1,0.1-0.2,0.3-0.3,0.3c-0.1,0.1-0.3,0.2-0.4,0.2c-0.1,0.1-0.3,0.1-0.4,0.1H11
	c-0.1,0-0.2-0.1-0.2-0.2V10.7z M11.5,12.4c0.1,0,0.2,0,0.3,0c0.1,0,0.2-0.1,0.3-0.1c0.1-0.1,0.1-0.1,0.2-0.2
	c0.1-0.1,0.1-0.2,0.1-0.4c0-0.2,0-0.3-0.1-0.4c-0.1-0.1-0.1-0.2-0.2-0.2C12,11,12,10.9,11.8,10.9c-0.1,0-0.2,0-0.3,0h-0.2
	c-0.1,0-0.2,0.1-0.2,0.2v1.2c0,0.1,0.1,0.1,0.2,0.1H11.5z"/>
<path class="st1" d="M13.4,10.5L13.4,10.5c0.1,0,0.2,0.1,0.2,0.2v1.9c0,0.1-0.1,0.2-0.2,0.2h-0.1c-0.1,0-0.2-0.1-0.2-0.2v-1.9
	C13.2,10.6,13.3,10.5,13.4,10.5z"/>
<path class="st2" d="M15.2,6.6v9.1c0,0.3-0.2,0.5-0.4,0.5H7.7c-0.3,0-0.4-0.2-0.4-0.5V8.5c0-0.1,0.1-0.3,0.2-0.3l2.2-1.9
	c0.1-0.1,0.2-0.1,0.3-0.1h4.9C15,6.2,15.2,6.4,15.2,6.6z"/>
<path class="st3" d="M18.1,8.7H6.9"/>
<path class="st4" d="M17.2,7.3L17.2,7.3L17.2,7.3l-0.3,0.3l0,0l0,0l1.2,1.1l-1.2,1.1l0,0l0,0l0.2,0.3l0,0l0,0l1.5-1.4l0,0l0,0
	L17.2,7.3z"/>
<path class="st3" d="M4.4,14.5h11.3"/>
<path class="st4" d="M5.3,13.1L5.3,13.1L5.3,13.1l0.3,0.3l0,0l0,0l-1.2,1.1l1.2,1.1l0,0l0,0l-0.2,0.3l0,0l0,0l-1.5-1.4l0,0l0,0
	L5.3,13.1z"/>
<path class="st5" d="M11.2,22.1c6,0,10.9-4.9,10.9-10.9S17.2,0.3,11.2,0.3c-6,0-10.9,4.9-10.9,10.9S5.2,22.1,11.2,22.1z"/>
</svg>
