<?xml version="1.0" encoding="utf-8"?>
<!-- Generator: Adobe Illustrator 21.0.0, SVG Export Plug-In . SVG Version: 6.00 Build 0)  -->
<svg version="1.1" id="图层_1" xmlns="http://www.w3.org/2000/svg" xmlns:xlink="http://www.w3.org/1999/xlink" x="0px" y="0px"
	 viewBox="0 0 24.2 16.8" style="enable-background:new 0 0 24.2 16.8;" xml:space="preserve">
<style type="text/css">
	.st0{fill:#D5E9FA;}
	.st1{fill:none;stroke:#2C3C59;stroke-width:0.8056;stroke-miterlimit:10;}
	.st2{fill:none;stroke:#2C3C59;stroke-width:0.8056;stroke-linecap:round;stroke-linejoin:round;stroke-miterlimit:10;}
	.st3{fill:none;stroke:#2C3C59;stroke-width:0.8056;}
</style>
<path class="st0" d="M24.2,3.9H13.5v12.8h10.7V3.9z"/>
<path class="st1" d="M20.1,2.5v-1h-1.7c0,0,0-0.9-0.9-0.9c-0.9,0-0.9,0.9-0.9,0.9h-1.7v1h-2.8v13h10.5v-13H20.1z"/>
<path class="st1" d="M14.9,2.2v1.3h5.2V2.1"/>
<path class="st2" d="M14.4,12.1h5.9"/>
<path class="st2" d="M14.4,9.8h5.8"/>
<path class="st2" d="M14.4,7.5h3.5"/>
<path class="st0" d="M2.4,2.1L0,3.4l1,1.9l5.3,9.9l2.2,1.6l0.2-2.9L3.4,4L2.4,2.1z"/>
<path class="st3" d="M9.4,12.7L7.1,14 M9.4,12.7L4,2.5 M9.4,12.7l-0.1,2.9L7.1,14 M7.1,14L1.6,3.8 M4,2.5l-1-2L0.5,1.8l1,2 M4,2.5
	L1.6,3.8"/>
</svg>
