<?xml version="1.0" encoding="utf-8"?>
<!-- Generator: Adobe Illustrator 21.0.0, SVG Export Plug-In . SVG Version: 6.00 Build 0)  -->
<svg version="1.1" id="图层_1" xmlns="http://www.w3.org/2000/svg" xmlns:xlink="http://www.w3.org/1999/xlink" x="0px" y="0px"
	 viewBox="0 0 232 180" style="enable-background:new 0 0 232 180;" xml:space="preserve">
<style type="text/css">
	.st0{clip-path:url(#SVGID_2_);}
	.st1{opacity:9.000000e-02;fill:#13548E;enable-background:new    ;}
	.st2{fill:#C7E9FA;}
	.st3{fill:#47A1D9;}
	.st4{fill:#86C6ED;}
	.st5{fill:#D3EEFB;}
	.st6{fill:#57BAE9;}
	.st7{fill:#9AD4F3;}
</style>
<g>
	<defs>
		<rect id="SVGID_1_" width="232" height="180"/>
	</defs>
	<clipPath id="SVGID_2_">
		<use xlink:href="#SVGID_1_"  style="overflow:visible;"/>
	</clipPath>
	<g class="st0">
		<path class="st1" d="M15.8,166.5c5.2,0,9.5-0.7,9.5-1.7c0-0.9-4.3-1.7-9.5-1.7s-9.5,0.7-9.5,1.7C6.3,165.8,10.6,166.5,15.8,166.5z
			"/>
		<path class="st1" d="M74.1,164.9c5.2,0,9.5-0.7,9.5-1.7c0-0.9-4.3-1.7-9.5-1.7s-9.5,0.7-9.5,1.7C64.6,164.1,68.9,164.9,74.1,164.9
			z"/>
		<path class="st2" d="M232,146.7h-39.5v32.4H232V146.7z"/>
		<path class="st2" d="M48,105.5H14.5v73.9H48V105.5z"/>
		<path class="st2" d="M29.3,136.1H0v42.8h29.3V136.1z"/>
		<path class="st2" d="M101.8,8.8H84.1v137.9h17.7V8.8z"/>
		<path class="st2" d="M99.4,0H86.6v137.9h12.8V0z"/>
		<path class="st2" d="M108.9,29.9H77.1v116.6h31.8V29.9z"/>
		<path class="st2" d="M112.8,36.8H73.3v116.6h39.5V36.8z"/>
		<path class="st2" d="M105.8,19.5H80.1v116.6h25.6V19.5z"/>
		<path class="st3" d="M114.8,138.4H67.1v41.3h47.6V138.4z"/>
		<path class="st3" d="M138.4,126.8H90.8V168h47.6V126.8z"/>
		<path class="st3" d="M142.4,111H94.8v41.3h47.6V111z"/>
		<path class="st4" d="M87.6,172V59.7H37.3V172H26v7.8h11.3h18h14.3h18h11.3V172H87.6z"/>
		<path class="st3" d="M52.5,67.4h-9.3v9.3h9.3V67.4z"/>
		<path class="st3" d="M67,67.4h-9.3v9.3H67V67.4z"/>
		<path class="st3" d="M81.1,67.4h-9.3v9.3h9.3V67.4z"/>
		<path class="st3" d="M52.5,84h-9.3v9.3h9.3V84z"/>
		<path class="st3" d="M67,84h-9.3v9.3H67V84z"/>
		<path class="st3" d="M81.1,84h-9.3v9.3h9.3V84z"/>
		<path class="st3" d="M52.5,100.8h-9.3v9.3h9.3V100.8z"/>
		<path class="st3" d="M67,100.8h-9.3v9.3H67V100.8z"/>
		<path class="st3" d="M81.1,100.8h-9.3v9.3h9.3V100.8z"/>
		<path class="st3" d="M52.5,117.4h-9.3v9.3h9.3V117.4z"/>
		<path class="st3" d="M67,117.4h-9.3v9.3H67V117.4z"/>
		<path class="st3" d="M81.1,117.4h-9.3v9.3h9.3V117.4z"/>
		<path class="st3" d="M52.5,134.1h-9.3v9.3h9.3V134.1z"/>
		<path class="st3" d="M67,134.1h-9.3v9.3H67V134.1z"/>
		<path class="st3" d="M81.1,134.1h-9.3v9.3h9.3V134.1z"/>
		<path class="st5" d="M206,170.9V58.4h-50.1v112.5h-11.3v7.7h11.3h17.8h14.5H206h11.5v-7.7H206z"/>
		<path class="st6" d="M196.2,152.7h-26.6v26.6h26.6V152.7z"/>
		<path class="st6" d="M206.7,156.9H180v22.5h26.6V156.9z"/>
		<path class="st6" d="M221.2,163.5h-26.6v15.8h26.6V163.5z"/>
		<path class="st7" d="M161.4,41.9h-35.1v137.9h35.1V41.9z"/>
		<path class="st7" d="M175.7,63.1h-63.6v116.6h63.6V63.1z"/>
		<path class="st7" d="M188.5,99.6H98.9v80.2h89.6V99.6z"/>
		<path class="st3" d="M129.9,68.2h-13.2v5.5h13.2V68.2z"/>
		<path class="st3" d="M150.4,68.2h-13.2v5.5h13.2V68.2z"/>
		<path class="st3" d="M169.5,68.2h-13.2v5.5h13.2V68.2z"/>
		<path class="st3" d="M129.9,79.7h-13.2v5.5h13.2V79.7z"/>
		<path class="st3" d="M150.4,79.7h-13.2v5.5h13.2V79.7z"/>
		<path class="st3" d="M169.5,79.7h-13.2v5.5h13.2V79.7z"/>
		<path class="st3" d="M129.9,91.2h-13.2v5.5h13.2V91.2z"/>
		<path class="st3" d="M129.9,102.5h-13.2v5.5h13.2V102.5z"/>
		<path class="st3" d="M111.3,103.6h-10.8v3.3h10.8V103.6z"/>
		<path class="st3" d="M111.3,109.3h-10.8v3.3h10.8V109.3z"/>
		<path class="st3" d="M111.3,115h-10.8v3.3h10.8V115z"/>
		<path class="st3" d="M111.3,120.6h-10.8v3.3h10.8V120.6z"/>
		<path class="st3" d="M111.3,126.3h-10.8v3.3h10.8V126.3z"/>
		<path class="st3" d="M111.3,131.9h-10.8v3.3h10.8V131.9z"/>
		<path class="st3" d="M111.3,137.6h-10.8v3.3h10.8V137.6z"/>
		<path class="st3" d="M111.3,143.4h-10.8v3.3h10.8V143.4z"/>
		<path class="st3" d="M111.3,149.1h-10.8v3.3h10.8V149.1z"/>
		<path class="st3" d="M111.3,154.7h-10.8v3.3h10.8V154.7z"/>
		<path class="st3" d="M111.3,160.4h-10.8v3.3h10.8V160.4z"/>
		<path class="st3" d="M111.3,166h-10.8v3.3h10.8V166z"/>
		<path class="st3" d="M111.3,171.7h-10.8v3.3h10.8V171.7z"/>
		<path class="st3" d="M186.4,103.6h-10.8v3.3h10.8V103.6z"/>
		<path class="st3" d="M186.4,109.3h-10.8v3.3h10.8V109.3z"/>
		<path class="st3" d="M186.4,115h-10.8v3.3h10.8V115z"/>
		<path class="st3" d="M186.4,120.6h-10.8v3.3h10.8V120.6z"/>
		<path class="st3" d="M186.4,126.3h-10.8v3.3h10.8V126.3z"/>
		<path class="st3" d="M186.4,131.9h-10.8v3.3h10.8V131.9z"/>
		<path class="st3" d="M186.4,137.6h-10.8v3.3h10.8V137.6z"/>
		<path class="st3" d="M186.4,143.4h-10.8v3.3h10.8V143.4z"/>
		<path class="st3" d="M186.4,149.1h-10.8v3.3h10.8V149.1z"/>
		<path class="st3" d="M186.4,154.7h-10.8v3.3h10.8V154.7z"/>
		<path class="st3" d="M186.4,160.4h-10.8v3.3h10.8V160.4z"/>
		<path class="st3" d="M186.4,166h-10.8v3.3h10.8V166z"/>
		<path class="st3" d="M186.4,171.7h-10.8v3.3h10.8V171.7z"/>
		<path class="st3" d="M150.4,102.5h-13.2v5.5h13.2V102.5z"/>
		<path class="st3" d="M169.5,102.5h-13.2v5.5h13.2V102.5z"/>
		<path class="st3" d="M129.9,113h-13.2v5.5h13.2V113z"/>
		<path class="st3" d="M150.4,113h-13.2v5.5h13.2V113z"/>
		<path class="st3" d="M169.5,113h-13.2v5.5h13.2V113z"/>
		<path class="st3" d="M129.9,124.4h-13.2v5.5h13.2V124.4z"/>
		<path class="st3" d="M150.4,124.4h-13.2v5.5h13.2V124.4z"/>
		<path class="st3" d="M169.5,124.4h-13.2v5.5h13.2V124.4z"/>
		<path class="st3" d="M129.9,135.9h-13.2v5.5h13.2V135.9z"/>
		<path class="st3" d="M150.4,135.9h-13.2v5.5h13.2V135.9z"/>
		<path class="st3" d="M169.5,135.9h-13.2v5.5h13.2V135.9z"/>
		<path class="st3" d="M129.9,147.4h-13.2v5.5h13.2V147.4z"/>
		<path class="st3" d="M150.4,147.4h-13.2v5.5h13.2V147.4z"/>
		<path class="st3" d="M169.5,147.4h-13.2v5.5h13.2V147.4z"/>
		<path class="st3" d="M129.9,158.9h-13.2v5.5h13.2V158.9z"/>
		<path class="st3" d="M150.4,158.9h-13.2v5.5h13.2V158.9z"/>
		<path class="st3" d="M169.5,158.9h-13.2v5.5h13.2V158.9z"/>
		<path class="st3" d="M129.9,170.4h-13.2v5.5h13.2V170.4z"/>
		<path class="st3" d="M150.4,170.4h-13.2v5.5h13.2V170.4z"/>
		<path class="st3" d="M169.5,170.4h-13.2v5.5h13.2V170.4z"/>
		<path class="st3" d="M156.2,61.6h-24.8v1.2h24.8V61.6z"/>
		<path class="st3" d="M158.4,29.1h-2v13h2V29.1z"/>
		<path class="st3" d="M150.4,91.2h-13.2v5.5h13.2V91.2z"/>
		<path class="st3" d="M169.5,91.2h-13.2v5.5h13.2V91.2z"/>
	</g>
</g>
</svg>
