<?xml version="1.0" encoding="utf-8"?>
<!-- Generator: Adobe Illustrator 21.0.0, SVG Export Plug-In . SVG Version: 6.00 Build 0)  -->
<svg version="1.1" id="图层_1" xmlns="http://www.w3.org/2000/svg" xmlns:xlink="http://www.w3.org/1999/xlink" x="0px" y="0px"
	 viewBox="0 0 22.3 15.9" style="enable-background:new 0 0 22.3 15.9;" xml:space="preserve">
<style type="text/css">
	.st0{fill:#D5E9FA;}
	.st1{fill:#2C3C59;}
	.st2{fill:none;stroke:#2C3C59;stroke-width:0.8056;}
	.st3{fill:none;stroke:#2C3C59;stroke-width:1.0742;stroke-linecap:round;stroke-linejoin:round;stroke-miterlimit:10;}
</style>
<path class="st0" d="M9,5.7h7.7c0.4,0,0.8,0.3,0.8,0.7v7c0,0.4-0.4,0.7-0.8,0.7H9c-0.4,0-0.8-0.3-0.8-0.7v-7C8.2,6,8.6,5.7,9,5.7z"
	/>
<path class="st1" d="M6.7,5.1c0-0.3,0.3-0.6,0.6-0.6h3.9C11.1,4.6,11,4.8,11,5v2.6c0,0.3,0.3,0.5,0.6,0.5h0.6c0.3,0,0.6-0.2,0.6-0.5
	V5c0-0.2-0.1-0.3-0.2-0.4h3.9c0.4,0,0.6,0.3,0.6,0.6v8.4c0,0.3-0.3,0.6-0.6,0.6H7.3c-0.4,0-0.6-0.3-0.6-0.6V5.1z M7.3,4.2
	c-0.5,0-1,0.4-1,0.9v8.4c0,0.5,0.5,0.9,1,0.9h9.2c0.5,0,1-0.4,1-0.9V5.1c0-0.5-0.5-0.9-1-0.9H7.3z"/>
<path class="st1" d="M11.2,4.5l0.2,0.2L12,4.3h-0.8V4.5z M12.6,4.5V4.3h-0.8l0.7,0.5L12.6,4.5z M7.3,4.3c-0.5,0-0.9,0.4-0.9,0.8h0.5
	c0-0.1,0.1-0.3,0.4-0.3V4.3z M11.2,4.3H7.3v0.5h3.9V4.3z M11.2,5c0-0.1,0-0.2,0.1-0.2L11,4.3c-0.2,0.1-0.3,0.4-0.3,0.6H11.2z
	 M11.2,7.6V5h-0.5v2.6H11.2z M11.6,7.9c-0.2,0-0.3-0.1-0.3-0.3h-0.5c0,0.5,0.4,0.8,0.9,0.8V7.9z M12.2,7.9h-0.6v0.5h0.6V7.9z
	 M12.5,7.6c0,0.1-0.1,0.3-0.3,0.3v0.5c0.4,0,0.9-0.3,0.9-0.8H12.5z M12.5,5v2.6h0.5V5H12.5z M12.4,4.8c0.1,0.1,0.1,0.1,0.1,0.2h0.5
	c0-0.3-0.1-0.5-0.3-0.6L12.4,4.8z M16.5,4.3h-3.9v0.5h3.9V4.3z M17.4,5.1c0-0.5-0.4-0.8-0.9-0.8v0.5c0.2,0,0.4,0.2,0.4,0.3H17.4z
	 M17.4,13.5V5.1h-0.5v8.4H17.4z M16.5,14.4c0.5,0,0.9-0.3,0.9-0.8h-0.5c0,0.2-0.1,0.3-0.4,0.3V14.4z M7.3,14.4h9.2v-0.5H7.3V14.4z
	 M6.4,13.5c0,0.5,0.4,0.8,0.9,0.8v-0.5c-0.2,0-0.4-0.2-0.4-0.3H6.4z M6.4,5.1v8.4h0.5V5.1H6.4z M6.6,5.1c0-0.3,0.3-0.6,0.7-0.6V3.9
	c-0.6,0-1.2,0.5-1.2,1.2H6.6z M6.6,13.5V5.1H6.1v8.4H6.6z M7.3,14.2c-0.4,0-0.7-0.3-0.7-0.6H6.1c0,0.7,0.6,1.2,1.2,1.2V14.2z
	 M16.5,14.2H7.3v0.5h9.2V14.2z M17.2,13.5c0,0.4-0.3,0.6-0.7,0.6v0.5c0.6,0,1.2-0.4,1.2-1.2H17.2z M17.2,5.1v8.4h0.5V5.1H17.2z
	 M16.5,4.5c0.4,0,0.7,0.3,0.7,0.6h0.5c0-0.7-0.6-1.2-1.2-1.2V4.5z M7.3,4.5h9.2V3.9H7.3V4.5z"/>
<path class="st2" d="M3.5,13V0"/>
<path class="st3" d="M3.5,15.4c0.7,0,1.2-0.5,1.2-1.2c0-0.6-0.5-1.2-1.2-1.2s-1.2,0.5-1.2,1.2C2.3,14.9,2.8,15.4,3.5,15.4z"/>
<path class="st3" d="M20.5,15.4c0.7,0,1.2-0.5,1.2-1.2c0-0.6-0.5-1.2-1.2-1.2c-0.7,0-1.2,0.5-1.2,1.2C19.3,14.9,19.9,15.4,20.5,15.4
	z"/>
<path class="st2" d="M19.3,14.4H4.7"/>
<path class="st1" d="M0.3,0h3.3c0.2,0,0.3,0.1,0.3,0.3v0.8c0,0.2-0.1,0.3-0.3,0.3H0.3C0.1,1.4,0,1.3,0,1.1V0.3C0,0.1,0.1,0,0.3,0z"
	/>
</svg>
