<?xml version="1.0" encoding="utf-8"?>
<!-- Generator: Adobe Illustrator 21.0.0, SVG Export Plug-In . SVG Version: 6.00 Build 0)  -->
<svg version="1.1" id="图层_1" xmlns="http://www.w3.org/2000/svg" xmlns:xlink="http://www.w3.org/1999/xlink" x="0px" y="0px"
	 viewBox="0 0 24.1 11.3" style="enable-background:new 0 0 24.1 11.3;" xml:space="preserve">
<style type="text/css">
	.st0{fill:#2C3C59;}
	.st1{fill:#D5E9FA;}
	.st2{fill:none;stroke:#2C3C59;stroke-width:0.5371;stroke-linecap:round;stroke-linejoin:round;stroke-miterlimit:10;}
	.st3{fill:none;stroke:#2C3C59;stroke-width:0.5371;stroke-miterlimit:10;}
</style>
<path class="st0" d="M0.5,7.6C0.2,7.6,0,7.8,0,8.1c0,0.3,0.2,0.5,0.5,0.5V7.6z M19.4,8.6c0.3,0,0.5-0.2,0.5-0.5
	c0-0.3-0.2-0.5-0.5-0.5V8.6z M13.9,4.7c-0.3,0-0.5,0.2-0.5,0.5c0,0.3,0.2,0.5,0.5,0.5V4.7z M21.7,5.8c0.3,0,0.5-0.2,0.5-0.5
	c0-0.3-0.2-0.5-0.5-0.5V5.8z M24,3.3c0.2-0.2,0.1-0.6-0.1-0.8c-0.2-0.2-0.6-0.2-0.8,0.1L24,3.3z M17.4,9.7c-0.2,0.2-0.1,0.6,0.1,0.8
	c0.2,0.2,0.6,0.2,0.8-0.1L17.4,9.7z M0.5,8.6h18.8V7.6H0.5V8.6z M13.9,5.8h7.8V4.7h-7.8V5.8z M23.1,2.6l-5.7,7.1l0.8,0.7L24,3.3
	L23.1,2.6z"/>
<path class="st1" d="M9.4,11.3c4.1,0,7.4-0.4,7.4-0.8c0-0.5-3.3-0.8-7.4-0.8c-4.1,0-7.4,0.4-7.4,0.8C1.9,11,5.3,11.3,9.4,11.3z"/>
<path class="st1" d="M10.8,1.3H0.5v5.1h10.3V1.3z"/>
<path class="st1" d="M13.5,3v4.5h3.2V3.9L16,3H13.5z"/>
<path class="st2" d="M11.4,0.3H1.6v5.4h9.9V0.3z"/>
<path class="st3" d="M6,10.4c0.4,0,0.7-0.3,0.7-0.7S6.4,9,6,9C5.6,9,5.3,9.3,5.3,9.7S5.6,10.4,6,10.4z"/>
<path class="st3" d="M14.4,10.4c0.4,0,0.7-0.3,0.7-0.7S14.8,9,14.4,9c-0.4,0-0.7,0.3-0.7,0.7S14,10.4,14.4,10.4z"/>
<path class="st2" d="M1.6,7h11.2 M12.8,7V2h1.9L16,3.9V7H12.8z"/>
</svg>
