<?xml version="1.0" encoding="utf-8"?>
<!-- Generator: Adobe Illustrator 21.0.0, SVG Export Plug-In . SVG Version: 6.00 Build 0)  -->
<svg version="1.1" id="图层_1" xmlns="http://www.w3.org/2000/svg" xmlns:xlink="http://www.w3.org/1999/xlink" x="0px" y="0px"
	 viewBox="0 0 23.6 10.4" style="enable-background:new 0 0 23.6 10.4;" xml:space="preserve">
<style type="text/css">
	.st0{fill:#D5E9FA;}
	.st1{fill:none;stroke:#2C3C59;stroke-width:0.6028;stroke-miterlimit:10;}
	.st2{fill:#2C3C59;}
</style>
<path class="st0" d="M10.5,1.2H14c0.2,0,0.4,0.2,0.4,0.4V5c0,0.2-0.2,0.4-0.4,0.4h-3.5c-0.2,0-0.4-0.2-0.4-0.4V1.5
	C10.1,1.3,10.3,1.2,10.5,1.2z"/>
<path class="st1" d="M13.7,5.1H9.6C9.4,5.1,9.3,5,9.3,4.8V0.7c0-0.2,0.2-0.4,0.4-0.4h4.1c0.2,0,0.4,0.2,0.4,0.4v4.1
	C14.1,5,13.9,5.1,13.7,5.1z"/>
<path class="st2" d="M11.8,2.1h-0.3c-0.2,0-0.3-0.1-0.3-0.3V0.6c0-0.1,0.1-0.3,0.3-0.3h0.3c0.2,0,0.3,0.1,0.3,0.3v1.3
	C12.1,2,12,2.1,11.8,2.1z"/>
<path class="st0" d="M4.1,1.2h3.5C7.8,1.2,8,1.3,8,1.5V5c0,0.2-0.2,0.4-0.4,0.4H4.1C3.9,5.4,3.8,5.2,3.8,5V1.5
	C3.8,1.3,3.9,1.2,4.1,1.2z"/>
<path class="st1" d="M7.3,5.1H3.2C3,5.1,2.9,5,2.9,4.8V0.7c0-0.2,0.2-0.4,0.4-0.4h4.1c0.2,0,0.4,0.2,0.4,0.4v4.1
	C7.7,5,7.5,5.1,7.3,5.1z"/>
<path class="st2" d="M5.5,2.1H5.1C5,2.1,4.8,2,4.8,1.8V0.6c0-0.1,0.1-0.3,0.3-0.3h0.3c0.2,0,0.3,0.1,0.3,0.3v1.3
	C5.7,2,5.6,2.1,5.5,2.1z"/>
<path class="st0" d="M16.9,1.2h3.5c0.2,0,0.4,0.2,0.4,0.4V5c0,0.2-0.2,0.4-0.4,0.4h-3.5c-0.2,0-0.4-0.2-0.4-0.4V1.5
	C16.5,1.3,16.7,1.2,16.9,1.2z"/>
<path class="st1" d="M20.1,5.1H16c-0.2,0-0.4-0.2-0.4-0.4V0.7c0-0.2,0.2-0.4,0.4-0.4h4.1c0.2,0,0.4,0.2,0.4,0.4v4.1
	C20.5,5,20.3,5.1,20.1,5.1z"/>
<path class="st2" d="M18.2,2.1h-0.3c-0.2,0-0.3-0.1-0.3-0.3V0.6c0-0.1,0.1-0.3,0.3-0.3h0.3c0.2,0,0.3,0.1,0.3,0.3v1.3
	C18.5,2,18.4,2.1,18.2,2.1z"/>
<path class="st2" d="M5.2,8.6H0v1.8h5.2V8.6z"/>
<path class="st2" d="M11.4,8.7H6.1v1.7h5.2V8.7z"/>
<path class="st2" d="M17.5,8.7h-5.2v1.7h5.2V8.7z"/>
<path class="st2" d="M23.6,8.7h-5.2v1.7h5.2V8.7z"/>
<path class="st2" d="M23.6,6.7H0v1.4h23.6V6.7z"/>
</svg>
