<?xml version="1.0" encoding="utf-8"?>
<!-- Generator: Adobe Illustrator 21.0.0, SVG Export Plug-In . SVG Version: 6.00 Build 0)  -->
<svg version="1.1" id="图层_1" xmlns="http://www.w3.org/2000/svg" xmlns:xlink="http://www.w3.org/1999/xlink" x="0px" y="0px"
	 viewBox="0 0 22.2 23.1" style="enable-background:new 0 0 22.2 23.1;" xml:space="preserve">
<style type="text/css">
	.st0{fill:#D5E9FA;}
	.st1{fill:none;stroke:#2C3C59;stroke-width:1.0742;stroke-miterlimit:10;}
	.st2{fill:none;stroke:#2C3C59;stroke-width:1.0742;stroke-linecap:round;stroke-linejoin:round;stroke-miterlimit:10;}
	.st3{fill:#D5E9FA;stroke:#2C3C59;stroke-width:1.0742;stroke-miterlimit:10;}
</style>
<path class="st0" d="M2.7,2.5h10.6l6.2,4.6v16H2.7V2.5z"/>
<path class="st1" d="M11.1,0.5H0.5v20.6h16.7v-16 M11.1,0.5l6.2,4.6 M11.1,0.5v4.6h6.2"/>
<path class="st2" d="M4.4,11.8h9.3"/>
<path class="st2" d="M4.4,8.5h9.3"/>
<path class="st2" d="M4.4,15.4h9.3"/>
<path class="st3" d="M17.6,18.3c2.3,0,4.1-1.8,4.1-4.1c0-2.3-1.8-4.1-4.1-4.1s-4.1,1.8-4.1,4.1C13.5,16.5,15.3,18.3,17.6,18.3z"/>
<path class="st2" d="M17.6,12.9v2.7"/>
<path class="st2" d="M18.9,14.2h-2.7"/>
</svg>
