<?xml version="1.0" encoding="utf-8"?>
<!-- Generator: Adobe Illustrator 21.0.0, SVG Export Plug-In . SVG Version: 6.00 Build 0)  -->
<svg version="1.1" id="图层_1" xmlns="http://www.w3.org/2000/svg" xmlns:xlink="http://www.w3.org/1999/xlink" x="0px" y="0px"
	 viewBox="0 0 217 187.2" style="enable-background:new 0 0 217 187.2;" xml:space="preserve">
<style type="text/css">
	.st0{clip-path:url(#SVGID_2_);}
	.st1{fill:#C8E0A2;}
	.st2{opacity:0.48;fill:#D5E6E7;enable-background:new    ;}
	.st3{opacity:0.48;fill:#BDCDCF;enable-background:new    ;}
	.st4{fill:#73A2A1;}
	.st5{fill:#6A8886;}
	.st6{fill:#71C6AD;}
	.st7{fill:#F7E78A;}
	.st8{fill:#EBAB71;}
	.st9{fill:#FFEED2;}
	.st10{fill:#FFE1A9;}
	.st11{fill:#DEF2FC;}
	.st12{fill:#F9FCFF;}
	.st13{fill:#BDCAE7;}
	.st14{fill:#ABB3D0;}
	.st15{fill:#FFFFFF;}
	.st16{fill:#A7D9E9;}
	.st17{fill:#F4FAFD;}
	.st18{fill:#61BAE9;}
	.st19{fill:#99BCC5;}
	.st20{fill:#ECA164;}
</style>
<g>
	<defs>
		<rect id="SVGID_1_" width="217" height="187.2"/>
	</defs>
	<clipPath id="SVGID_2_">
		<use xlink:href="#SVGID_1_"  style="overflow:visible;"/>
	</clipPath>
	<g class="st0">
		<path class="st1" d="M60.8,107.2c-6.5-4.7-13-9.3-19.5-14.2c10.3-6.9,20.7-13.8,31-20.5C68.5,84.1,64.6,95.6,60.8,107.2z"/>
		<path class="st1" d="M129.5,155l12.6,7.7l75-54.7l-19-10.9v8.5L129.5,155z"/>
		<path class="st2" d="M41.3,93l-10.9,7.5l98.9,70.5l12.8-8.3L41.3,93z"/>
		<path class="st3" d="M206.3,109.6c-21.1,15.8-42.3,31.8-63.4,47.6c-4.5-0.8-8.9-1.4-13.4-2.2c22.9-16.4,45.6-32.8,68.5-49.2
			C200.8,107,203.4,108.4,206.3,109.6z"/>
		<path class="st4" d="M57.9,79.8l2,3.2l-6.5,4.1l-0.4,0.2v-4.3L57.9,79.8z"/>
		<path class="st1" d="M53.1,69.5l5.9,9.7l-1,0.6l-4.9,3.2V69.5z"/>
		<path class="st5" d="M53.5,87.1v2.4h-0.6v-2.4l0.2,0.2L53.5,87.1z"/>
		<path class="st6" d="M53.1,83.1v4.3l-0.2-0.2l-6.5-4.1l1.6-3.2L53.1,83.1z"/>
		<path class="st7" d="M53.1,69.5v13.6L48,79.8l-1-0.6L53.1,69.5z"/>
		<path class="st3" d="M18.4,185l0.6,0.4l7.1-4.7l2.6,0.6c0.4-0.2,2.4-0.6,3.6-2.4c0.4-0.6,0.6-1.4,0.6-1.8
			c7.3-5.3,14.8-10.7,22.1-16c0.8,0,1.8,0.2,2.6,0.2c0.2,0,1.8-0.2,2.8-1.6c0.6-0.8,0.8-1.6,0.8-2c1.8-1.4,3.6-2.8,5.3-4.3
			c-0.4-0.2-0.6-0.2-1-0.4l-5.7-1.8L19,179.3L18.4,185z"/>
		<path class="st8" d="M94,136v6.9l-10.7,7.7v-6.7L94,136z"/>
		<path class="st9" d="M94,136l-10.7,7.9l-5.9-4.5l10.9-7.7L94,136z"/>
		<path class="st10" d="M83.3,143.9v6.7l-6.1-4.3l0.2-6.9L83.3,143.9z"/>
		<path class="st8" d="M85.3,172.6v6.9L74.8,187v-6.7L85.3,172.6z"/>
		<path class="st9" d="M85.3,172.6l-10.5,7.7l-5.9-4.3h-0.2l10.9-7.9L85.3,172.6z"/>
		<path class="st10" d="M74.8,180.3v6.7l-5.9-4.1v-6.9L74.8,180.3z"/>
		<path class="st11" d="M65.6,130.9V153h-7.7H35.1L65.6,130.9z"/>
		<path class="st12" d="M65.6,130.9L35.1,153l-20.5-14.6l31.6-21.7L65.6,130.9z"/>
		<path class="st11" d="M65.6,153l-5.1,3.2c0-0.6-0.2-1-0.4-1.4c-0.8-1.2-2-1.2-2.2-1.2V153H65.6z"/>
		<path class="st13" d="M60.4,155.8c0,0.8,0,1.8-0.6,3c-0.2,0.6-1.4,2.6-3.4,2.6c-0.8,0-1.6-0.4-2.2-1c0-0.6,0.2-1.4,0.6-2.4
			c0.2-0.6,0.6-1.4,1.2-2c0.4-0.4,1.2-1,2.4-1C59.2,155,60,155.6,60.4,155.8z M58.4,158.4c0.2-0.4,0.4-0.8,0.2-1.2
			c-0.2-0.4-0.6-0.8-1.2-0.6c-0.4,0.2-0.8,0.4-1,0.8c-0.2,0.2-0.4,0.6-0.6,1c0,0.2,0,0.6,0.2,0.8c0.2,0.4,0.8,0.2,0.8,0.2
			C57.7,159.5,58.2,158.6,58.4,158.4z"/>
		<path class="st14" d="M60.2,154.8c0,0.2,0.2,0.6,0.2,1c-0.4-0.4-1.2-0.8-2.2-0.8c-1.2,0-2,0.8-2.4,1c-0.6,0.6-1,1.4-1.2,2
			c-0.4,1-0.4,1.8-0.6,2.4c-0.4-0.4-0.6-0.8-0.8-1.2c0.2-2,1.2-5.3,4.7-5.9C58.2,153.6,59.4,153.6,60.2,154.8z"/>
		<path class="st15" d="M58.6,157.2c0.2,0.4,0,1-0.2,1.2c-0.2,0.2-0.6,1-1.4,1c-0.2,0-0.6,0-0.8-0.2c-0.2-0.2-0.2-0.6-0.2-0.8
			c0-0.4,0.4-0.8,0.6-1c0.2-0.4,0.6-0.6,1-0.8C57.9,156.4,58.4,156.6,58.6,157.2z"/>
		<path class="st11" d="M57.9,153v0.6c-3.4,0.6-4.5,3.9-4.7,5.9c-0.2,0.8,0,1.6,0,1.6l-18,12.6v-20.5h22.7V153z"/>
		<path class="st16" d="M35.1,153v20.5l-0.8-0.6V157l-19.7-13.2v-5.5L35.1,153z"/>
		<path class="st11" d="M34.2,172.8v1.2l-2.2,1.6c0,0-0.2-0.4-0.4-0.8c-0.6-1-1.8-2.6-4.3-0.8c-2.4,2-2.4,4.1-2.2,5.3
			c0,0.4,0.2,0.6,0.2,0.6l-6.9,4.7c0-2.2,0-4.3,0-6.5c1-1,2-2,3-2.8l4.1-12.8l8.9-5.7v16H34.2z"/>
		<path class="st12" d="M34.2,157l-8.9,5.7L7.1,150.1l7.5-6.3L34.2,157z"/>
		<path class="st13" d="M31.6,175.5c0,0.8,0,1.8-0.6,3c-0.2,0.6-1.2,2.6-3,2.6c-1,0-1.8-0.4-2.2-1c0-0.6,0.2-1.6,0.6-2.4
			c0.2-0.6,0.6-1.4,1.2-2c0.4-0.4,1.2-1.2,2.4-1C30.8,174.7,31.4,175.3,31.6,175.5z M30,178.1c0.2-0.4,0.4-0.8,0.2-1.2
			c-0.2-0.4-0.6-0.8-1.2-0.6c-0.4,0.2-0.8,0.4-1,0.8c-0.2,0.2-0.4,0.6-0.6,1c0,0.2,0,0.6,0.2,0.8c0.2,0.4,0.8,0.2,0.8,0.2
			C29.4,179.1,29.8,178.3,30,178.1z"/>
		<path class="st14" d="M31.6,174.9c0,0.2,0,0.4,0,0.6c-0.4-0.4-1-0.8-1.8-0.8c-1.2,0-2,0.8-2.4,1c-0.6,0.6-1,1.4-1.2,2
			c-0.4,1-0.6,1.8-0.6,2.4c-0.4-0.4-0.6-0.8-0.8-0.8c-0.2-1-0.2-3.2,2.2-5.3C29.8,172.4,31,173.8,31.6,174.9z"/>
		<path class="st15" d="M30.2,176.9c0.2,0.4,0,1-0.2,1.2c-0.2,0.2-0.6,1-1.4,1c-0.2,0-0.6,0-0.8-0.2c-0.2-0.2-0.2-0.6-0.2-0.8
			c0-0.4,0.4-0.8,0.6-1c0.2-0.4,0.6-0.6,1-0.8C29.6,176.1,30.2,176.5,30.2,176.9z"/>
		<path class="st16" d="M25.3,162.7l-4.1,12.8L3.6,162.7l3.2-12.6L25.3,162.7z M20.5,172c0.8-2.8,1.6-5.7,2.4-8.5L8.1,153l-2.4,8.5
			C10.5,165.1,15.6,168.6,20.5,172z"/>
		<path class="st11" d="M22.9,163.7c-0.8,2.8-1.6,5.7-2.4,8.5L8.1,153L22.9,163.7z"/>
		<path class="st12" d="M21.3,175.5c-1,1-2,2-3,2.8c-6.1-4.5-12.2-8.7-18.2-13.2l3.6-2.4L21.3,175.5z"/>
		<path class="st16" d="M18.4,178.3c0,2.2,0,4.3,0,6.5l-18.2-13v-6.7C6.3,169.4,12.4,173.8,18.4,178.3z M15.2,179.3
			c0-0.8-0.4-1.4-0.8-1.4c-0.4,0-0.8,0.6-0.8,1.4c0,0.8,0.4,1.4,0.8,1.4C14.8,180.7,15.2,180.1,15.2,179.3z M4.1,171
			c0-0.8-0.4-1.4-0.8-1.4c-0.4,0-1,0.6-1,1.4c0,0.8,0.4,1.4,0.8,1.4C3.4,172.4,4.1,171.8,4.1,171z"/>
		<path class="st17" d="M198,90.8c0,4.9,0,9.7,0,14.6c-22.9,16.4-45.6,33-68.5,49.4v-18.2C152.4,121.4,175.1,106.2,198,90.8z"/>
		<path class="st11" d="M198,82.1c0,2.8,0,5.7,0,8.7c-22.9,15.4-45.6,30.6-68.5,46v-8.3L198,82.1z"/>
		<path class="st17" d="M198,46.6c0,11.8,0,23.7,0,35.5l-68.5,46.4V94c22.1-15.4,44.4-30.6,66.5-46C196.7,47.6,197.3,47.2,198,46.6z
			 M189.8,74.2c0-2.8,0-5.5,0.2-8.3c-0.4,0.2-0.6,0.4-1,0.8c-3.4,2.4-7.1,5.1-10.5,7.5c0,2.2,0.2,4.5,0.2,6.9c0,0.4,0,0.8,0,1.2
			L189.8,74.2z M169.4,87.7c0-2.8,0-5.5,0.2-8.3c-0.4,0.2-0.6,0.4-1,0.8c-3.4,2.4-7.1,5.1-10.5,7.5c0,2.2,0.2,4.5,0.2,6.9
			c0,0.4,0,0.8,0,1.2L169.4,87.7z M148.7,102.5c0-2.8,0-5.5,0.2-8.3c-0.4,0.2-0.6,0.4-1,0.8c-3.4,2.4-7.1,5.1-10.5,7.5
			c0,2.2,0.2,4.5,0.2,6.9c0,0.4,0,0.8,0,1.2L148.7,102.5z"/>
		<path class="st16" d="M198,46.6c-0.6,0.4-1.2,0.8-2,1.4L132.1,2.4V0.2C154,15.6,176.1,31.2,198,46.6z"/>
		<path class="st11" d="M195.9,48c-22.1,15.4-44.4,30.6-66.5,46L62.4,49.2l69.7-46.6L195.9,48z"/>
		<path class="st11" d="M190.1,65.9c0,2.8,0,5.5-0.2,8.3l-0.8-0.6c0-2.2,0-4.7,0-6.9C189.2,66.5,189.6,66.1,190.1,65.9z"/>
		<path class="st11" d="M189.8,74.2l-11.1,8.1c0-0.4,0-0.8,0-1.2l10.3-7.5L189.8,74.2z"/>
		<path class="st18" d="M189,66.7c0,2.2,0,4.7,0,6.9L178.7,81c0-2.2-0.2-4.5-0.2-6.9C181.9,71.5,185.4,69.1,189,66.7z"/>
		<path class="st11" d="M169.6,79.4c0,2.8,0,5.5-0.2,8.3l-0.8-0.6c0-2.2,0-4.7,0-6.9C168.8,80,169.2,79.8,169.6,79.4z"/>
		<path class="st11" d="M169.4,87.7l-11.1,8.1c0-0.4,0-0.8,0-1.2l10.3-7.5L169.4,87.7z"/>
		<path class="st18" d="M168.6,80.2c0,2.2,0,4.7,0,6.9L158,94.4c0-2.2-0.2-4.5-0.2-6.9C161.5,85.3,164.9,82.7,168.6,80.2z"/>
		<path class="st11" d="M148.9,94.2c0,2.8,0,5.5-0.2,8.3l-0.8-0.8c0-2.2,0-4.7,0-6.9C148.1,94.6,148.5,94.4,148.9,94.2z"/>
		<path class="st11" d="M148.7,102.5l-11.1,8.1c0-0.4,0-0.8,0-1.2l10.3-7.5L148.7,102.5z"/>
		<path class="st18" d="M147.9,94.8c0,2.2,0,4.7,0,6.9l-10.3,7.5c0-2.2-0.2-4.5-0.2-6.9C140.8,99.9,144.3,97.5,147.9,94.8z"/>
		<path class="st16" d="M132.1,0.2v2.4L62.4,49.2L60.6,48C84.5,32,108.2,16,132.1,0.2z"/>
		<path class="st15" d="M129.5,136.8V155l-19.7-13.8l0.4-0.4v-1.2v-6.7v-4.5v-4.3C116.5,128.5,123,132.5,129.5,136.8z"/>
		<path class="st11" d="M129.5,128.5v8.3c-6.5-4.3-13-8.3-19.5-12.6v-1v-2.6v-4.7L129.5,128.5z"/>
		<path class="st15" d="M129.5,94v34.4L110,116.1v-3.2l5.7-4.3v-1L78.2,80.8l-7.5,5.5v1.4l5.7,4.1v2.8c-5.3-3.9-10.5-7.5-15.8-11.3
			L60.8,48l1.8,1.2L129.5,94z"/>
		<path class="st11" d="M115.7,107.8v1l-5.7,4.3v-1.2L115.7,107.8z"/>
		<path class="st12" d="M115.7,107.8l-5.7,4.1l-1.8,1.4L77.6,91.4l-1.2-0.8l-5.7-4.1l7.5-5.7L115.7,107.8z"/>
		<path class="st11" d="M110,139.4v1.4l-33.6-23.5l1.2-0.6L110,139.4z"/>
		<path class="st16" d="M110,132.9v6.7l-32.4-22.7l4.1-2.4l0.8,0.4l5.5-3.4V108c0-0.8,0-1.6,0-2.4l22.3,15.4v2.6l-3.8,2.6v4.3
			L110,132.9z"/>
		<path class="st10" d="M110,128.5v4.5l-3.9-2.6V126L110,128.5z"/>
		<path class="st9" d="M110,124.2v4.3l-3.9-2.4l3.9-2.6V124.2z"/>
		<path class="st19" d="M110,116.1v4.7l-22.3-15.4l-0.8-0.6l-4.9-3.2l-4.5-3v-5.7l30.6,21.5l1.8-1.2V116.1z"/>
		<path class="st11" d="M110,111.8v1.2l-1.8,1.2v-1L110,111.8z"/>
		<path class="st15" d="M110,140.8l-0.4,0.4L60.4,107V91.6c5.3,3.6,10.5,7.3,15.8,10.9v14.8L110,140.8z"/>
		<path class="st11" d="M108.2,113.3v1L77.6,92.8v-1.4L108.2,113.3z"/>
		<path class="st8" d="M86.9,104.8l1,0.6c0,0.8,0,1.6,0,2.4l-3-1.8L86.9,104.8z"/>
		<path class="st8" d="M87.7,107.8v3.4l-5.5,3.4c0-0.2,0-0.6,0-0.8v-2.6l1.6-1L87.7,107.8z"/>
		<path class="st8" d="M87.7,107.8l-3.8,2.4l-0.2-0.4v-3.2l1-0.6L87.7,107.8z"/>
		<path class="st9" d="M86.9,104.8l-2.2,1.2l-1.6-1l-0.8,0.6l-3.4-2.2l3.2-1.8L86.9,104.8z"/>
		<path class="st9" d="M84.7,106l-1,0.6l-1.4-1l0.8-0.6L84.7,106z"/>
		<path class="st20" d="M83.7,109.8l0.2,0.4l-1.6,1v-1l-3.6-2.4l1-0.6L83.7,109.8z"/>
		<path class="st10" d="M83.7,106.6v3.2l-4.1-2.6l2.6-1.6L83.7,106.6z"/>
		<path class="st20" d="M82.3,113.9c0,0.2,0,0.6,0,0.8l-0.8-0.4L82.3,113.9z"/>
		<path class="st8" d="M82.3,111.2v2.6l-0.6,0.4l-4.1,2.4v-3.6l4.7-2.8V111.2z"/>
		<path class="st9" d="M82.3,110.2l-4.7,2.8v-5.9l1,0.6L82.3,110.2z"/>
		<path class="st10" d="M82.3,105.6l-2.6,1.6l-0.8-0.6v-3.2L82.3,105.6z"/>
		<path class="st16" d="M82.1,101.5l-3.2,1.8v3.2l0.8,0.6l-1,0.6l-1-0.6v-8.7L82.1,101.5z"/>
		<path class="st11" d="M77.6,91.4v1.4l-1.2-1v-1.2L77.6,91.4z"/>
		<path class="st11" d="M77.6,98.5v8.7v5.9v3.6l-1.2,0.6v-14.8v-7.9v-2.8l1.2,1V98.5z"/>
		<path class="st11" d="M76.4,94.6v7.9c-5.3-3.6-10.5-7.3-15.8-10.9v-8.3C65.8,87.1,71.1,90.8,76.4,94.6z"/>
		<path class="st11" d="M76.4,90.6v1.2l-5.7-3.9v-1.4L76.4,90.6z"/>
		<path class="st4" d="M147.3,147.1l2.2,3.2l-6.7,4.1l-0.2,0.2v-4.3L147.3,147.1z"/>
		<path class="st1" d="M142.6,136.8l5.9,9.7l-1.2,0.6l-4.7,3.2V136.8z"/>
		<path class="st5" d="M143,154.4v2.4h-0.8v-2.4l0.4,0.2l0.2-0.2H143z"/>
		<path class="st6" d="M142.6,150.3v4.3l-0.4-0.2l-6.5-4.1l1.8-3L142.6,150.3z"/>
		<path class="st7" d="M142.6,136.8v13.6l-5.1-3l-1.2-0.6L142.6,136.8z"/>
		<path class="st4" d="M194.7,114.1l2,3.2l-6.5,4.1l-0.4,0.2v-4.3L194.7,114.1z"/>
		<path class="st1" d="M189.8,103.7l5.9,9.7l-1,0.6l-4.9,3.2V103.7z"/>
		<path class="st5" d="M190.3,121.4v2.4h-0.6v-2.4l0.2,0.2L190.3,121.4z"/>
		<path class="st6" d="M189.8,117.3v4.3l-0.2-0.2l-6.5-4.1l1.6-3L189.8,117.3z"/>
		<path class="st7" d="M189.8,103.7v13.6l-5.1-3l-1-0.8L189.8,103.7z"/>
	</g>
</g>
</svg>
