<?xml version="1.0" encoding="utf-8"?>
<!-- Generator: Adobe Illustrator 21.0.0, SVG Export Plug-In . SVG Version: 6.00 Build 0)  -->
<svg version="1.1" id="图层_1" xmlns="http://www.w3.org/2000/svg" xmlns:xlink="http://www.w3.org/1999/xlink" x="0px" y="0px"
	 viewBox="0 0 19.3 23.1" style="enable-background:new 0 0 19.3 23.1;" xml:space="preserve">
<style type="text/css">
	.st0{fill:#D5E9FA;}
	.st1{fill:none;stroke:#2C3C59;stroke-width:1.0742;stroke-miterlimit:10;}
	.st2{fill:none;stroke:#2C3C59;stroke-width:1.0742;}
</style>
<path class="st0" d="M2.7,2.5h10.5l6.1,4.6v16H2.7V2.5z"/>
<path class="st1" d="M11,0.5H0.5v20.6h16.6v-16 M11,0.5l6.1,4.6 M11,0.5v4.6h6.1"/>
<path class="st2" d="M5,9.2c0.9,0,1.7-0.7,1.7-1.7c0-0.9-0.7-1.7-1.7-1.7c-0.9,0-1.7,0.7-1.7,1.7C3.4,8.4,4.1,9.2,5,9.2z"/>
<path class="st2" d="M17.1,13.8L13.3,11l-5,4.5l-3-1.6L0.4,18"/>
</svg>
