<?xml version="1.0" encoding="utf-8"?>
<!-- Generator: Adobe Illustrator 21.0.0, SVG Export Plug-In . SVG Version: 6.00 Build 0)  -->
<svg version="1.1" id="图层_1" xmlns="http://www.w3.org/2000/svg" xmlns:xlink="http://www.w3.org/1999/xlink" x="0px" y="0px"
	 viewBox="0 0 199 87" style="enable-background:new 0 0 199 87;" xml:space="preserve">
<style type="text/css">
	.st0{clip-path:url(#SVGID_2_);}
	.st1{fill:#223165;}
	.st2{fill:#FFEED2;}
	.st3{fill:#ECAC72;}
	.st4{fill:#CD9467;}
	.st5{fill:#AD7850;}
	.st6{opacity:0.25;fill:#773918;enable-background:new    ;}
	.st7{opacity:0.26;fill:#502D16;enable-background:new    ;}
	.st8{fill:#FFE1AA;}
	.st9{fill:#604B43;}
	.st10{fill:none;stroke:#604B43;stroke-width:3.947800e-02;stroke-miterlimit:10;}
	.st11{fill:#F59991;}
	.st12{fill:#F0592C;}
	.st13{opacity:0.44;fill:#46A2DA;enable-background:new    ;}
	.st14{fill:#A2B7DE;}
	.st15{fill:#E7EEF8;}
	.st16{fill:#F2755C;}
	.st17{fill:#528090;}
	.st18{fill:#283654;}
	.st19{fill:none;stroke:#363E48;stroke-width:6.633800e-02;stroke-miterlimit:10;}
	.st20{fill:#90B1C3;}
	.st21{opacity:0.33;fill:#FFFFFF;enable-background:new    ;}
	.st22{opacity:0.1;}
	.st23{opacity:0.1;fill:#4B5D98;enable-background:new    ;}
</style>
<g>
	<defs>
		<rect id="SVGID_1_" width="199" height="87"/>
	</defs>
	<clipPath id="SVGID_2_">
		<use xlink:href="#SVGID_1_"  style="overflow:visible;"/>
	</clipPath>
	<g class="st0">
		<path class="st1" d="M0.7,70.1l12.9-15.8h141.4v15.8"/>
		<path class="st2" d="M124.8,51c-33.5,0-66.9,0-100.4,0c-0.7,0.7-1.1,1.1-1.8,1.8c33.5,0,66.9,0,100.6,0
			C123.4,52.4,124.1,51.7,124.8,51z"/>
		<path class="st3" d="M123,53v0.9l1.8-1.8V51L123,53z"/>
		<path class="st3" d="M123,53H22.4v0.9H123V53z"/>
		<path class="st4" d="M25.5,48.8h-2.2v4h2.2V48.8z"/>
		<path class="st2" d="M124.8,47.1c-33.5,0-66.9,0-100.4,0c-0.7,0.7-1.1,1.1-1.8,1.8c33.5,0,66.9,0,100.6,0
			C123.4,48.2,124.1,47.7,124.8,47.1z"/>
		<path class="st3" d="M123,48.8v0.9l1.8-1.8v-0.9L123,48.8z"/>
		<path class="st3" d="M123,48.8H22.4v0.9H123V48.8z"/>
		<path class="st5" d="M25.5,53l1.8-2v-1.3h-1.8V53z"/>
		<path class="st4" d="M70.5,49.7h-3.3V53h3.3V49.7z"/>
		<path class="st4" d="M121,49.7h-3.3V53h3.3V49.7z"/>
		<path class="st5" d="M70.2,53c0.4-0.7,0.7-1.3,1.1-1.8c0-0.4,0-0.9,0-1.3c-0.4,0-0.7,0-1.1,0V53z"/>
		<path class="st5" d="M120.8,53l1.8-2v-1.3h-1.8V53z"/>
		<path class="st2" d="M121.7,54.6c-33.5,0-66.9,0-100.4,0c-0.7,0.7-1.1,1.1-1.8,1.8c33.5,0,66.9,0,100.6,0
			C120.6,55.7,121.2,55.3,121.7,54.6z"/>
		<path class="st3" d="M120.1,56.4v0.9l1.6-1.8v-0.9L120.1,56.4z"/>
		<path class="st3" d="M120.1,56.4H19.5v0.9h100.6V56.4z"/>
		<path class="st4" d="M22.4,52.4h-2.2v4h2.2V52.4z"/>
		<path class="st2" d="M121.7,50.4c-33.5,0-66.9,0-100.4,0c-0.7,0.7-1.1,1.1-1.8,1.8c33.5,0,66.9,0,100.6,0
			C120.6,51.7,121.2,51,121.7,50.4z"/>
		<path class="st3" d="M120.1,52.4v0.9l1.6-2v-0.9L120.1,52.4z"/>
		<path class="st3" d="M120.1,52.4H19.5v0.9h100.6V52.4z"/>
		<path class="st5" d="M22.4,56.4l2-1.8v-1.3h-2V56.4z"/>
		<path class="st4" d="M67.4,53.3H64v3.3h3.3V53.3z"/>
		<path class="st4" d="M117.9,53.3h-3.3v3.3h3.3V53.3z"/>
		<path class="st5" d="M67.4,56.4c0.4-0.7,0.7-1.3,1.1-1.8c0-0.4,0-0.9,0-1.3c-0.4,0-0.7,0-1.1,0V56.4z"/>
		<path class="st5" d="M117.9,56.4l1.8-1.8v-1.3h-1.8V56.4z"/>
		<path class="st2" d="M118.8,57.9c-33.5,0-66.9,0-100.4,0c-0.7,0.7-1.1,1.1-1.8,1.8c33.5,0,66.9,0,100.6,0
			C117.7,59.3,118.3,58.6,118.8,57.9z"/>
		<path class="st3" d="M117.2,59.7v0.9l1.6-1.8v-0.9L117.2,59.7z"/>
		<path class="st3" d="M117.2,59.7H16.6v0.9h100.6V59.7z"/>
		<path class="st4" d="M19.5,55.7h-2.2v4h2.2V55.7z"/>
		<path class="st2" d="M118.8,53.9c-33.5,0-66.9,0-100.4,0c-0.7,0.7-1.1,1.1-1.8,1.8c33.5,0,66.9,0,100.6,0
			C117.7,55,118.3,54.4,118.8,53.9z"/>
		<path class="st3" d="M117.2,55.7v0.9l1.6-1.8v-0.9L117.2,55.7z"/>
		<path class="st3" d="M117.2,55.7H16.6v0.9h100.6V55.7z"/>
		<path class="st5" d="M19.5,59.7l2-1.8v-1.3h-2V59.7z"/>
		<path class="st4" d="M64.5,56.6h-3.3v3.3h3.3V56.6z"/>
		<path class="st4" d="M115,56.6h-3.3v3.3h3.3V56.6z"/>
		<path class="st5" d="M64.5,59.9c0.4-0.7,0.7-1.3,1.1-1.8c0-0.4,0-0.9,0-1.3c-0.4,0-0.7,0-1.1,0V59.9z"/>
		<path class="st5" d="M115,59.9l1.6-2v-1.3H115V59.9z"/>
		<path class="st2" d="M116.3,61.5c-33.5,0-66.9,0-100.4,0c-0.7,0.7-1.1,1.1-1.8,1.8c33.5,0,66.9,0,100.6,0
			C115.2,62.6,115.7,61.9,116.3,61.5z"/>
		<path class="st3" d="M114.6,63.3v0.9l1.8-1.8v-0.9L114.6,63.3z"/>
		<path class="st3" d="M114.6,63.3H14v0.9h100.6V63.3z"/>
		<path class="st4" d="M17.1,59h-2.2v4h2.2V59z"/>
		<path class="st2" d="M116.3,57.3c-33.5,0-66.9,0-100.4,0c-0.7,0.7-1.1,1.1-1.8,1.8c33.5,0,66.9,0,100.6,0
			C115.2,58.6,115.7,57.9,116.3,57.3z"/>
		<path class="st3" d="M114.6,59v0.9l1.8-1.8v-0.9L114.6,59z"/>
		<path class="st3" d="M114.6,59H14v0.9h100.6V59z"/>
		<path class="st5" d="M17.1,63.3l1.8-1.8v-1.6h-1.8V63.3z"/>
		<path class="st4" d="M62,59.9h-3.3v3.3H62V59.9z"/>
		<path class="st4" d="M112.6,59.9h-3.3v3.3h3.3V59.9z"/>
		<path class="st5" d="M61.8,63.3c0.4-0.7,0.7-1.3,1.1-1.8c0-0.4,0-0.9,0-1.3c-0.4,0-0.7,0-1.1,0V63.3z"/>
		<path class="st5" d="M112.4,63.3l1.8-1.8v-1.6h-1.8V63.3z"/>
		<path class="st2" d="M113.9,64.8c-33.5,0-66.9,0-100.4,0c-0.7,0.7-1.1,1.1-1.8,1.8c33.5,0,66.9,0,100.6,0
			C112.8,65.9,113.2,65.5,113.9,64.8z"/>
		<path class="st3" d="M112.1,66.6v0.9l1.8-1.8v-0.9L112.1,66.6z"/>
		<path class="st3" d="M112.4,66.6H11.7v0.9h100.6V66.6z"/>
		<path class="st4" d="M14.6,62.6h-2.2v4h2.2V62.6z"/>
		<path class="st2" d="M113.9,60.6c-33.5,0-66.9,0-100.4,0c-0.7,0.7-1.1,1.1-1.8,1.8c33.5,0,66.9,0,100.6,0
			C112.8,61.9,113.2,61.3,113.9,60.6z"/>
		<path class="st3" d="M112.1,62.6v0.9l1.8-1.8v-1.1L112.1,62.6z"/>
		<path class="st3" d="M112.4,62.6H11.7v0.9h100.6V62.6z"/>
		<path class="st5" d="M14.6,66.6l1.8-1.8v-1.3h-1.8V66.6z"/>
		<path class="st4" d="M59.6,63.5h-3.3v3.3h3.3V63.5z"/>
		<path class="st4" d="M110.1,63.5h-3.3v3.3h3.3V63.5z"/>
		<path class="st5" d="M59.6,66.6c0.4-0.7,0.7-1.3,1.1-1.8c0-0.4,0-0.9,0-1.3c-0.4,0-0.7,0-1.1,0V66.6z"/>
		<path class="st5" d="M109.9,66.6l1.8-1.8v-1.3h-1.8V66.6z"/>
		<path class="st6" d="M113.7,59c-30.4,0.2-60.7,0.2-91.1,0.4c1.8-3.8,3.8-7.8,5.5-11.5c31.7,0,63.2,0,94.8,0
			C119.9,51.7,116.8,55.5,113.7,59z"/>
		<path class="st7" d="M22.6,59.7v0.9H113v-0.7h0.4l0.2-0.9L22.6,59.7z"/>
		<path class="st8" d="M115.9,32H94v22h21.9V32z"/>
		<path class="st3" d="M115.9,53.9c1.3-1.6,2.4-3.1,3.8-4.7c0-7.1,0-14.2,0-21.3c-1.1,1.3-2.4,2.7-3.5,4v22H115.9z"/>
		<path class="st2" d="M119.7,28c-6.6,0.2-13.5,0.4-20.2,0.7c-1.8,1.1-3.8,2.2-5.5,3.3h21.9C117.2,30.6,118.3,29.3,119.7,28z"/>
		<path class="st9" d="M112.4,49v0.9v0.4c0,0.2,0.2,0.7,0.7,0.7v1.3h-0.4v0.2h0.9v-0.2H113V51c0.2,0,0.7-0.2,0.7-0.7v-0.4V49H112.4z
			"/>
		<path class="st10" d="M114.6,49h-3.1v3.8h3.1V49z"/>
		<path class="st10" d="M110.6,49h-3.1v3.8h3.1V49z"/>
		<path class="st9" d="M108.6,49.7h-0.2v2.4h0.2V49.7z"/>
		<path class="st9" d="M108.1,49.7l0.2-0.4l0.4,0.4"/>
		<path class="st9" d="M109.7,49.7h-0.2v2.4h0.2V49.7z"/>
		<path class="st9" d="M109,49.7l0.4-0.4l0.4,0.4"/>
		<path class="st9" d="M109.9,52.4h-1.8v0.2h1.8V52.4z"/>
		<path class="st8" d="M48.5,9.1H26.6v22h21.9V9.1z"/>
		<path class="st3" d="M48.8,31.3c1.3-1.3,2.9-2.7,4.2-4c0-7.1,0.2-14.2,0.2-21.5c-1.6,1.1-2.9,2.2-4.4,3.3V31.3z"/>
		<path class="st2" d="M53,5.8c-6.9,0-14,0-20.8,0c-1.8,1.1-3.8,2.2-5.5,3.3h22.2C50.1,8,51.6,6.9,53,5.8z"/>
		<path class="st9" d="M45,26.4v0.9v0.4c0,0.2,0.2,0.7,0.7,0.7v1.3h-0.4V30h0.9v-0.2h-0.4v-1.3c0.2,0,0.7-0.2,0.7-0.7v-0.4v-0.9H45z
			"/>
		<path class="st10" d="M47.4,26.2h-3.1V30h3.1V26.2z"/>
		<path class="st10" d="M43.2,26.2h-3.1V30h3.1V26.2z"/>
		<path class="st9" d="M41.2,26.9H41v2.4h0.2V26.9z"/>
		<path class="st9" d="M40.8,26.9l0.4-0.4l0.2,0.4"/>
		<path class="st9" d="M42.3,26.9h-0.2v2.4h0.2V26.9z"/>
		<path class="st9" d="M41.9,26.9l0.2-0.4l0.4,0.4"/>
		<path class="st9" d="M42.5,29.5h-1.8v0.2h1.8V29.5z"/>
		<path class="st8" d="M70,31.3c-6.9,0-14-0.2-20.8-0.2c0-7.1,0-14.4-0.2-21.5c7.1,0,14,0,21.1,0V31.3z"/>
		<path class="st3" d="M70,31.3l3.8-3.8V5.8L70,9.1V31.3z"/>
		<path class="st2" d="M73.8,5.8c-6.6,0-13.5,0-20.2,0C52.1,6.9,50.5,8,49,9.3c7.1,0,14,0,21.1,0L73.8,5.8z"/>
		<path class="st9" d="M66.5,26.4v0.9v0.4c0,0.2,0.2,0.7,0.7,0.7v1.3h-0.4V30h0.9v-0.2h-0.4v-1.3c0.2,0,0.7-0.2,0.7-0.7v-0.4v-0.9
			H66.5z"/>
		<path class="st10" d="M68.9,26.2h-3.1V30h3.1V26.2z"/>
		<path class="st10" d="M64.7,26.2h-3.1V30h3.1V26.2z"/>
		<path class="st9" d="M62.7,26.9h-0.2v2.4h0.2V26.9z"/>
		<path class="st9" d="M62.3,26.9l0.4-0.4l0.2,0.4"/>
		<path class="st9" d="M63.8,26.9h-0.2v2.4h0.2V26.9z"/>
		<path class="st9" d="M63.4,26.9l0.2-0.4l0.4,0.4"/>
		<path class="st9" d="M64,29.5h-1.8v0.2H64V29.5z"/>
		<path class="st8" d="M92.4,9.1H70.5v22h21.9V9.1z"/>
		<path class="st3" d="M92.4,31.3l3.8-3.8V5.8l-3.8,3.3V31.3z"/>
		<path class="st2" d="M96.2,5.8c-7.1,0-14.2,0-21.3,0C73.4,6.9,72,8,70.5,9.1h21.9L96.2,5.8z"/>
		<path class="st9" d="M88.9,26.4v0.9v0.4c0,0.2,0.2,0.7,0.7,0.7v1.3h-0.4V30H90v-0.2h-0.4v-1.3c0.2,0,0.7-0.2,0.7-0.7v-0.4v-0.9
			H88.9z"/>
		<path class="st10" d="M91.1,26.2H88V30h3.1V26.2z"/>
		<path class="st10" d="M87.1,26.2H84V30h3.1V26.2z"/>
		<path class="st9" d="M85.1,26.9h-0.2v2.4h0.2V26.9z"/>
		<path class="st9" d="M84.4,26.9l0.4-0.4l0.4,0.4"/>
		<path class="st9" d="M86,26.9h-0.2v2.4H86V26.9z"/>
		<path class="st9" d="M85.5,26.9l0.4-0.4l0.4,0.4"/>
		<path class="st9" d="M86.2,29.5h-1.8v0.2h1.8V29.5z"/>
		<path class="st8" d="M115.7,9.1H93.7v22h21.9V9.1z"/>
		<path class="st3" d="M115.7,31.3l3.8-3.8V5.8l-3.8,3.3V31.3z"/>
		<path class="st2" d="M119.4,5.8c-7.3,0-14.8,0.2-22.2,0.2c-1.1,1.1-2.4,2.2-3.5,3.1h21.9L119.4,5.8z"/>
		<path class="st9" d="M112.1,26.4v0.9v0.4c0,0.2,0.2,0.7,0.7,0.7v1.3h-0.4V30h0.9v-0.2H113v-1.3c0.2,0,0.7-0.2,0.7-0.7v-0.4v-0.9
			H112.1z"/>
		<path class="st10" d="M114.6,26.2h-3.1V30h3.1V26.2z"/>
		<path class="st10" d="M110.4,26.2h-3.1V30h3.1V26.2z"/>
		<path class="st9" d="M108.4,26.9h-0.2v2.4h0.2V26.9z"/>
		<path class="st9" d="M107.9,26.9l0.4-0.4l0.2,0.4"/>
		<path class="st9" d="M109.5,26.9h-0.2v2.4h0.2V26.9z"/>
		<path class="st9" d="M109,26.9l0.2-0.4l0.4,0.4"/>
		<path class="st9" d="M109.7,29.5h-1.8v0.2h1.8V29.5z"/>
		<path class="st8" d="M43,36.4H21.1v22H43V36.4z"/>
		<path class="st3" d="M43,58.4l3.8-3.8V32.8L43,36.4V58.4z"/>
		<path class="st2" d="M46.8,32.8c-6.6,0-13.5,0-20.2,0c-1.8,1.1-3.8,2.2-5.5,3.3H43L46.8,32.8z"/>
		<path class="st9" d="M39.4,53.5v0.9v0.4c0,0.2,0.2,0.7,0.7,0.7v1.3h-0.4V57h0.9v-0.2h-0.4v-1.3c0.2,0,0.7-0.2,0.7-0.7v-0.4v-0.9
			H39.4z"/>
		<path class="st10" d="M41.9,53.3h-3.1V57h3.1V53.3z"/>
		<path class="st10" d="M37.7,53.3h-3.1V57h3.1V53.3z"/>
		<path class="st9" d="M35.7,54.2h-0.2v2.4h0.2V54.2z"/>
		<path class="st9" d="M35.2,54.2l0.4-0.7l0.2,0.7"/>
		<path class="st9" d="M36.8,54.2h-0.2v2.4h0.2V54.2z"/>
		<path class="st9" d="M36.3,54.2l0.2-0.7l0.4,0.7"/>
		<path class="st9" d="M37,56.8h-1.8V57H37V56.8z"/>
		<path class="st8" d="M43,13.3H21.1v22H43V13.3z"/>
		<path class="st3" d="M43,35.5c1.8-1.6,3.3-3.3,5.1-4.9c0-6.9-0.2-13.8-0.2-20.4c-1.6,1.1-3.3,2.2-4.9,3.3V35.5z"/>
		<path class="st2" d="M47.9,10c-7.1,0-14.2,0-21.3,0c-1.8,1.1-3.8,2.2-5.5,3.3H43C44.8,12.2,46.3,11.1,47.9,10z"/>
		<path class="st9" d="M39.4,30.6v0.9V32c0,0.2,0.2,0.7,0.7,0.7V34h-0.4v0.2h0.9V34h-0.4v-1.3c0.2,0,0.7-0.2,0.7-0.7v-0.4v-0.9H39.4
			z"/>
		<path class="st10" d="M41.9,30.4h-3.1v3.8h3.1V30.4z"/>
		<path class="st10" d="M37.7,30.4h-3.1v3.8h3.1V30.4z"/>
		<path class="st9" d="M35.7,31.1h-0.2v2.4h0.2V31.1z"/>
		<path class="st9" d="M35.2,31.1l0.4-0.4l0.2,0.4"/>
		<path class="st9" d="M36.8,31.1h-0.2v2.4h0.2V31.1z"/>
		<path class="st9" d="M36.3,31.1l0.2-0.4l0.4,0.4"/>
		<path class="st9" d="M37,33.7h-1.8V34H37V33.7z"/>
		<path class="st8" d="M65.8,36.4H43.9v22h21.9V36.4z"/>
		<path class="st3" d="M65.8,58.4l3.8-3.8V32.8l-3.8,3.6V58.4z"/>
		<path class="st2" d="M69.6,32.8c-6.6,0-13.5,0-20.2,0c-1.8,1.1-3.8,2.2-5.5,3.3h21.9L69.6,32.8z"/>
		<path class="st9" d="M62.3,53.5v0.9v0.4c0,0.2,0.2,0.7,0.7,0.7v1.3h-0.4V57h0.9v-0.2h-0.4v-1.3c0.2,0,0.7-0.2,0.7-0.7v-0.4v-0.9
			H62.3z"/>
		<path class="st10" d="M64.5,53.3h-3.1V57h3.1V53.3z"/>
		<path class="st10" d="M60.5,53.3h-3.1V57h3.1V53.3z"/>
		<path class="st9" d="M58.5,54.2h-0.2v2.4h0.2V54.2z"/>
		<path class="st9" d="M58.1,54.2l0.2-0.7l0.4,0.7"/>
		<path class="st9" d="M59.4,54.2h-0.2v2.4h0.2V54.2z"/>
		<path class="st9" d="M58.9,54.2l0.4-0.7l0.4,0.7"/>
		<path class="st9" d="M59.8,56.8h-1.8V57h1.8V56.8z"/>
		<path class="st8" d="M65.8,13.3H43.9v22h21.9V13.3z"/>
		<path class="st3" d="M65.8,35.5l3.8-3.8V10l-3.8,3.3V35.5z"/>
		<path class="st2" d="M69.6,10c-6.6,0-13.5,0-20.2,0c-1.8,1.1-3.8,2.2-5.5,3.3h21.9L69.6,10z"/>
		<path class="st9" d="M62.3,30.6v0.9V32c0,0.2,0.2,0.7,0.7,0.7V34h-0.4v0.2h0.9V34h-0.4v-1.3c0.2,0,0.7-0.2,0.7-0.7v-0.4v-0.9H62.3
			z"/>
		<path class="st10" d="M64.5,30.4h-3.1v3.8h3.1V30.4z"/>
		<path class="st10" d="M60.5,30.4h-3.1v3.8h3.1V30.4z"/>
		<path class="st9" d="M58.5,31.1h-0.2v2.4h0.2V31.1z"/>
		<path class="st9" d="M58.1,31.1l0.2-0.4l0.4,0.4"/>
		<path class="st9" d="M59.4,31.1h-0.2v2.4h0.2V31.1z"/>
		<path class="st9" d="M58.9,31.1l0.4-0.4l0.4,0.4"/>
		<path class="st9" d="M59.8,33.7h-1.8V34h1.8V33.7z"/>
		<path class="st8" d="M88.9,36.4H66.9v22h21.9V36.4z"/>
		<path class="st3" d="M88.9,58.4l3.8-3.8V32.8l-3.8,3.6V58.4z"/>
		<path class="st2" d="M92.6,32.8c-6.6,0-13.5,0-20.2,0c-1.8,1.1-3.8,2.2-5.5,3.3h21.9L92.6,32.8z"/>
		<path class="st9" d="M85.3,53.5v0.9v0.4c0,0.2,0.2,0.7,0.7,0.7v1.3h-0.4V57h0.9v-0.2H86v-1.3c0.2,0,0.7-0.2,0.7-0.7v-0.4v-0.9
			H85.3z"/>
		<path class="st10" d="M87.5,53.3h-3.1V57h3.1V53.3z"/>
		<path class="st10" d="M83.5,53.3h-3.1V57h3.1V53.3z"/>
		<path class="st9" d="M81.6,54.2h-0.2v2.4h0.2V54.2z"/>
		<path class="st9" d="M80.9,54.2l0.4-0.7l0.4,0.7"/>
		<path class="st9" d="M82.4,54.2h-0.2v2.4h0.2V54.2z"/>
		<path class="st9" d="M82,54.2l0.4-0.7l0.4,0.7"/>
		<path class="st9" d="M82.7,56.8h-1.8V57h1.8V56.8z"/>
		<path class="st8" d="M88.9,13.3H66.9v22h21.9V13.3z"/>
		<path class="st3" d="M88.9,35.5l3.8-3.8V10l-3.8,3.3V35.5z"/>
		<path class="st2" d="M92.6,10c-7.3,0.2-14.8,0.2-22.2,0.4c-1.1,1.1-2.4,2-3.5,3.1h21.9L92.6,10z"/>
		<path class="st9" d="M85.3,30.6v0.9V32c0,0.2,0.2,0.7,0.7,0.7V34h-0.4v0.2h0.9V34H86v-1.3c0.2,0,0.7-0.2,0.7-0.7v-0.4v-0.9H85.3z"
			/>
		<path class="st10" d="M87.5,30.4h-3.1v3.8h3.1V30.4z"/>
		<path class="st10" d="M83.5,30.4h-3.1v3.8h3.1V30.4z"/>
		<path class="st9" d="M81.6,31.1h-0.2v2.4h0.2V31.1z"/>
		<path class="st9" d="M80.9,31.1l0.4-0.4l0.4,0.4"/>
		<path class="st9" d="M82.4,31.1h-0.2v2.4h0.2V31.1z"/>
		<path class="st9" d="M82,31.1l0.4-0.4l0.4,0.4"/>
		<path class="st9" d="M82.7,33.7h-1.8V34h1.8V33.7z"/>
		<path class="st8" d="M111.5,36.4H89.5v22h21.9V36.4z"/>
		<path class="st3" d="M111.7,58.4c1.3-1.6,2.4-3.1,3.8-4.7c0-7.1,0-14.2,0-21.3c-1.1,1.3-2.4,2.7-3.5,4v22H111.7z"/>
		<path class="st2" d="M115.2,32.4c-6.6,0.2-13.5,0.4-20.2,0.7c-1.8,1.1-3.8,2.2-5.5,3.3h21.9C112.8,35.1,114.1,33.7,115.2,32.4z"/>
		<path class="st9" d="M108.1,53.5v0.9v0.4c0,0.2,0.2,0.7,0.7,0.7v1.3h-0.4V57h0.9v-0.2h-0.4v-1.3c0.2,0,0.7-0.2,0.7-0.7v-0.4v-0.9
			H108.1z"/>
		<path class="st10" d="M110.4,53.3h-3.1V57h3.1V53.3z"/>
		<path class="st10" d="M106.1,53.3H103V57h3.1V53.3z"/>
		<path class="st9" d="M104.2,54.2h-0.2v2.4h0.2V54.2z"/>
		<path class="st9" d="M103.7,54.2l0.4-0.7l0.4,0.7"/>
		<path class="st9" d="M105.3,54.2H105v2.4h0.2V54.2z"/>
		<path class="st9" d="M104.8,54.2l0.4-0.7l0.2,0.7"/>
		<path class="st9" d="M105.5,56.8h-1.8V57h1.8V56.8z"/>
		<path class="st8" d="M111.5,13.3H89.5v22h21.9V13.3z"/>
		<path class="st3" d="M111.7,35.5l3.8-3.8V10l-3.8,3.3V35.5z"/>
		<path class="st2" d="M115.5,10c-7.3,0-14.6,0-21.9,0.2c-1.3,1.1-2.4,2.2-3.8,3.3h21.9L115.5,10z"/>
		<path class="st9" d="M108.1,30.6v0.9V32c0,0.2,0.2,0.7,0.7,0.7V34h-0.4v0.2h0.9V34h-0.4v-1.3c0.2,0,0.7-0.2,0.7-0.7v-0.4v-0.9
			H108.1z"/>
		<path class="st10" d="M110.4,30.4h-3.1v3.8h3.1V30.4z"/>
		<path class="st10" d="M106.1,30.4H103v3.8h3.1V30.4z"/>
		<path class="st9" d="M104.2,31.1h-0.2v2.4h0.2V31.1z"/>
		<path class="st9" d="M103.7,31.1l0.4-0.4l0.4,0.4"/>
		<path class="st9" d="M105.3,31.1H105v2.4h0.2V31.1z"/>
		<path class="st9" d="M104.8,31.1l0.4-0.4l0.2,0.4"/>
		<path class="st9" d="M105.5,33.7h-1.8V34h1.8V33.7z"/>
		<path class="st11" d="M199.2,70.1H0.7v5.3h198.6V70.1z"/>
		<path class="st12" d="M192.1,12.2c-1.8-4.7-7.1-8.4-11.7-8.4h-23.9v67.7H0.7v5.3h8.4c1.3-1.6,3.3-2.7,5.5-2.7
			c2.2,0,4.2,1.1,5.5,2.7h6c1.3-1.6,3.3-2.7,5.5-2.7c2.2,0,4.2,1.1,5.5,2.7h6.6c1.3-1.6,3.3-2.7,5.5-2.7s4.2,1.1,5.5,2.7h88
			c1.3-1.6,3.3-2.7,5.5-2.7s4.2,1.1,5.5,2.7h2.7h15.1c1.3-1.6,3.3-2.7,5.5-2.7s4.2,1.1,5.5,2.7h16.6V30.2L192.1,12.2z"/>
		<path class="st13" d="M155.1,3.8H0.7v66.4h154.5V3.8z"/>
		<path class="st14" d="M193.7,16.2l-0.9-2.4c-3.3,0.7-4.4,2.7-4.4,2.7s0,3.6,2.7,9.8c2.7,6,8,3.6,8,3.6L193.7,16.2z"/>
		<path class="st15" d="M193.7,16l-1.1-2.2c-3.3,0.7-4.4,2.9-4.4,2.9s0,3.6,2.7,9.8c5.3-2.9,3.8-7.1,3.8-7.1L193.7,16z"/>
		<path class="st16" d="M156.5,0h14.6l6,3.8h-20.6V0z"/>
		<path class="st17" d="M155.1,67.7H0.7v2.4h154.5V67.7z"/>
		<path class="st17" d="M3.3,3.8H0.7v63.7h2.7V3.8z"/>
		<path class="st18" d="M199,55.5h-2v12.2h2V55.5z"/>
		<path class="st19" d="M186.4,52.6c0,0.9-0.9,1.8-1.8,1.8h-21.9c-0.9,0-1.8-0.9-1.8-1.8v-24c0-0.9,0.9-1.8,1.8-1.8h21.9
			c0.9,0,1.8,0.9,1.8,1.8V52.6z"/>
		<path class="st20" d="M170.4,36.6h-7.3v0.7h7.3V36.6z"/>
		<path class="st17" d="M170.4,57.7h-7.3v0.7h7.3V57.7z"/>
		<path class="st17" d="M170.4,61.3h-7.3v0.7h7.3V61.3z"/>
		<path class="st17" d="M170.4,59.3h-7.3v0.7h7.3V59.3z"/>
		<path class="st18" d="M26.1,69.2H12.6v1.6h13.5V69.2z"/>
		<path class="st18" d="M150,69.2h-13.5v1.6H150V69.2z"/>
		<path class="st14" d="M186.4,28.6c0,2.2-1.8,4-4,4h-17.3c-2.2,0-4-1.8-4-4V18c0-2.2,1.8-4,4-4h17.3c2.2,0,4,1.8,4,4V28.6z"/>
		<path class="st15" d="M163.8,30.4c-1.6,1.3-2.9,0.7-2.9-1.3V17.5c0-2,1.6-3.6,3.5-3.6h16.4c2,0,2.4,1.1,0.9,2.2L163.8,30.4z"/>
		<path class="st17" d="M199.2,75.5H2v3.1h197.2V75.5z"/>
		<path class="st18" d="M38.8,79.9c0,4-3.1,7.1-7.1,7.1s-7.1-3.1-7.1-7.1s3.1-7.1,7.1-7.1C35.5,72.8,38.8,75.9,38.8,79.9z"/>
		<path class="st20" d="M36.6,79.9c0,2.7-2.2,4.9-4.9,4.9c-2.7,0-4.9-2.2-4.9-4.9c0-2.7,2.2-4.9,4.9-4.9
			C34.3,75,36.6,77.2,36.6,79.9z"/>
		<path class="st17" d="M34.1,79.9c0,1.3-1.1,2.4-2.4,2.4s-2.4-1.1-2.4-2.4c0-1.3,1.1-2.4,2.4-2.4S34.1,78.6,34.1,79.9z"/>
		<path class="st18" d="M56.3,79.9c0,4-3.1,7.1-7.1,7.1c-4,0-7.1-3.1-7.1-7.1s3.1-7.1,7.1-7.1C53.2,72.8,56.3,75.9,56.3,79.9z"/>
		<path class="st20" d="M54.3,79.9c0,2.7-2.2,4.9-4.9,4.9s-4.9-2.2-4.9-4.9c0-2.7,2.2-4.9,4.9-4.9S54.3,77.2,54.3,79.9z"/>
		<path class="st17" d="M51.6,79.9c0,1.3-1.1,2.4-2.4,2.4c-1.3,0-2.4-1.1-2.4-2.4c0-1.3,1.1-2.4,2.4-2.4
			C50.5,77.5,51.6,78.6,51.6,79.9z"/>
		<path class="st18" d="M155.3,79.9c0,4-3.1,7.1-7.1,7.1c-4,0-7.1-3.1-7.1-7.1s3.1-7.1,7.1-7.1C152.2,72.8,155.3,75.9,155.3,79.9z"
			/>
		<path class="st20" d="M153.4,79.9c0,2.7-2.2,4.9-4.9,4.9s-4.9-2.2-4.9-4.9c0-2.7,2.2-4.9,4.9-4.9C150.9,75,153.4,77.2,153.4,79.9z
			"/>
		<path class="st17" d="M148.3,82.3c1.3,0,2.4-1.1,2.4-2.4c0-1.3-1.1-2.4-2.4-2.4c-1.3,0-2.4,1.1-2.4,2.4
			C145.8,81.2,146.9,82.3,148.3,82.3z"/>
		<path class="st17" d="M177.1,74.6c0-0.9,0.9-1.8,1.8-1.8h18.4c0.9,0,1.8,0.9,1.8,1.8v2.2c0,0.9-0.9,1.8-1.8,1.8h-18.6
			c-0.9,0-1.8-0.9-1.8-1.8v-2.2H177.1z"/>
		<path class="st18" d="M184.2,79.9c0,4-3.1,7.1-7.1,7.1c-4,0-7.1-3.1-7.1-7.1s3.1-7.1,7.1-7.1C181.1,72.8,184.2,75.9,184.2,79.9z"
			/>
		<path class="st20" d="M181.9,79.9c0,2.7-2.2,4.9-4.9,4.9s-4.9-2.2-4.9-4.9c0-2.7,2.2-4.9,4.9-4.9S181.9,77.2,181.9,79.9z"/>
		<path class="st17" d="M179.5,79.9c0,1.3-1.1,2.4-2.4,2.4c-1.3,0-2.4-1.1-2.4-2.4c0-1.3,1.1-2.4,2.4-2.4
			C178.4,77.5,179.5,78.6,179.5,79.9z"/>
		<path class="st18" d="M21.7,79.9c0,4-3.1,7.1-7.1,7.1c-4,0-7.1-3.1-7.1-7.1s3.1-7.1,7.1-7.1C18.4,72.8,21.7,75.9,21.7,79.9z"/>
		<path class="st20" d="M19.5,79.9c0,2.7-2.2,4.9-4.9,4.9c-2.7,0-4.9-2.2-4.9-4.9c0-2.7,2.2-4.9,4.9-4.9
			C17.3,75,19.5,77.2,19.5,79.9z"/>
		<path class="st17" d="M17.1,79.9c0,1.3-1.1,2.4-2.4,2.4c-1.3,0-2.4-1.1-2.4-2.4c0-1.3,1.1-2.4,2.4-2.4
			C16,77.5,17.1,78.6,17.1,79.9z"/>
		<path class="st18" d="M1.1,60.8H0v1.6h1.1V60.8z"/>
		<path class="st18" d="M1.1,19.3H0v1.6h1.1V19.3z"/>
		<path class="st18" d="M1.1,29.7H0v1.6h1.1V29.7z"/>
		<path class="st18" d="M1.1,9.1H0v1.6h1.1V9.1z"/>
		<path class="st18" d="M1.1,40.2H0v1.6h1.1V40.2z"/>
		<path class="st18" d="M1.1,50.6H0v1.6h1.1V50.6z"/>
		<path class="st21" d="M3.3,67.7L154.9,3.8H3.3V67.7z"/>
		<g class="st22">
			<path class="st23" d="M10.4,7.5H7.5v58.8h2.9V7.5z"/>
			<path class="st23" d="M18.6,7.5h-2.9v58.8h2.9V7.5z"/>
			<path class="st23" d="M26.6,7.5h-2.9v58.8h2.9V7.5z"/>
			<path class="st23" d="M34.8,7.5h-2.9v58.8h2.9V7.5z"/>
			<path class="st23" d="M42.8,7.5h-2.9v58.8h2.9V7.5z"/>
			<path class="st23" d="M51,7.5h-2.9v58.8H51V7.5z"/>
			<path class="st23" d="M58.9,7.5h-2.9v58.8h2.9V7.5z"/>
			<path class="st23" d="M67.1,7.5h-2.9v58.8h2.9V7.5z"/>
			<path class="st23" d="M75.1,7.5h-2.9v58.8h2.9V7.5z"/>
			<path class="st23" d="M83.3,7.5h-2.9v58.8h2.9V7.5z"/>
			<path class="st23" d="M91.3,7.5h-2.9v58.8h2.9V7.5z"/>
			<path class="st23" d="M99.3,7.5h-2.9v58.8h2.9V7.5z"/>
			<path class="st23" d="M107.5,7.5h-2.9v58.8h2.9V7.5z"/>
			<path class="st23" d="M115.5,7.5h-2.9v58.8h2.9V7.5z"/>
			<path class="st23" d="M123.7,7.5h-2.9v58.8h2.9V7.5z"/>
			<path class="st23" d="M131.6,7.5h-2.9v58.8h2.9V7.5z"/>
			<path class="st23" d="M139.8,7.5H137v58.8h2.9V7.5z"/>
			<path class="st23" d="M147.8,7.5h-2.9v58.8h2.9V7.5z"/>
		</g>
	</g>
</g>
</svg>
