<?xml version="1.0" encoding="utf-8"?>
<!-- Generator: Adobe Illustrator 21.0.0, SVG Export Plug-In . SVG Version: 6.00 Build 0)  -->
<svg version="1.1" id="图层_1" xmlns="http://www.w3.org/2000/svg" xmlns:xlink="http://www.w3.org/1999/xlink" x="0px" y="0px"
	 viewBox="0 0 23.4 22" style="enable-background:new 0 0 23.4 22;" xml:space="preserve">
<style type="text/css">
	.st0{fill:#D5E9FA;}
	.st1{fill:#2C3C59;}
	.st2{fill:none;stroke:#2C3C59;stroke-width:1.0742;}
</style>
<rect x="3.2" y="2.7" class="st0" width="19.3" height="19.3"/>
<path class="st1" d="M9.8,14.2l-4.1-3.8c-0.4-0.4-1.1-0.4-1.5,0c-0.5,0.4-0.5,1.2,0,1.7L9,16.4c0.5,0.4,1.2,0.4,1.7,0L23,5.1
	c0.5-0.4,0.5-1.2,0-1.7c-0.4-0.4-1.1-0.4-1.5,0L9.8,14.2z"/>
<path class="st2" d="M1.8,0.5h16.8c0.7,0,1.3,0.6,1.3,1.3v16.8c0,0.7-0.6,1.3-1.3,1.3H1.8c-0.7,0-1.3-0.6-1.3-1.3V1.8
	C0.5,1.1,1.1,0.5,1.8,0.5z"/>
</svg>
