<?xml version="1.0" encoding="utf-8"?>
<!-- Generator: Adobe Illustrator 21.0.0, SVG Export Plug-In . SVG Version: 6.00 Build 0)  -->
<svg version="1.1" id="图层_1" xmlns="http://www.w3.org/2000/svg" xmlns:xlink="http://www.w3.org/1999/xlink" x="0px" y="0px"
	 viewBox="0 0 85 85" style="enable-background:new 0 0 85 85;" xml:space="preserve">
<style type="text/css">
	.st0{clip-path:url(#SVGID_2_);}
	.st1{fill:#7E8F95;}
	.st2{fill:#ABB3D0;}
	.st3{fill:#BDCAE7;}
	.st4{fill:#E3EBF7;}
	.st5{fill:#EA750C;}
	.st6{fill:#FFA85A;}
</style>
<g>
	<defs>
		<rect id="SVGID_1_" width="85" height="85"/>
	</defs>
	<clipPath id="SVGID_2_">
		<use xlink:href="#SVGID_1_"  style="overflow:visible;"/>
	</clipPath>
	<g class="st0">
		<path class="st1" d="M14.7,73.9c2.1-4,1.2-8.6-2-10.2S5.4,64,3.3,68c-2.1,4-1.2,8.6,2,10.2C8.5,79.8,12.7,77.9,14.7,73.9z"/>
		<path class="st2" d="M16.2,74.6c2.1-4,1.2-8.6-2-10.2c-3.2-1.6-7.4,0.3-9.4,4.3c-2.1,4-1.2,8.6,2,10.2
			C9.8,80.6,14.1,78.6,16.2,74.6z"/>
		<path class="st3" d="M14.5,73.7c1.4-2.7,0.8-5.8-1.3-6.9c-2.1-1.1-5,0.2-6.4,3c-1.4,2.7-0.8,5.8,1.3,6.9
			C10.2,77.8,13.1,76.4,14.5,73.7z"/>
		<path class="st4" d="M13.2,73.3c1-2,0.6-4.2-1-5c-1.5-0.8-3.6,0.2-4.6,2.1s-0.6,4.2,1,5C10.1,76.2,12.2,75.3,13.2,73.3z"/>
		<path class="st5" d="M84,49.4c1.6,1.9-0.5,4.3-0.5,4.3c-1.7,1-3.7,1.9-5.4,3C64.5,64,50.8,71.3,37.2,78.6l-0.7-1.2
			C52.1,69,67.6,60.5,83.1,52.1C83.8,50.8,84,49.9,84,49.4z"/>
		<path class="st6" d="M83.8,49.4c0.2,0.5,0,1.4-0.9,2.6c-15.5,8.3-31.1,16.9-46.6,25.2l-2.1-3.3c14.6-8.5,29-17,43.5-25.6
			C77.9,48.3,83.3,47.1,83.8,49.4z"/>
		<path class="st1" d="M77.9,56.5c1.7-1,3.7-1.9,5.4-3C83.1,59.1,77.9,56.5,77.9,56.5z"/>
		<path class="st5" d="M64,36.7c1.4,1.7-0.5,3.8-0.5,3.8l-5.9,3.3l-30.9,17L25.2,60l37.9-21C64,38.1,64.1,37.4,64,36.7z"/>
		<path class="st6" d="M64,36.7c0.2,0.5,0,1.4-0.9,2.4l-37.9,21L21,57.4l37.9-21.7C58.9,35.6,63.6,34.8,64,36.7z"/>
		<path class="st1" d="M57.5,44l5.9-3.3C61.5,46.8,57.5,44,57.5,44z"/>
		<path class="st1" d="M36.3,77.2l0.9,1.2l-14.9-0.5L17.7,69v-6.6l8.9-1.4l7.8,12.9L36.3,77.2z"/>
		<path class="st4" d="M26.6,61l-8.9,1.4v-7.1l3.3,2.1l4.2,2.8L26.6,61z"/>
		<path class="st2" d="M26.2,19.8c0.3,1-0.3,1.9-1.4,1.9h-6.9v-2.1c1.7,0,3.5,0,5.2-0.2c0.2,0-0.9-4-1-4.3c-1.2-2.3-3-3.8-5-5.2
			c-2.6-1.6-5-3.3-7.5-5.2C8.5,4,7.5,3,6.1,3.3c-1.4,0.5-4,2.4-2.8,3.5c0.2,0.3,8.9,10.8,8.9,10.8v3.3L0.9,7.6
			c-0.5-0.5-0.5-1.4,0-1.9l4-4.7c0.4-0.7,1.1-0.7,1.7-0.3l15.7,8.9c0.3,0.2,0.5,0.5,0.7,0.9L26.2,19.8z"/>
		<path class="st2" d="M17.7,62.4V69L17,69.2c-2.6,0.7-4.9,4-4.9,4V21v-3.3V12c0,0,2.1,3.8,5.6,0.5v7.1v2.1v33.5V62.4z"/>
		<path class="st4" d="M12.2,12c3.8-2.1,5.6,0.5,5.6,0.5C14.3,15.8,12.2,12,12.2,12z"/>
		<path class="st1" d="M22.3,79.5c2.1-4,1.2-8.6-2-10.2c-3.2-1.6-7.4,0.3-9.4,4.3c-2.1,4-1.2,8.6,2,10.2
			C16,85.4,20.2,83.5,22.3,79.5z"/>
		<path class="st2" d="M23.7,80.1c2.1-4,1.2-8.6-2-10.2c-3.2-1.6-7.4,0.3-9.4,4.3c-2.1,4-1.2,8.6,2,10.2
			C17.5,86,21.7,84.1,23.7,80.1z"/>
		<path class="st3" d="M21.9,79.2c1.4-2.7,0.8-5.8-1.3-6.9c-2.1-1.1-5,0.2-6.4,3c-1.4,2.7-0.8,5.8,1.3,6.9
			C17.6,83.3,20.5,81.9,21.9,79.2z"/>
		<path class="st4" d="M20.8,78.7c1-2,0.6-4.2-1-5c-1.5-0.8-3.6,0.2-4.6,2.1c-1,2-0.6,4.2,1,5C17.7,81.6,19.8,80.7,20.8,78.7z"/>
	</g>
</g>
</svg>
