<?xml version="1.0" encoding="utf-8"?>
<!-- Generator: Adobe Illustrator 21.0.0, SVG Export Plug-In . SVG Version: 6.00 Build 0)  -->
<svg version="1.1" id="图层_1" xmlns="http://www.w3.org/2000/svg" xmlns:xlink="http://www.w3.org/1999/xlink" x="0px" y="0px"
	 viewBox="0 0 23.7 15.9" style="enable-background:new 0 0 23.7 15.9;" xml:space="preserve">
<style type="text/css">
	.st0{fill:#D5E9FA;}
	.st1{fill:none;stroke:#2C3C59;stroke-width:1.0742;stroke-linecap:round;stroke-linejoin:round;stroke-miterlimit:10;}
	.st2{fill:#2C3C59;}
</style>
<path class="st0" d="M23.5,9.5L10.9,9.5c-0.1,0-0.1-0.1-0.1-0.2l0-1.7c0-0.1-0.1-0.2-0.1-0.2H2.1C2,7.3,1.9,7.6,2,7.7L5.9,14L7,15.8
	c0,0.1,0.1,0.1,0.1,0.1h15.3c0,0,0.1-0.1,0.1-0.1l1.1-1.8c0-0.1,0-0.1,0-0.2V9.7C23.6,9.6,23.6,9.5,23.5,9.5z"/>
<path class="st1" d="M22.1,7.6L9.5,7.5c-0.1,0-0.1-0.1-0.1-0.2l0-1.8c0-0.1-0.1-0.2-0.1-0.2H0.7c-0.1,0-0.2,0.3-0.1,0.4l3.9,6.5
	L5.6,14c0,0.1,0.1,0.1,0.1,0.1H21c0,0,0.1-0.1,0.1-0.1l1.1-1.8c0-0.1,0-0.1,0-0.2V7.8C22.2,7.7,22.1,7.6,22.1,7.6z"/>
<path class="st2" d="M4.5,12.2L5.6,14c0,0.1,0.1,0.1,0.1,0.1H21c0,0,0.1-0.1,0.1-0.1l1.1-1.8"/>
<path class="st2" d="M6,2V0.4C6,0.2,5.9,0,5.9,0H4.1C4,0,4,0.2,4,0.4V2H6z"/>
<path class="st2" d="M6.9,5.5H3c-0.2,0-0.4-0.2-0.4-0.5V2.1c0-0.3,0.1-0.5,0.4-0.5h3.9c0.2,0,0.4,0.2,0.4,0.5v2.8
	C7.3,5.2,7.1,5.5,6.9,5.5z"/>
<path class="st0" d="M6.4,2.4H3.5v1.2h2.8V2.4z"/>
</svg>
