<?xml version="1.0" encoding="utf-8"?>
<!-- Generator: Adobe Illustrator 21.0.0, SVG Export Plug-In . SVG Version: 6.00 Build 0)  -->
<svg version="1.1" id="图层_1" xmlns="http://www.w3.org/2000/svg" xmlns:xlink="http://www.w3.org/1999/xlink" x="0px" y="0px"
	 viewBox="0 0 179 142.2" style="enable-background:new 0 0 179 142.2;" xml:space="preserve">
<style type="text/css">
	.st0{clip-path:url(#SVGID_2_);}
	.st1{fill:#7E8F95;}
	.st2{fill:#ABB3D0;}
	.st3{fill:#BDCAE7;}
	.st4{fill:#E3EBF7;}
	.st5{fill:#FFA85A;}
	.st6{fill:#FFFFFF;}
	.st7{fill:#F68B1F;}
	.st8{fill:#EA750C;}
	.st9{fill:#60B9E8;}
	.st10{fill:#DEF2FC;}
	.st11{fill:#C2E7F2;}
</style>
<g>
	<defs>
		<rect id="SVGID_1_" width="179" height="142.2"/>
	</defs>
	<clipPath id="SVGID_2_">
		<use xlink:href="#SVGID_1_"  style="overflow:visible;"/>
	</clipPath>
	<g class="st0">
		<path class="st1" d="M62.4,130c1.8-3.5,1-7.4-1.7-8.8s-6.4,0.3-8.2,3.7c-1.8,3.5-1,7.4,1.7,8.8S60.7,133.5,62.4,130z"/>
		<path class="st2" d="M63.7,130.6c1.8-3.5,1-7.4-1.7-8.8c-2.7-1.4-6.4,0.3-8.2,3.7s-1,7.4,1.7,8.8C58.3,135.7,62,134.1,63.7,130.6z
			"/>
		<path class="st3" d="M62.3,129.7c1.2-2.4,0.7-5.2-1.2-6.1c-1.9-1-4.4,0.2-5.7,2.6c-1.2,2.4-0.7,5.2,1.2,6.1
			C58.5,133.3,61.1,132.1,62.3,129.7z"/>
		<path class="st4" d="M61.1,129.4c0.9-1.7,0.5-3.6-0.9-4.3c-1.4-0.7-3.2,0.1-4,1.8c-0.9,1.7-0.5,3.6,0.9,4.3
			C58.4,131.9,60.2,131.1,61.1,129.4z"/>
		<path class="st1" d="M50.1,137.3c1.8-3.5,1-7.4-1.7-8.8s-6.4,0.3-8.2,3.7c-1.8,3.5-1,7.4,1.7,8.8
			C44.6,142.5,48.3,140.8,50.1,137.3z"/>
		<path class="st2" d="M51.4,137.9c1.8-3.5,1-7.4-1.7-8.8c-2.7-1.4-6.4,0.3-8.2,3.7s-1,7.4,1.7,8.8
			C45.9,143.1,49.6,141.4,51.4,137.9z"/>
		<path class="st3" d="M50,137.3c1.2-2.4,0.7-5.2-1.2-6.1c-1.9-1-4.4,0.2-5.7,2.6c-1.2,2.4-0.7,5.2,1.2,6.1
			C46.2,140.9,48.8,139.7,50,137.3z"/>
		<path class="st4" d="M48.9,136.8c0.9-1.7,0.5-3.6-0.9-4.3c-1.4-0.7-3.2,0.1-4,1.8c-0.9,1.7-0.5,3.6,0.9,4.3
			C46.3,139.3,48.1,138.5,48.9,136.8z"/>
		<path class="st1" d="M130.7,90.2c1.8-3.5,1-7.4-1.7-8.8s-6.4,0.3-8.2,3.7c-1.8,3.5-1,7.4,1.7,8.8S129,93.6,130.7,90.2z"/>
		<path class="st2" d="M132,90.8c1.8-3.5,1-7.4-1.7-8.8c-2.7-1.4-6.4,0.3-8.2,3.7c-1.8,3.5-1,7.4,1.7,8.8
			C126.6,95.9,130.2,94.2,132,90.8z"/>
		<path class="st3" d="M130.6,89.9c1.2-2.4,0.7-5.2-1.2-6.1c-1.9-1-4.4,0.2-5.7,2.6c-1.2,2.4-0.7,5.2,1.2,6.1
			C126.8,93.5,129.3,92.3,130.6,89.9z"/>
		<path class="st4" d="M129.4,89.6c0.9-1.7,0.5-3.6-0.9-4.3c-1.4-0.7-3.2,0.1-4,1.8c-0.9,1.7-0.5,3.6,0.9,4.3
			C126.7,92.1,128.5,91.3,129.4,89.6z"/>
		<path class="st1" d="M175.5,63.1c1.7-3.5,0.9-7.4-1.8-8.8c-2.7-1.4-6.4,0.3-8.1,3.8c-1.7,3.5-0.9,7.4,1.8,8.8
			C170.1,68.3,173.8,66.5,175.5,63.1z"/>
		<path class="st2" d="M176.8,63.7c1.7-3.5,0.9-7.4-1.8-8.8c-2.7-1.4-6.4,0.3-8.1,3.8c-1.7,3.5-0.9,7.4,1.8,8.8
			C171.4,68.9,175.1,67.2,176.8,63.7z"/>
		<path class="st3" d="M175.3,63c1.2-2.4,0.7-5.2-1.2-6.1c-1.9-1-4.4,0.2-5.7,2.7c-1.2,2.4-0.7,5.2,1.2,6.1
			C171.5,66.6,174,65.4,175.3,63z"/>
		<path class="st4" d="M174.4,62.6c0.8-1.7,0.4-3.6-1-4.3c-1.4-0.7-3.2,0.1-4,1.8c-0.8,1.7-0.4,3.6,1,4.3
			C171.7,65.1,173.5,64.3,174.4,62.6z"/>
		<path class="st1" d="M118.4,97.5c1.8-3.5,1-7.4-1.7-8.8s-6.4,0.3-8.2,3.7c-1.8,3.5-1,7.4,1.7,8.8
			C112.9,102.6,116.6,101,118.4,97.5z"/>
		<path class="st2" d="M119.7,98.1c1.8-3.5,1-7.4-1.7-8.8c-2.7-1.4-6.4,0.3-8.2,3.7s-1,7.4,1.7,8.8
			C114.2,103.3,117.9,101.6,119.7,98.1z"/>
		<path class="st3" d="M118.3,97.5c1.2-2.4,0.7-5.2-1.2-6.1c-1.9-1-4.4,0.2-5.7,2.6c-1.2,2.4-0.7,5.2,1.2,6.1
			C114.5,101.1,117.1,99.9,118.3,97.5z"/>
		<path class="st4" d="M117.2,97c0.9-1.7,0.5-3.6-0.9-4.3c-1.4-0.7-3.2,0.1-4,1.8c-0.9,1.7-0.5,3.6,0.9,4.3
			C114.6,99.5,116.4,98.7,117.2,97z"/>
		<path class="st5" d="M177.9,44.1l-6.9,3.2l-10.5-12.6L177.9,44.1z"/>
		<path class="st6" d="M159.5,41.8l6.6,8.4l-7.5,3.9V42.2C158.7,41.5,159.1,41.3,159.5,41.8z"/>
		<path class="st5" d="M159.3,33.2l-12,1.5v-8.1L159.3,33.2z"/>
		<path class="st6" d="M156.7,54.4c0,0.2,0,0.4-0.2,0.4l-4.7,2.1c-0.2,0.2-0.6,0-0.6-0.4V41.3c0-0.2,0-0.4,0.2-0.4l4.3-2.1
			c0.2-0.2,0.6,0,0.6,0.4L156.7,54.4z"/>
		<path class="st2" d="M148.8,38.5v31.7c-1.1,1.9-3.9,1.7-3.9,1.7V39.4C147.5,40.5,148.8,38.5,148.8,38.5z"/>
		<path class="st1" d="M147.3,26.5v8.1h-1.5v-9L147.3,26.5z"/>
		<path class="st1" d="M147.3,18.4v8.1l-1.5-0.9v-7.3H147.3z"/>
		<path class="st1" d="M147.3,37.9c-0.6,0-1.1,0-1.5,0.2v-3.4l1.5-0.2V37.9z"/>
		<path class="st7" d="M156.7,54.4l-0.4-15c0-0.4-0.4-0.6-0.6-0.4l-4.3,2.1c-0.2,0-0.2,0.2-0.2,0.4v15.2c0,0.4,0.4,0.6,0.6,0.4
			l4.7-2.1C156.7,54.8,156.7,54.6,156.7,54.4z M159.5,41.8c-0.2-0.4-0.9-0.2-0.9,0.2v11.8l7.5-3.9L159.5,41.8z M142.4,35.1l3.4-0.4
			v3.4c-0.6,0.4-1.1,1.1-1.1,1.1v32.5c0,0,2.8,0.2,3.9-1.7V38.5c-0.6-0.4-1.1-0.4-1.5-0.6v-3.4l12-1.5l1.3,1.5l10.5,12.6l6.9-3.4
			l0.6,13.1l-1.3,1.1c0,0,0.4-4.9-4.9-3c-5.4,2.1-8.6,10.9-8.6,10.9l-21,11.3v-42H142.4z"/>
		<path class="st4" d="M145,39.4c0,0,0.2-0.9,1.1-1.1c0.4-0.2,0.9-0.2,1.5-0.2c0.4,0,0.9,0.2,1.5,0.6
			C148.8,38.5,147.5,40.5,145,39.4z"/>
		<path class="st8" d="M110.5,17.3l31.9,17.8v42.4l-6-3.2V35.1l-25.9-14.6V17.3z"/>
		<path class="st9" d="M136.4,74.3v7.3L104.5,100l-23.8,13.5l-5.6,3.2l-43.3,24.6V95.1l104.5-60V74.3z"/>
		<path class="st10" d="M136.4,35.1l-104.5,60L0.2,76.4l103-60l7.3,4.1L136.4,35.1z"/>
		<path class="st1" d="M115.8,0.2h-1.9v16.9h1.9V0.2z"/>
		<path class="st5" d="M115.8,17.3H131l14.8,8.4v9l-3.4,0.4l-31.9-17.8h3.4H115.8z"/>
		<path class="st2" d="M104.5,100v6l-23.8,13.7v-6.2L104.5,100z"/>
		<path class="st1" d="M80.7,113.5v6.2l-5.6-3L80.7,113.5z"/>
		<path class="st9" d="M29.3,122.9v2.8c-8.6-5.1-17.3-10.1-25.9-15.2c0-1.1,0-1.9,0-3L29.3,122.9z"/>
		<path class="st9" d="M29.3,117.8v2.8c-8.6-5.1-17.3-10.1-25.9-15.2c0-1.1,0-1.9,0-3L29.3,117.8z"/>
		<path class="st9" d="M29.3,102.3v2.6C20.8,99.8,12,94.9,3.4,89.7c0-1.1,0-1.9,0-3L29.3,102.3z"/>
		<path class="st9" d="M29.3,97.2v2.8C20.8,94.9,12,89.9,3.4,84.8c0-1.1,0-1.9,0-3L29.3,97.2z"/>
		<path class="st9" d="M29.1,133.6v2.8c-8.6-5.1-17.3-10.1-25.9-15.2c0-1.1,0-1.9,0-3L29.1,133.6z"/>
		<path class="st9" d="M29.1,128.5v2.8c-8.6-5.1-17.3-10.1-25.9-15.2c0-1.1,0-1.9,0-3L29.1,128.5z"/>
		<path class="st9" d="M29.1,112.8v2.8c-8.6-5.1-17.3-10.1-25.9-15.2c0-1.1,0-1.9,0-3L29.1,112.8z"/>
		<path class="st9" d="M29.1,107.7v2.8c-8.6-5.1-17.3-10.1-25.9-15.2c0-1.1,0-1.9,0-3L29.1,107.7z"/>
		<path class="st11" d="M29.1,110.5v-2.8L3.2,92.3c0,1.1,0,1.9,0,3C11.8,100.2,20.3,105.3,29.1,110.5z M29.1,115.6v-2.8L3.2,97.4
			c0,1.1,0,1.9,0,3C11.8,105.3,20.3,110.5,29.1,115.6z M29.1,131.3v-2.8L3.2,112.8c0,1.1,0,1.9,0,3C11.8,121,20.3,126.1,29.1,131.3z
			 M29.1,136.2v-2.8L3.2,118c0,1.1,0,1.9,0,3C11.8,126.1,20.3,131.3,29.1,136.2z M29.3,120.5v-2.8L3.4,102.3c0,1.1,0,1.9,0,3
			C12,110.5,20.8,115.4,29.3,120.5z M29.3,125.7v-2.8L3.4,107.5c0,1.1,0,1.9,0,3C12,115.6,20.8,120.5,29.3,125.7z M29.3,99.8V97
			L3.4,81.6c0,1.1,0,1.9,0,3C12,89.7,20.8,94.9,29.3,99.8z M29.3,104.9v-2.8L3.4,86.7c0,1.1,0,1.9,0,3C12,94.9,20.8,99.8,29.3,104.9
			z M31.9,95.1v46.2L0.2,123.8V76.4L31.9,95.1z"/>
	</g>
</g>
</svg>
