<?xml version="1.0" encoding="utf-8"?>
<!-- Generator: Adobe Illustrator 21.0.0, SVG Export Plug-In . SVG Version: 6.00 Build 0)  -->
<svg version="1.1" id="图层_1" xmlns="http://www.w3.org/2000/svg" xmlns:xlink="http://www.w3.org/1999/xlink" x="0px" y="0px"
	 viewBox="0 0 23.2 23.9" style="enable-background:new 0 0 23.2 23.9;" xml:space="preserve">
<style type="text/css">
	.st0{fill:#D5E9FA;}
	.st1{fill:#2C3C59;}
	.st2{fill:none;stroke:#2C3C59;stroke-width:1.0742;}
	.st3{fill:none;stroke:#2C3C59;stroke-width:1.0742;stroke-linecap:round;}
</style>
<path class="st0" d="M10.9,10.6c1.5,0,2.7-1.2,2.7-2.6s-1.2-2.6-2.7-2.6C9.4,5.3,8.2,6.5,8.2,8S9.4,10.6,10.9,10.6z"/>
<path class="st0" d="M6.1,16.1c0,0,1.1-4.1,4.6-4.1c3.6,0,4.3,4.1,4.3,4.1H6.1z"/>
<path class="st1" d="M4.3,15.1c-0.1,0.2,0,0.4,0.3,0.5s0.4,0,0.5-0.3L4.3,15.1z M14.3,15.3c0,0.2,0.3,0.4,0.5,0.3
	c0.2,0,0.4-0.3,0.3-0.5L14.3,15.3z M12.2,7.4c0,1.3-1.1,2.4-2.4,2.4v0.8c1.8,0,3.2-1.4,3.2-3.2H12.2z M9.8,9.8
	c-1.3,0-2.4-1.1-2.4-2.4H6.6c0,1.8,1.4,3.2,3.2,3.2V9.8z M7.4,7.4C7.4,6.1,8.5,5,9.8,5V4.2C8,4.2,6.6,5.6,6.6,7.4H7.4z M9.8,5
	c1.3,0,2.4,1.1,2.4,2.4H13c0-1.8-1.4-3.2-3.2-3.2V5z M4.7,15.2C5,15.3,5,15.3,5,15.3l0,0l0,0c0,0,0,0,0,0c0,0,0,0,0,0c0,0,0,0,0,0
	c0,0,0-0.1,0-0.1c0-0.1,0.1-0.2,0.2-0.4c0.2-0.3,0.4-0.7,0.8-1.2C6.8,12.9,8,12,9.9,12v-0.8c-2.1,0-3.6,1-4.4,1.9
	c-0.4,0.5-0.7,1-0.9,1.3c-0.1,0.2-0.2,0.3-0.2,0.4c0,0.1,0,0.1-0.1,0.1c0,0,0,0,0,0c0,0,0,0,0,0c0,0,0,0,0,0c0,0,0,0,0,0v0
	C4.3,15.1,4.3,15.1,4.7,15.2z M9.9,12c1.9,0,3,0.8,3.6,1.6c0.3,0.4,0.5,0.8,0.7,1.1c0.1,0.2,0.1,0.3,0.1,0.4c0,0,0,0.1,0,0.1
	c0,0,0,0,0,0c0,0,0,0,0,0l0,0l0,0l0,0c0,0,0,0,0.4-0.1c0.4-0.1,0.4-0.1,0.4-0.1s0,0,0,0c0,0,0,0,0,0c0,0,0,0,0,0c0,0,0,0,0,0
	c0,0,0,0,0,0c0,0,0-0.1,0-0.1c0-0.1-0.1-0.3-0.2-0.4c-0.1-0.4-0.4-0.8-0.8-1.3c-0.8-1-2.1-2-4.2-2V12z"/>
<circle class="st2" cx="9.7" cy="9.7" r="9.2"/>
<path class="st3" d="M17.9,18.6l4.8,4.8"/>
</svg>
