<?xml version="1.0" encoding="utf-8"?>
<!-- Generator: Adobe Illustrator 21.0.0, SVG Export Plug-In . SVG Version: 6.00 Build 0)  -->
<svg version="1.1" id="图层_1" xmlns="http://www.w3.org/2000/svg" xmlns:xlink="http://www.w3.org/1999/xlink" x="0px" y="0px"
	 viewBox="0 0 151 163.6" style="enable-background:new 0 0 151 163.6;" xml:space="preserve">
<style type="text/css">
	.st0{clip-path:url(#SVGID_2_);}
	.st1{opacity:0.48;}
	.st2{opacity:0.48;fill:#BFCED1;enable-background:new    ;}
	.st3{fill:#DFF2F7;}
	.st4{fill:#DEF2FC;}
	.st5{fill:#FFFFFF;}
	.st6{fill:#C7D9DD;}
	.st7{fill:#CFF4FF;}
	.st8{fill:#4351AA;}
	.st9{fill:#60BBEA;}
	.st10{opacity:0.47;fill:#6B717C;enable-background:new    ;}
	.st11{opacity:0.47;}
	.st12{fill:none;stroke:#80858E;stroke-width:0.101;stroke-miterlimit:10;}
	.st13{opacity:0.55;}
	.st14{opacity:0.55;fill:#FF988D;enable-background:new    ;}
	.st15{fill:none;stroke:#9399A3;stroke-width:0.3365;stroke-miterlimit:10;stroke-dasharray:1.34,1.34;}
	.st16{opacity:0.51;}
	.st17{opacity:0.51;fill:#72BE44;enable-background:new    ;}
	.st18{opacity:0.51;fill:#FFF3AB;enable-background:new    ;}
	.st19{opacity:0.3;fill:#FFDF00;enable-background:new    ;}
	.st20{opacity:0.53;fill:#FFDF00;enable-background:new    ;}
	.st21{fill:#FFDF00;}
	.st22{fill:#72BE44;}
	.st23{opacity:0.59;fill:#72BE44;enable-background:new    ;}
	.st24{opacity:0.26;fill:#72BE44;enable-background:new    ;}
	.st25{opacity:0.65;fill:#FF623E;enable-background:new    ;}
	.st26{opacity:0.27;fill:#FF623E;enable-background:new    ;}
	.st27{fill:none;stroke:#FFFFFF;stroke-width:0.505;stroke-miterlimit:10;}
	.st28{fill:none;stroke:#FFFFFF;stroke-width:0.1683;stroke-miterlimit:10;}
	.st29{fill:none;stroke:#FFFFFF;stroke-width:0.3365;stroke-miterlimit:10;}
	.st30{fill:none;stroke:#FFFFFF;stroke-width:0.1346;stroke-miterlimit:10;}
	.st31{fill:#FF623E;}
</style>
<g>
	<defs>
		<rect id="SVGID_1_" width="151" height="163.6"/>
	</defs>
	<clipPath id="SVGID_2_">
		<use xlink:href="#SVGID_1_"  style="overflow:visible;"/>
	</clipPath>
	<g class="st0">
		<g class="st1">
			<path class="st2" d="M87.5,78.2c1.3-0.9,3.6-0.9,5.1,0l55.8,33c1.3,0.9,1.3,2.1,0,3l-84.8,49c-1.5,0.9-3.6,0.9-5.1,0L3.6,129.9
				c-1.3-0.9-1.3-2.1,0-3L87.5,78.2z"/>
		</g>
		<path class="st3" d="M4.3,48.3C1.9,49.6,0,53,0,55.6v62.6c0,2.8,1.9,3.8,4.3,2.3l82.2-47.9c2.3-1.3,4.3-4.7,4.3-7.2V3
			c0-2.8-1.9-3.8-4.3-2.3L4.3,48.3z"/>
		<path class="st4" d="M89.2,75.4c1.3-0.9,3.6-0.9,5.1,0l55.8,33c1.3,0.9,1.3,2.1,0,3l-84.8,49c-1.5,0.9-3.6,0.9-5.1,0L5.3,127.1
			c-1.3-0.9-1.3-2.1,0-3L89.2,75.4z"/>
		<path class="st5" d="M5.3,49.2c-2.3,1.3-4.3,4.7-4.3,7.2v62.6c0,2.8,1.9,3.8,4.3,2.3l82.2-47.9c2.3-1.3,4.3-4.7,4.3-7.2V3.8
			c0-2.8-1.9-3.8-4.3-2.3L5.3,49.2z"/>
		<path class="st6" d="M4.9,55.6c0,20.9,0,41.5,0,62.4C33,101.6,61.3,85.4,89.4,69c0-20.7,0-41.3,0-62C61.1,23.2,33,39.4,4.9,55.6z"
			/>
		<path class="st3" d="M4.7,55.4c0,20.9,0,41.5,0,62.4c28.1-16.4,56.4-32.6,84.6-49c0-20.7-0.2-41.5-0.2-62.2
			C60.9,22.8,32.8,39.2,4.7,55.4z"/>
		<path class="st5" d="M89.2,72.6c1.3-0.9,3.6-0.9,5.1,0l55.8,33c1.3,0.9,1.3,2.1,0,3l-84.8,49c-1.5,0.9-3.6,0.9-5.1,0L5.3,124.4
			c-1.3-0.9-1.3-2.1,0-3L89.2,72.6z"/>
		<path class="st7" d="M14.1,122.5c-1.3,0.9-1.3,2.1,0,3l26.4,15.3c1.3,0.9,3.6,0.9,5.1,0l75-44.1c1.3-0.9,1.3-2.1,0-3L93.3,78.6
			c-1.5-0.9-3.6-0.9-5.1,0L14.1,122.5z"/>
		<path class="st6" d="M72.6,128.6c-1.1-0.6-1.1-1.7,0-2.6L98,111.2c1.1-0.6,3-0.6,4,0l16.6,10.4c1.1,0.6,1.1,1.9,0,2.6l-24.9,14.5
			c-1.1,0.6-3,0.6-4.3,0L72.6,128.6z"/>
		<path class="st3" d="M72.6,129.5c-1.1-0.6-1.1-1.7,0-2.6L98,112c1.1-0.6,3-0.6,4,0l16.6,10.4c1.1,0.6,1.1,1.9,0,2.6l-24.9,14.5
			c-1.1,0.6-3,0.6-4.3,0L72.6,129.5z"/>
		<path class="st8" d="M53.5,127.1v0.6l-4.5,2.6v-0.4L53.5,127.1z"/>
		<path class="st9" d="M53.5,127.1l-4.5,2.8l-3.6-2.3l4.5-2.6C50.9,125.7,52.2,126.5,53.5,127.1z"/>
		<path class="st8" d="M49,129.9v0.6c-1.3-0.9-2.3-1.5-3.6-2.3c0-0.2,0-0.4,0-0.6L49,129.9z"/>
		<path class="st8" d="M59.2,123.7v0.6l-4.5,2.6v-0.4L59.2,123.7z"/>
		<path class="st9" d="M59.2,123.7l-4.5,2.6l-3.6-2.1l4.5-2.6C56.7,122.2,57.9,123.1,59.2,123.7z"/>
		<path class="st8" d="M54.7,126.5v0.6c-1.3-0.9-2.3-1.5-3.6-2.3c0-0.2,0-0.4,0-0.6L54.7,126.5z"/>
		<path class="st8" d="M64.5,120.5v0.6l-4.5,2.6v-0.4L64.5,120.5z"/>
		<path class="st9" d="M64.5,120.5l-4.5,2.6l-3.6-2.3l4.5-2.6C62.2,119.1,63.3,119.9,64.5,120.5z"/>
		<path class="st8" d="M60.1,123.3v0.6c-1.3-0.9-2.3-1.5-3.6-2.3c0-0.2,0-0.4,0-0.6L60.1,123.3z"/>
		<path class="st8" d="M70.1,117.3v0.6l-4.5,2.8v-0.6L70.1,117.3z"/>
		<path class="st9" d="M70.1,117.3l-4.5,2.6l-3.6-2.3l4.5-2.6C67.5,115.9,68.8,116.7,70.1,117.3z"/>
		<path class="st8" d="M65.6,120.1v0.6c-1.3-0.9-2.3-1.5-3.6-2.3c0-0.2,0-0.4,0-0.6L65.6,120.1z"/>
		<path class="st8" d="M75.2,114.4v0.6l-4.5,2.6v-0.4L75.2,114.4z"/>
		<path class="st9" d="M75.2,114.4l-4.5,2.8l-3.6-2.3l4.5-2.6C72.8,112.9,73.9,113.7,75.2,114.4z"/>
		<path class="st8" d="M70.7,117.1v0.6c-1.3-0.9-2.3-1.5-3.6-2.3c0-0.2,0-0.4,0-0.6L70.7,117.1z"/>
		<path class="st8" d="M80.5,111.4v0.4l-4.5,2.8v-0.6L80.5,111.4z"/>
		<path class="st9" d="M80.5,111.4l-4.5,2.6l-3.6-2.3l4.5-2.6C78.2,109.9,79.2,110.5,80.5,111.4z"/>
		<path class="st8" d="M76,113.9v0.6c-1.3-0.9-2.3-1.5-3.6-2.3c0-0.2,0-0.4,0-0.6L76,113.9z"/>
		<path class="st8" d="M86,108.2v0.6l-4.5,2.6V111L86,108.2z"/>
		<path class="st9" d="M86,108.2l-4.5,2.6l-3.6-2.1l4.5-2.6C83.5,106.7,84.8,107.6,86,108.2z"/>
		<path class="st8" d="M81.6,111v0.6c-1.3-0.9-2.3-1.5-3.6-2.3c0-0.2,0-0.4,0-0.6L81.6,111z"/>
		<path class="st8" d="M91.6,105v0.6l-4.5,2.6v-0.4L91.6,105z"/>
		<path class="st9" d="M91.6,105l-4.5,2.6l-3.6-2.3l4.5-2.6C89,103.5,90.3,104.4,91.6,105z"/>
		<path class="st8" d="M87.1,107.8v0.6c-1.3-0.9-2.3-1.5-3.6-2.3c0-0.2,0-0.4,0-0.6L87.1,107.8z"/>
		<path class="st8" d="M96.9,102v0.4l-4.5,2.8v-0.6L96.9,102z"/>
		<path class="st9" d="M96.9,102l-4.5,2.6l-3.6-2.3l4.5-2.6C94.6,100.5,95.8,101.2,96.9,102z"/>
		<path class="st8" d="M92.4,104.6v0.6c-1.3-0.9-2.3-1.5-3.6-2.3c0-0.2,0-0.4,0-0.6L92.4,104.6z"/>
		<path class="st8" d="M46,125.2v0.6l-4.5,2.6V128L46,125.2z"/>
		<path class="st9" d="M46,125.2l-4.5,2.6l-3.6-2.1l4.5-2.6C43.4,123.7,44.7,124.6,46,125.2z"/>
		<path class="st8" d="M41.5,128v0.6c-1.3-0.9-2.3-1.5-3.6-2.3c0-0.2,0-0.4,0-0.6L41.5,128z"/>
		<path class="st8" d="M51.8,121.8v0.6l-4.5,2.6v-0.4L51.8,121.8z"/>
		<path class="st9" d="M51.8,121.8l-4.5,2.6l-3.6-2.3l4.5-2.6C49.4,120.3,50.5,121.2,51.8,121.8z"/>
		<path class="st8" d="M47.3,124.6v0.6c-1.3-0.9-2.3-1.5-3.6-2.3c0-0.2,0-0.4,0-0.6L47.3,124.6z"/>
		<path class="st8" d="M57.1,118.6v0.6l-4.5,2.6v-0.4L57.1,118.6z"/>
		<path class="st9" d="M57.1,118.6l-4.5,2.8l-3.6-2.3l4.5-2.6C54.7,117.1,56,118,57.1,118.6z"/>
		<path class="st8" d="M52.6,121.4v0.6c-1.3-0.9-2.3-1.5-3.6-2.3c0-0.2,0-0.4,0-0.6L52.6,121.4z"/>
		<path class="st8" d="M62.6,115.4v0.6l-4.5,2.8v-0.6L62.6,115.4z"/>
		<path class="st9" d="M62.6,115.4l-4.5,2.6l-3.6-2.3l4.5-2.6C60.1,113.9,61.3,114.8,62.6,115.4z"/>
		<path class="st8" d="M58.1,118.2v0.6c-1.3-0.9-2.3-1.5-3.6-2.3c0-0.2,0-0.4,0-0.6L58.1,118.2z"/>
		<path class="st8" d="M67.7,112.5v0.6l-4.5,2.6v-0.4L67.7,112.5z"/>
		<path class="st9" d="M67.7,112.5l-4.5,2.6l-3.6-2.1l4.5-2.6C65.4,111,66.5,111.8,67.7,112.5z"/>
		<path class="st8" d="M63.3,115.2v0.6c-1.3-0.9-2.3-1.5-3.6-2.3c0-0.2,0-0.4,0-0.6L63.3,115.2z"/>
		<path class="st8" d="M73.1,109.5v0.4l-4.5,2.8V112L73.1,109.5z"/>
		<path class="st9" d="M73.1,109.5l-4.5,2.6l-3.6-2.3l4.5-2.6C70.7,108,72,108.6,73.1,109.5z"/>
		<path class="st8" d="M68.6,112v0.6c-1.3-0.9-2.3-1.5-3.6-2.3c0-0.2,0-0.4,0-0.6L68.6,112z"/>
		<path class="st8" d="M78.6,106.3v0.6l-4.5,2.6V109L78.6,106.3z"/>
		<path class="st9" d="M78.6,106.3l-4.5,2.6l-3.6-2.3l4.5-2.6C76.2,104.8,77.3,105.6,78.6,106.3z"/>
		<path class="st8" d="M74.1,109v0.6c-1.3-0.9-2.3-1.5-3.6-2.3c0-0.2,0-0.4,0-0.6L74.1,109z"/>
		<path class="st8" d="M84.1,103.1v0.6l-4.5,2.6v-0.4L84.1,103.1z"/>
		<path class="st9" d="M84.1,103.1l-4.5,2.6l-3.6-2.3l4.5-2.6C81.8,101.6,82.8,102.4,84.1,103.1z"/>
		<path class="st8" d="M79.7,105.8v0.6c-1.3-0.9-2.3-1.5-3.6-2.3c0-0.2,0-0.4,0-0.6L79.7,105.8z"/>
		<path class="st8" d="M89.5,100.1v0.4l-4.5,2.8v-0.6L89.5,100.1z"/>
		<path class="st9" d="M89.5,100.1l-4.5,2.6l-3.6-2.3l4.5-2.6C87.1,98.6,88.4,99.2,89.5,100.1z"/>
		<path class="st8" d="M85,102.7v0.6c-1.3-0.9-2.3-1.5-3.6-2.3c0-0.2,0-0.4,0-0.6L85,102.7z"/>
		<path class="st8" d="M94.8,96.9v0.6l-4.5,2.8v-0.6L94.8,96.9z"/>
		<path class="st9" d="M94.8,96.9l-4.5,2.6l-3.6-2.3l4.5-2.6C92.2,95.4,93.5,96.3,94.8,96.9z"/>
		<path class="st8" d="M90.3,99.7v0.6C89,99.5,88,98.8,86.7,98c0-0.2,0-0.4,0-0.6L90.3,99.7z"/>
		<path class="st8" d="M36.6,124.6v0.4l-4.5,2.8v-0.6L36.6,124.6z"/>
		<path class="st9" d="M36.6,124.6l-4.5,2.6l-3.6-2.3l4.5-2.6C34.3,123.1,35.6,123.7,36.6,124.6z"/>
		<path class="st8" d="M32.2,127.1v0.6c-1.3-0.9-2.3-1.5-3.6-2.3c0-0.2,0-0.4,0-0.6L32.2,127.1z"/>
		<path class="st8" d="M31.3,127.8v0.4l-4.5,2.8v-0.6L31.3,127.8z"/>
		<path class="st9" d="M31.3,127.8l-4.5,2.6l-3.6-2.3l4.5-2.6C29,126.3,30,126.9,31.3,127.8z"/>
		<path class="st8" d="M26.8,130.3v0.6c-1.3-0.6-2.3-1.5-3.6-2.1c0-0.2,0-0.4,0-0.6L26.8,130.3z"/>
		<path class="st8" d="M27.7,123.5v0.6l-1.7,1.1v-0.6L27.7,123.5z"/>
		<path class="st9" d="M27.7,123.5l-1.7,1.1c-1.3-0.9-2.3-1.5-3.6-2.3c0.6-0.4,1.3-0.9,1.9-1.1C25.3,122,26.6,122.7,27.7,123.5z"/>
		<path class="st8" d="M26,124.6v0.6l-4.5,2.6v-0.6L26,124.6z"/>
		<path class="st9" d="M26,124.6l-4.5,2.6l-3.6-2.3l4.5-2.6C23.4,123.1,24.7,123.7,26,124.6z"/>
		<path class="st8" d="M21.5,127.1v0.6c-1.3-0.6-2.3-1.5-3.6-2.1c0-0.2,0-0.4,0-0.6L21.5,127.1z"/>
		<path class="st8" d="M42.6,121.2v0.6l-4.5,2.6v-0.6L42.6,121.2z"/>
		<path class="st9" d="M42.6,121.2l-4.5,2.6l-3.6-2.3l4.5-2.6C40,119.7,41.3,120.3,42.6,121.2z"/>
		<path class="st8" d="M38.1,123.7v0.6c-1.3-0.9-2.3-1.5-3.6-2.3c0-0.2,0-0.4,0-0.6L38.1,123.7z"/>
		<path class="st8" d="M47.9,118v0.4l-4.5,2.8v-0.6L47.9,118z"/>
		<path class="st9" d="M47.9,118l-4.5,2.6l-3.6-2.3l4.5-2.6C45.6,116.5,46.6,117.1,47.9,118z"/>
		<path class="st8" d="M43.4,120.5v0.6c-1.3-0.9-2.3-1.5-3.6-2.3c0-0.2,0-0.4,0-0.6L43.4,120.5z"/>
		<path class="st8" d="M53.2,114.8v0.6l-4.5,2.6v-0.6L53.2,114.8z"/>
		<path class="st9" d="M53.2,114.8l-4.5,2.6l-3.4-2.3l4.5-2.6C50.9,113.3,52.2,113.9,53.2,114.8z"/>
		<path class="st8" d="M48.8,117.3v0.6c-1.3-0.9-2.3-1.5-3.6-2.3c0-0.2,0-0.4,0-0.6L48.8,117.3z"/>
		<path class="st8" d="M58.6,111.8v0.4l-4.5,2.8v-0.6L58.6,111.8z"/>
		<path class="st9" d="M58.6,111.8l-4.5,2.6l-3.6-2.3l4.5-2.6C56,110.3,57.3,111,58.6,111.8z"/>
		<path class="st8" d="M54.1,114.4v0.6c-1.3-0.9-2.3-1.5-3.6-2.3c0-0.2,0-0.4,0-0.6L54.1,114.4z"/>
		<path class="st8" d="M63.9,108.6v0.6l-4.5,2.6v-0.4L63.9,108.6z"/>
		<path class="st9" d="M63.9,108.6l-4.5,2.6l-3.6-2.3l4.5-2.6C61.5,107.1,62.6,108,63.9,108.6z"/>
		<path class="st8" d="M59.4,111.4v0.6c-1.3-0.9-2.3-1.5-3.6-2.3c0-0.2,0-0.4,0-0.6L59.4,111.4z"/>
		<path class="st8" d="M69.4,105.6v0.4l-4.5,2.8v-0.6L69.4,105.6z"/>
		<path class="st9" d="M69.4,105.6l-4.5,2.6l-3.6-2.3l4.5-2.6C66.9,104.1,68.2,104.8,69.4,105.6z"/>
		<path class="st8" d="M65,108.2v0.6c-1.3-0.9-2.3-1.5-3.6-2.3c0-0.2,0-0.4,0-0.6L65,108.2z"/>
		<path class="st8" d="M74.8,102.4v0.6l-4.5,2.6V105L74.8,102.4z"/>
		<path class="st9" d="M74.8,102.4l-4.5,2.6l-3.6-2.3l4.5-2.6C72.4,101,73.7,101.6,74.8,102.4z"/>
		<path class="st8" d="M70.3,105v0.6c-1.3-0.9-2.3-1.5-3.6-2.3c0-0.2,0-0.4,0-0.6L70.3,105z"/>
		<path class="st8" d="M80.3,99.2v0.6l-4.5,2.6V102L80.3,99.2z"/>
		<path class="st9" d="M80.3,99.2l-4.5,2.6l-3.6-2.3l4.5-2.6C78,97.8,79,98.6,80.3,99.2z"/>
		<path class="st8" d="M75.8,102v0.6c-1.3-0.9-2.3-1.5-3.6-2.3c0-0.2,0-0.4,0-0.6L75.8,102z"/>
		<path class="st8" d="M85.4,96.3v0.6l-4.5,2.6v-0.6L85.4,96.3z"/>
		<path class="st9" d="M85.4,96.3l-4.5,2.6l-3.6-2.3l4.5-2.6C83.1,94.8,84.3,95.4,85.4,96.3z"/>
		<path class="st8" d="M80.9,98.8v0.6c-1.3-0.9-2.3-1.5-3.6-2.3c0-0.2,0-0.4,0-0.6L80.9,98.8z"/>
		<path class="st8" d="M90.7,93.1v0.6l-4.5,2.6v-0.4L90.7,93.1z"/>
		<path class="st9" d="M90.7,93.1l-4.5,2.8l-3.6-2.3l4.5-2.6C88.4,91.6,89.5,92.4,90.7,93.1z"/>
		<path class="st8" d="M86.3,95.8v0.6c-1.3-0.9-2.3-1.5-3.6-2.3c0-0.2,0-0.4,0-0.6L86.3,95.8z"/>
		<path class="st8" d="M95.8,90.1v0.6l-4.5,2.6v-0.6L95.8,90.1z"/>
		<path class="st9" d="M95.8,90.1l-4.5,2.6l-3.6-2.3l4.5-2.6C93.5,88.6,94.8,89.2,95.8,90.1z"/>
		<path class="st8" d="M91.4,92.6v0.6c-1.3-0.9-2.3-1.5-3.6-2.3c0-0.2,0-0.4,0-0.6L91.4,92.6z"/>
		<path class="st8" d="M104.1,85.4V86l-2.6,1.5v-0.6L104.1,85.4z"/>
		<path class="st9" d="M104.1,85.4l-2.6,1.5c-1.3-0.9-2.3-1.5-3.6-2.3l2.3-1.5C101.6,83.9,102.9,84.8,104.1,85.4z"/>
		<path class="st8" d="M101.6,86.9v0.6l-4.5,2.6v-0.4L101.6,86.9z"/>
		<path class="st9" d="M101.6,86.9l-4.5,2.6l-3.4-2.1l4.5-2.6C99.2,85.4,100.5,86.3,101.6,86.9z"/>
		<path class="st8" d="M97.1,89.7v0.6c-1.3-0.9-2.3-1.5-3.6-2.3c0-0.2,0-0.4,0-0.6L97.1,89.7z"/>
		<path class="st8" d="M33.6,120.1v0.4l-4.5,2.8v-0.6L33.6,120.1z"/>
		<path class="st9" d="M33.6,120.1l-4.5,2.6l-3.6-2.3l4.5-2.6C31.1,118.6,32.4,119.3,33.6,120.1z"/>
		<path class="st8" d="M29.2,122.7v0.6c-1.3-0.9-2.3-1.5-3.6-2.3c0-0.2,0-0.4,0-0.6L29.2,122.7z"/>
		<path class="st8" d="M39.4,116.7v0.4l-4.5,2.8v-0.6L39.4,116.7z"/>
		<path class="st9" d="M39.4,116.7l-4.5,2.6l-3.6-2.3l4.5-2.6C37.1,115.2,38.1,115.9,39.4,116.7z"/>
		<path class="st8" d="M34.9,119.3v0.6c-1.3-0.9-2.3-1.5-3.6-2.3c0-0.2,0-0.4,0-0.6L34.9,119.3z"/>
		<path class="st8" d="M44.7,113.5v0.4l-4.5,2.8v-0.6L44.7,113.5z"/>
		<path class="st9" d="M44.7,113.5l-4.5,2.6l-3.6-2.3l4.5-2.6C42.4,112,43.4,112.7,44.7,113.5z"/>
		<path class="st8" d="M40.3,116.1v0.6c-1.3-0.9-2.3-1.5-3.6-2.3c0-0.2,0-0.4,0-0.6L40.3,116.1z"/>
		<path class="st8" d="M50.3,110.3v0.6l-4.5,2.6v-0.6L50.3,110.3z"/>
		<path class="st9" d="M50.3,110.3l-4.5,2.6l-3.6-2.3l4.5-2.6C47.7,108.8,49,109.5,50.3,110.3z"/>
		<path class="st8" d="M45.8,112.9v0.6c-1.3-0.9-2.3-1.5-3.6-2.3c0-0.2,0-0.4,0-0.6L45.8,112.9z"/>
		<path class="st8" d="M55.4,107.3v0.4l-4.5,2.8v-0.6L55.4,107.3z"/>
		<path class="st9" d="M55.4,107.3l-4.5,2.6l-3.6-2.3l4.5-2.6C53,105.8,54.1,106.5,55.4,107.3z"/>
		<path class="st8" d="M50.9,109.9v0.6c-1.3-0.9-2.3-1.5-3.6-2.3c0-0.2,0-0.4,0-0.6L50.9,109.9z"/>
		<path class="st8" d="M60.7,104.1v0.6l-4.5,2.6v-0.4L60.7,104.1z"/>
		<path class="st9" d="M60.7,104.1l-4.5,2.6l-3.6-2.3l4.5-2.6C58.4,102.7,59.6,103.5,60.7,104.1z"/>
		<path class="st8" d="M56.2,106.9v0.6c-1.3-0.9-2.3-1.5-3.6-2.3c0-0.2,0-0.4,0-0.6L56.2,106.9z"/>
		<path class="st8" d="M66.2,101.2v0.4l-4.5,2.8v-0.6L66.2,101.2z"/>
		<path class="st9" d="M66.2,101.2l-4.5,2.6l-3.6-2.3l4.5-2.6C63.9,99.7,65,100.3,66.2,101.2z"/>
		<path class="st8" d="M61.8,103.7v0.6c-1.3-0.9-2.3-1.5-3.6-2.3c0-0.2,0-0.4,0-0.6L61.8,103.7z"/>
		<path class="st8" d="M71.8,98v0.6l-4.5,2.6v-0.6L71.8,98z"/>
		<path class="st9" d="M71.8,98l-4.5,2.6l-3.6-2.3l4.5-2.6C69.2,96.5,70.5,97.1,71.8,98z"/>
		<path class="st8" d="M67.3,100.5v0.6c-1.3-0.9-2.3-1.5-3.6-2.3c0-0.2,0-0.4,0-0.6L67.3,100.5z"/>
		<path class="st8" d="M77.1,94.8v0.6L72.6,98v-0.4L77.1,94.8z"/>
		<path class="st9" d="M77.1,94.8l-4.5,2.6L69,95l4.5-2.6C74.8,93.3,76,94.1,77.1,94.8z"/>
		<path class="st8" d="M72.6,97.5V98c-1.3-0.9-2.3-1.5-3.6-2.3c0-0.2,0-0.4,0-0.6L72.6,97.5z"/>
		<path class="st8" d="M82.4,91.8v0.6L77.9,95v-0.6L82.4,91.8z"/>
		<path class="st9" d="M82.4,91.8L78,94.3L74.3,92l4.5-2.6C79.9,90.3,81.1,90.9,82.4,91.8z"/>
		<path class="st8" d="M77.9,94.3V95c-1.3-0.9-2.3-1.5-3.6-2.3c0-0.2,0-0.4,0-0.6L77.9,94.3z"/>
		<path class="st8" d="M87.5,88.6v0.6l-4.5,2.6v-0.4L87.5,88.6z"/>
		<path class="st9" d="M87.5,88.6l-4.5,2.8L79.4,89l4.5-2.6C85.2,87.1,86.5,88,87.5,88.6z"/>
		<path class="st8" d="M83.1,91.4V92c-1.3-0.9-2.3-1.5-3.6-2.3c0-0.2,0-0.4,0-0.6L83.1,91.4z"/>
		<path class="st8" d="M98.8,82.4c0,0.2,0,0.2,0,0.4c-1.7,1.1-3.4,1.9-5.1,3c0-0.2,0-0.2,0-0.4C95.4,84.3,97.1,83.3,98.8,82.4z"/>
		<path class="st9" d="M98.8,82.4c-1.7,1.1-3.4,1.9-5.1,3c-1.3-0.9-2.3-1.5-3.6-2.3l4.9-2.8L98.8,82.4z"/>
		<path class="st8" d="M93.7,85.2c0,0.2,0,0.2,0,0.4c-1.5,0.9-3,1.7-4.5,2.6v-0.6C90.7,86.9,92.2,86,93.7,85.2z"/>
		<path class="st9" d="M93.7,85.2c-1.5,0.9-3,1.7-4.5,2.6l-3.6-2.3l4.5-2.6C91.4,83.7,92.4,84.3,93.7,85.2z"/>
		<path class="st8" d="M89.2,87.7v0.6c-1.3-0.9-2.3-1.5-3.6-2.3c0-0.2,0-0.4,0-0.6L89.2,87.7z"/>
		<path class="st8" d="M40.7,128.4c0,0.2,0,0.2,0,0.4c-1.5,0.9-3,1.7-4.3,2.6c0-0.2,0-0.2,0-0.4C37.9,130.1,39.4,129.3,40.7,128.4z"
			/>
		<path class="st9" d="M40.7,128.4c-1.5,0.9-2.8,1.7-4.3,2.6c-1.3-0.9-2.3-1.5-3.6-2.3c1.5-0.9,2.8-1.7,4.3-2.3
			C38.3,126.9,39.6,127.6,40.7,128.4z"/>
		<path class="st8" d="M36.4,131c0,0.2,0,0.2,0,0.4c-1.5,0.9-3,1.7-4.5,2.6c0-0.2,0-0.4,0-0.6C33.4,132.5,34.9,131.6,36.4,131z"/>
		<path class="st9" d="M36.4,131c-1.5,0.9-3,1.7-4.5,2.3c-1.3-0.6-2.3-1.5-3.6-2.1c1.5-0.9,3-1.7,4.5-2.6
			C34.1,129.3,35.1,130.1,36.4,131z"/>
		<path class="st8" d="M31.9,133.3c0,0.2,0,0.4,0,0.6c-1.3-0.6-2.3-1.5-3.6-2.1c0-0.2,0-0.4,0-0.9C29.6,131.8,30.9,132.7,31.9,133.3
			z"/>
		<path class="st8" d="M109.3,88.6c0,0.2,0,0.2,0,0.4c-1.7,1.1-3.4,1.9-5.1,3c0-0.2,0-0.2,0-0.4C106.1,90.5,107.6,89.7,109.3,88.6z"
			/>
		<path class="st9" d="M109.3,88.6c-1.7,1.1-3.4,1.9-5.1,3c-1.3-0.9-2.3-1.5-3.6-2.3l4.9-2.8L109.3,88.6z"/>
		<path class="st8" d="M104.4,91.6c0,0.2,0,0.2,0,0.4c-1.5,0.9-3,1.7-4.5,2.6v-0.6C101.4,93.3,102.9,92.4,104.4,91.6z"/>
		<path class="st9" d="M104.4,91.6c-1.5,0.9-3,1.7-4.5,2.6l-3.6-2.3l4.5-2.6C101.8,89.9,103.1,90.7,104.4,91.6z"/>
		<path class="st8" d="M99.9,94.1v0.6c-1.3-0.9-2.3-1.5-3.6-2.3c0-0.2,0-0.4,0-0.6L99.9,94.1z"/>
		<path class="st8" d="M46.6,131c0,0.2,0,0.2,0,0.4c-1.7,1.1-3.4,1.9-5.1,3c0-0.2,0-0.2,0-0.4C43.2,132.9,44.9,132,46.6,131z"/>
		<path class="st9" d="M46.6,131c-1.7,1.1-3.4,1.9-5.1,3c-1.3-0.9-2.3-1.5-3.6-2.3l4.9-2.8L46.6,131z"/>
		<path class="st8" d="M41.5,134c0,0.2,0,0.2,0,0.4c-1.5,0.9-3,1.7-4.5,2.6c0-0.2,0-0.4,0-0.4C38.5,135.7,40,134.8,41.5,134z"/>
		<path class="st9" d="M41.5,134c-1.5,0.9-3,1.7-4.5,2.6c-1.3-0.9-2.6-1.5-3.6-2.1c1.5-0.9,3-1.7,4.5-2.8
			C39.2,132.5,40.5,133.1,41.5,134z"/>
		<path class="st8" d="M37.1,136.5c0,0.2,0,0.4,0,0.4c-1.3-0.6-2.6-1.5-3.6-2.1c0-0.2,0-0.4,0-0.6C34.7,135,36,135.9,37.1,136.5z"/>
		<path class="st8" d="M114.8,91.6V92L102,99.5v-0.6L114.8,91.6z"/>
		<path class="st9" d="M114.8,91.6l-12.6,7.2c-1.3-0.9-2.3-1.5-3.6-2.3l12.1-7L114.8,91.6z"/>
		<path class="st8" d="M102,98.8v0.6l-4.5,2.6v-0.4L102,98.8z"/>
		<path class="st9" d="M102,98.8l-4.5,2.6L93.9,99l4.5-2.6C99.7,97.3,101,98.2,102,98.8z"/>
		<path class="st8" d="M97.5,101.6v0.6c-1.3-0.9-2.3-1.5-3.6-2.3c0-0.2,0-0.4,0-0.6L97.5,101.6z"/>
		<path class="st8" d="M98.2,108v0.4l-9.4,5.5v-0.4L98.2,108z"/>
		<path class="st9" d="M98.2,108l-9.4,5.5l-3.8-2.3l-1.3-0.6l10-5.5L98.2,108z"/>
		<path class="st8" d="M88.8,113.5v0.4l-12.6,7.5v-0.6L88.8,113.5z"/>
		<path class="st9" d="M88.8,113.5l-12.6,7.2c-1.3-0.9-2.3-1.5-3.6-2.3l12.4-7.2L88.8,113.5z"/>
		<path class="st9" d="M85,111.2l-12.4,7.2l-4.5,2.6l-1.1-0.6l16.6-9.8L85,111.2z"/>
		<path class="st8" d="M76.2,120.8v0.6l-4.5,2.6v-0.6L76.2,120.8z"/>
		<path class="st9" d="M76.2,120.8l-4.5,2.6l-3.6-2.3l4.5-2.6C73.7,119.3,75,119.9,76.2,120.8z"/>
		<path class="st8" d="M71.8,123.3v0.6c-1.3-0.9-2.3-1.5-3.6-2.3c0-0.2,0-0.4,0-0.6L71.8,123.3z"/>
		<path class="st8" d="M68.2,121c0,0.2,0,0.4,0,0.6l-1.1-0.6v-0.6L68.2,121z"/>
		<path class="st8" d="M70.3,124.2v0.9l-5.1,3v-0.9L70.3,124.2z"/>
		<path class="st9" d="M70.3,124.2l-5.1,3c-1.5-0.9-3.2-1.9-4.7-2.8c1.7-1.1,3.6-2.1,5.3-3C67.1,122.2,68.6,123.3,70.3,124.2z"/>
		<path class="st8" d="M65.2,127.1v0.9l-4.7-2.8v-0.6C62,125.4,63.5,126.3,65.2,127.1z"/>
		<path class="st8" d="M110.3,100.5v0.9l-5.1,3v-0.9L110.3,100.5z"/>
		<path class="st9" d="M110.3,100.5l-5.1,3c-1.5-0.9-3.2-1.9-4.7-2.8c1.7-1.1,3.6-2.1,5.3-3C107.3,98.6,108.8,99.7,110.3,100.5z"/>
		<path class="st8" d="M105.2,103.5v0.9l-4.7-2.8v-0.6C102,101.8,103.5,102.7,105.2,103.5z"/>
		<path class="st8" d="M104.4,104.1v0.6c-1.9,1.1-3.6,2.1-5.5,3.2c0-0.2,0-0.4,0-0.9C100.7,106.3,102.7,105.2,104.4,104.1z"/>
		<path class="st9" d="M99.7,101.4c1.5,0.9,3.2,1.9,4.7,2.8c-1.9,1.1-3.6,2.1-5.5,3.2c-1.5-1.1-3-1.9-4.5-3
			C96.3,103.3,98,102.4,99.7,101.4z"/>
		<path class="st8" d="M99,107.3c0,0.2,0,0.4,0,0.9c-1.5-1.1-3-1.9-4.5-3v-0.9C96.1,105.4,97.5,106.3,99,107.3z"/>
		<path class="st8" d="M63.5,128.2v0.6c-1.5,0.9-2.8,1.7-4.3,2.6c0-0.2,0-0.4,0-0.9C60.7,129.9,62,129.1,63.5,128.2z"/>
		<path class="st9" d="M63.5,128.2c-1.5,0.9-2.8,1.7-4.3,2.6l-4.7-2.8c1.5-0.9,3-1.7,4.5-2.6C60.5,126.3,62,127.1,63.5,128.2z"/>
		<path class="st8" d="M59.2,130.8c0,0.2,0,0.4,0,0.9c-1.5-0.9-3.2-1.7-4.7-2.8c0-0.2,0-0.6,0-0.9L59.2,130.8z"/>
		<path class="st8" d="M53,134.2v0.6c-1.5,0.9-2.8,1.7-4.3,2.6c0-0.2,0-0.4,0-0.9C50.3,135.9,51.5,135,53,134.2z"/>
		<path class="st9" d="M53,134.2c-1.5,0.9-2.8,1.7-4.3,2.6l-4.7-2.8c1.5-0.9,3-1.7,4.5-2.6C50,132.3,51.5,133.3,53,134.2z"/>
		<path class="st8" d="M48.8,136.7c0,0.2,0,0.4,0,0.9c-1.5-0.9-3.2-1.7-4.7-2.8c0-0.2,0-0.6,0-0.9L48.8,136.7z"/>
		<path class="st8" d="M99,94.3V95c-1.1,0.6-2.3,1.3-3.4,2.1c0-0.2,0-0.4,0-0.6C96.9,95.6,98,95,99,94.3z"/>
		<path class="st9" d="M99,94.3c-1.1,0.6-2.3,1.3-3.4,2.1l-3.8-2.3c1.3-0.6,2.3-1.5,3.6-2.1C96.7,92.9,98,93.5,99,94.3z"/>
		<path class="st8" d="M95.6,96.5c0,0.2,0,0.4,0,0.6c-1.3-0.6-2.6-1.5-3.8-2.1c0-0.2,0-0.4,0-0.6L95.6,96.5z"/>
		<path class="st8" d="M57.9,131.4c0,0.2,0,0.6,0,0.9l-3.8,2.3v-0.9C55.4,132.9,56.7,132.3,57.9,131.4z"/>
		<path class="st9" d="M57.9,131.4c-1.3,0.9-2.6,1.5-3.8,2.3c-0.9-0.4-1.7-1.1-2.6-1.5c1.3-0.9,2.6-1.5,3.8-2.3
			C56.2,130.3,57.1,131,57.9,131.4z"/>
		<path class="st8" d="M54.1,133.7v0.9l-2.6-1.7c0-0.2,0-0.4,0-0.6C52.4,132.7,53.2,133.1,54.1,133.7z"/>
		<path class="st8" d="M47.1,137.6c0,0.2,0,0.6,0,0.9l-3.8,2.3v-0.9C44.5,139.3,45.8,138.4,47.1,137.6z"/>
		<path class="st9" d="M47.1,137.6c-1.3,0.9-2.6,1.5-3.8,2.3c-0.9-0.4-1.7-1.1-2.6-1.5c1.3-0.9,2.6-1.5,3.8-2.3
			C45.6,136.7,46.4,137.2,47.1,137.6z"/>
		<path class="st8" d="M43.4,139.9v0.9l-2.6-1.7c0-0.2,0-0.4,0-0.6C41.7,138.9,42.6,139.5,43.4,139.9z"/>
		<path class="st8" d="M115,95.2c0,0.2,0,0.4,0,0.6l-3,1.7v-0.6C113.1,96.3,114.2,95.6,115,95.2z"/>
		<path class="st9" d="M115,95.2c-1.1,0.6-1.9,1.1-3,1.7c-0.6-0.4-1.3-0.9-1.9-1.1c1.1-0.6,1.9-1.1,3-1.7
			C113.7,94.3,114.4,94.8,115,95.2z"/>
		<path class="st8" d="M112.2,96.9v0.6l-1.9-1.3c0-0.2,0-0.4,0-0.6C111,96.1,111.6,96.5,112.2,96.9z"/>
		<path class="st8" d="M120.5,94.6c0,0.2,0,0.4,0,0.6l-3,1.7v-0.6C118.6,95.6,119.5,95.2,120.5,94.6z"/>
		<path class="st9" d="M120.5,94.6c-1.1,0.6-1.9,1.1-3,1.7c-0.6-0.4-1.3-0.9-1.9-1.1c1.1-0.6,1.9-1.1,3-1.7
			C119.3,93.7,119.9,94.1,120.5,94.6z"/>
		<path class="st8" d="M117.6,96.3v0.6l-1.9-1.3c0-0.2,0-0.4,0-0.6C116.3,95.4,116.9,95.8,117.6,96.3z"/>
		<path class="st8" d="M117.1,96.5c0,0.2,0,0.4,0,0.6l-3,1.7v-0.6C115.2,97.8,116.3,97.1,117.1,96.5z"/>
		<path class="st9" d="M117.1,96.5c-1.1,0.6-1.9,1.1-3,1.7c-0.6-0.4-1.3-0.9-1.9-1.1c1.1-0.6,1.9-1.1,3-1.7
			C116.1,95.8,116.7,96.1,117.1,96.5z"/>
		<path class="st8" d="M114.4,98.2v0.6l-1.9-1.3c0-0.2,0-0.4,0-0.6C113.1,97.5,113.7,98,114.4,98.2z"/>
		<path class="st8" d="M113.7,98.6c0,0.2,0,0.4,0,0.6l-3,1.7v-0.6C111.8,99.7,112.9,99.2,113.7,98.6z"/>
		<path class="st9" d="M113.7,98.6c-1.1,0.6-1.9,1.1-3,1.7c-0.6-0.4-1.3-0.9-1.9-1.1c1.1-0.6,1.9-1.1,3-1.7
			C112.5,97.8,113.1,98.2,113.7,98.6z"/>
		<path class="st8" d="M111,100.3v0.6l-1.9-1.3c0-0.2,0-0.4,0-0.6C109.5,99.5,110.1,99.9,111,100.3z"/>
		<path class="st8" d="M20.4,121.2c0,0.2,0,0.4,0,0.6c-1.5,0.9-3,1.7-4.5,2.6v-0.6C17.7,123.1,19.2,122.2,20.4,121.2z"/>
		<path class="st9" d="M20.4,121.2c-1.5,0.9-3,1.7-4.5,2.6c-0.6-0.4-1.5-0.9-2.1-1.3c1.5-0.9,3-1.7,4.5-2.6
			C19.2,120.3,19.8,120.8,20.4,121.2z"/>
		<path class="st8" d="M16.2,124v0.6c-0.6-0.4-1.5-0.9-2.1-1.3c0-0.2,0-0.4,0-0.6C14.7,123.1,15.3,123.5,16.2,124z"/>
		<path class="st8" d="M25.8,118.2c0,0.2,0,0.4,0,0.6c-1.5,0.9-3,1.7-4.5,2.6v-0.6C23,119.9,24.5,119.1,25.8,118.2z"/>
		<path class="st9" d="M25.8,118.2c-1.5,0.9-3,1.7-4.5,2.6c-0.6-0.4-1.5-0.9-2.1-1.3c1.5-0.9,3-1.7,4.5-2.6
			C24.5,117.3,25.1,117.8,25.8,118.2z"/>
		<path class="st8" d="M21.5,120.8v0.6c-0.6-0.4-1.5-0.9-2.1-1.3c0-0.2,0-0.4,0-0.6C20,119.9,20.7,120.3,21.5,120.8z"/>
		<path class="st8" d="M31.5,115c0,0.2,0,0.4,0,0.6c-1.5,0.9-3,1.7-4.5,2.6c0-0.2,0-0.4,0-0.4C28.5,116.7,30,115.9,31.5,115z"/>
		<path class="st9" d="M31.5,115c-1.5,0.9-3,1.7-4.5,2.6c-0.6-0.4-1.5-0.9-2.1-1.5c1.5-0.9,3-1.7,4.5-2.6
			C30,114.2,30.9,114.6,31.5,115z"/>
		<path class="st8" d="M27,117.6c0,0.2,0,0.4,0,0.4c-0.6-0.4-1.5-1.1-2.1-1.5c0-0.2,0-0.4,0-0.4C25.6,116.7,26.4,117.1,27,117.6z"/>
		<path class="st8" d="M37.1,111.8c0,0.2,0,0.4,0,0.6c-1.5,0.9-3,1.7-4.5,2.6c0-0.2,0-0.4,0-0.4C34.1,113.7,35.6,112.9,37.1,111.8z"
			/>
		<path class="st9" d="M37.1,111.8c-1.5,0.9-3,1.7-4.5,2.6c-0.6-0.4-1.5-0.9-2.1-1.5c1.5-0.9,3-1.7,4.5-2.6
			C35.6,111,36.2,111.4,37.1,111.8z"/>
		<path class="st8" d="M32.6,114.6c0,0.2,0,0.4,0,0.4c-0.6-0.4-1.5-1.1-2.1-1.5c0-0.2,0-0.4,0-0.4C31.1,113.5,31.9,114.2,32.6,114.6
			z"/>
		<path class="st8" d="M42.8,108.4c0,0.2,0,0.4,0,0.6c-1.5,0.9-3,1.7-4.5,2.6V111C40,110.1,41.5,109.3,42.8,108.4z"/>
		<path class="st9" d="M42.8,108.4c-1.5,0.9-3,1.7-4.5,2.6c-0.6-0.4-1.5-0.9-2.1-1.3c1.5-0.9,3-1.7,4.5-2.6
			C41.5,107.6,42.2,108,42.8,108.4z"/>
		<path class="st8" d="M38.5,111v0.6c-0.6-0.4-1.5-0.9-2.1-1.3c0-0.2,0-0.4,0-0.6C37.1,110.1,37.7,110.5,38.5,111z"/>
		<path class="st8" d="M48.1,105.2c0,0.2,0,0.4,0,0.6c-1.5,0.9-3,1.7-4.5,2.6v-0.6C45.4,106.9,46.9,106.1,48.1,105.2z"/>
		<path class="st9" d="M48.1,105.2c-1.5,0.9-3,1.7-4.5,2.6c-0.6-0.4-1.5-0.9-2.1-1.3c1.5-0.9,3-1.7,4.5-2.6
			C46.9,104.4,47.5,104.8,48.1,105.2z"/>
		<path class="st8" d="M43.9,107.8v0.6c-0.6-0.4-1.5-0.9-2.1-1.3c0-0.2,0-0.4,0-0.6C42.4,106.9,43,107.3,43.9,107.8z"/>
		<path class="st8" d="M53.9,102c0,0.2,0,0.4,0,0.6c-1.5,0.9-3,1.7-4.5,2.6c0-0.2,0-0.4,0-0.4C50.9,103.9,52.4,102.9,53.9,102z"/>
		<path class="st9" d="M53.9,102c-1.5,0.9-3,1.7-4.5,2.6c-0.6-0.4-1.5-0.9-2.1-1.5c1.5-0.9,3-1.7,4.5-2.6
			C52.4,101.2,53.2,101.6,53.9,102z"/>
		<path class="st8" d="M49.4,104.8c0,0.2,0,0.4,0,0.4c-0.6-0.4-1.5-1.1-2.1-1.5c0-0.2,0-0.4,0-0.4C47.9,103.7,48.8,104.1,49.4,104.8
			z"/>
		<path class="st8" d="M59.4,99c0,0.2,0,0.4,0,0.6c-1.5,0.9-3,1.7-4.5,2.6c0-0.2,0-0.4,0-0.4C56.4,100.7,57.9,99.9,59.4,99z"/>
		<path class="st9" d="M59.4,99c-1.5,0.9-3,1.7-4.5,2.6c-0.6-0.4-1.5-0.9-2.1-1.5c1.5-0.9,3-1.7,4.5-2.6
			C57.9,98.2,58.6,98.6,59.4,99z"/>
		<path class="st8" d="M54.9,101.6c0,0.2,0,0.4,0,0.4c-0.6-0.4-1.5-1.1-2.1-1.5c0-0.2,0-0.4,0-0.4C53.5,100.7,54.1,101.2,54.9,101.6
			z"/>
		<path class="st8" d="M65,95.6c0,0.2,0,0.4,0,0.6c-1.5,0.9-3,1.7-4.5,2.6c0-0.2,0-0.4,0-0.4C62,97.5,63.5,96.7,65,95.6z"/>
		<path class="st9" d="M65,95.6c-1.5,0.9-3,1.7-4.5,2.6c-0.6-0.4-1.5-0.9-2.1-1.5c1.5-0.9,3-1.7,4.5-2.6
			C63.7,94.8,64.3,95.2,65,95.6z"/>
		<path class="st8" d="M60.7,98.4c0,0.2,0,0.4,0,0.4c-0.6-0.4-1.5-1.1-2.1-1.5c0-0.2,0-0.4,0-0.4C59.2,97.3,59.8,98,60.7,98.4z"/>
		<path class="st8" d="M70.9,92.4c0,0.2,0,0.4,0,0.6c-1.5,0.9-3,1.7-4.5,2.6V95C67.9,94.1,69.4,93.3,70.9,92.4z"/>
		<path class="st9" d="M70.9,92.4c-1.5,0.9-3,1.7-4.5,2.6c-0.6-0.4-1.5-0.9-2.1-1.3c1.5-0.9,3-1.7,4.5-2.6
			C69.4,91.6,70.1,92,70.9,92.4z"/>
		<path class="st8" d="M66.4,95v0.6c-0.6-0.4-1.5-0.9-2.1-1.3c0-0.2,0-0.4,0-0.6C65,94.1,65.6,94.6,66.4,95z"/>
		<path class="st8" d="M76.2,89.2c0,0.2,0,0.4,0,0.6c-1.5,0.9-3,1.7-4.5,2.6v-0.6C73.3,90.9,74.8,90.1,76.2,89.2z"/>
		<path class="st9" d="M76.2,89.2c-1.5,0.9-3,1.7-4.5,2.6c-0.6-0.4-1.5-0.9-2.1-1.3c1.5-0.9,3-1.7,4.5-2.6
			C74.8,88.4,75.4,88.8,76.2,89.2z"/>
		<path class="st8" d="M71.8,91.8v0.6c-0.6-0.4-1.5-0.9-2.1-1.3c0-0.2,0-0.4,0-0.6C70.3,90.9,71.1,91.4,71.8,91.8z"/>
		<path class="st8" d="M81.8,86c0,0.2,0,0.4,0,0.6c-1.5,0.9-3,1.7-4.5,2.6c0-0.2,0-0.4,0-0.4C78.8,87.7,80.3,86.9,81.8,86z"/>
		<path class="st9" d="M81.8,86c-1.5,0.9-3,1.7-4.5,2.6c-0.6-0.4-1.5-0.9-2.1-1.5c1.5-0.9,3-1.7,4.5-2.6
			C80.3,85.2,81.1,85.6,81.8,86z"/>
		<path class="st8" d="M77.3,88.6c0,0.2,0,0.4,0,0.4c-0.6-0.4-1.5-1.1-2.1-1.5c0-0.2,0-0.4,0-0.4C76,87.7,76.7,88.2,77.3,88.6z"/>
		<path class="st8" d="M87.3,83.1c0,0.2,0,0.4,0,0.6c-1.5,0.9-3,1.7-4.5,2.6c0-0.2,0-0.4,0-0.4C84.3,84.8,85.8,83.9,87.3,83.1z"/>
		<path class="st9" d="M87.3,83.1c-1.5,0.9-3,1.7-4.5,2.6c-0.6-0.4-1.5-0.9-2.1-1.5c1.5-0.9,3-1.7,4.5-2.6
			C85.8,82,86.5,82.4,87.3,83.1z"/>
		<path class="st8" d="M82.8,85.6c0,0.2,0,0.4,0,0.4c-0.6-0.4-1.5-1.1-2.1-1.5c0-0.2,0-0.4,0-0.4C81.4,84.6,82.2,85.2,82.8,85.6z"/>
		<path class="st8" d="M93.1,79.4c0,0.2,0,0.4,0,0.6c-1.5,0.9-3,1.7-4.5,2.6V82C90.3,81.1,91.8,80.3,93.1,79.4z"/>
		<path class="st9" d="M93.1,79.4c-1.5,0.9-3,1.7-4.5,2.6c-0.6-0.4-1.5-0.9-2.1-1.3c1.5-0.9,3-1.7,4.5-2.6
			C91.8,78.6,92.4,79,93.1,79.4z"/>
		<path class="st8" d="M88.8,82v0.6c-0.6-0.4-1.5-0.9-2.1-1.3c0-0.2,0-0.4,0-0.6C87.3,81.1,88,81.6,88.8,82z"/>
		<path class="st8" d="M83.5,78.2L16,118l-0.9-0.6l67.7-39.6L83.5,78.2z"/>
		<path class="st9" d="M81.4,76.9l1.5,0.9l-67.7,39.6l-1.5-0.6L81.4,76.9z"/>
		<path class="st10" d="M16.2,48.8l0.4,62.2l-11.5,6.4l-0.4-62L16.2,48.8z"/>
		<g class="st11">
			<path class="st10" d="M17,67.9v1.5l6.2-3.6v-1.5L17,67.9z"/>
		</g>
		<g class="st11">
			<path class="st10" d="M24.1,63.9v1.5l6.2-3.6v-1.5L24.1,63.9z"/>
		</g>
		<g class="st11">
			<path class="st10" d="M79.2,31.9v1.5l6.2-3.6v-1.5L79.2,31.9z"/>
		</g>
		<path class="st10" d="M17,70.3V72l68.4-39.8v-1.7L17,70.3z"/>
		<path class="st12" d="M21.3,60.9c-0.2,0-0.2,0.2-0.2,0.4v1.3c0,0.2,0,0.2,0.2,0.2l15.3-8.9c0.2,0,0.2-0.2,0.2-0.4v-1.1
			c0-0.2,0-0.2-0.2-0.2L21.3,60.9z"/>
		<path class="st12" d="M37.9,51.3c-0.2,0-0.2,0.2-0.2,0.4v1.1c0,0.2,0,0.2,0.2,0.2l9.2-5.3c0.2,0,0.2-0.2,0.2-0.4v-1.1
			c0-0.2,0-0.2-0.2-0.2L37.9,51.3z"/>
		<path class="st12" d="M48.3,45.4c-0.2,0-0.2,0.2-0.2,0.4v1.1c0,0.2,0,0.2,0.2,0.2l8.9-5.3c0.2,0,0.2-0.2,0.2-0.4v-1.1
			c0-0.2,0-0.2-0.2-0.2L48.3,45.4z"/>
		<path class="st12" d="M58.8,39.6v0.6l0.4-0.2c0,0,0,0,0-0.2v-0.4L58.8,39.6z"/>
		<path class="st12" d="M19,62.8l0.6-0.4"/>
		<path class="st12" d="M19,63.3l0.6-0.4"/>
		<path class="st12" d="M19,63.5l0.6-0.4"/>
		<path class="st12" d="M17.3,63.9v0.4l0.9-0.4v-0.4L17.3,63.9z"/>
		<path class="st12" d="M17.7,63.7v0.4"/>
		<path class="st12" d="M17.3,64.1l0.9-0.4"/>
		<path class="st12" d="M17,63.7V65l3-1.7v-1.5L17,63.7z"/>
		<path class="st12" d="M18.5,62.6v1.5"/>
		<path class="st12" d="M48.1,46.4c0,3.2,0,6.6,0,9.8l9.4-5.5c0-3.2,0-6.2,0-9.4"/>
		<g class="st13">
			<path class="st14" d="M26.6,84.1c0.2,0,0.2-0.2,0.2-0.4V70.3c0-0.2,0-0.2-0.2-0.2l-8.5,4.7c-0.2,0-0.2,0.2-0.2,0.4v13.6
				c0,0.2,0,0.2,0.2,0.2L26.6,84.1z"/>
		</g>
		<path class="st15" d="M26.6,84.3c0.2,0,0.2-0.2,0.2-0.4V70.5c0-0.2,0-0.2-0.2-0.2L18.1,75c-0.2,0-0.2,0.2-0.2,0.4V89
			c0,0.2,0,0.2,0.2,0.2L26.6,84.3z"/>
		<g class="st16">
			<path class="st17" d="M54.5,77.5c0.2,0,0.2-0.2,0.2-0.4V63.7c0-0.2,0-0.2-0.2-0.2L46,68.2c-0.2,0-0.2,0.2-0.2,0.4v13.6
				c0,0.2,0,0.2,0.2,0.2L54.5,77.5z"/>
		</g>
		<path class="st15" d="M54.7,77.7c0.2,0,0.2-0.2,0.2-0.4V63.9c0-0.2,0-0.2-0.2-0.2l-8.5,4.7c-0.2,0-0.2,0.2-0.2,0.4v13.6
			c0,0.2,0,0.2,0.2,0.2L54.7,77.7z"/>
		<g class="st16">
			<path class="st18" d="M83.5,52c0.2,0,0.2-0.2,0.2-0.4V38.1c0-0.2,0-0.2-0.2-0.2L75,42.6c-0.2,0-0.2,0.2-0.2,0.4v13.6
				c0,0.2,0,0.2,0.2,0.2L83.5,52z"/>
		</g>
		<path class="st15" d="M83.5,52.2c0.2,0,0.2-0.2,0.2-0.4V38.3c0-0.2,0-0.2-0.2-0.2L75,42.8c-0.2,0-0.2,0.2-0.2,0.4v13.6
			c0,0.2,0,0.2,0.2,0.2L83.5,52.2z"/>
		<path class="st19" d="M84.4,49.1c0.6-3.1-0.7-6-3-6.5c-2.3-0.5-4.7,1.7-5.3,4.8c-0.6,3.1,0.7,6,3,6.5
			C81.4,54.4,83.7,52.2,84.4,49.1z"/>
		<path class="st20" d="M91.6,51.8c0.8-3.9-1-7.6-4-8.2c-3-0.6-6.1,2.1-6.9,6c-0.8,3.9,1,7.6,4,8.2C87.8,58.4,90.9,55.7,91.6,51.8z"
			/>
		<path class="st21" d="M98.1,53.6c0.9-4.3-1-8.2-4.1-8.9c-3.1-0.6-6.3,2.3-7.2,6.6s1,8.2,4.1,8.9C94.1,60.9,97.3,57.9,98.1,53.6z"
			/>
		<path class="st22" d="M65.8,80.7c2.9-3.9,2.9-8.8,0-10.9c-2.9-2.2-7.6-0.8-10.5,3c-2.9,3.9-2.9,8.8,0.1,10.9
			C58.2,85.9,62.9,84.6,65.8,80.7z"/>
		<path class="st23" d="M61.7,77.9c2.5-3.4,2.5-7.7-0.2-9.7c-2.6-2-6.8-0.8-9.4,2.6c-2.5,3.4-2.5,7.7,0.2,9.7
			C55,82.5,59.2,81.3,61.7,77.9z"/>
		<path class="st24" d="M56,74.8c2-2.7,2-6.2,0-7.8c-2.1-1.6-5.4-0.6-7.5,2.1c-2,2.7-2,6.2,0,7.8C50.6,78.5,53.9,77.5,56,74.8z"/>
		<path class="st25" d="M32.1,85.5c2.5-3.4,2.5-7.7-0.2-9.7c-2.6-2-6.8-0.8-9.4,2.6c-2.5,3.4-2.5,7.7,0.2,9.7
			C25.3,90,29.5,88.9,32.1,85.5z"/>
		<path class="st26" d="M26.4,82.4c2-2.7,2-6.2,0-7.8c-2.1-1.6-5.4-0.6-7.5,2.1c-2,2.7-2,6.2,0,7.8C21,86.1,24.3,85.1,26.4,82.4z"/>
		<path class="st5" d="M59.9,82c0.2-0.3,0.2-0.6,0-0.8c-0.2-0.1-0.5,0-0.7,0.3c-0.2,0.3-0.2,0.6,0,0.8C59.4,82.4,59.7,82.3,59.9,82z
			"/>
		<path class="st5" d="M63.9,79.7c0.2-0.3,0.2-0.6,0-0.8c-0.2-0.1-0.5,0-0.7,0.3c-0.2,0.3-0.2,0.6,0,0.8
			C63.3,80.1,63.6,80,63.9,79.7z"/>
		<path class="st27" d="M61.1,77.5l-0.4-3.8L59,74.5l-3,1.9c0.6,0.9,1.5,1.9,2.1,2.8C59.2,78.8,60.3,78.2,61.1,77.5z M61.1,77.5
			c0.6-0.4,1.3-0.6,1.9-1.1l-0.6-3.4c0.4-0.2,0.6-0.2,1.1-0.4"/>
		<path class="st27" d="M63,76.5l0.2,1.7L59,80.7"/>
		<path class="st28" d="M56.4,77.3l4.5-2.8"/>
		<path class="st28" d="M57.3,77.9l3.6-2.3"/>
		<path class="st28" d="M57.7,78.6l3.4-1.9"/>
		<path class="st27" d="M89,51.3c1.7-1.3,3.6-2.6,5.3-3.8v4.9L89,55.8C89,54.5,89,53,89,51.3z"/>
		<path class="st29" d="M95.2,53.2l1.5-0.9v-3l-0.2-0.2l-0.6-0.9L95.2,49V50V53.2z M95.2,53.2l-5.3,3.4"/>
		<path class="st5" d="M91.9,57.2c0.2-0.3,0.2-0.6,0-0.8c-0.2-0.1-0.5,0-0.7,0.3c-0.2,0.3-0.2,0.6,0,0.8
			C91.4,57.6,91.7,57.5,91.9,57.2z"/>
		<path class="st5" d="M96.2,54.3c0.2-0.3,0.2-0.6,0-0.8c-0.2-0.1-0.5,0-0.7,0.3c-0.2,0.3-0.2,0.6,0,0.8
			C95.7,54.7,96,54.6,96.2,54.3z"/>
		<path class="st30" d="M95.4,49.4V50l0.9-0.4L95.8,49L95.4,49.4z"/>
		<path class="st31" d="M36.2,88.3c2.9-3.9,2.9-8.8,0-10.9c-2.9-2.2-7.6-0.8-10.5,3c-2.9,3.9-2.9,8.8,0,10.9
			C28.6,93.5,33.3,92.1,36.2,88.3z"/>
		<path class="st27" d="M32.2,82.8c0.8-1,0.8-2.3,0-2.9c-0.8-0.6-2-0.2-2.8,0.9c-0.8,1-0.8,2.3,0,2.9C30.2,84.2,31.4,83.8,32.2,82.8
			z"/>
		<path class="st27" d="M36,85.8l-0.4-0.6c-5.5-6-7.7,5.3-7.7,5.3L36,85.8z"/>
	</g>
</g>
</svg>
