<?xml version="1.0" encoding="utf-8"?>
<!-- Generator: Adobe Illustrator 21.0.0, SVG Export Plug-In . SVG Version: 6.00 Build 0)  -->
<svg version="1.1" id="图层_1" xmlns="http://www.w3.org/2000/svg" xmlns:xlink="http://www.w3.org/1999/xlink" x="0px" y="0px"
	 viewBox="0 0 23.6 19.1" style="enable-background:new 0 0 23.6 19.1;" xml:space="preserve">
<style type="text/css">
	.st0{fill:#D5E9FA;}
	.st1{fill:none;stroke:#2C3C59;stroke-width:1.0742;stroke-miterlimit:10;}
	.st2{fill:#2C3C59;}
</style>
<path class="st0" d="M13.5,8.5h4.6c0.3,0,0.5,0.2,0.5,0.5v4.7c0,0.3-0.2,0.5-0.5,0.5h-4.6c-0.3,0-0.5-0.2-0.5-0.5V8.9
	C13,8.7,13.2,8.5,13.5,8.5z"/>
<path class="st1" d="M17.8,13.8h-5.5c-0.3,0-0.5-0.2-0.5-0.5V7.8c0-0.3,0.2-0.5,0.5-0.5h5.5c0.3,0,0.5,0.2,0.5,0.5v5.5
	C18.3,13.6,18,13.8,17.8,13.8z"/>
<path class="st2" d="M15.3,9.7h-0.4c-0.2,0-0.4-0.2-0.4-0.4V7.7c0-0.2,0.2-0.4,0.4-0.4h0.4c0.2,0,0.4,0.2,0.4,0.4v1.7
	C15.6,9.6,15.5,9.7,15.3,9.7z"/>
<path class="st0" d="M7,8.5h4.6c0.3,0,0.5,0.2,0.5,0.5v4.7c0,0.3-0.2,0.5-0.5,0.5H7c-0.3,0-0.5-0.2-0.5-0.5V8.9
	C6.5,8.7,6.8,8.5,7,8.5z"/>
<path class="st1" d="M11.3,13.8H5.8c-0.3,0-0.5-0.2-0.5-0.5V7.8c0-0.3,0.2-0.5,0.5-0.5h5.5c0.3,0,0.5,0.2,0.5,0.5v5.5
	C11.8,13.6,11.6,13.8,11.3,13.8z"/>
<path class="st2" d="M8.8,9.7H8.4C8.2,9.7,8,9.6,8,9.4V7.7c0-0.2,0.2-0.4,0.4-0.4h0.4c0.2,0,0.4,0.2,0.4,0.4v1.7
	C9.2,9.6,9,9.7,8.8,9.7z"/>
<path class="st0" d="M10.3,1.7H15c0.3,0,0.5,0.2,0.5,0.5v4.6c0,0.3-0.2,0.5-0.5,0.5h-4.6c-0.3,0-0.5-0.2-0.5-0.5V2.2
	C9.9,1.9,10.1,1.7,10.3,1.7z"/>
<path class="st1" d="M14.6,7H9.1C8.9,7,8.7,6.8,8.7,6.5V1c0-0.3,0.2-0.5,0.5-0.5h5.5c0.3,0,0.5,0.2,0.5,0.5v5.5
	C15.1,6.8,14.9,7,14.6,7z"/>
<path class="st2" d="M12.1,3h-0.4c-0.2,0-0.4-0.2-0.4-0.4V0.9c0-0.2,0.2-0.4,0.4-0.4h0.4c0.2,0,0.4,0.2,0.4,0.4v1.7
	C12.5,2.8,12.3,3,12.1,3z"/>
<path class="st2" d="M5.2,17.3H0v1.8h5.2V17.3z"/>
<path class="st2" d="M11.4,17.4H6.1v1.7h5.2V17.4z"/>
<path class="st2" d="M17.5,17.4h-5.2v1.7h5.2V17.4z"/>
<path class="st2" d="M23.6,17.4h-5.2v1.7h5.2V17.4z"/>
<path class="st2" d="M23.6,15.4H0v1.4h23.6V15.4z"/>
</svg>
