<?xml version="1.0" encoding="utf-8"?>
<!-- Generator: Adobe Illustrator 21.0.0, SVG Export Plug-In . SVG Version: 6.00 Build 0)  -->
<svg version="1.1" id="图层_1" xmlns="http://www.w3.org/2000/svg" xmlns:xlink="http://www.w3.org/1999/xlink" x="0px" y="0px"
	 viewBox="0 0 23.5 21.7" style="enable-background:new 0 0 23.5 21.7;" xml:space="preserve">
<style type="text/css">
	.st0{fill:#D5E9FA;}
	.st1{fill:none;stroke:#2C3C59;stroke-width:0.8056;stroke-linecap:round;stroke-linejoin:round;stroke-miterlimit:10;}
	.st2{fill:none;stroke:#2C3C59;stroke-width:0.8056;stroke-linecap:round;stroke-linejoin:round;}
</style>
<path class="st0" d="M5.4,6.5v11.1h10V14l-2.9-7.5L5.4,6.5z"/>
<path class="st1" d="M3.5,21.3c0.8,0,1.4-0.6,1.4-1.4c0-0.8-0.6-1.4-1.4-1.4c-0.8,0-1.4,0.6-1.4,1.4C2.1,20.6,2.7,21.3,3.5,21.3z"/>
<path class="st1" d="M11.3,21.3c0.8,0,1.4-0.6,1.4-1.4c0-0.8-0.6-1.4-1.4-1.4s-1.4,0.6-1.4,1.4C9.9,20.6,10.5,21.3,11.3,21.3z"/>
<path class="st1" d="M0.4,16.2H14V14L10.4,3.8H3.6v12.4"/>
<path class="st1" d="M5.4,5.6v4.4h5L8.7,5.6H5.4z"/>
<rect x="19.7" y="8.3" class="st0" width="3.8" height="3.8"/>
<path class="st1" d="M22.3,7.1l-3.8,0l0,3.7l3.8,0L22.3,7.1z"/>
<path class="st2" d="M16.7,0.4v12.9h6.4"/>
</svg>
