<?xml version="1.0" encoding="utf-8"?>
<!-- Generator: Adobe Illustrator 21.0.0, SVG Export Plug-In . SVG Version: 6.00 Build 0)  -->
<svg version="1.1" id="图层_1" xmlns="http://www.w3.org/2000/svg" xmlns:xlink="http://www.w3.org/1999/xlink" x="0px" y="0px"
	 viewBox="0 0 25.8 25.8" style="enable-background:new 0 0 25.8 25.8;" xml:space="preserve">
<style type="text/css">
	.st0{clip-path:url(#SVGID_2_);}
	.st1{fill:#D5E9FA;}
	.st2{fill:none;stroke:#2C3C59;stroke-width:1.0742;}
	.st3{fill:#2C3C59;}
	.st4{fill:none;stroke:#2C3C59;stroke-width:0.8056;}
</style>
<g>
	<defs>
		<rect id="SVGID_1_" width="25.8" height="25.8"/>
	</defs>
	<clipPath id="SVGID_2_">
		<use xlink:href="#SVGID_1_"  style="overflow:visible;"/>
	</clipPath>
	<g class="st0">
		<path class="st1" d="M22.1,15l-5.9-5.8C16,9,15.6,9,15.5,9.2l-5.9,8.3c-0.1,0.2-0.1,0.4,0,0.5l2.6,3.8c0.1,0.1,0.1,0.2,0.1,0.3
			v2.2c0,0.3,0.2,0.5,0.5,0.5h9.1c0.3,0,0.5-0.2,0.5-0.5v-9C22.2,15.2,22.2,15.1,22.1,15z"/>
		<path class="st1" d="M5.1,17.7V4.4c0-1,0.8-1.8,1.8-1.8h8.3v15.1H5.1z"/>
		<path class="st2" d="M15.3,15.2V2.8c0-1-0.8-1.8-1.8-1.8H5.4c-1,0-1.8,0.8-1.8,1.8v13.1c0,1,0.8,1.8,1.8,1.8h5.7"/>
		<path class="st3" d="M12.3,1v11.6L10,10.5V1H12.3z"/>
		<path class="st3" d="M10.7,15.3V18H10v-3.8L10.7,15.3z"/>
		<path class="st2" d="M7.9,2.6v4.8"/>
		<path class="st2" d="M15.2,8.8l5.1,5c0.1,0.1,0.1,0.2,0.1,0.3v9.1"/>
		<path class="st2" d="M16.8,16.5l-6.3-5.6c-0.5-0.5-1.3-0.5-1.9,0.1l0,0c-0.5,0.5-0.5,1.4,0,1.9l2.1,2.2c0.3,0.3,0.4,0.7,0.4,1.1
			c-0.2,3.2,0.4,4,2.8,4.5"/>
		<path class="st4" d="M8.3,17.9l2.3,3.6v1.7"/>
	</g>
</g>
</svg>
