<?xml version="1.0" encoding="utf-8"?>
<!-- Generator: Adobe Illustrator 21.0.0, SVG Export Plug-In . SVG Version: 6.00 Build 0)  -->
<svg version="1.1" id="图层_1" xmlns="http://www.w3.org/2000/svg" xmlns:xlink="http://www.w3.org/1999/xlink" x="0px" y="0px"
	 viewBox="0 0 24.2 17.8" style="enable-background:new 0 0 24.2 17.8;" xml:space="preserve">
<style type="text/css">
	.st0{fill:#D5E9FA;}
	.st1{fill:#2C3C59;}
	.st2{fill:#4C5263;}
	.st3{fill:#FFFFFF;}
</style>
<path class="st0" d="M12.9,17.5c6.2,0,11.3-2.2,11.3-4.9c0-2.7-5.1-4.9-11.3-4.9S1.6,9.9,1.6,12.6C1.6,15.3,6.6,17.5,12.9,17.5z"/>
<path class="st1" d="M17.1,6.4c0-0.1-0.1-0.2-0.3-0.2l0,0.2l0-0.2l0,0l0,0l0,0h0h0l0,0l-0.1,0c-0.1,0-0.2,0-0.3,0
	c-0.2,0-0.6,0.1-1,0.2c-0.1,0-0.2,0.1-0.2,0.3c0,0.1,0.1,0.2,0.3,0.2c0.4-0.1,0.7-0.1,1-0.2c0.1,0,0.2,0,0.3,0l0.1,0l0,0l0,0h0h0
	l0,0l0,0l0-0.2l0,0.2C17,6.6,17.1,6.5,17.1,6.4z M13.6,7.1c0,0.1,0,0.3-0.2,0.3c-0.3,0.1-0.6,0.1-0.9,0.2l0,0l0,0l0,0
	c-0.2,0-0.4,0.1-0.5,0.1c-0.1,0-0.3,0-0.3-0.2c0-0.1,0-0.3,0.2-0.3c0.2,0,0.3-0.1,0.5-0.1h0l0,0C12.7,7,13,7,13.3,6.9
	C13.4,6.9,13.5,6.9,13.6,7.1z M9.4,8.2c0.1,0.1,0,0.3-0.1,0.3C9,8.7,8.8,8.8,8.7,8.9C8.6,9,8.6,9.2,8.6,9.3c0,0.1,0,0.2,0.1,0.3
	C8.8,9.7,9,9.8,9.2,9.9c0.1,0.1,0.2,0.2,0.1,0.3c-0.1,0.1-0.2,0.2-0.3,0.1c-0.3-0.1-0.5-0.3-0.6-0.5C8.2,9.7,8.1,9.5,8.1,9.3
	c0-0.3,0.1-0.5,0.3-0.7c0.2-0.2,0.4-0.4,0.8-0.5C9.2,8,9.4,8.1,9.4,8.2z M11.1,11c0-0.1,0.2-0.2,0.3-0.2c0.3,0.1,0.6,0.2,0.9,0.3
	c0.5,0.2,1,0.3,1.4,0.5c0.1,0,0.2,0.2,0.2,0.3c0,0.1-0.2,0.2-0.3,0.2c-0.5-0.2-0.9-0.3-1.4-0.5l0,0l0,0c-0.3-0.1-0.6-0.2-0.9-0.3
	C11.1,11.3,11.1,11.1,11.1,11z M15.7,12.7c0.1-0.1,0.2-0.1,0.3-0.1c0.2,0.2,0.4,0.3,0.6,0.5c0.1,0.2,0.2,0.4,0.2,0.6v0
	c0,0.2-0.1,0.4-0.2,0.5c-0.1,0.2-0.3,0.3-0.5,0.4c-0.1,0.1-0.3,0-0.3-0.1c-0.1-0.1,0-0.3,0.1-0.3c0.2-0.1,0.3-0.2,0.4-0.3
	c0.1-0.1,0.1-0.2,0.1-0.2c0-0.1,0-0.2-0.1-0.3c-0.1-0.1-0.3-0.3-0.5-0.4C15.6,13,15.6,12.8,15.7,12.7z M14.4,15.3
	c0,0.1,0,0.3-0.1,0.3c-0.6,0.2-1.2,0.4-1.9,0.6c-0.1,0-0.3,0-0.3-0.2c0-0.1,0-0.3,0.2-0.3c0.7-0.2,1.3-0.4,1.9-0.6
	C14.2,15.1,14.4,15.1,14.4,15.3z M10.7,16.4c0,0.1,0,0.3-0.2,0.3c-0.3,0.1-0.6,0.2-1,0.2c-0.1,0-0.3-0.1-0.3-0.2
	c0-0.1,0.1-0.3,0.2-0.3c0.3-0.1,0.6-0.1,1-0.2C10.5,16.2,10.6,16.3,10.7,16.4z M7.2,17.2c0,0.1-0.1,0.3-0.2,0.3
	c-0.4,0.1-0.7,0.1-1,0.2c-0.1,0-0.2,0-0.3,0l-0.1,0l0,0h0l0,0l0,0l0,0l0,0l0-0.2l0,0.2c-0.1,0-0.3-0.1-0.3-0.2
	c0-0.1,0.1-0.3,0.2-0.3l0,0l0,0l0,0h0h0l0,0l0,0l0.1,0c0.1,0,0.1,0,0.3,0c0.2,0,0.6-0.1,1-0.2C7,17,7.2,17,7.2,17.2z"/>
<path class="st1" d="M2.7,8c-1.4,0-2.6,1.2-2.6,2.6c-0.1,2.2,1.7,4.7,2.6,6.9c0.9-2.2,2.6-4.7,2.6-6.9C5.3,9.2,4.1,8,2.7,8z"/>
<path class="st1" d="M2.7,9.6c0.6,0,1,0.5,1,1s-0.5,1-1,1s-1-0.5-1-1S2.1,9.6,2.7,9.6z M2.7,9.3c-0.7,0-1.3,0.6-1.3,1.3
	s0.6,1.3,1.3,1.3S4,11.4,4,10.6S3.4,9.3,2.7,9.3z"/>
<path class="st2" d="M0.1,10.6l0.1,0v0H0.1z M2.7,17.5l-0.1,0l0.1,0.3l0.1-0.3L2.7,17.5z M5.3,10.6H5.2v0L5.3,10.6z M2.7,7.9
	C1.2,7.9,0,9.1,0,10.6h0.2c0-1.4,1.1-2.5,2.5-2.5V7.9z M0,10.6c0,1.1,0.4,2.3,1,3.5c0.6,1.2,1.2,2.3,1.6,3.4l0.2-0.1
	c-0.4-1.1-1.1-2.3-1.6-3.5c-0.5-1.2-1-2.3-0.9-3.4L0,10.6z M2.8,17.5c0.4-1.1,1.1-2.3,1.6-3.4c0.5-1.2,1-2.4,1-3.5l-0.2,0
	c0,1.1-0.4,2.2-0.9,3.4c-0.5,1.2-1.2,2.4-1.6,3.5L2.8,17.5z M5.4,10.6c0-1.5-1.2-2.7-2.7-2.7v0.2c1.4,0,2.5,1.1,2.5,2.5H5.4z
	 M2.7,9.7c0.5,0,0.9,0.4,0.9,0.9h0.2c0-0.6-0.5-1.2-1.2-1.2V9.7z M3.6,10.6c0,0.5-0.4,0.9-0.9,0.9v0.2c0.6,0,1.2-0.5,1.2-1.2H3.6z
	 M2.7,11.5c-0.5,0-0.9-0.4-0.9-0.9H1.6c0,0.6,0.5,1.2,1.2,1.2V11.5z M1.8,10.6c0-0.5,0.4-0.9,0.9-0.9V9.5c-0.6,0-1.2,0.5-1.2,1.2
	H1.8z M2.7,9.2c-0.8,0-1.4,0.6-1.4,1.4h0.2c0-0.7,0.5-1.2,1.2-1.2V9.2z M1.3,10.6c0,0.8,0.6,1.4,1.4,1.4v-0.2
	c-0.7,0-1.2-0.5-1.2-1.2H1.3z M2.7,12c0.8,0,1.4-0.6,1.4-1.4H3.9c0,0.7-0.5,1.2-1.2,1.2V12z M4.2,10.6c0-0.8-0.7-1.4-1.4-1.4v0.2
	c0.6,0,1.2,0.5,1.2,1.2H4.2z"/>
<ellipse class="st3" cx="2.7" cy="10.7" rx="1.3" ry="1.3"/>
<path class="st1" d="M18.8,0.1c-0.9,0-1.6,0.7-1.6,1.6c0,1.4,1.1,3,1.6,4.3c0.5-1.4,1.7-3,1.6-4.3C20.4,0.9,19.7,0.1,18.8,0.1z"/>
<path class="st1" d="M18.8,1.1c0.4,0,0.7,0.3,0.7,0.7s-0.3,0.7-0.7,0.7c-0.4,0-0.7-0.3-0.7-0.7S18.4,1.1,18.8,1.1z M18.8,0.9
	c-0.4,0-0.8,0.4-0.8,0.8s0.4,0.8,0.8,0.8c0.5,0,0.8-0.4,0.8-0.8S19.2,0.9,18.8,0.9z"/>
<path class="st2" d="M17.1,1.8l0.1,0v0H17.1z M18.8,6.1l-0.1,0l0.1,0.3l0.1-0.3L18.8,6.1z M20.4,1.8h-0.1v0L20.4,1.8z M18.8,0
	c-1,0-1.8,0.8-1.8,1.8h0.2c0-0.8,0.7-1.5,1.5-1.5V0z M17,1.8c0,0.7,0.3,1.5,0.6,2.2c0.4,0.8,0.8,1.5,1,2.2l0.2-0.1
	c-0.3-0.7-0.7-1.5-1-2.2c-0.3-0.7-0.6-1.5-0.6-2.1L17,1.8z M18.9,6.2c0.3-0.7,0.7-1.4,1-2.2c0.3-0.7,0.6-1.5,0.6-2.2l-0.2,0
	c0,0.7-0.2,1.4-0.6,2.1c-0.3,0.7-0.8,1.5-1,2.2L18.9,6.2z M20.5,1.8c0-1-0.8-1.8-1.8-1.8v0.2c0.8,0,1.5,0.7,1.5,1.5H20.5z M18.8,1.2
	c0.3,0,0.5,0.2,0.5,0.5h0.2c0-0.4-0.3-0.8-0.8-0.8V1.2z M19.3,1.8c0,0.3-0.2,0.5-0.5,0.5v0.2c0.4,0,0.8-0.3,0.8-0.8H19.3z M18.8,2.3
	c-0.3,0-0.5-0.2-0.5-0.5H18c0,0.4,0.3,0.8,0.8,0.8V2.3z M18.2,1.8c0-0.3,0.2-0.5,0.5-0.5V1C18.3,1,18,1.3,18,1.8H18.2z M18.8,0.8
	c-0.5,0-0.9,0.4-0.9,0.9h0.2c0-0.4,0.3-0.7,0.7-0.7V0.8z M17.8,1.8c0,0.5,0.4,0.9,0.9,0.9V2.5c-0.4,0-0.7-0.3-0.7-0.7H17.8z
	 M18.8,2.7c0.5,0,0.9-0.4,0.9-0.9h-0.2c0,0.4-0.3,0.7-0.7,0.7V2.7z M19.7,1.8c0-0.5-0.4-0.9-0.9-0.9v0.2c0.4,0,0.7,0.3,0.7,0.7H19.7
	z"/>
<ellipse class="st3" cx="18.8" cy="1.8" rx="0.8" ry="0.8"/>
</svg>
