<?xml version="1.0" encoding="utf-8"?>
<!-- Generator: Adobe Illustrator 21.0.0, SVG Export Plug-In . SVG Version: 6.00 Build 0)  -->
<svg version="1.1" id="图层_1" xmlns="http://www.w3.org/2000/svg" xmlns:xlink="http://www.w3.org/1999/xlink" x="0px" y="0px"
	 viewBox="0 0 20.7 23" style="enable-background:new 0 0 20.7 23;" xml:space="preserve">
<style type="text/css">
	.st0{fill:#D5E9FA;}
	.st1{fill:#2C3C59;}
</style>
<path class="st0" d="M12.3,12.2c2.8,0,5.1-2.3,5.1-5.1c0-2.8-2.3-5.1-5.1-5.1C9.5,2,7.2,4.2,7.2,7.1C7.2,9.9,9.5,12.2,12.3,12.2z"/>
<path class="st0" d="M3.3,23c0,0,2-8,8.7-8s8.1,8,8.1,8H3.3z"/>
<path class="st1" d="M0,21.1c-0.1,0.3,0.1,0.6,0.3,0.7C0.6,21.8,1,21.7,1,21.4L0,21.1z M19.6,21.4c0.1,0.3,0.4,0.5,0.6,0.4
	c0.3-0.1,0.5-0.4,0.4-0.6L19.6,21.4z M15.5,6c0,2.7-2.2,4.9-4.9,4.9V12c3.3,0,6-2.7,6-6H15.5z M10.5,10.9c-2.7,0-4.9-2.2-4.9-4.9
	H4.6c0,3.3,2.7,6,6,6V10.9z M5.6,6c0-2.7,2.2-4.9,4.9-4.9V0c-3.3,0-6,2.7-6,6H5.6z M10.5,1.1c2.7,0,4.9,2.2,4.9,4.9h1.1
	c0-3.3-2.7-6-6-6V1.1z M0.5,21.2C1,21.4,1,21.4,1,21.4l0,0l0,0c0,0,0,0,0,0c0,0,0,0,0,0c0,0,0,0,0-0.1c0,0,0-0.1,0.1-0.2
	c0.1-0.2,0.2-0.4,0.4-0.8c0.3-0.6,0.8-1.5,1.6-2.3c1.5-1.7,3.9-3.3,7.6-3.3v-1.1c-4.1,0-6.8,1.8-8.4,3.7c-0.8,0.9-1.4,1.8-1.7,2.5
	c-0.2,0.3-0.3,0.6-0.4,0.8c0,0.1-0.1,0.2-0.1,0.2c0,0,0,0.1,0,0.1c0,0,0,0,0,0c0,0,0,0,0,0c0,0,0,0,0,0l0,0C0,21.1,0,21.1,0.5,21.2z
	 M10.7,14.8c3.7,0,5.9,1.7,7.2,3.3c0.6,0.8,1.1,1.7,1.3,2.3c0.1,0.3,0.2,0.6,0.3,0.7c0,0.1,0,0.2,0.1,0.2c0,0,0,0,0,0c0,0,0,0,0,0
	c0,0,0,0,0,0c0,0,0,0,0,0l0,0c0,0,0,0,0.5-0.1c0.5-0.1,0.5-0.1,0.5-0.1l0,0c0,0,0,0,0,0c0,0,0,0,0,0c0,0,0,0,0,0c0,0,0,0,0-0.1
	c0-0.1,0-0.1-0.1-0.2c-0.1-0.2-0.2-0.5-0.3-0.8c-0.3-0.7-0.7-1.6-1.5-2.5c-1.5-1.9-4-3.7-8.1-3.7V14.8z"/>
</svg>
