<svg width="17" height="17" viewBox="0 0 17 17" fill="none" xmlns="http://www.w3.org/2000/svg">
<g clip-path="url(#clip0)">
<path fill-rule="evenodd" clip-rule="evenodd" d="M8.96572 1.76367C5.22437 1.76367 2.19141 4.79664 2.19141 8.53799C2.19141 12.2793 5.22437 15.3123 8.96572 15.3123C12.7071 15.3123 15.74 12.2793 15.74 8.53799C15.74 4.79664 12.7071 1.76367 8.96572 1.76367ZM8.96572 14.3885C5.73455 14.3885 3.11518 11.7692 3.11518 8.53799C3.11518 5.30682 5.73455 2.68744 8.96572 2.68744C12.1969 2.68744 14.8163 5.30682 14.8163 8.53799C14.8163 11.7692 12.1969 14.3885 8.96572 14.3885Z" fill="#8E97A7"/>
<path fill-rule="evenodd" clip-rule="evenodd" d="M12.045 8.23006H9.27365V4.84291C9.27365 4.58781 9.06685 4.38102 8.81176 4.38102C8.55667 4.38102 8.34987 4.58781 8.34987 4.84291V9.15383H12.045C12.3 9.15383 12.5068 8.94704 12.5068 8.69195C12.5068 8.43686 12.3 8.23006 12.045 8.23006Z" fill="#8E97A7"/>
<path d="M9.27365 8.23006H8.89865V8.60506H9.27365V8.23006ZM8.34987 9.15383H7.97487V9.52883H8.34987V9.15383ZM12.045 9.15383V9.52883V9.15383ZM8.96572 1.38867C5.01726 1.38867 1.81641 4.58953 1.81641 8.53799H2.56641C2.56641 5.00374 5.43148 2.13867 8.96572 2.13867V1.38867ZM1.81641 8.53799C1.81641 12.4864 5.01726 15.6873 8.96572 15.6873V14.9373C5.43148 14.9373 2.56641 12.0722 2.56641 8.53799H1.81641ZM8.96572 15.6873C12.9142 15.6873 16.115 12.4864 16.115 8.53799H15.365C15.365 12.0722 12.5 14.9373 8.96572 14.9373V15.6873ZM16.115 8.53799C16.115 4.58953 12.9142 1.38867 8.96572 1.38867V2.13867C12.5 2.13867 15.365 5.00374 15.365 8.53799H16.115ZM8.96572 14.0135C5.94166 14.0135 3.49018 11.562 3.49018 8.53799H2.74018C2.74018 11.9763 5.52745 14.7635 8.96572 14.7635V14.0135ZM3.49018 8.53799C3.49018 5.51393 5.94166 3.06244 8.96572 3.06244V2.31244C5.52745 2.31244 2.74018 5.09971 2.74018 8.53799H3.49018ZM8.96572 3.06244C11.9898 3.06244 14.4413 5.51393 14.4413 8.53799H15.1913C15.1913 5.09971 12.404 2.31244 8.96572 2.31244V3.06244ZM14.4413 8.53799C14.4413 11.562 11.9898 14.0135 8.96572 14.0135V14.7635C12.404 14.7635 15.1913 11.9763 15.1913 8.53799H14.4413ZM12.045 7.85506H9.27365V8.60506H12.045V7.85506ZM9.64865 8.23006V4.84291H8.89865V8.23006H9.64865ZM9.64865 4.84291C9.64865 4.38071 9.27396 4.00602 8.81176 4.00602V4.75602C8.85975 4.75602 8.89865 4.79492 8.89865 4.84291H9.64865ZM8.81176 4.00602C8.34956 4.00602 7.97487 4.38071 7.97487 4.84291H8.72487C8.72487 4.79492 8.76377 4.75602 8.81176 4.75602V4.00602ZM7.97487 4.84291V9.15383H8.72487V4.84291H7.97487ZM8.34987 9.52883H12.045V8.77883H8.34987V9.52883ZM12.045 9.52883C12.5072 9.52883 12.8818 9.15415 12.8818 8.69195H12.1318C12.1318 8.73993 12.0929 8.77883 12.045 8.77883V9.52883ZM12.8818 8.69195C12.8818 8.22975 12.5072 7.85506 12.045 7.85506V8.60506C12.0929 8.60506 12.1318 8.64396 12.1318 8.69195H12.8818Z" fill="#8E97A7"/>
</g>
<defs>
<clipPath id="clip0">
<rect width="16" height="16" fill="white" transform="translate(0.958984 0.537109)"/>
</clipPath>
</defs>
</svg>
