<svg width="17" height="17" viewBox="0 0 17 17" fill="none" xmlns="http://www.w3.org/2000/svg">
<g clip-path="url(#clip0)">
<path d="M11.7773 13.9917C11.2332 13.9917 10.7836 13.9857 10.3282 13.9977C10.1448 14.0037 10.0857 13.9377 10.0916 13.7517C10.0975 13.0736 10.1034 12.3894 10.0916 11.7113C10.0857 11.5073 10.1685 11.4593 10.3518 11.4593C10.7541 11.4713 11.1622 11.4653 11.5644 11.4593C11.8128 11.4593 12.0258 11.3813 12.15 11.1412C12.2801 10.8952 12.2328 10.6792 12.0672 10.4751C12.0021 10.3971 11.9489 10.3191 11.8779 10.2471C10.9611 9.31092 10.1145 8.38677 9.20355 7.44461C9.02019 7.25858 8.91372 7.25258 8.73036 7.43861C7.81945 8.38077 6.89672 9.31092 5.9799 10.2471C5.86752 10.3611 5.76697 10.4871 5.69599 10.6251C5.49488 10.9972 5.7788 11.4473 6.22833 11.4593C6.64238 11.4713 7.05643 11.4713 7.47047 11.4593C7.67749 11.4533 7.8373 11.4773 7.83138 11.7113C7.81364 12.3714 7.81955 13.0315 7.83138 13.6917C7.8373 13.8957 7.63097 13.9977 7.41803 13.9917C6.57811 13.9797 5.29696 13.9343 4.45704 13.9103C2.90732 13.8683 1.58238 12.6081 1.34578 11.0418C1.09735 9.36153 2.30991 7.56723 4.01933 7.29719C4.18495 7.27318 4.31508 7.21917 4.32691 6.97913C4.45112 5.26885 5.5155 4.16796 7.04748 3.46584C8.65043 2.73972 11.1857 3.04847 12.3805 4.22467C13.1495 4.9868 13.5458 5.94096 13.6167 7.02114C13.6286 7.21317 13.6995 7.28519 13.877 7.30919C15.3912 7.51923 16.5801 9.02548 16.6038 10.4957C16.6274 12.146 15.4681 13.5022 14.0781 13.8323C13.457 13.9823 12.3156 13.9677 11.7773 13.9917Z" fill="#8E97A7"/>
</g>
<defs>
<clipPath id="clip0">
<rect width="16" height="16" fill="white" transform="translate(0.958984 0.537109)"/>
</clipPath>
</defs>
</svg>
