<?xml version="1.0" encoding="utf-8"?>
<!-- Generator: Adobe Illustrator 21.0.0, SVG Export Plug-In . SVG Version: 6.00 Build 0)  -->
<svg version="1.1" id="图层_1" xmlns="http://www.w3.org/2000/svg" xmlns:xlink="http://www.w3.org/1999/xlink" x="0px" y="0px"
	 viewBox="0 0 159.7 125" style="enable-background:new 0 0 159.7 125;" xml:space="preserve">
<style type="text/css">
	.st0{clip-path:url(#SVGID_2_);}
	.st1{opacity:0.48;}
	.st2{opacity:0.48;fill:#BFCED1;enable-background:new    ;}
	.st3{fill:#DEF2FC;}
	.st4{fill:#FFFFFF;}
	.st5{fill:#7E9096;}
	.st6{fill:#ACB4D1;}
	.st7{fill:#BCCCF7;}
	.st8{fill:#E3EEFF;}
	.st9{fill:#47A1D9;}
	.st10{fill:#E1F7FF;}
	.st11{fill:#C7E9FA;}
	.st12{fill:#5FBAE9;}
	.st13{fill:#FFEED2;}
	.st14{fill:#ECAC72;}
	.st15{fill:#FFE1AA;}
</style>
<g>
	<defs>
		<rect id="SVGID_1_" width="159.7" height="125"/>
	</defs>
	<clipPath id="SVGID_2_">
		<use xlink:href="#SVGID_1_"  style="overflow:visible;"/>
	</clipPath>
	<g class="st0">
		<g class="st1">
			<path class="st2" d="M30,45c-2.6,1.6-7,4.5-9.6,6.1L1.9,62.6c-2.6,1.6-2.6,4.2,0,5.9l95.2,55.3c2.8,1.6,7,1.6,9.8,0l47.4-28.4
				c2.8-1.6,2.8-4.2,0-5.9l-17.8-11c-2.6-1.6-7-4.5-9.6-6.1L61,30.7c-2.6-1.6-7-1.6-9.6,0L30,45z"/>
		</g>
		<path class="st3" d="M33.3,37.3c-2.6,1.6-7,4.5-9.6,6.1L5.2,54.9c-2.6,1.6-2.6,4.2,0,5.9l95.2,55.3c2.8,1.6,7,1.6,9.9,0l47.4-28.4
			c2.8-1.6,2.8-4.2,0-5.9l-17.8-11c-2.6-1.6-7-4.5-9.6-6.1L64.3,23c-2.6-1.6-7-1.6-9.6,0L33.3,37.3z"/>
		<path class="st4" d="M33.3,33.8c-2.6,1.6-7,4.5-9.6,6.1L5.2,51.4c-2.6,1.6-2.6,4.2,0,5.9l95.2,55.3c2.8,1.6,7,1.6,9.8,0l47.4-28.4
			c2.8-1.6,2.8-4.2,0-5.9l-17.8-11c-2.6-1.6-7-4.5-9.6-6.1L64.3,19.5c-2.6-1.6-7-1.6-9.6,0L33.3,33.8z"/>
		<path class="st5" d="M127.8,81.7c3.8-2,4.9-7.5,2.4-12.3c-2.5-4.8-7.6-7.2-11.4-5.2s-4.9,7.5-2.4,12.3
			C118.9,81.4,124,83.7,127.8,81.7z"/>
		<path class="st6" d="M126.2,82.6c3.8-2,4.9-7.5,2.4-12.3c-2.5-4.8-7.6-7.2-11.4-5.2s-4.9,7.5-2.4,12.3
			C117.3,82.2,122.4,84.6,126.2,82.6z"/>
		<path class="st7" d="M124.6,80c2.6-1.4,3.4-5.2,1.7-8.5c-1.7-3.3-5.3-4.9-7.9-3.6c-2.6,1.4-3.4,5.2-1.7,8.5S121.9,81.3,124.6,80z"
			/>
		<path class="st8" d="M124,78.5c1.8-0.9,2.3-3.7,1.1-6.1c-1.2-2.4-3.7-3.6-5.6-2.7c-1.8,0.9-2.3,3.7-1.1,6.1
			C119.6,78.2,122.1,79.4,124,78.5z"/>
		<path class="st2" d="M95.9,103.2C69.7,87.5,43.6,72,17.6,56.3L49,40.3c26.3,13.8,52.5,27.7,79,41.5"/>
		<path class="st9" d="M134.8,58.9v14.3l-31,17.8V77.2L134.8,58.9z"/>
		<path class="st10" d="M134.8,40.6v18.3l-31,18.3V57.7L134.8,40.6z"/>
		<path class="st11" d="M134.8,37.1l-31,17.4L80.4,40.6l21.3-12.7l9.4-5.4L134.8,37.1z"/>
		<path class="st9" d="M134.8,37.1v3.5l-31,17.1v-3.3L134.8,37.1z"/>
		<path class="st10" d="M103.9,57.7v19.5L89.6,69V49.7L103.9,57.7z"/>
		<path class="st12" d="M103.9,54.4v3.3l-14.3-8v19.2l14.3,8.2V91L80.4,77.9v-2.3V62.9V40.6L103.9,54.4z"/>
		<path class="st13" d="M84.7,8.9l-14.1,8.9L56.8,8.9l13.6-8.7L84.7,8.9z"/>
		<path class="st11" d="M80.4,62.9v12.7L25.8,43.6l2.8-2.1l17.6,10.6l6.8-4.2V50l25.1,14.3L80.4,62.9z"/>
		<path class="st12" d="M80.4,75.5v2.3L25.8,46v-2.3L80.4,75.5z"/>
		<path class="st14" d="M80.4,40.6v22.3l-2.3,1.4V38.5l23.7-14.1v3.5L80.4,40.6z"/>
		<path class="st15" d="M78.1,38.5v25.8L53,50v-2.1V29.1v-4.7L78.1,38.5z"/>
		<path class="st14" d="M84.7,23.2l-14.1,8.7V17.8l14.1-8.9v4.7V23.2z"/>
		<path class="st15" d="M70.6,17.8v14.1l-13.8-8v-2.1v-1.4V8.9L70.6,17.8z"/>
		<path class="st13" d="M84.7,13.6c5.6,3.5,11.5,7,17.1,10.8L77.9,38.5L53,24.4l3.8-2.6v2.1l13.8,8l14.1-8.4V13.6z"/>
		<path class="st13" d="M56.8,20.4v1.4L53,24.4v4.7l-6.8,4L28.6,23l15.9-10.1L56.8,20.4z"/>
		<path class="st14" d="M53,29.1v18.8l-6.8,4.2v-19L53,29.1z"/>
		<path class="st15" d="M46.2,33.1v19L28.6,41.5V23L46.2,33.1z"/>
		<path class="st5" d="M97.5,93.4c3.7-1.9,4.7-7.3,2.3-12c-2.4-4.7-7.4-7-11.1-5.1c-3.7,1.9-4.7,7.3-2.3,12
			C88.9,93,93.8,95.3,97.5,93.4z"/>
		<path class="st6" d="M95.6,94.2c3.7-1.9,4.7-7.3,2.3-12c-2.4-4.7-7.4-7-11.1-5.1c-3.7,1.9-4.7,7.3-2.3,12
			C87,93.8,91.9,96.1,95.6,94.2z"/>
		<path class="st7" d="M94.2,91.5c2.5-1.3,3.2-5,1.6-8.2c-1.7-3.2-5.1-4.8-7.6-3.5c-2.5,1.3-3.2,5-1.6,8.2
			C88.2,91.2,91.6,92.8,94.2,91.5z"/>
		<path class="st8" d="M93.4,90c1.8-0.9,2.4-3.6,1.2-5.9c-1.2-2.3-3.6-3.4-5.5-2.5c-1.8,0.9-2.4,3.6-1.2,5.9
			C89.1,89.9,91.5,91,93.4,90z"/>
		<path class="st5" d="M35.8,59.5c3.7-1.9,4.7-7.3,2.3-12c-2.4-4.7-7.4-7-11.1-5.1c-3.7,1.9-4.7,7.3-2.3,12
			C27.1,59.1,32.1,61.4,35.8,59.5z"/>
		<path class="st6" d="M34.2,60.4c3.7-1.9,4.7-7.3,2.3-12c-2.4-4.7-7.4-7-11.1-5.1c-3.7,1.9-4.7,7.3-2.3,12
			C25.5,60,30.5,62.3,34.2,60.4z"/>
		<path class="st7" d="M32.5,57.7c2.5-1.3,3.2-5,1.6-8.2c-1.7-3.2-5.1-4.8-7.6-3.5c-2.5,1.3-3.2,5-1.6,8.2
			C26.6,57.5,30,59,32.5,57.7z"/>
		<path class="st8" d="M31.9,56.2c1.8-0.9,2.4-3.6,1.2-5.9c-1.2-2.3-3.6-3.4-5.5-2.5c-1.8,0.9-2.4,3.6-1.2,5.9
			C27.6,56.1,30.1,57.2,31.9,56.2z"/>
	</g>
</g>
</svg>
