<?xml version="1.0" encoding="utf-8"?>
<!-- Generator: Adobe Illustrator 21.0.0, SVG Export Plug-In . SVG Version: 6.00 Build 0)  -->
<svg version="1.1" id="图层_1" xmlns="http://www.w3.org/2000/svg" xmlns:xlink="http://www.w3.org/1999/xlink" x="0px" y="0px"
	 viewBox="0 0 25.8 25.8" style="enable-background:new 0 0 25.8 25.8;" xml:space="preserve">
<style type="text/css">
	.st0{clip-path:url(#SVGID_2_);}
	.st1{fill:#D5E9FA;}
	.st2{fill:none;stroke:#2C3C59;stroke-width:1.0742;stroke-linecap:round;stroke-linejoin:round;stroke-miterlimit:10;}
	.st3{fill:#2C3C59;}
</style>
<g>
	<defs>
		<rect id="SVGID_1_" x="-0.3" y="0" width="25.8" height="25.8"/>
	</defs>
	<clipPath id="SVGID_2_">
		<use xlink:href="#SVGID_1_"  style="overflow:visible;"/>
	</clipPath>
	<g class="st0">
		<path class="st1" d="M19.8,10.1v11.5l-7.7,3.1l-7.4-3.1V10.1l7.4-3L19.8,10.1z"/>
		<path class="st2" d="M21.3,9L12,5.2L3.3,9 M21.3,13v5.9L12,22.7l-8.7-3.7v-6.2"/>
		<path class="st2" d="M3.2,9l-2.3,2.6l9.1,4.1l2-3l2,3l10.3-3.8L21.3,9L12,12.7L3.2,9l8.8,3.7v10"/>
		<path class="st3" d="M10.9,7.4c0,0.2,0,2.7,0,2.9c0.4-2.5,3.1-6.2,6.4-6.2v1.4l2.6-2.7l-2.6-2.7v1.4C13.7,1.5,10.9,3.9,10.9,7.4z"
			/>
	</g>
</g>
</svg>
