<?xml version="1.0" encoding="utf-8"?>
<!-- Generator: Adobe Illustrator 21.0.0, SVG Export Plug-In . SVG Version: 6.00 Build 0)  -->
<svg version="1.1" id="图层_1" xmlns="http://www.w3.org/2000/svg" xmlns:xlink="http://www.w3.org/1999/xlink" x="0px" y="0px"
	 viewBox="0 0 18.8 24.3" style="enable-background:new 0 0 18.8 24.3;" xml:space="preserve">
<style type="text/css">
	.st0{fill:#DFE8F2;}
	.st1{fill:none;stroke:#2C3C59;stroke-width:1.0742;}
	.st2{fill:#D5E9FA;stroke:#2C3C59;stroke-width:0.8056;}
</style>
<path class="st0" d="M7,0.1l3.5,8.2c3-0.3,6,1.4,7.2,4.3c1,2.4,0.1,5.2-1.4,7.2l-2.2-6.2l-4-0.1l-3.6,3.7l2.6,6
	c-2.5-0.2-3.8-2.4-4.9-4.8c-1.2-2.8-0.3-6,2-8L1.6,2.2"/>
<path class="st1" d="M6.8,0.2l3.5,8.1c3.4-0.3,6.2,1.3,7.5,4.5c1.1,2.7,0.2,5.8-1.6,8l-2.5-6.9l-4.5-0.2L6.3,17l2.9,6.7
	c-2.8-0.3-5.3-1.9-6.5-4.6C1.4,16,2.4,12.5,5,10.2L0.5,2.6"/>
<path class="st2" d="M12.1,20.5l-2.7-0.4l-1.1-2.6l1.7-2.2l2.8,0.4l1.1,2.6L12.1,20.5z"/>
</svg>
