<?xml version="1.0" encoding="utf-8"?>
<!-- Generator: Adobe Illustrator 21.0.0, SVG Export Plug-In . SVG Version: 6.00 Build 0)  -->
<svg version="1.1" id="图层_1" xmlns="http://www.w3.org/2000/svg" xmlns:xlink="http://www.w3.org/1999/xlink" x="0px" y="0px"
	 viewBox="0 0 25.8 25.8" style="enable-background:new 0 0 25.8 25.8;" xml:space="preserve">
<style type="text/css">
	.st0{clip-path:url(#SVGID_2_);}
	.st1{fill:none;stroke:#2C3C59;stroke-width:1.0742;}
	.st2{fill:#D5E9FA;stroke:#2C3C59;stroke-width:0.8056;stroke-miterlimit:10;}
	.st3{fill:none;stroke:#2C3C59;stroke-width:0.6866;stroke-linecap:round;stroke-linejoin:round;stroke-miterlimit:10;}
	.st4{fill:#D5E9FA;}
	.st5{fill:#2C3C59;}
	.st6{fill:none;stroke:#2C3C59;stroke-width:0.5721;}
</style>
<g>
	<defs>
		<rect id="SVGID_1_" width="25.8" height="25.8"/>
	</defs>
	<clipPath id="SVGID_2_">
		<use xlink:href="#SVGID_1_"  style="overflow:visible;"/>
	</clipPath>
	<g class="st0">
		<ellipse class="st1" cx="12.5" cy="13.7" rx="10.9" ry="10.9"/>
		<path class="st2" d="M19.6,9.5c2.3,0,4.1-1.9,4.1-4.1c0-2.3-1.9-4.1-4.1-4.1c-2.3,0-4.1,1.9-4.1,4.1C15.5,7.7,17.4,9.5,19.6,9.5z"
			/>
		<path class="st3" d="M21,5.4l-2.7-0.1"/>
		<path class="st3" d="M19.6,6.7L19.7,4"/>
		<path class="st4" d="M13.5,15.6c1.4,0,2.5-1.1,2.5-2.4c0,0-1.1,0-2.5,0s-2.5,0-2.5,0C11,14.5,12.1,15.6,13.5,15.6z"/>
		<path class="st4" d="M9.1,20.7c0,0,1-3.7,4.2-3.7c3.2,0,3.9,3.7,3.9,3.7H9.1z"/>
		<path class="st5" d="M15.4,12.7c0-0.2-0.2-0.3-0.3-0.3c-0.2,0-0.3,0.2-0.3,0.3H15.4z M10.3,12.7c0-0.2-0.2-0.3-0.3-0.3
			c-0.2,0-0.3,0.2-0.3,0.3H10.3z M7.5,19.7c-0.1,0.2,0,0.4,0.2,0.4c0.2,0.1,0.4,0,0.4-0.2L7.5,19.7z M16.6,19.9
			c0,0.2,0.2,0.3,0.4,0.3c0.2,0,0.3-0.2,0.3-0.4L16.6,19.9z M14.7,12.7c0,1.2-1,2.2-2.2,2.2v0.7c1.6,0,2.9-1.3,2.9-2.9H14.7z
			 M12.5,14.9c-1.2,0-2.2-1-2.2-2.2H9.6c0,1.6,1.3,2.9,2.9,2.9V14.9z M7.8,19.9C8.1,20,8.1,20,8.1,20v0l0,0c0,0,0,0,0,0c0,0,0,0,0,0
			c0,0,0,0,0,0c0,0,0-0.1,0-0.1c0-0.1,0.1-0.2,0.2-0.3c0.2-0.3,0.4-0.7,0.7-1.1c0.7-0.8,1.8-1.5,3.5-1.5v-0.7c-1.9,0-3.2,0.9-4,1.8
			c-0.4,0.4-0.7,0.9-0.8,1.2c-0.1,0.2-0.1,0.3-0.2,0.4c0,0,0,0.1,0,0.1c0,0,0,0,0,0c0,0,0,0,0,0c0,0,0,0,0,0v0l0,0
			C7.5,19.7,7.5,19.7,7.8,19.9z M12.6,16.9c1.7,0,2.7,0.8,3.3,1.5c0.3,0.4,0.5,0.8,0.6,1c0.1,0.1,0.1,0.3,0.1,0.3c0,0,0,0.1,0,0.1
			c0,0,0,0,0,0c0,0,0,0,0,0c0,0,0,0,0,0s0,0,0,0l0,0c0,0,0,0,0.3-0.1c0.3-0.1,0.3-0.1,0.3-0.1c0,0,0,0,0,0v0c0,0,0,0,0,0
			c0,0,0,0,0,0c0,0,0,0,0,0c0,0,0-0.1,0-0.1c0-0.1-0.1-0.2-0.1-0.4c-0.1-0.3-0.4-0.8-0.7-1.2c-0.7-0.9-1.9-1.8-3.8-1.8V16.9z"/>
		<path class="st4" d="M13.6,8.8c0.3,0.2,0.3,0.4,0.3,0.7c-0.1,0.4-0.1,0.8-0.2,1.1c0,0.1,0.1,0.2,0.2,0.3c0.1-0.1,0.2-0.2,0.2-0.3
			c0.1-0.4,0.2-0.8,0.2-1.2c0.8,0.2,1.4,1.1,1.7,2.5c0.1,0,0.2,0,0.3,0.1c0.1,0.1-0.1,0-0.1,0.1c0,0.1-0.2,0.3-0.3,0.4
			c-0.1,0-0.2,0-0.3,0c-1.9,0-3.9,0-5.8,0c-0.2,0-0.4,0-0.5-0.1c-0.3-0.3,0.2-0.2,0.7-0.4c0.1-1.1,0.6-2,1.6-2.6
			c0.1,0.5,0.1,0.9,0.2,1.3c0,0.1,0.2,0.2,0.3,0.3c0.1-0.1,0.2-0.3,0.1-0.4c0-0.4-0.1-0.7-0.2-1.1c-0.1-0.3,0-0.5,0.3-0.7
			C12.8,8.8,13.2,8.8,13.6,8.8z"/>
		<path class="st6" d="M13.2,8.4c0.3,0.2,0.3,0.4,0.3,0.7c-0.1,0.4-0.1,0.8-0.2,1.1c0,0.1,0.1,0.2,0.2,0.3c0.1-0.1,0.2-0.2,0.2-0.3
			c0.1-0.4,0.2-0.8,0.2-1.2c0.8,0.2,1.4,1.1,1.7,2.5c0.1,0,0.2,0,0.3,0.1c0.1,0.1,0.2,0.3,0.2,0.4c0,0.1-0.2,0.3-0.3,0.4
			c-0.1,0-0.2,0-0.3,0c-1.9,0-3.9,0-5.8,0c-0.2,0-0.4,0-0.5-0.1c-0.3-0.3-0.1-0.6,0.4-0.8c0.1-1.1,0.6-2,1.6-2.6
			c0.1,0.5,0.1,0.9,0.2,1.3c0,0.1,0.2,0.2,0.3,0.3c0.1-0.1,0.2-0.3,0.1-0.4c0-0.4-0.1-0.7-0.2-1.1c-0.1-0.3,0-0.5,0.3-0.7
			C12.3,8.4,12.8,8.4,13.2,8.4z"/>
	</g>
</g>
</svg>
