<?xml version="1.0" encoding="utf-8"?>
<!-- Generator: Adobe Illustrator 21.0.0, SVG Export Plug-In . SVG Version: 6.00 Build 0)  -->
<svg version="1.1" id="图层_1" xmlns="http://www.w3.org/2000/svg" xmlns:xlink="http://www.w3.org/1999/xlink" x="0px" y="0px"
	 viewBox="0 0 22.8 15.3" style="enable-background:new 0 0 22.8 15.3;" xml:space="preserve">
<style type="text/css">
	.st0{fill:#D5E9FA;}
	.st1{fill:none;stroke:#2C3C59;stroke-width:0.5371;stroke-linecap:round;stroke-linejoin:round;stroke-miterlimit:10;}
	.st2{fill:none;stroke:#2C3C59;stroke-width:0.8056;stroke-linecap:round;stroke-linejoin:round;stroke-miterlimit:10;}
	.st3{fill:#2C3C59;}
	.st4{fill:none;stroke:#2C3C59;stroke-width:0.8056;}
	.st5{fill:none;stroke:#2C3C59;stroke-width:0.5371;stroke-linecap:round;stroke-linejoin:round;}
</style>
<path class="st0" d="M2.2,7.3h9.9c0.3,0,0.5,0.2,0.5,0.5v4.7c0,0.3-0.2,0.5-0.5,0.5H2.2c-0.3,0-0.5-0.2-0.5-0.5V7.9
	C1.7,7.6,1.9,7.3,2.2,7.3z"/>
<path class="st0" d="M19.8,7.9v5.2h-5v-1.5l1.4-3.7L19.8,7.9z"/>
<path class="st1" d="M21.7,15c-0.3,0-0.6-0.3-0.6-0.6c0-0.3,0.3-0.6,0.6-0.6c0.3,0,0.6,0.3,0.6,0.6C22.4,14.7,22.1,15,21.7,15z"/>
<path class="st1" d="M18.2,15c-0.3,0-0.6-0.3-0.6-0.6c0-0.3,0.3-0.6,0.6-0.6c0.3,0,0.6,0.3,0.6,0.6C18.8,14.7,18.5,15,18.2,15z"/>
<path class="st2" d="M22.4,12.2h-6.2v-1l1.7-4.7h3.1v5.7"/>
<path class="st3" d="M14.9,8.6c-0.1,0.2,0,0.4,0.2,0.5c0.2,0.1,0.4,0,0.5-0.2L14.9,8.6z M16.1,6.7l0.4,0.2c0.1-0.2,0-0.4-0.2-0.5
	L16.1,6.7z M5.5,3.9c0,0.2,0.2,0.4,0.4,0.4c0.2,0,0.4-0.2,0.4-0.4H5.5z M5.9,0.4l0.2-0.3C6,0,5.9,0,5.7,0.1C5.6,0.1,5.5,0.3,5.5,0.4
	H5.9z M15.7,8.9l0.8-2l-0.7-0.3l-0.8,2L15.7,8.9z M6.3,3.9V0.4H5.5v3.5H6.3z M5.7,0.7L15.9,7l0.4-0.7L6.2,0.1L5.7,0.7z"/>
<path class="st4" d="M0.9,5.8h9.9c0.3,0,0.5,0.2,0.5,0.5v4.7c0,0.3-0.2,0.5-0.5,0.5H0.9c-0.3,0-0.5-0.2-0.5-0.5V6.4
	C0.4,6.1,0.6,5.8,0.9,5.8z"/>
<path class="st5" d="M3.9,7.7v2.2"/>
<path class="st5" d="M5.9,7.7v2.2"/>
<path class="st5" d="M7.9,7.7v2.2"/>
</svg>
