<?xml version="1.0" encoding="utf-8"?>
<!-- Generator: Adobe Illustrator 21.0.0, SVG Export Plug-In . SVG Version: 6.00 Build 0)  -->
<svg version="1.1" id="图层_1" xmlns="http://www.w3.org/2000/svg" xmlns:xlink="http://www.w3.org/1999/xlink" x="0px" y="0px"
	 viewBox="0 0 22.4 19.9" style="enable-background:new 0 0 22.4 19.9;" xml:space="preserve">
<style type="text/css">
	.st0{fill:#D5E9FA;}
	.st1{fill:#2C3C59;}
	.st2{fill:none;stroke:#2C3C59;stroke-width:0.8056;stroke-miterlimit:10;}
	.st3{fill:none;stroke:#2C3C59;stroke-width:0.5371;stroke-linecap:round;stroke-linejoin:round;stroke-miterlimit:10;}
</style>
<path class="st0" d="M2.1,14h7.1c0.4,0,0.7,0.2,0.7,0.5v4.9c0,0.3-0.3,0.5-0.7,0.5H2.1c-0.4,0-0.7-0.2-0.7-0.5v-4.9
	C1.4,14.2,1.7,14,2.1,14z"/>
<path class="st0" d="M2.1,7.5h7.1c0.4,0,0.7,0.2,0.7,0.5v4.9c0,0.3-0.3,0.5-0.7,0.5H2.1c-0.4,0-0.7-0.2-0.7-0.5V8
	C1.4,7.8,1.7,7.5,2.1,7.5z"/>
<path class="st0" d="M2.1,1.1h7.1c0.4,0,0.7,0.2,0.7,0.5v4.9C9.9,6.7,9.6,7,9.2,7H2.1C1.7,7,1.4,6.7,1.4,6.5V1.6
	C1.4,1.3,1.7,1.1,2.1,1.1z"/>
<path class="st1" d="M0.6,18.4v-5c0,0,0,0,0.1-0.1c0.1,0,0.2-0.1,0.3-0.1h2.9c0,0,0,0.1,0,0.1v1.8c0,0.2,0.2,0.4,0.5,0.4h0.5
	c0.3,0,0.5-0.2,0.5-0.4v-1.8c0,0,0-0.1,0-0.1h2.9c0.1,0,0.2,0,0.3,0.1c0,0,0.1,0.1,0.1,0.1v5c0,0,0,0,0,0c0,0,0,0,0,0
	c-0.1,0-0.1,0.1-0.3,0.1H0.9C0.8,18.5,0.7,18.5,0.6,18.4C0.6,18.4,0.6,18.4,0.6,18.4z M0.9,12.7c-0.2,0-0.5,0.1-0.6,0.2
	C0.2,13,0,13.1,0,13.4v5c0,0.3,0.2,0.4,0.3,0.6c0.2,0.1,0.4,0.2,0.6,0.2h7.3c0.2,0,0.5-0.1,0.6-0.2c0.2-0.1,0.3-0.3,0.3-0.6v-5
	c0-0.3-0.2-0.4-0.3-0.6c-0.2-0.1-0.4-0.2-0.6-0.2H0.9z"/>
<path class="st1" d="M0.6,12.2v-5c0,0,0,0,0.1-0.1c0.1,0,0.2-0.1,0.3-0.1h2.9c0,0,0,0.1,0,0.1v1.8c0,0.2,0.2,0.4,0.5,0.4h0.5
	c0.3,0,0.5-0.2,0.5-0.4V7.2c0,0,0-0.1,0-0.1h2.9c0.1,0,0.2,0,0.3,0.1c0,0,0.1,0.1,0.1,0.1v5c0,0,0,0,0,0c0,0,0,0,0,0
	c-0.1,0-0.1,0.1-0.3,0.1H0.9C0.8,12.3,0.7,12.3,0.6,12.2C0.6,12.2,0.6,12.2,0.6,12.2z M0.9,6.4c-0.2,0-0.5,0.1-0.6,0.2
	C0.2,6.7,0,6.9,0,7.2v5c0,0.3,0.2,0.4,0.3,0.6c0.2,0.1,0.4,0.2,0.6,0.2h7.3c0.2,0,0.5-0.1,0.6-0.2c0.2-0.1,0.3-0.3,0.3-0.6v-5
	c0-0.3-0.2-0.4-0.3-0.6C8.7,6.5,8.5,6.4,8.2,6.4H0.9z"/>
<path class="st1" d="M0.6,5.7v-5c0,0,0,0,0.1-0.1c0.1,0,0.2-0.1,0.3-0.1h2.9c0,0,0,0.1,0,0.1v1.8c0,0.2,0.2,0.4,0.5,0.4h0.5
	c0.3,0,0.5-0.2,0.5-0.4V0.7c0,0,0-0.1,0-0.1h2.9c0.1,0,0.2,0,0.3,0.1c0,0,0.1,0.1,0.1,0.1v5c0,0,0,0,0,0c0,0,0,0,0,0
	c-0.1,0-0.1,0.1-0.3,0.1H0.9C0.8,5.9,0.7,5.8,0.6,5.7C0.6,5.8,0.6,5.7,0.6,5.7z M0.9,0C0.7,0,0.5,0.1,0.3,0.2C0.2,0.3,0,0.5,0,0.7v5
	C0,6,0.2,6.2,0.3,6.3c0.2,0.1,0.4,0.2,0.6,0.2h7.3c0.2,0,0.5-0.1,0.6-0.2C9,6.2,9.2,6,9.2,5.7v-5c0-0.3-0.2-0.4-0.3-0.6
	C8.7,0.1,8.5,0,8.2,0H0.9z"/>
<path class="st0" d="M22.4,9.3h-9.2v10.6h9.2V9.3z"/>
<path class="st2" d="M18.9,8.1V7.3h-1.5c0,0,0-0.7-0.7-0.7s-0.7,0.7-0.7,0.7h-1.5v0.9h-2.4v10.7h9V8.1H18.9z"/>
<path class="st2" d="M14.4,7.9V9h4.4V7.9"/>
<path class="st3" d="M14,11.9h3.2"/>
<path class="st1" d="M18.9,11.9c0.1-0.1,0.2-0.2,0.2-0.3c0.2-0.2,0.3-0.4,0.5-0.6c0,0,0.1,0,0.1,0c0,0,0.1,0,0.1,0.1
	c0,0,0,0.1,0,0.2c-0.2,0.2-0.3,0.4-0.5,0.6c-0.1,0.2-0.3,0.4-0.4,0.5c0,0,0,0,0,0c0,0,0,0-0.1,0c-0.1-0.1-0.3-0.3-0.4-0.4
	c0,0-0.1-0.1-0.1-0.1c0,0,0,0,0-0.1c0,0,0.1-0.1,0.1-0.1c0,0,0.1,0,0.1,0C18.7,11.7,18.7,11.8,18.9,11.9
	C18.9,11.9,18.9,11.9,18.9,11.9z"/>
<path class="st3" d="M14,14.1h3.2"/>
<path class="st1" d="M18.9,14.1c0.1-0.1,0.2-0.2,0.2-0.3c0.2-0.2,0.3-0.4,0.5-0.6c0,0,0.1,0,0.1,0c0,0,0.1,0,0.1,0.1
	c0,0,0,0.1,0,0.2c-0.2,0.2-0.3,0.4-0.5,0.6c-0.1,0.2-0.3,0.4-0.4,0.5c0,0,0,0,0,0c0,0,0,0-0.1,0c-0.1-0.1-0.3-0.3-0.4-0.4
	c0,0-0.1-0.1-0.1-0.1c0,0,0,0,0-0.1c0,0,0.1-0.1,0.1-0.1c0,0,0.1,0,0.1,0C18.7,13.9,18.7,14,18.9,14.1
	C18.9,14.1,18.9,14.1,18.9,14.1z"/>
<path class="st3" d="M14,16.3h3.2"/>
<path class="st1" d="M18.9,16.3c0.1-0.1,0.2-0.2,0.2-0.3c0.2-0.2,0.3-0.4,0.5-0.6c0,0,0.1,0,0.1,0c0,0,0.1,0,0.1,0.1
	c0,0,0,0.1,0,0.2c-0.2,0.2-0.3,0.4-0.5,0.6c-0.1,0.2-0.3,0.4-0.4,0.5c0,0,0,0,0,0c0,0,0,0-0.1,0c-0.1-0.1-0.3-0.3-0.4-0.4
	c0,0-0.1-0.1-0.1-0.1c0,0,0,0,0-0.1c0,0,0.1-0.1,0.1-0.1c0,0,0.1,0,0.1,0C18.7,16.2,18.7,16.2,18.9,16.3
	C18.9,16.3,18.9,16.3,18.9,16.3z"/>
</svg>
