<?xml version="1.0" encoding="utf-8"?>
<!-- Generator: Adobe Illustrator 21.0.0, SVG Export Plug-In . SVG Version: 6.00 Build 0)  -->
<svg version="1.1" id="图层_1" xmlns="http://www.w3.org/2000/svg" xmlns:xlink="http://www.w3.org/1999/xlink" x="0px" y="0px"
	 viewBox="0 0 22.4 22.9" style="enable-background:new 0 0 22.4 22.9;" xml:space="preserve">
<style type="text/css">
	.st0{fill:#D5E9FA;}
	.st1{fill:#2C3C59;stroke:#2C3C59;stroke-width:0.5371;}
	.st2{fill:#2C3C59;}
	.st3{fill:none;stroke:#2C3C59;stroke-width:0.8056;stroke-linecap:round;stroke-linejoin:round;}
</style>
<path class="st0" d="M21.8,22.9H2.6c-0.3,0-0.7-0.3-0.7-0.7V13c0-0.4,0.3-0.7,0.7-0.7h19.2c0.3,0,0.7,0.3,0.7,0.7v9.2
	C22.4,22.6,22.1,22.9,21.8,22.9z"/>
<path class="st1" d="M20.5,11.4c0.2,0,0.3,0.2,0.3,0.3v9c0,0.2-0.2,0.3-0.3,0.3H0.9c-0.2,0-0.3-0.2-0.3-0.3v-9
	c0-0.2,0.2-0.3,0.3-0.3H20.5z M20.5,11H0.9c-0.4,0-0.7,0.3-0.7,0.7v9c0,0.4,0.3,0.7,0.7,0.7h19.6c0.4,0,0.7-0.3,0.7-0.7v-9
	C21.1,11.4,20.8,11,20.5,11z"/>
<path class="st2" d="M19.8,9.3c0.1,0.1,0.3,0,0.4-0.1c0.1-0.1,0-0.3-0.1-0.4L19.8,9.3z M10.7,3.5l0.2-0.3c-0.1-0.1-0.2-0.1-0.3,0
	L10.7,3.5z M1.3,8.8C1.2,8.9,1.1,9.1,1.2,9.2c0.1,0.1,0.3,0.2,0.4,0.1L1.3,8.8z M11,0.8c0-0.2-0.1-0.3-0.3-0.3
	c-0.2,0-0.3,0.1-0.3,0.3H11z M10.7,1.9h-0.3c0,0.2,0.1,0.3,0.3,0.3V1.9z M9.3,3.5c0-0.2-0.1-0.3-0.3-0.3S8.7,3.3,8.7,3.5H9.3z
	 M20.1,8.8l-9.3-5.6l-0.3,0.5l9.3,5.6L20.1,8.8z M10.5,3.3L1.3,8.8l0.3,0.5l9.3-5.6L10.5,3.3z M10.4,0.8v1.1H11V0.8H10.4z M10.7,2.2
	c0.8,0,1.4,0.6,1.4,1.3h0.6c0-1.1-0.9-1.9-2-1.9V2.2z M12.1,3.5c0,0.7-0.6,1.3-1.4,1.3v0.6c1.1,0,2-0.8,2-1.9H12.1z M10.7,4.8
	c-0.8,0-1.4-0.6-1.4-1.3H8.7c0,1.1,0.9,1.9,2,1.9V4.8z"/>
<path class="st2" d="M12.1,0.9H9.3C9.1,0.9,9,0.8,9,0.6V0.3C9,0.1,9.1,0,9.3,0h2.8c0.2,0,0.3,0.1,0.3,0.3v0.3
	C12.4,0.7,12.3,0.9,12.1,0.9z"/>
<path class="st3" d="M8.6,13.5v5.4"/>
<path class="st3" d="M17.1,13.5v5.4"/>
<path class="st3" d="M12.8,13.5v5.4"/>
<path class="st3" d="M4.3,13.5v5.4"/>
</svg>
