<?xml version="1.0" encoding="utf-8"?>
<!-- Generator: Adobe Illustrator 21.0.0, SVG Export Plug-In . SVG Version: 6.00 Build 0)  -->
<svg version="1.1" id="图层_1" xmlns="http://www.w3.org/2000/svg" xmlns:xlink="http://www.w3.org/1999/xlink" x="0px" y="0px"
	 viewBox="0 0 24.2 23" style="enable-background:new 0 0 24.2 23;" xml:space="preserve">
<style type="text/css">
	.st0{fill:#2C3C59;}
	.st1{fill:#D5E9FA;}
	.st2{fill:none;stroke:#2C3C59;stroke-width:0.8056;stroke-miterlimit:10;}
</style>
<path class="st0" d="M14.7,23h-1.6c-0.4,0-0.8-0.3-0.8-0.7v-0.4c0-0.4,0.3-0.7,0.8-0.7h1.6c0.4,0,0.8,0.3,0.8,0.7v0.4
	C15.5,22.6,15.1,23,14.7,23z"/>
<path class="st0" d="M24.2,15.3c0-1.7-1.3-3.1-3-3.4c-0.2-3.2-1.5-7.2-2.4-7.2c-1,0-1.3,0-0.8,1.3c0.3,1.1,1.4,3.9,1.7,6
	c-1.5,0.4-2.6,1.7-2.6,3.3c0,1.7,1.3,3.1,3,3.4v2.4c0,0.2-0.2,0.4-0.5,0.4h-4.2c-0.3,0-0.5,0.2-0.5,0.4c0,0.2,0.2,0.4,0.5,0.4h5.4
	c0.3,0,0.5-0.2,0.5-0.4v-3.3c0,0,0,0,0,0C22.9,18.4,24.2,17,24.2,15.3z"/>
<path class="st1" d="M14.6,1.2H3.1c-0.8,0-1.5,0.6-1.5,1.3v4.1C1.7,7.3,2.3,8,3.1,8h8.5l2.7,1.5V8h0.2C15.4,8,16,7.4,16,6.6V2.5
	C16,1.8,15.4,1.2,14.6,1.2z"/>
<path class="st2" d="M13.3,0.4H1.9C1,0.4,0.4,1,0.4,1.7v4.1c0,0.7,0.6,1.3,1.5,1.3h8.5l2.7,1.5V7.2h0.2c0.8,0,1.5-0.6,1.5-1.3V1.7
	C14.8,1,14.1,0.4,13.3,0.4z"/>
<path class="st0" d="M5.3,5.3c0.3,0,0.6-0.3,0.6-0.6S5.6,4.1,5.3,4.1S4.7,4.4,4.7,4.7S5,5.3,5.3,5.3z"/>
<path class="st0" d="M7.6,5.3c0.3,0,0.6-0.3,0.6-0.6S7.9,4.1,7.6,4.1S7,4.4,7,4.7S7.2,5.3,7.6,5.3z"/>
<path class="st0" d="M9.9,5.3c0.3,0,0.6-0.3,0.6-0.6s-0.3-0.6-0.6-0.6S9.3,4.4,9.3,4.7S9.6,5.3,9.9,5.3z"/>
</svg>
