<?xml version="1.0" encoding="utf-8"?>
<!-- Generator: Adobe Illustrator 21.0.0, SVG Export Plug-In . SVG Version: 6.00 Build 0)  -->
<svg version="1.1" id="图层_1" xmlns="http://www.w3.org/2000/svg" xmlns:xlink="http://www.w3.org/1999/xlink" x="0px" y="0px"
	 viewBox="0 0 23.3 18.6" style="enable-background:new 0 0 23.3 18.6;" xml:space="preserve">
<style type="text/css">
	.st0{fill:#D5E9FA;}
	.st1{fill:none;stroke:#2C3C59;stroke-width:0.8056;stroke-linecap:round;stroke-linejoin:round;stroke-miterlimit:10;}
</style>
<path class="st0" d="M5.4,3.5v11.1h10v-3.6l-2.9-7.5L5.4,3.5z"/>
<path class="st0" d="M21.9,6l-3.6,1.2l1.3,3.5l3.6-1.2L21.9,6z"/>
<path class="st1" d="M3.5,18.2c0.8,0,1.4-0.6,1.4-1.4c0-0.8-0.6-1.4-1.4-1.4c-0.8,0-1.4,0.6-1.4,1.4C2.1,17.6,2.7,18.2,3.5,18.2z"/>
<path class="st1" d="M11.3,18.2c0.8,0,1.4-0.6,1.4-1.4c0-0.8-0.6-1.4-1.4-1.4c-0.8,0-1.4,0.6-1.4,1.4C9.9,17.6,10.5,18.2,11.3,18.2z
	"/>
<path class="st1" d="M12.7,0.4l4.7,12.1l5.5-2"/>
<path class="st1" d="M0.4,13.2H14v-2.2L10.4,0.8H3.6v12.4"/>
<path class="st1" d="M5.4,2.6V7h5L8.7,2.6H5.4z"/>
<path class="st1" d="M20.5,5.6l-3.6,1.2l1.3,3.5l3.6-1.2L20.5,5.6z"/>
</svg>
