<?xml version="1.0" encoding="utf-8"?>
<!-- Generator: Adobe Illustrator 21.0.0, SVG Export Plug-In . SVG Version: 6.00 Build 0)  -->
<svg version="1.1" id="图层_1" xmlns="http://www.w3.org/2000/svg" xmlns:xlink="http://www.w3.org/1999/xlink" x="0px" y="0px"
	 viewBox="0 0 23.8 23.4" style="enable-background:new 0 0 23.8 23.4;" xml:space="preserve">
<style type="text/css">
	.st0{fill:none;stroke:#2C3C59;stroke-width:1.0742;stroke-linecap:round;stroke-linejoin:round;stroke-miterlimit:10;}
	.st1{fill:#D5E9FA;}
	.st2{fill:none;stroke:#2C3C59;stroke-width:1.0742;stroke-miterlimit:10;}
	.st3{fill:#2C3C59;}
</style>
<path class="st0" d="M17,17l6.3,5.9"/>
<path class="st1" d="M10.6,18.2c4.5,0,8.2-3.7,8.2-8.2c0-4.5-3.7-8.2-8.2-8.2c-4.5,0-8.2,3.7-8.2,8.2C2.4,14.5,6.1,18.2,10.6,18.2z"
	/>
<path class="st2" d="M8.8,17c4.5,0,8.2-3.7,8.2-8.2s-3.7-8.2-8.2-8.2S0.5,4.2,0.5,8.8S4.2,17,8.8,17z"/>
<path class="st3" d="M7.6,10.7v-0.5c0-0.2,0-0.4,0-0.6c0-0.2,0.1-0.3,0.1-0.5C7.9,9.1,7.9,8.9,8,8.8c0.1-0.1,0.2-0.3,0.4-0.4L9,7.8
	c0.2-0.1,0.3-0.3,0.4-0.5c0.1-0.2,0.2-0.4,0.2-0.7c0-0.3-0.1-0.6-0.3-0.8C9.1,5.6,8.8,5.4,8.4,5.4c-0.2,0-0.4,0-0.5,0.1
	C7.7,5.6,7.6,5.7,7.5,5.9C7.4,6,7.3,6.1,7.2,6.3S7.1,6.6,7.1,6.8L5.5,6.6c0.1-0.4,0.2-0.8,0.3-1.1C6,5.2,6.2,4.9,6.5,4.7
	c0.3-0.2,0.6-0.4,0.9-0.5C7.8,4.1,8.1,4,8.5,4c0.4,0,0.7,0.1,1,0.2c0.3,0.1,0.6,0.3,0.9,0.5c0.3,0.2,0.5,0.5,0.6,0.8
	c0.1,0.3,0.2,0.7,0.2,1.1c0,0.3,0,0.5-0.1,0.7c-0.1,0.2-0.1,0.4-0.3,0.6s-0.2,0.3-0.4,0.5c-0.2,0.2-0.3,0.3-0.5,0.5
	C9.8,9,9.7,9.1,9.6,9.2C9.5,9.3,9.4,9.4,9.3,9.5C9.2,9.6,9.2,9.8,9.2,9.9c0,0.1,0,0.3,0,0.5v0.3H7.6z M7.4,12.5
	c0-0.3,0.1-0.5,0.3-0.7c0.2-0.2,0.5-0.3,0.7-0.3c0.3,0,0.5,0.1,0.7,0.3c0.2,0.2,0.3,0.4,0.3,0.7c0,0.3-0.1,0.5-0.3,0.7
	c-0.2,0.2-0.4,0.3-0.7,0.3c-0.1,0-0.3,0-0.4-0.1c-0.1-0.1-0.2-0.1-0.3-0.2c-0.1-0.1-0.2-0.2-0.2-0.3C7.4,12.8,7.4,12.6,7.4,12.5z"/>
</svg>
