<?xml version="1.0" encoding="utf-8"?>
<!-- Generator: Adobe Illustrator 21.0.0, SVG Export Plug-In . SVG Version: 6.00 Build 0)  -->
<svg version="1.1" id="图层_1" xmlns="http://www.w3.org/2000/svg" xmlns:xlink="http://www.w3.org/1999/xlink" x="0px" y="0px"
	 viewBox="0 0 23.6 21.5" style="enable-background:new 0 0 23.6 21.5;" xml:space="preserve">
<style type="text/css">
	.st0{fill:#D5E9FA;}
	.st1{fill:none;stroke:#2C3C59;stroke-width:1.0742;stroke-linecap:round;stroke-linejoin:round;stroke-miterlimit:10;}
	.st2{fill:#2C3C59;}
</style>
<path class="st0" d="M13.4,4.6l-8.1,6v10.9h16.1V10.6L13.4,4.6z"/>
<path class="st1" d="M19.4,11.1V20H3.8v-8.9"/>
<path class="st1" d="M0.5,8.5l11.3-8l11.3,8"/>
<path class="st2" d="M6,9.6h11.3c0.2,0,0.4,0.2,0.4,0.4v0c0,0.2-0.2,0.4-0.4,0.4H6c-0.2,0-0.4-0.2-0.4-0.4v0C5.6,9.8,5.7,9.6,6,9.6z
	"/>
<path class="st2" d="M10.1,6h2.9c0.2,0,0.4,0.2,0.4,0.4v0c0,0.2-0.2,0.4-0.4,0.4h-2.9c-0.2,0-0.4-0.2-0.4-0.4v0
	C9.7,6.2,9.9,6,10.1,6z"/>
<path class="st2" d="M10.1,7.4h2.9c0.2,0,0.4,0.2,0.4,0.4v0c0,0.2-0.2,0.4-0.4,0.4h-2.9c-0.2,0-0.4-0.2-0.4-0.4v0
	C9.7,7.6,9.9,7.4,10.1,7.4z"/>
<path class="st2" d="M10.1,4.6h2.9c0.2,0,0.4,0.2,0.4,0.4v0c0,0.2-0.2,0.4-0.4,0.4h-2.9C9.9,5.4,9.7,5.2,9.7,5v0
	C9.7,4.7,9.9,4.6,10.1,4.6z"/>
<path class="st2" d="M11.8,16.5C11.8,16.5,11.8,16.5,11.8,16.5C11.8,16.4,11.9,16.4,11.8,16.5l1.4-0.1c0,0,0,0,0,0v1
	c0,0.1,0.1,0.2,0.2,0.2h0.2c0.1,0,0.2-0.1,0.2-0.2v-1c0,0,0,0,0,0h1.3c0,0,0,0,0.1,0c0,0,0,0,0,0v3.1c0,0,0,0,0,0c0,0,0,0-0.1,0
	h-3.4c0,0,0,0-0.1,0c0,0,0,0,0,0V16.5z M11.9,16c-0.3,0-0.5,0.2-0.5,0.5v3.1c0,0.3,0.2,0.5,0.5,0.5h3.4c0.2,0,0.5-0.2,0.5-0.5v-3.1
	c0-0.3-0.2-0.5-0.5-0.5H11.9z"/>
<path class="st2" d="M9.8,12.8C9.8,12.8,9.8,12.7,9.8,12.8C9.9,12.7,9.9,12.7,9.8,12.8l1.4-0.1c0,0,0,0,0,0v1c0,0.1,0.1,0.2,0.2,0.2
	h0.2c0.1,0,0.2-0.1,0.2-0.2v-1c0,0,0,0,0,0h1.3c0,0,0,0,0.1,0c0,0,0,0,0,0v3.1c0,0,0,0,0,0c0,0,0,0-0.1,0H9.9c0,0,0,0-0.1,0
	c0,0,0,0,0,0V12.8z M9.9,12.3c-0.3,0-0.5,0.2-0.5,0.5v3.1c0,0.3,0.2,0.5,0.5,0.5h3.4c0.2,0,0.5-0.2,0.5-0.5v-3.1
	c0-0.3-0.3-0.5-0.5-0.5H9.9z"/>
<path class="st2" d="M7.8,16.5C7.8,16.5,7.8,16.4,7.8,16.5C7.9,16.4,7.9,16.4,7.8,16.5l1.4-0.1c0,0,0,0,0,0v0.9
	c0,0.1,0.1,0.2,0.2,0.2h0.2c0.1,0,0.2-0.1,0.2-0.2v-0.9c0,0,0,0,0,0h1.3c0,0,0,0,0.1,0c0,0,0,0,0,0v3c0,0,0,0,0,0c0,0,0,0-0.1,0H7.9
	c0,0-0.1,0-0.1,0c0,0,0,0,0,0V16.5z M7.9,16c-0.3,0-0.5,0.2-0.5,0.5v3c0,0.3,0.3,0.5,0.5,0.5h3.4c0.2,0,0.5-0.2,0.5-0.5v-3
	c0-0.3-0.3-0.5-0.5-0.5H7.9z"/>
</svg>
