<?xml version="1.0" encoding="utf-8"?>
<!-- Generator: Adobe Illustrator 21.0.0, SVG Export Plug-In . SVG Version: 6.00 Build 0)  -->
<svg version="1.1" id="图层_1" xmlns="http://www.w3.org/2000/svg" xmlns:xlink="http://www.w3.org/1999/xlink" x="0px" y="0px"
	 viewBox="0 0 25.8 25.8" style="enable-background:new 0 0 25.8 25.8;" xml:space="preserve">
<style type="text/css">
	.st0{clip-path:url(#SVGID_2_);}
	.st1{fill:#D5E9FA;}
	.st2{fill:none;stroke:#2C3C59;stroke-width:1.0742;stroke-linecap:round;stroke-linejoin:round;stroke-miterlimit:10;}
	.st3{fill:none;stroke:#2C3C59;stroke-width:0.8056;stroke-miterlimit:10;}
</style>
<g>
	<defs>
		<rect id="SVGID_1_" width="25.8" height="25.8"/>
	</defs>
	<clipPath id="SVGID_2_">
		<use xlink:href="#SVGID_1_"  style="overflow:visible;"/>
	</clipPath>
	<g class="st0">
		<path class="st1" d="M2.5,19.2v-8.7l5.9-2.4l3.2,1.3v10.7l-3.2,1.4L2.5,19.2z"/>
		<path class="st2" d="M11.6,18.5l-3.4,1.5L0.9,17V9.2l7.3-2.9l3.4,1.5"/>
		<path class="st2" d="M11.6,7.8l-7.3,2.9v2.9"/>
		<path class="st2" d="M8.2,19.9v-7.8 M8.2,12.1L0.9,9.2 M8.2,12.1l3.4-1.5"/>
		<path class="st1" d="M24.9,7.8H13.4v13.7h11.5V7.8z"/>
		<path class="st3" d="M20.4,6.3V5.2h-1.8c0,0,0-0.9-0.9-0.9c-0.9,0-0.9,0.9-0.9,0.9h-1.9v1.1h-3v13.9h11.3V6.3H20.4z"/>
		<path class="st3" d="M14.8,6v1.4h5.6V5.9"/>
		<path class="st2" d="M14.4,16.6h6.3"/>
		<path class="st2" d="M14.4,14.1h6.2"/>
		<path class="st2" d="M14.4,11.7h3.7"/>
	</g>
</g>
</svg>
