<?xml version="1.0" encoding="utf-8"?>
<!-- Generator: Adobe Illustrator 21.0.0, SVG Export Plug-In . SVG Version: 6.00 Build 0)  -->
<svg version="1.1" id="图层_1" xmlns="http://www.w3.org/2000/svg" xmlns:xlink="http://www.w3.org/1999/xlink" x="0px" y="0px"
	 viewBox="0 0 23.3 21.2" style="enable-background:new 0 0 23.3 21.2;" xml:space="preserve">
<style type="text/css">
	.st0{fill:#D5E9FA;}
	.st1{fill:none;stroke:#2C3C59;stroke-width:0.8056;stroke-linecap:round;stroke-linejoin:round;stroke-miterlimit:10;}
</style>
<path class="st0" d="M1.7,12.3v7l4.7,1.9l5.1-2.3v-6.3l-5.1-2.2L1.7,12.3z"/>
<path class="st1" d="M0.4,11.4v6.2l5.8,2.3l5.4-2.3v-6.2L6.2,9L0.4,11.4z"/>
<path class="st1" d="M8.9,10.2l-5.8,2.3v2.3"/>
<path class="st1" d="M6.2,19.9v-6.2l5.4-2.3l-5.4,2.3l-5.8-2.3"/>
<path class="st0" d="M21.6,12.3v7l-4.7,1.9l-5.1-2.3v-6.3l5.1-2.2L21.6,12.3z"/>
<path class="st1" d="M22.9,11.4v6.2l-5.8,2.3l-5.4-2.3v-6.2L17.1,9L22.9,11.4z"/>
<path class="st1" d="M14.4,10.2l5.8,2.3v2.3"/>
<path class="st1" d="M17.1,19.9v-6.2l-5.4-2.3l5.4,2.3l5.8-2.3"/>
<path class="st0" d="M16.2,3.7v5.8l-4.7,1.9L6.4,9.1V3.9l5.1-2.2L16.2,3.7z"/>
<path class="st1" d="M17.4,2.7v6.2l-5.8,2.3L6.2,8.9V2.7l5.4-2.3L17.4,2.7z"/>
<path class="st1" d="M8.9,1.6l5.8,2.3v2.3"/>
<path class="st1" d="M11.6,11.3V5L6.2,2.7L11.6,5l5.8-2.3"/>
</svg>
