<?xml version="1.0" encoding="utf-8"?>
<!-- Generator: Adobe Illustrator 21.0.0, SVG Export Plug-In . SVG Version: 6.00 Build 0)  -->
<svg version="1.1" id="图层_1" xmlns="http://www.w3.org/2000/svg" xmlns:xlink="http://www.w3.org/1999/xlink" x="0px" y="0px"
	 viewBox="0 0 139 138.2" style="enable-background:new 0 0 139 138.2;" xml:space="preserve">
<style type="text/css">
	.st0{clip-path:url(#SVGID_2_);}
	.st1{fill:#61B8D6;}
	.st2{fill:#61BAE9;}
	.st3{fill:#5791AA;}
	.st4{fill:#FFA85A;}
	.st5{fill:#FFEED2;}
	.st6{fill:#EBAB71;}
	.st7{fill:#E87121;}
	.st8{fill:#FFBE8D;}
	.st9{fill:#E8853A;}
	.st10{fill:none;stroke:#FFBE8D;stroke-width:0.5535;stroke-miterlimit:10;}
</style>
<g>
	<defs>
		<rect id="SVGID_1_" width="139" height="138.2"/>
	</defs>
	<clipPath id="SVGID_2_">
		<use xlink:href="#SVGID_1_"  style="overflow:visible;"/>
	</clipPath>
	<g class="st0">
		<path class="st1" d="M0.4,84.2l74.8-45.4l63.4,35.6l-74.4,48.7L0.4,84.2z"/>
		<path class="st2" d="M138.6,74.6v14.1L65,137.8c-21.7-12.7-42.9-25.3-64.6-38.4c0-5.3,0-10.2,0-15.1l2.9,1.6v12.3L27.8,112v-11
			l3.3,2v11.4l30.7,18.8v-11l2.5,1.6c0.4-0.4,0.8-0.4,1.2-0.8v11.4l71.1-46.2l-0.3-12.1l2-1.4L138.6,74.6z"/>
		<path class="st3" d="M137,75.7v11.4l-71.5,46.6v-11.4c2.5-1.6,4.5-2.9,7-4.5l17.6-11.4h0.4c2.9-1.6,5.3-3.7,8.2-5.7l2.9-2l0.4,0.4
			c2.9-1.6,5.3-3.7,8.2-5.3v-0.4l4.9-3.3c0.8-0.4,1.2-0.8,2-1.2l0.4-0.4l9.8-6.1l0.8-0.5c2.9-2,4.5-2.8,7.4-4.8l0.8-0.5L137,75.7z"
			/>
		<path class="st4" d="M135.3,73.2c0,1.2,0,2,0,3.3l-8.2,5.3v-3.3L135.3,73.2z"/>
		<path class="st5" d="M135.3,73.2l-7.8,5.3L63,40.9l7.8-4.5l57.6,32.7L135.3,73.2z"/>
		<path class="st6" d="M127.6,81.8v0.8l-0.8-0.4L127.6,81.8z"/>
		<path class="st6" d="M127.6,78.5v3.3l-0.8,0.4L63,44.6v-3.7L127.6,78.5z"/>
		<path class="st4" d="M122.6,80.9c0,1.2,0,2.5,0,3.7c-2,1.2-3.7,2.5-5.7,3.7l-0.4,0.4l-1.6,1.2v-4.1L122.6,80.9z"/>
		<path class="st5" d="M122.6,80.9l-7.8,4.9L50.3,48.7l7.8-4.9L122.6,80.9z"/>
		<path class="st4" d="M116.5,88.7c-0.8,0.4-1.2,0.8-2,1.2L116.5,88.7z"/>
		<path class="st6" d="M114.9,85.9v4.1v0.4l-64.6-38v-3.7L114.9,85.9z"/>
		<path class="st4" d="M110,93.2v0.4c-2.9,1.6-5.3,3.7-8.2,5.3v-0.4L110,93.2z"/>
		<path class="st4" d="M110,89.9c0,1.2,0,2,0,3.3l-8.2,5.3v-3.7L110,89.9z"/>
		<path class="st5" d="M110,89.9l-8.2,4.9L38,56.4l7.8-4.5L110,89.9z"/>
		<path class="st6" d="M101.8,94.8v3.7l-0.4,0.4l-3.3-2h-0.4L38,60.1v-3.7L101.8,94.8z"/>
		<path class="st6" d="M101.4,98.9l0.4-0.4v0.8L101.4,98.9z"/>
		<path class="st4" d="M98.1,96.9c0,1.2,0,2.5,0,3.7l-8.2,5.3v-4.1L98.1,96.9z"/>
		<path class="st4" d="M98.1,101c-2.9,1.6-5.3,3.7-8.2,5.7v-0.4L98.1,101z"/>
		<path class="st5" d="M97.7,96.9h0.4l-7.8,5.3L25.8,65l7.8-4.9L97.7,96.9z"/>
		<path class="st6" d="M90.3,102.2v4.1h-0.4L25.8,68.7V65L90.3,102.2z"/>
		<path class="st4" d="M85.4,104.7c0,1.2,0,2.5,0,3.7c-2.9,1.6-5.3,3.7-8.2,5.7V110L85.4,104.7z"/>
		<path class="st5" d="M85.4,104.7l-8.2,5.3L13.1,72.4l7.4-4.5L85.4,104.7z"/>
		<path class="st6" d="M77.3,110v4.1L13.1,76v-3.7L77.3,110z"/>
		<path class="st4" d="M72.4,114.1c0,1.2,0,2.5,0,3.7c-2.5,1.6-4.5,2.9-6.9,4.5c-0.4,0.4-0.8,0.4-1.2,0.8V119L72.4,114.1z"/>
		<path class="st5" d="M72.4,114.1l-8.2,4.9L0.8,80.5l7.4-4.9L72.4,114.1z"/>
		<path class="st6" d="M64.2,119v4.1l-2.5-1.2L31.1,103l-3.3-2L3.3,85.9l-2.9-1.6l0.4-3.7L64.2,119z"/>
		<path class="st3" d="M61.7,121.8v11l-30.7-18.8v-11L61.7,121.8z"/>
		<path class="st3" d="M27.8,101v11L3.3,98.1V85.9L27.8,101z"/>
		<path class="st7" d="M109.2,24.9l1.2,49.5L69.5,98.5l-1.2-48.2L109.2,24.9z"/>
		<path class="st8" d="M109.2,24.9L68.3,50.3L26.2,26.6L67,0.4L109.2,24.9z"/>
		<path class="st9" d="M68.3,50.3l1.2,48.2L27.4,75.6l-1.2-49.1L68.3,50.3z"/>
		<path class="st4" d="M84.6,36.4v2.9l-7.8,4.9v-2.9L84.6,36.4z"/>
		<path class="st5" d="M84.6,36.4l-7.8,4.9c-14.3-7.4-28.6-15.1-42.9-22.5c2.5-1.6,4.9-3.3,7.4-4.5L84.6,36.4z"/>
		<path class="st6" d="M76.9,41.3v2.9c-14.3-7.8-28.6-15.5-42.9-23.3c0-0.8,0-1.2,0-2C48.2,26.2,62.5,33.9,76.9,41.3z"/>
		<path class="st4" d="M101,26.6V29l-7.8,4.9v-2.9L101,26.6z"/>
		<path class="st5" d="M101,26.6l-7.8,4.9C78.9,24.1,64.6,16.4,50.3,9c2.5-1.6,4.9-3.3,7.4-4.5L101,26.6z"/>
		<path class="st6" d="M93.2,31.1v2.9c-14.3-7.8-28.6-15.5-42.9-23.3c0-0.8,0-1.2,0-2C64.6,16.4,78.9,23.7,93.2,31.1z"/>
		<path class="st10" d="M42.9,47l0.4,16.8"/>
		<path class="st10" d="M51.5,51.5l0.4,17.2"/>
		<path class="st10" d="M59.3,55.6l0.4,17.6"/>
		<path class="st10" d="M80.1,54l0.4,17.6"/>
		<path class="st10" d="M89.1,48.7l0.4,17.6"/>
		<path class="st10" d="M98.1,43.3l0.4,17.2"/>
		<path class="st10" d="M106.7,38l0.4,17.6"/>
		<path class="st10" d="M71.1,58.9l0.4,18"/>
		<path class="st10" d="M27,38.4l41.7,22.1l40.9-24.1"/>
		<path class="st10" d="M27,54.8l42.1,23.7L110,54"/>
		<path class="st10" d="M38.8,61.3l0.4,20.9"/>
		<path class="st10" d="M47.4,66.2l0.4,20.4"/>
		<path class="st10" d="M55.2,70.7L56,91.6"/>
		<path class="st10" d="M63.8,75.6l0.8,20"/>
		<path class="st10" d="M76,74l0.8,20.4"/>
		<path class="st10" d="M85.4,68.7l0.4,20.4"/>
		<path class="st10" d="M94.4,63.4l0.4,20.4"/>
		<path class="st10" d="M102.6,58.5l0.4,20"/>
	</g>
</g>
</svg>
