<?xml version="1.0" encoding="utf-8"?>
<!-- Generator: Adobe Illustrator 21.0.0, SVG Export Plug-In . SVG Version: 6.00 Build 0)  -->
<svg version="1.1" id="图层_1" xmlns="http://www.w3.org/2000/svg" xmlns:xlink="http://www.w3.org/1999/xlink" x="0px" y="0px"
	 viewBox="0 0 20.4 23.1" style="enable-background:new 0 0 20.4 23.1;" xml:space="preserve">
<style type="text/css">
	.st0{fill:#D5E9FA;}
	.st1{fill:none;stroke:#2C3C59;stroke-width:1.0742;stroke-miterlimit:10;}
	.st2{fill:none;stroke:#2C3C59;stroke-width:1.0742;stroke-linecap:round;stroke-linejoin:round;stroke-miterlimit:10;}
	.st3{fill:#D5E9FA;stroke:#2C3C59;stroke-width:0.8056;stroke-miterlimit:10;}
	.st4{fill:none;stroke:#2C3C59;stroke-width:0.8056;stroke-linecap:round;}
</style>
<path class="st0" d="M17.5,5.2h-15v17.9h15V5.2z"/>
<path class="st1" d="M11.7,3.2V1.8H9.3c0,0,0-1.2-1.2-1.2c-1.2,0-1.2,1.2-1.2,1.2H4.4v1.5H0.5v18.1h14.8V3.2H11.7z"/>
<path class="st1" d="M4.4,2.8v1.8h7.3V2.7"/>
<path class="st2" d="M3.8,13.4H12"/>
<path class="st2" d="M3.8,10.2h4.8"/>
<path class="st2" d="M3.8,16.7H12"/>
<path class="st2" d="M15,16.7l4.8,4.8"/>
<path class="st3" d="M12.6,18.2c2.2,0,4-1.8,4-4c0-2.2-1.8-4-4-4c-2.2,0-4,1.8-4,4C8.6,16.4,10.4,18.2,12.6,18.2z"/>
<path class="st4" d="M11,14.6l0.8,0.8l2-2"/>
</svg>
