<?xml version="1.0" encoding="utf-8"?>
<!-- Generator: Adobe Illustrator 21.0.0, SVG Export Plug-In . SVG Version: 6.00 Build 0)  -->
<svg version="1.1" id="图层_1" xmlns="http://www.w3.org/2000/svg" xmlns:xlink="http://www.w3.org/1999/xlink" x="0px" y="0px"
	 viewBox="0 0 25.8 25.8" style="enable-background:new 0 0 25.8 25.8;" xml:space="preserve">
<style type="text/css">
	.st0{clip-path:url(#SVGID_2_);}
	.st1{fill:#D5E9FA;}
	.st2{fill:none;stroke:#2C3C59;stroke-width:1.0742;stroke-linecap:round;stroke-linejoin:round;stroke-miterlimit:10;}
	.st3{fill:#2C3C59;}
</style>
<g>
	<defs>
		<rect id="SVGID_1_" width="25.8" height="25.8"/>
	</defs>
	<clipPath id="SVGID_2_">
		<use xlink:href="#SVGID_1_"  style="overflow:visible;"/>
	</clipPath>
	<g class="st0">
		<path class="st1" d="M20.2,10.1v11.5l-7.7,3.1l-7.4-3.1V10.1l7.4-3L20.2,10.1z"/>
		<path class="st2" d="M21.7,8.9l-9.3-3.7L3.6,8.9 M21.7,13v5.9l-9.3,3.7l-8.7-3.7v-6.2"/>
		<path class="st2" d="M3.5,9l-2.3,2.6l9.1,4.1l2-3l2,3l10.3-3.8l-2.9-2.9l-9.3,3.7L3.5,9l8.8,3.7v10"/>
		<path class="st3" d="M7.8,1.9c-0.2,0-2.7,0-2.9,0c2.5,0.4,6.2,3.1,6.2,6.4H9.7l2.7,2.6l2.7-2.6h-1.4C13.7,4.7,11.3,1.9,7.8,1.9z"
			/>
	</g>
</g>
</svg>
