<?xml version="1.0" encoding="utf-8"?>
<!-- Generator: Adobe Illustrator 21.0.0, SVG Export Plug-In . SVG Version: 6.00 Build 0)  -->
<svg version="1.1" id="图层_1" xmlns="http://www.w3.org/2000/svg" xmlns:xlink="http://www.w3.org/1999/xlink" x="0px" y="0px"
	 viewBox="0 0 126 158.4" style="enable-background:new 0 0 126 158.4;" xml:space="preserve">
<style type="text/css">
	.st0{clip-path:url(#SVGID_2_);}
	.st1{opacity:0.48;fill:#BFCED1;enable-background:new    ;}
	.st2{fill:#7E9096;}
	.st3{fill:#ACB4D1;}
	.st4{fill:#BCCCF7;}
	.st5{fill:#E3EEFF;}
	.st6{fill:#94A6AF;}
	.st7{fill:#768589;}
	.st8{fill:#9E7E9E;}
	.st9{fill:#E1E9FF;}
	.st10{fill:#CBD5F7;}
	.st11{fill:#836184;}
	.st12{fill:#9D6D9B;}
	.st13{fill:#6F4D70;}
</style>
<g>
	<defs>
		<rect id="SVGID_1_" width="126" height="158.4"/>
	</defs>
	<clipPath id="SVGID_2_">
		<use xlink:href="#SVGID_1_"  style="overflow:visible;"/>
	</clipPath>
	<g class="st0">
		<path class="st1" d="M31.1,100.3L0.6,117l71.2,41.4l39.8-30.1L48.1,82.7L31.1,100.3z"/>
		<path class="st2" d="M111.5,128c3-1.5,3.8-5.8,1.9-9.6s-5.9-5.6-8.9-4.1c-3,1.5-3.8,5.8-1.9,9.6
			C104.5,127.7,108.5,129.5,111.5,128z"/>
		<path class="st3" d="M109.9,128.7c3-1.5,3.8-5.8,1.9-9.6c-1.9-3.8-5.9-5.6-8.9-4.1c-3,1.5-3.8,5.8-1.9,9.6
			C103,128.4,106.9,130.3,109.9,128.7z"/>
		<path class="st4" d="M108.9,126.7c2-1.1,2.6-4.1,1.2-6.8c-1.4-2.7-4.2-4-6.2-2.9c-2,1.1-2.6,4.1-1.2,6.8
			C104.1,126.4,106.8,127.8,108.9,126.7z"/>
		<path class="st5" d="M108.2,125.6c1.4-0.7,1.8-2.8,0.8-4.7s-2.9-2.8-4.3-2.1c-1.4,0.7-1.8,2.8-0.8,4.7S106.8,126.3,108.2,125.6z"
			/>
		<path class="st6" d="M125.4,57.1l-3.8,15.4c-0.3-0.3-0.6-0.3-1-0.6l3.5-14.1L125.4,57.1z"/>
		<path class="st6" d="M125.4,57.1l-1.3,0.6l-1.6-1l1.3-0.6L125.4,57.1z"/>
		<path class="st6" d="M124.1,57.7l-10.6,6.4l0.3-2.2l8.7-5.1L124.1,57.7z"/>
		<path class="st7" d="M123.8,56.1l-1.3,0.6l-6.4-3.8l0.3-1.3L123.8,56.1z"/>
		<path class="st6" d="M121.5,72.1l-0.3,1.6l-1-0.3v-0.3L121.5,72.1z"/>
		<path class="st6" d="M121.5,72.1l-1.3,0.6l0.3-1.3C120.9,71.8,121.2,72.1,121.5,72.1z"/>
		<path class="st6" d="M120.2,73.4l1,0.3l-1.3,1L120.2,73.4z"/>
		<path class="st6" d="M119.9,74.7l1.3-1l-3.5,13.8l-1-0.6L119.9,74.7z"/>
		<path class="st7" d="M120.6,71.8l-0.3,1.3l-0.3,0.3l-7.1-3.8V68C115.7,68.9,118,70.2,120.6,71.8z"/>
		<path class="st8" d="M120.2,73.1v0.3l-0.3-0.3H120.2z"/>
		<path class="st6" d="M120.2,73.4l-0.3,1.3l-7.4,4.2v-1.6l7.4-4.2L120.2,73.4z"/>
		<path class="st6" d="M117.7,87.5l-0.3,1.3c-0.3-0.3-0.6-0.3-1-0.6v-0.3L117.7,87.5z"/>
		<path class="st6" d="M117.7,87.5l-1.3,0.6l0.3-1.3L117.7,87.5z"/>
		<path class="st6" d="M117.3,88.8l-2.2,8c-0.3-0.3-0.6-0.3-1-0.6l1.9-7.1L117.3,88.8z"/>
		<path class="st6" d="M117.3,88.8l-1.3,0.6l0.3-1.3C116.7,88.5,117,88.8,117.3,88.8z"/>
		<path class="st7" d="M116.7,86.9l-0.3,1.3h-0.3c-1.3-0.6-2.6-1.6-3.8-2.2v-1.6L116.7,86.9z"/>
		<path class="st8" d="M116.4,88.2C116.4,88.5,116.1,88.2,116.4,88.2L116.4,88.2z"/>
		<path class="st6" d="M116.4,88.5l-0.3,1.3l-3.8,1.9v-1.3L116.4,88.5C116.1,88.2,116.4,88.5,116.4,88.5z"/>
		<path class="st7" d="M116.4,51.6l-0.3,1.3l-1.3-0.6l0.3-1.3L116.4,51.6z"/>
		<path class="st7" d="M116.1,52.9l-2.2,9l-1.3,0.6l2.2-10.3L116.1,52.9z"/>
		<path class="st7" d="M115.1,51l-0.3,1.3l-12.2-7.1v-1.3L115.1,51z"/>
		<path class="st6" d="M115.1,97.1l-0.6,2.9l-1.3,0.6l1-3.8C114.5,96.8,114.8,96.8,115.1,97.1z"/>
		<path class="st9" d="M111.9,101.3l1.3-1l1.3-0.6l-0.6,1.6l-8.3,4.5l-2.6,1.3l-3.8,1.9l-18.3,9.9v-1l1-0.3l7.1-3.8l1.3-0.6l6.7-3.8
			l1.3-0.6l5.1-2.9l1-0.3l6.4-3.5L111.9,101.3z"/>
		<path class="st10" d="M114.1,96.5l-1,3.8l-1.3,0.6l0.3-5.8C112.9,95.9,113.5,96.2,114.1,96.5z"/>
		<path class="st6" d="M113.8,61.9l-0.3,2.2h-0.3l-1,0.6l0.3-2.2L113.8,61.9z"/>
		<path class="st11" d="M113.2,64.1h0.3l-0.3,1V64.1z"/>
		<path class="st6" d="M113.2,64.1v1l-0.6,2.2c-0.3,0-0.3-0.3-0.6-0.3v-2.2L113.2,64.1z"/>
		<path class="st6" d="M113.2,65.1v2.6l-0.3-0.3L113.2,65.1z"/>
		<path class="st6" d="M113.2,67.6v1.6l-1-0.3l0.3-1.6C112.9,67.3,112.9,67.6,113.2,67.6z"/>
		<path class="st6" d="M112.9,69.3l-0.3,8l-1,0.6l0.3-7.1l0.3-1.9L112.9,69.3z"/>
		<path class="st6" d="M111.6,77.9l1-0.6v1.6l-1,0.6V77.9z"/>
		<path class="st6" d="M112.5,78.9v5.5l-1.3-0.6l0.3-4.2L112.5,78.9z"/>
		<path class="st6" d="M112.5,67.3l-0.3,1.6l-0.3-0.3V67C112.2,67,112.5,67.3,112.5,67.3z"/>
		<path class="st6" d="M112.5,62.5l-0.3,2.2l-1.9,1.3c-0.6-0.3-1.3-0.6-1.6-1L112.5,62.5z"/>
		<path class="st6" d="M112.5,84.3v1.6c-0.3-0.3-0.6-0.3-1-0.6v-1.6L112.5,84.3z"/>
		<path class="st6" d="M112.2,85.9v4.5l-1.3,0.6l0.3-5.8C111.6,85.6,111.9,85.6,112.2,85.9z"/>
		<path class="st6" d="M112.2,68.9l-0.3,1.9v-2.2L112.2,68.9z"/>
		<path class="st6" d="M112.2,90.4v1.3l-1.3,0.6v-1.3L112.2,90.4z"/>
		<path class="st6" d="M110.9,92.3l1.3-0.6v3.8c-0.3-0.3-0.6-0.3-1.3-0.6V92.3z"/>
		<path class="st7" d="M111.6,66.7l0.3-1.9V67C111.9,67,111.9,66.7,111.6,66.7z"/>
		<path class="st6" d="M110.9,94.6c0.3,0.3,0.6,0.3,1.3,0.6l-0.3,5.8l-1.3,0.6L110.9,94.6z"/>
		<path class="st7" d="M111.9,67v1.6l-0.6-0.3l0.3-1.6C111.9,66.7,111.9,67,111.9,67z"/>
		<path class="st7" d="M111.3,68.3l0.6,0.3v2.2l-1.9,8l-1.3,0.6L111.3,68.3z"/>
		<path class="st7" d="M111.6,66.7l-0.3,1.6l-2.6-1.6l1.6-1C110.6,66.4,111.3,66.4,111.6,66.7z"/>
		<path class="st6" d="M111.6,77.9v1.6l-1.9,1l0.3-1.6L111.6,77.9z"/>
		<path class="st7" d="M111.3,83.7v1.6c-1-0.6-1.6-1-2.6-1.6l0.3-1.3L111.3,83.7z"/>
		<path class="st6" d="M110.9,91.1v1.3l-2.6,1.3c-0.3-0.3-0.6-0.3-1-0.6L110.9,91.1z"/>
		<path class="st10" d="M110.9,94.6l-0.3,7.1l-6.4,3.5v-9.6l4.5-2.2C109.3,93.9,110,94.3,110.9,94.6z"/>
		<path class="st6" d="M105.5,105.8l4.8,19.9l-2.2,1.6l-1.9-7.4l-1.6-6.1l-1.6-6.4v-0.3L105.5,105.8z"/>
		<path class="st6" d="M108.4,65.1c0.6,0.3,1.3,0.6,1.6,1l-1.6,1l-1.6-1L108.4,65.1z"/>
		<path class="st6" d="M110,78.9l-0.3,1.6l-1.3,0.6l0.3-1.6L110,78.9z"/>
		<path class="st7" d="M109.7,80.5l-0.6,1.9l-0.6-0.6v-0.6L109.7,80.5z"/>
		<path class="st7" d="M109,82.4l-0.3,1.3c-0.3-0.3-0.6-0.3-1-0.6l0.3-1.3L109,82.4z"/>
		<path class="st7" d="M108.7,83.7l-1.9,8.7c-0.3-0.3-0.6-0.3-1-0.3l1.9-8.7C108.4,83.4,108.7,83.7,108.7,83.7z"/>
		<path class="st6" d="M108.7,79.5l-0.3,1.6l-0.6,0.3l-1-0.6L108.7,79.5z"/>
		<path class="st6" d="M106.8,65.7l1.9,1l-4.5,2.9l-1,0.3l-4.8,2.9l0.3-2.2L106.8,65.7z"/>
		<path class="st6" d="M107.4,93c0.3,0.3,0.6,0.3,1,0.6l-4.5,2.2v-1.3L107.4,93z"/>
		<path class="st7" d="M108.4,65.1l-1.6,1l-6.7-3.8l0.3-1.6C102.9,61.9,105.8,63.5,108.4,65.1z"/>
		<path class="st7" d="M108.4,81.8l-0.3,1.6c-0.6-0.3-1-0.6-1.6-1l1.3-0.6H108.4z"/>
		<path class="st3" d="M106.1,119.9l1.9,7.4h-4.5l-1.3-5.8l3.2-1.6H106.1z"/>
		<path class="st6" d="M107.7,81.4l-1.3,0.6c-0.3-0.3-0.6-0.3-1.3-0.6l1.3-0.6L107.7,81.4z"/>
		<path class="st10" d="M106.1,92c0.3,0.3,0.6,0.3,1,0.3s0.3,0.3,0.6,0.3l-3.2,1.6v-3.5C104.8,91.4,105.5,91.7,106.1,92z"/>
		<path class="st7" d="M104.2,79.2l2.6,1.6l-1.3,0.6c-0.3-0.3-0.6-0.3-1.3-0.6V79.2z"/>
		<path class="st6" d="M106.4,82.4l-2.2,1.3v-1.3l1.3-0.6C105.8,81.8,106.1,82.1,106.4,82.4z"/>
		<path class="st3" d="M104.5,113.8l1.6,6.1h-0.6l-1.3-2.2h-2.9l-2.2-8.7l3.8-1.9v0.3L104.5,113.8z"/>
		<path class="st3" d="M104.2,117.7l1.3,2.2l-3.2,1.6l-28.5,14.1l-1-3.5L104.2,117.7z"/>
		<path class="st6" d="M104.2,95.9v9.6l-1,0.3c0-3.2,0-6.4,0-9.6L104.2,95.9z"/>
		<path class="st6" d="M104.2,94.6v1.3l-1,0.3c0-0.3,0-0.6,0-1.3L104.2,94.6z"/>
		<path class="st6" d="M104.2,91.1v3.5l-1,0.6c0-1.6,0-3.2,0-4.8C103.6,90.7,103.9,90.7,104.2,91.1z"/>
		<path class="st6" d="M104.2,83.7v7.4c-0.3-0.3-0.6-0.3-1-0.6c0-1.9,0-4.2,0-6.1L104.2,83.7z"/>
		<path class="st6" d="M104.2,82.1v1.3l-1,0.6c0-0.3,0-1,0-1.3L104.2,82.1z"/>
		<path class="st6" d="M104.2,80.8v1.3l-1,0.6c0-1,0-1.6,0-2.6C103.6,80.5,103.9,80.8,104.2,80.8z"/>
		<path class="st6" d="M104.2,79.2v1.6c-0.3-0.3-0.6-0.3-1-0.6c0-0.6,0-1,0-1.6L104.2,79.2z"/>
		<path class="st6" d="M104.2,69.6v9.9l-1-0.6c0-2.9,0-5.8,0-8.7L104.2,69.6z"/>
		<path class="st2" d="M104.2,117.7l-31.4,14.7l-0.3-1.6c9.6-4.5,19.2-9,28.9-13.1H104.2z"/>
		<path class="st10" d="M103.2,96.2c0,3.2,0,6.4,0,9.6l-5.1,2.9l-0.3-9.6L103.2,96.2z"/>
		<path class="st6" d="M103.2,95.2c0,0.3,0,0.6,0,1.3l-5.5,2.9v-1L103.2,95.2z"/>
		<path class="st10" d="M103.2,90.4c0,1.6,0,3.2,0,4.8l-5.5,2.9l-0.3-10.6l0.6-0.3C99.4,88.5,101.3,89.4,103.2,90.4z"/>
		<path class="st6" d="M103.2,82.7c0,0.6,0,1,0,1.3l-5.5,3.2c-0.3,0-0.3-0.3-0.6-0.3v-1L103.2,82.7z"/>
		<path class="st7" d="M103.2,78.9c0,0.6,0,1,0,1.6c-1.6-1-3.5-2.2-5.1-3.2l0.3-1.3L103.2,78.9z"/>
		<path class="st7" d="M102.6,43.9v1.3l-1.3-1V43L102.6,43.9z"/>
		<path class="st7" d="M102.6,45.2l-2.2,15.4c-0.3-0.3-1-0.6-1.3-0.6l2.2-15.4L102.6,45.2z"/>
		<path class="st7" d="M88.8,35.9l12.5,7.1v1.3l-12.5-7.1V35.9z"/>
		<path class="st7" d="M100.4,60.6l-0.3,1.6l-1.3-0.6l0.3-1.6C99.4,60,100,60.3,100.4,60.6z"/>
		<path class="st7" d="M100,61.9l-1.3,8.7l-1.3,0.6l1.3-9.9L100,61.9z"/>
		<path class="st7" d="M99.1,59.6l-0.3,1.6l-11.9-6.7v-1.6C91.1,55.5,95.2,57.7,99.1,59.6z"/>
		<path class="st6" d="M97.5,71.2l1.3-0.6l-0.3,2.2l-1.3,0.6L97.5,71.2z"/>
		<path class="st7" d="M98.4,72.8l-0.3,2.9L96.8,75l0.3-1.6L98.4,72.8z"/>
		<path class="st7" d="M98.1,75.7l-0.3,1.3c-0.3-0.3-0.6-0.6-1.3-0.6l0.3-1.3L98.1,75.7z"/>
		<path class="st6" d="M97.5,99.1l0.6,9.6l-1.3,0.6l-0.3-9.6L97.5,99.1z"/>
		<path class="st7" d="M97.8,76.9l-1,6.7l-0.3-7.1v-0.3C97.1,76.6,97.5,76.9,97.8,76.9z"/>
		<path class="st6" d="M97.5,98.1v1l-1,0.6l-0.3-1L97.5,98.1z"/>
		<path class="st6" d="M97.5,87.5l-0.6,0.3v-0.6C97.1,87.2,97.5,87.2,97.5,87.5z"/>
		<path class="st6" d="M97.1,87.5l0.3,10.6l-1.3,0.6l-0.3-10.3L97.1,87.5z"/>
		<path class="st6" d="M94.3,73.1l3.2-1.9l-0.3,2.2l-0.6,0.3l-0.6,0.6L94.3,73.1z"/>
		<path class="st6" d="M97.1,87.2v0.6l-1.3,0.6v-1.3l0.6-0.3C96.5,86.9,96.8,86.9,97.1,87.2z"/>
		<path class="st6" d="M97.1,86.2v1c-0.3,0-0.6-0.3-0.6-0.3h0.3L97.1,86.2z"/>
		<path class="st6" d="M96.8,83.7l0.3,2.6l-0.6,0.3L96.8,83.7z"/>
		<path class="st6" d="M96.8,76.6l0.3,7.1l-0.6,2.9h-0.3c0,0,0,0-0.3-0.3v-2.9L96.8,76.6z"/>
		<path class="st10" d="M96.8,109.3l-6.7,3.8l-0.6-9.9l7.1-3.5L96.8,109.3z"/>
		<path class="st6" d="M96.5,76.3v0.6l-1,6.7l-0.3-8C95.9,75.7,96.2,76,96.5,76.3z"/>
		<path class="st6" d="M96.5,74.7v1.6c-0.3-0.3-1-0.6-1.3-0.6v-1l0.6-0.3L96.5,74.7z"/>
		<path class="st6" d="M96.5,73.7v1l-0.6-0.3L96.5,73.7z"/>
		<path class="st6" d="M96.5,86.6l-0.6,0.3v-0.6C96.2,86.6,96.2,86.6,96.5,86.6z"/>
		<path class="st6" d="M96.2,98.7l0.3,1l-7.1,3.5v-1L96.2,98.7z"/>
		<path class="st10" d="M95.9,88.5l0.3,10.3l-6.7,3.5l-0.3-9.9L95.9,88.5z"/>
		<path class="st6" d="M95.9,86.9v1.6l-6.7,3.8v-1.3L95.9,86.9z"/>
		<path class="st10" d="M95.9,86.2v0.6l-6.7,3.8l-0.3-8.7c2.2,1.3,4.5,2.6,6.7,3.8C95.5,86.2,95.5,86.2,95.9,86.2z"/>
		<path class="st6" d="M95.9,74.4l-0.6,0.3L94.6,75c-0.6-0.3-1.3-0.6-1.6-1l1.3-0.6L95.9,74.4z"/>
		<path class="st7" d="M95.9,83.7v2.9c-0.3,0-0.3-0.3-0.3-0.3L95.9,83.7z"/>
		<path class="st6" d="M94.6,75l-6.1,3.5l-1,0.6l-2.2,1.3c0,0-0.3,0-0.3-0.3l0.3-1.6l8-4.5C93.3,74.4,93.9,74.7,94.6,75z"/>
		<path class="st7" d="M94.3,73.1l-1.3,1c-2.2-1.3-4.8-2.9-7.1-4.5v-1.3L94.3,73.1z"/>
		<path class="st6" d="M89.5,103.2l0.3,9.6l-1,0.6c0-3.2-0.3-6.4-0.3-9.6L89.5,103.2z"/>
		<path class="st6" d="M89.5,102.3v1l-1,0.6c0-0.3,0-0.6,0-1L89.5,102.3z"/>
		<path class="st6" d="M89.1,92.3l0.3,9.9l-1,0.6c0-3.2-0.3-6.7-0.3-9.9L89.1,92.3z"/>
		<path class="st6" d="M89.1,91.1v1.3l-1,0.6c0-0.3,0-1,0-1.3L89.1,91.1z"/>
		<path class="st6" d="M88.5,82.4l0.3,8.7l-1,0.6c0-3.2-0.3-6.4-0.3-9.6C87.8,82.1,88.2,82.1,88.5,82.4z"/>
		<path class="st7" d="M87.5,34.9l1.3,1v1.3l-1.3-1V34.9z"/>
		<path class="st10" d="M88.5,103.9c0,3.2,0.3,6.4,0.3,9.6l-7.1,3.8v-9.9L88.5,103.9z"/>
		<path class="st7" d="M87.5,36.2l1.3,0.6l-1.6,16c-0.3-0.3-1-0.3-1.3-0.6L87.5,36.2z"/>
		<path class="st6" d="M88.5,78.5l0.3,3.8c-0.3-0.3-0.6-0.3-1-0.6c0-1,0-1.9,0-2.9L88.5,78.5z"/>
		<path class="st6" d="M88.5,102.9c0,0.3,0,0.6,0,1l-6.7,3.5v-1L88.5,102.9z"/>
		<path class="st10" d="M88.2,93c0,3.2,0.3,6.7,0.3,9.9l-6.7,3.5v-9.9L88.2,93z"/>
		<path class="st6" d="M87.8,91.4c0,0.3,0,1,0,1.3l-6.1,3.5v-1.6L87.8,91.4z"/>
		<path class="st10" d="M87.5,81.8c0,3.2,0.3,6.4,0.3,9.6l-6.1,3.5V82.4l3.2-1.9C85.9,80.8,86.9,81.4,87.5,81.8z"/>
		<path class="st7" d="M87.5,34.9v1.3l-11.9-6.7v-1.3L87.5,34.9z"/>
		<path class="st7" d="M87.2,53.2v1.6l-1.3-0.6v-1.6C86.6,52.9,86.9,52.9,87.2,53.2z"/>
		<path class="st7" d="M87.2,54.8l-1.3,13.5l-1.3-0.6l1.3-13.5L87.2,54.8z"/>
		<path class="st7" d="M85.9,52.6v1.6L75,48.1v-1.6C78.9,48.4,82.4,50.7,85.9,52.6z"/>
		<path class="st7" d="M84.6,67.6l1,0.6v1.3c-0.3-0.3-0.6-0.3-1-0.6V67.6z"/>
		<path class="st7" d="M85.6,69.6l-1,9l-1,0.6l1-10.3C85,69.3,85.3,69.3,85.6,69.6z"/>
		<path class="st6" d="M84.6,80.2l0.3,0.3l-3.2,1.9l-1.6-1.3l3.2-1.9c0.3,0,0.3,0.3,0.3,0.3C84,79.8,84.3,80.2,84.6,80.2z"/>
		<path class="st6" d="M85,78.5l-0.3,1.6c-0.3-0.3-0.6-0.3-1-0.6v-0.6L85,78.5z"/>
		<path class="st7" d="M84.6,67.6v1.3c-3.2-1.9-6.7-4.2-9.9-6.1v-1.3L84.6,67.6z"/>
		<path class="st10" d="M83.4,79.5l-3.2,1.9L57.4,68.3c0.6-0.3,1-0.6,1.6-1c0.3-0.3,0.6-0.3,1.3-0.6c1.6,1,3.2,1.9,4.8,2.6
			c0.3,0.3,1,0.3,1.3,0.6c2.6,1.3,4.8,2.6,7.1,3.8c0.3,0.3,1,0.3,1.3,0.6C77.3,76.3,80.5,77.9,83.4,79.5z"/>
		<path class="st6" d="M82.1,82.4l-1,0.3l-1.9-1l1-0.6L82.1,82.4z"/>
		<path class="st6" d="M81.1,82.7l1-0.3l-0.3,12.5l-0.6,0.6V82.7z"/>
		<path class="st6" d="M81.1,95.5l0.6-0.6v1.6l-0.6,0.3V95.5z"/>
		<path class="st6" d="M81.8,96.5v9.9l-0.6,0.3c0,0,0,0-0.3,0v-9.6L81.8,96.5z"/>
		<path class="st6" d="M81.8,106.4v1l-1,0.3v-1.3c0,0,0,0,0.3,0H81.8z"/>
		<path class="st6" d="M81.8,107.4v10.3l-1,0.3V108L81.8,107.4z"/>
		<path class="st10" d="M81.1,82.7v12.8h-0.3l-9-4.8l0.6-12.8l6.7,3.8L81.1,82.7z"/>
		<path class="st6" d="M81.1,95.5v1.3l-0.3,0.3l-9-4.8v-1.6l9,4.8H81.1z"/>
		<path class="st10" d="M81.1,96.8v9.6c-3.2-1.6-6.1-3.5-9.3-5.1l0.3-9.3L81.1,96.8z"/>
		<path class="st6" d="M80.8,106.8v1.3l-9.3-5.4v-1.3C74.7,103.2,77.9,104.8,80.8,106.8z"/>
		<path class="st10" d="M80.8,108v9.9l-9.6-5.1l0.3-10.3L80.8,108z"/>
		<path class="st9" d="M80.8,118v1l-13.5-7.1l-3.2-1.9l-5.5-2.9l-18.6-9.6l-2.2-1.3l-4.2-2.2l-9.3-5.1l-0.6-1l8,4.2l1.3,0.6l8.7,4.8
			l1.3,0.6l7.4,3.8l1,0.3l9.3,5.1l1.3,0.6l8.7,4.5l0.6,0.3L80.8,118z"/>
		<path class="st6" d="M80.2,81.1l-1,0.6l-7.1-3.8l-1-0.6l-8.7-5.1l-1-0.6l-5.1-2.9c0.3-0.3,0.6-0.3,1-0.6L80.2,81.1z"/>
		<path class="st7" d="M74.1,27.3l1.6,1v1.3l-1.6-1V27.3z"/>
		<path class="st7" d="M75.7,29.5l-0.3,17c-0.3-0.3-1-0.6-1.3-0.6l0.3-17L75.7,29.5z"/>
		<path class="st7" d="M75,46.5v1.6l-1.3-1v-1.6C74.1,45.8,74.7,46.2,75,46.5z"/>
		<path class="st7" d="M75,48.1l-0.3,13.5l-1.3-1l0.3-13.5L75,48.1z"/>
		<path class="st7" d="M74.7,61.6v1.3c-0.3-0.3-1-0.6-1.3-1v-1.3L74.7,61.6z"/>
		<path class="st7" d="M74.7,62.8l-0.3,11.9c-0.3-0.3-1-0.3-1.3-0.6l0.3-11.9C73.7,62.2,74.4,62.5,74.7,62.8z"/>
		<path class="st12" d="M73.7,135.6l1,4.2l-2.2,1.9l-1.3-4.8L73.7,135.6z"/>
		<path class="st7" d="M66.4,22.8l7.7,4.5v1.3L66.4,24V22.8z"/>
		<path class="st7" d="M66,41.4c2.6,1.3,5.1,2.9,7.7,4.2v1.6L66,43V41.4z"/>
		<path class="st3" d="M72.8,132.1l1,3.5l-2.6,1.3l-1-3.5L72.8,132.1z"/>
		<path class="st7" d="M73.4,60.6v1.3c-2.6-1.6-4.8-2.9-7.4-4.5v-1.3L73.4,60.6z"/>
		<path class="st13" d="M72.5,130.8l0.3,1.6l-2.6,1.3l-0.3-1.6C70.5,131.4,71.5,131.1,72.5,130.8z"/>
		<path class="st6" d="M67.3,111.9l5.1,18.9c-1,0.3-1.6,1-2.6,1.3L64.1,110L67.3,111.9z"/>
		<path class="st6" d="M71.2,77.3l1.3,0.6l-0.6,12.8l-1-0.6L71.2,77.3z"/>
		<path class="st3" d="M71.2,136.9l1.3,4.8H68l-5.5-19.6l-0.6-3.2l-3.2-11.9l5.5,2.9l5.8,22.1l0.3,1.3L71.2,136.9z"/>
		<path class="st6" d="M71.8,90.7v1.6l-1-0.6v-1.6L71.8,90.7z"/>
		<path class="st6" d="M71.8,92.3l-0.3,9.3c-0.3-0.3-0.6-0.3-1-0.6l0.3-9.3L71.8,92.3z"/>
		<path class="st6" d="M71.5,101.3v1.3l-1-0.3V101C70.9,101,71.2,101.3,71.5,101.3z"/>
		<path class="st6" d="M71.5,102.6l-0.3,10.3l-0.6-0.3v-10.3L71.5,102.6z"/>
		<path class="st10" d="M62.5,72.1l8.7,5.1l-0.3,12.8l-8.7-4.8L62.5,72.1z"/>
		<path class="st6" d="M70.9,90.1v1.6l-8.7-4.8v-1.6L70.9,90.1z"/>
		<path class="st10" d="M70.9,91.7l-0.3,9.3c-2.9-1.6-5.8-3.2-8.7-4.8l0.3-9.3L70.9,91.7z"/>
		<path class="st6" d="M70.5,101v1.3l-8.7-4.8v-1.3C64.8,97.8,67.6,99.4,70.5,101z"/>
		<path class="st10" d="M70.5,102.3v10.3l-8.7-4.5V97.5L70.5,102.3z"/>
		<path class="st7" d="M64.8,21.8l1.6,1V24l-1.6-1V21.8z"/>
		<path class="st7" d="M66.4,24v17.3c-0.3-0.3-1-0.6-1.3-0.6V23.1L66.4,24z"/>
		<path class="st7" d="M66,41.4V43l-1.3-0.6V41C65.1,41,65.7,41.4,66,41.4z"/>
		<path class="st7" d="M66,43v13.1l-1.3-1V42L66,43z"/>
		<path class="st7" d="M66,56.1v1.3c-0.3-0.3-1-0.6-1.3-1v-1.3L66,56.1z"/>
		<path class="st7" d="M66,57.4v12.5c-0.3-0.3-1-0.3-1.3-0.6V56.7C65.1,57.1,65.7,57.1,66,57.4z"/>
		<path class="st7" d="M64.8,55.1v1.3c-2.6-1.6-5.1-3.2-7.7-4.5c0-0.6-0.3-1-0.3-1.6L64.8,55.1z"/>
		<path class="st7" d="M64.8,40.7V42l-10.6-5.8c0-0.6-0.3-1-0.3-1.6C57.7,36.9,61.2,38.8,64.8,40.7z"/>
		<path class="st7" d="M64.8,21.8v1.3l-14.4-8.3l1-0.6L64.8,21.8z"/>
		<path class="st6" d="M61.9,118.9l0.6,3.2l-23.4-14.7l0.3-1.9L61.9,118.9z"/>
		<path class="st6" d="M62.5,72.1l-0.3,13.1l-1-0.3l0.3-13.5L62.5,72.1z"/>
		<path class="st6" d="M62.2,85.3v1.6l-1-0.6V85L62.2,85.3z"/>
		<path class="st6" d="M62.2,86.9v9.3c-0.3-0.3-0.6-0.3-1-0.6l0.3-9L62.2,86.9z"/>
		<path class="st6" d="M62.2,96.2v1.3l-1.3-0.6v-1.3C61.2,95.5,61.6,95.9,62.2,96.2z"/>
		<path class="st6" d="M61.9,97.5V108l-1.3-0.6l0.3-10.6L61.9,97.5z"/>
		<path class="st10" d="M56.4,68.6l5.1,2.9L61.2,85l-10.9-6.1L50,72.1c1-0.6,1.9-1.3,3.2-1.9c0.3-0.3,0.6-0.3,1-0.6
			C54.8,69.6,55.8,68.9,56.4,68.6z"/>
		<path class="st6" d="M61.2,85v1.3l-10.9-5.8v-1.6L61.2,85z"/>
		<path class="st10" d="M50.3,80.5l10.9,5.8l-0.3,9.3c-3.5-1.9-6.7-3.8-10.3-5.8L50.3,80.5z"/>
		<path class="st6" d="M50.7,89.8c3.5,1.9,6.7,3.8,10.3,5.8v1.3l-10.3-5.8V89.8z"/>
		<path class="st10" d="M60.9,96.8l-0.3,10.6l-9.3-5.1l-0.6-11.2L60.9,96.8z"/>
		<path class="st7" d="M57.1,51.9c1,4.8,1.9,9.6,2.9,14.4c-0.3,0.3-0.6,0.3-1.3,0.6l-3.2-16C56.1,51.3,56.7,51.6,57.1,51.9z"/>
		<path class="st6" d="M53.2,65.7l4.2,2.2c-0.3,0.3-0.6,0.3-1,0.6L53.5,67L53.2,65.7z"/>
		<path class="st7" d="M57.1,50.7c0,0.6,0.3,1,0.3,1.6c-0.6-0.3-1-0.6-1.6-1L55.5,50L57.1,50.7z"/>
		<path class="st7" d="M57.1,50.7l-1.6-1l-2.6-12.8l1.3-0.6C55.1,41,56.1,45.8,57.1,50.7z"/>
		<path class="st7" d="M55.5,49.7l0.3,1.3c-1.6,1-3.5,1.9-5.1,3.2l-0.3-1.3C51.9,51.6,53.5,50.7,55.5,49.7z"/>
		<path class="st7" d="M53.9,34.6c0,0.6,0.3,1,0.3,1.6l-1.3,0.6l-0.3-1.6C53.2,35.3,53.5,34.9,53.9,34.6z"/>
		<path class="st7" d="M53.5,67l0.6,2.9c-0.3,0.3-0.6,0.3-1,0.6l-1-4.5L53.5,67z"/>
		<path class="st7" d="M50.3,14.7c1.3,6.7,2.6,13.5,3.8,19.9c-0.3,0.3-1,0.6-1.3,0.6l-3.8-19.9L50.3,14.7z"/>
		<path class="st6" d="M53.2,65.7l0.3,1.3l-1.6-1v-1.3L53.2,65.7z"/>
		<path class="st7" d="M50.3,54.2l2.9,11.5l-1.3-1l-2.6-10.3C49.7,54.5,50,54.2,50.3,54.2z"/>
		<path class="st7" d="M52.6,35.6l0.3,1.6l-5.8,3.5l-0.3-1.3C48.7,37.8,50.7,36.5,52.6,35.6z"/>
		<path class="st6" d="M51.9,64.8l0.3,1.3L50,64.8l-1.3-0.6L41,59.6c0.3-0.3,0.6-0.3,1-0.6L51.9,64.8z"/>
		<path class="st6" d="M50.7,91.1l0.3,11.5l-1-0.6c-0.3-3.8-0.3-7.7-0.6-11.5L50.7,91.1z"/>
		<path class="st7" d="M51.3,14.1l-1,0.6c0-0.3-0.3-1-0.3-1.3L51.3,14.1z"/>
		<path class="st6" d="M50.7,89.8v1.3l-1-0.6c0-0.3,0-1,0-1.3C50,89.5,50.3,89.5,50.7,89.8z"/>
		<path class="st6" d="M50.3,80.5l0.3,9.3c-0.3-0.3-0.6-0.3-1-0.6c0-3.2-0.3-6.1-0.3-9.3L50.3,80.5z"/>
		<path class="st7" d="M50,52.9l0.3,1.3c-0.3,0.3-0.6,0.3-1,0.6l-0.3-1.3C49.4,53.2,49.7,52.9,50,52.9z"/>
		<path class="st6" d="M50.3,78.9v1.6l-1-0.6c0-0.6,0-1,0-1.6L50.3,78.9z"/>
		<path class="st6" d="M50,72.1l0.3,6.7l-1-0.6c0-1.9-0.3-3.5-0.3-5.5C49.4,72.8,49.7,72.5,50,72.1z"/>
		<path class="st10" d="M49.7,90.4c0.3,3.8,0.3,7.7,0.6,11.5L43,98.1l-2.2-12.8L49.7,90.4z"/>
		<path class="st7" d="M50,13.5c0,0.3,0.3,1,0.3,1.3l-1.3,1l-0.3-1.3L50,13.5z"/>
		<path class="st6" d="M49.7,64.8l0.3,7.4c-0.3,0.3-0.6,0.3-1,0.6c0-2.9-0.3-6.1-0.3-9L49.7,64.8z"/>
		<path class="st7" d="M47.1,40.4L50,52.6c-0.3,0.3-0.6,0.3-1,0.6l-2.9-12.5L47.1,40.4z"/>
		<path class="st6" d="M43.9,0.6c0,0,7.7,2.2,6.1,12.8l-1.3,1C50,7.4,47.5,4.2,45.5,2.9c-0.6-0.3-1-0.6-1-0.6L3.5,25
			c0.6,0,1,0.3,1.3,0.6c6.7,3.8,3.5,13.8,3.5,13.8l-1.3,0.6c0-0.3,1.3-3.8,1-7.4c-0.3-3.2-2.2-6.1-7.4-7.4L43.9,0.6z"/>
		<path class="st6" d="M49.7,89.1c0,0.3,0,1,0,1.3l-9.3-5.1L40.1,84C43.6,85.6,46.5,87.5,49.7,89.1z"/>
		<path class="st10" d="M49.4,79.8c0,3.2,0.3,6.1,0.3,9.3c-3.2-1.6-6.1-3.5-9.3-5.1l-1-5.1c1.3-0.6,2.6-1.3,3.5-2.2L49.4,79.8z"/>
		<path class="st7" d="M49.1,53.2l0.3,1.3c-2.6,1.6-5.1,2.9-7.7,4.5l-1.3-0.6C43.3,56.7,46.2,55.1,49.1,53.2z"/>
		<path class="st6" d="M49.4,78.2c0,0.6,0,1,0,1.6l-6.1-3.5c0.3-0.3,1-0.6,1.3-0.6L49.4,78.2z"/>
		<path class="st10" d="M49.4,78.2l-4.8-2.6c0.3-0.3,0.6-0.3,1-0.6c1.3-0.6,2.2-1.3,3.5-2.2C49.1,74.7,49.1,76.6,49.4,78.2z"/>
		<path class="st7" d="M48.7,14.1v1.6L42,19.6l-0.3-1.3L48.7,14.1z"/>
		<path class="st7" d="M46.8,39.1l0.3,1.3l-1,0.6l-0.3-1.3C46.2,39.4,46.5,39.1,46.8,39.1z"/>
		<path class="st7" d="M46.8,39.1c-0.3,0.3-0.6,0.3-1,0.6l-4.5-19.2l1-0.6L46.8,39.1z"/>
		<path class="st7" d="M45.8,39.8l0.3,1.3l-9.6,5.8l-0.3-1.3C39.4,43.3,42.6,41.4,45.8,39.8z"/>
		<path class="st7" d="M40.7,59.6L45.5,75c-0.3,0.3-0.6,0.3-1,0.6l-4.8-15.4C40.1,60.3,40.4,60,40.7,59.6z"/>
		<path class="st7" d="M45.5,2.6L4.8,25.6C4.5,25.3,4.2,25,3.5,25L44.2,2.2C44.6,1.9,44.9,2.2,45.5,2.6z"/>
		<path class="st6" d="M44.6,75.7c-0.3,0.3-1,0.6-1.3,1l-4.8-2.6l-0.3-1.6L44.6,75.7z"/>
		<path class="st6" d="M40.7,85.3L43,98.1l-1.3-0.6c-0.6-4.2-1.6-8.7-2.2-12.8L40.7,85.3z"/>
		<path class="st7" d="M42,19.6l-1,0.6l-0.3-1.3l1-0.6L42,19.6z"/>
		<path class="st6" d="M41.7,59c-0.3,0.3-0.6,0.3-1,0.6l-0.3-0.3l-0.3-1c0,0,0,0,0.3,0L41.7,59z"/>
		<path class="st10" d="M39.4,84.6c0.6,4.2,1.6,8.7,2.2,12.8L33,93l-2.2-9c1-0.6,2.2-1.3,3.2-1.9L39.4,84.6z"/>
		<path class="st7" d="M40.7,18.9l0.3,1.3l-10.9,6.7l-0.3-1.3L40.7,18.9z"/>
		<path class="st7" d="M40.4,59.3v0.3c-0.3,0.3-0.6,0.3-1,0.6L39.1,59c0,0,0.3,0,0.3-0.3L40.4,59.3z"/>
		<path class="st6" d="M40.4,84l0.3,1.3l-1.3-0.6c0-0.3-0.3-1-0.3-1.3C39.4,83.4,40.1,83.7,40.4,84z"/>
		<path class="st6" d="M40.4,58.4l0.3,1l-1-0.6C39.8,58.7,40.1,58.7,40.4,58.4z"/>
		<path class="st6" d="M39.4,78.5l1,5.1c-0.3-0.3-0.6-0.3-1.3-0.6c-0.3-1.3-0.6-2.6-0.6-4.2C38.8,78.9,39.1,78.9,39.4,78.5z"/>
		<path class="st6" d="M40.1,58c0,0.3-0.3,0.6-0.6,0.6l-0.6-0.3l-0.3-1.3L40.1,58z"/>
		<path class="st6" d="M37.8,96.2l2.2,1.3l-0.6,8l-0.3,1.9l-1.3,12.2l-2.2,1.3L37.8,96.2z"/>
		<path class="st7" d="M36.5,46.5L40.1,58l-1.3-0.6l-3.2-10.3L36.5,46.5z"/>
		<path class="st7" d="M39.1,59l0.3,1.3c-1,0.6-2.2,1.3-3.2,1.9v-1.3C37.2,60.3,38.2,59.6,39.1,59z"/>
		<path class="st6" d="M38.5,74.1l1,4.5c-0.3,0.3-0.6,0.3-1,0.6c-0.3-1.9-0.6-3.8-1-5.8L38.5,74.1z"/>
		<path class="st6" d="M39.1,83.4c0,0.3,0.3,1,0.3,1.3l-5.1-2.9c0.3-0.3,0.6-0.3,1-0.6C36.5,81.8,37.8,82.4,39.1,83.4z"/>
		<path class="st10" d="M38.5,79.2c0.3,1.3,0.6,2.6,0.6,4.2c-1.3-0.6-2.6-1.6-3.8-2.2h0.3c0.3-0.3,0.6-0.3,1.3-0.6
			C37.2,79.8,37.8,79.5,38.5,79.2z"/>
		<path class="st6" d="M38.8,57.4l0.3,1.3l-3.8-2.2l-1-0.6l-6.7-3.8l0.6-0.6L38.8,57.4z"/>
		<path class="st6" d="M38.2,72.5l0.3,1.6l-1.3-0.6c0-0.6-0.3-1.3-0.3-1.6L38.2,72.5z"/>
		<path class="st6" d="M36.5,62.2l1.9,10.3l-1.3-0.6c-0.6-2.9-1-5.8-1.6-9C35.9,62.5,36.2,62.5,36.5,62.2z"/>
		<path class="st3" d="M33.7,93.9l4.2,2.2l-2.2,24.7l-3.8-1L33.7,93.9z"/>
		<path class="st6" d="M37.2,71.5c0,0.6,0.3,1.3,0.3,1.6l-4.2-2.2l-0.6-1.9L37.2,71.5z"/>
		<path class="st7" d="M33.3,71.2l3.5,9c-0.3,0.3-0.6,0.3-1.3,0.6l-4.2-10.6L33.3,71.2z"/>
		<path class="st7" d="M36.2,45.2l0.3,1.3l-1,0.6l-0.3-1.3C35.6,45.8,35.9,45.5,36.2,45.2z"/>
		<path class="st6" d="M36.2,60.9l0.3,1.3c-0.3,0.3-0.6,0.3-1,0.6c0-0.6-0.3-1-0.3-1.6C35.6,61.2,35.9,60.9,36.2,60.9z"/>
		<path class="st6" d="M35.3,56.4l0.6,4.5c-0.3,0.3-0.6,0.3-1,0.6c-0.3-1.9-0.6-3.8-1-5.8L35.3,56.4z"/>
		<path class="st7" d="M30.1,26.9l5.8,18.6c-0.3,0.3-0.6,0.3-1,0.6l-5.5-18.6L30.1,26.9z"/>
		<path class="st7" d="M35.3,45.8l0.3,1.3l-7.4,4.2l-1.3-0.6C29.8,49.1,32.4,47.4,35.3,45.8z"/>
		<path class="st7" d="M35.3,61.2c0,0.6,0.3,1,0.3,1.6c-1.3,1-2.9,1.6-4.5,2.6l-0.3-1.3C32.1,63.2,33.7,62.2,35.3,61.2z"/>
		<path class="st6" d="M35.3,81.1c-0.3,0.3-0.6,0.3-1,0.6l-4.5-2.6l-0.3-1.3C31.4,78.9,33.3,79.8,35.3,81.1z"/>
		<path class="st6" d="M32.7,69.3l0.6,1.9l-1.9-1l-0.6-1.9L32.7,69.3z"/>
		<path class="st6" d="M31.1,83.7l2.2,9L32.1,92c-0.6-2.6-1.3-5.1-1.6-7.7C30.1,84,30.5,84,31.1,83.7z"/>
		<path class="st7" d="M31.1,65.4l1.3,3.8l-1.6-1l-1-2.2C30.5,65.7,30.8,65.4,31.1,65.4z"/>
		<path class="st10" d="M29.8,84.3c0.6,2.6,1.3,5.1,1.6,7.7l-8-4.2c0.3-0.3,0.6-0.3,1-0.6C26.3,86.2,28.2,85.3,29.8,84.3z"/>
		<path class="st6" d="M30.8,68.3l0.6,1.9L27.3,68v-0.3c0.3-0.3,0.6-0.3,1.3-0.6L30.8,68.3z"/>
		<path class="st7" d="M31.1,65.4c-0.3,0.3-0.6,0.3-1.3,0.6l-0.6-1.3c0.6-0.3,1-0.6,1.6-0.6L31.1,65.4z"/>
		<path class="st6" d="M29.8,79.2l1,4.5c-0.3,0.3-0.6,0.3-1,0.6c-0.3-1.9-1-3.8-1.3-5.8L29.8,79.2z"/>
		<path class="st7" d="M26.3,52.6l4.5,11.5c-0.3,0.3-0.6,0.3-1.3,0.6l-4.2-11.5L26.3,52.6z"/>
		<path class="st7" d="M30.1,26.9l-0.6,0.6l-0.6-1.3l1-0.6L30.1,26.9z"/>
		<path class="st7" d="M30.1,66c-0.6,0.3-1,0.6-1.6,1l-1.6-0.6c1-0.6,1.6-1,2.6-1.6L30.1,66z"/>
		<path class="st6" d="M29.5,77.9l0.3,1.3l-1.3-0.6c0-0.3-0.3-1-0.3-1.3C28.9,77.3,29.2,77.6,29.5,77.9z"/>
		<path class="st6" d="M27.3,68l2.2,9.9c-0.3-0.3-0.6-0.6-1.3-1c-0.6-2.9-1.3-6.1-1.9-9c0.3,0,0.6-0.3,0.6-0.3L27.3,68z"/>
		<path class="st7" d="M28.9,26.3l0.6,1.3l-10.3,6.1l-0.3-1L28.9,26.3z"/>
		<path class="st6" d="M28.5,78.5l-9-5.1l-0.3-1.3c0,0,0,0,0.3,0c2.9,1.6,5.8,3.2,8.7,4.8C28.2,77.6,28.5,77.9,28.5,78.5z"/>
		<path class="st6" d="M28.5,67c-0.3,0.3-0.6,0.3-1.3,0.6L26.9,66L28.5,67z"/>
		<path class="st6" d="M28.2,51.3l-1,0.6l-1-0.6c0.3-0.3,0.6-0.3,1-0.6L28.2,51.3z"/>
		<path class="st7" d="M26.3,51.3l1.3,0.6l-1.3,0.6L26,51.3H26.3z"/>
		<path class="st6" d="M26.9,66l0.3,1.6h-0.3l-1-0.3c0-0.3,0-0.3,0-0.3C26.3,66.4,26.6,66.4,26.9,66z"/>
		<path class="st6" d="M25.3,49.4l1.9,1.3c-0.3,0.3-0.6,0.3-1,0.6l-0.6-0.6L25.3,49.4z"/>
		<path class="st7" d="M26.9,67.6c-0.3,0-0.6,0.3-0.6,0.3c0-0.3-0.3-0.6-0.3-1L26.9,67.6z"/>
		<path class="st6" d="M26.9,66l-1.3-0.6c-1-3.5-1.6-7.4-2.6-10.9l1-0.6L26.9,66z"/>
		<path class="st6" d="M25.6,65.4l1.3,0.6c-0.3,0.3-0.6,0.3-1,0.6C26,66.4,25.6,65.7,25.6,65.4z"/>
		<path class="st7" d="M26,51.3l0.3,1.3l-1,0.6l-0.3-1C25.3,51.9,25.6,51.6,26,51.3z"/>
		<path class="st7" d="M26.3,68.3c-2.2,1.3-4.5,2.6-6.7,3.8c0,0-0.3,0-0.3-0.3l-0.3-1.3c2.2-1.3,4.5-2.6,6.7-3.8l0.3,0.6
			C26,67.6,26.3,68,26.3,68.3z"/>
		<path class="st8" d="M26,66.7c0,0.3,0,0.3,0,0.3h-0.3C25.6,66.7,26,66.7,26,66.7z"/>
		<path class="st6" d="M26,66.7c0,0-0.3,0-0.3,0.3l-10.3-5.5l-0.6-1.9l10.9,5.8C25.6,65.7,26,66.4,26,66.7z"/>
		<path class="st7" d="M26,51.3c-0.3,0.3-0.6,0.3-1,0.6l-1-2.2l1.6,1L26,51.3z"/>
		<path class="st6" d="M25.6,50.7l-1.6-1l-0.6-1.3l1.9,1L25.6,50.7z"/>
		<path class="st7" d="M24.7,52.3l0.3,1l-1,0.6l-0.3-1.3C24,52.6,24.4,52.3,24.7,52.3z"/>
		<path class="st7" d="M19.2,33.7l6.1,15.7l-1.9-1l-5.1-14.1L19.2,33.7z"/>
		<path class="st6" d="M24.7,87.2c-0.3,0.3-0.6,0.3-1,0.6l-5.5-15.1l1.3,0.6L24.7,87.2z"/>
		<path class="st6" d="M23.7,52.6l0.3,1.3l-1,0.6c0-0.3-0.3-1-0.3-1.3C23.1,52.9,23.4,52.9,23.7,52.6z"/>
		<path class="st6" d="M23.4,48.4l0.6,1.3l-1-0.3l-1.3-0.6L8,40.4l0.6-0.3L23.4,48.4z"/>
		<path class="st6" d="M23.1,49.4l0.6,3.2c-0.3,0.3-0.6,0.3-1,0.6c-0.3-1.6-0.6-3.2-1-4.5L23.1,49.4z"/>
		<path class="st7" d="M23.1,54.5l-8.7,4.8l-0.3-1c2.9-1.6,5.8-3.5,8.7-5.1C23.1,53.5,23.1,54.2,23.1,54.5z"/>
		<path class="st6" d="M19.2,72.1l0.3,1.3l-1.3-0.6C18.6,72.5,18.9,72.5,19.2,72.1z"/>
		<path class="st6" d="M19.2,71.8c-0.3,0.3-0.3,0.6-0.6,0.6L18,71.2C18.3,71.5,18.6,71.8,19.2,71.8z"/>
		<path class="st7" d="M18.9,32.7l0.3,1l-1,0.6l-0.6-1L18.9,32.7z"/>
		<path class="st6" d="M18.6,70.9l0.6,1c-0.3-0.3-0.6-0.3-1.3-0.6C18.3,71.2,18.6,70.9,18.6,70.9z"/>
		<path class="st6" d="M15.4,61.2l3.5,9.6c-0.3,0.3-0.6,0.3-0.6,0.3l-3.5-10.6L15.4,61.2z"/>
		<path class="st7" d="M17.6,33.3l0.6,1l-9.6,5.8L8,40.4l-1-0.3l1.3-1L17.6,33.3z"/>
		<path class="st6" d="M14.7,59.3l0.6,1.9l-1-0.6l-1-1.9L14.7,59.3z"/>
		<path class="st6" d="M14.7,59.3l-1-0.6c0.3,0,0.6-0.3,0.6-0.3L14.7,59.3z"/>
		<path class="st6" d="M14.4,58.4c-0.3,0.3-0.6,0.3-0.6,0.3L7.1,39.8l1,0.6L14.4,58.4z"/>
		<path class="st3" d="M8,32.7c-1.9-5.8-7.4-5.8-7.4-5.8v-1.6C5.8,26.3,7.4,29.5,8,32.7z"/>
		<path class="st2" d="M71.9,143.5c3-1.5,3.8-5.8,1.9-9.6c-1.9-3.8-5.9-5.6-8.9-4.1c-3,1.5-3.8,5.8-1.9,9.6
			C64.9,143.2,68.9,145,71.9,143.5z"/>
		<path class="st3" d="M70.5,144.1c3-1.5,3.8-5.8,1.9-9.6c-1.9-3.8-5.9-5.6-8.9-4.1c-3,1.5-3.8,5.8-1.9,9.6S67.6,145.6,70.5,144.1z"
			/>
		<path class="st4" d="M69.5,142c2-1.1,2.6-4.1,1.2-6.8c-1.4-2.7-4.2-4-6.2-2.9c-2,1.1-2.6,4.1-1.2,6.8
			C64.7,141.8,67.4,143.1,69.5,142z"/>
		<path class="st5" d="M68.7,140.7c1.4-0.7,1.8-2.9,0.8-4.7c-1-1.9-2.9-2.8-4.3-2.1c-1.4,0.7-1.8,2.8-0.8,4.7
			C65.4,140.4,67.3,141.4,68.7,140.7z"/>
		<path class="st2" d="M37.2,123.2c3-1.5,3.8-5.8,1.9-9.6c-1.9-3.8-5.9-5.6-8.9-4.1c-3,1.5-3.8,5.8-1.9,9.6
			C30.2,123,34.2,124.8,37.2,123.2z"/>
		<path class="st3" d="M35.9,123.8c3-1.5,3.8-5.8,1.9-9.6c-1.9-3.8-5.9-5.6-8.9-4.1c-3,1.5-3.8,5.8-1.9,9.6
			C28.9,123.6,32.9,125.4,35.9,123.8z"/>
		<path class="st4" d="M34.8,121.8c2-1.1,2.6-4.1,1.2-6.8c-1.4-2.7-4.2-4-6.2-2.9c-2,1.1-2.6,4.1-1.2,6.8
			C30,121.6,32.8,122.9,34.8,121.8z"/>
		<path class="st5" d="M34.1,120.4c1.4-0.7,1.8-2.8,0.8-4.7c-1-1.9-2.9-2.8-4.3-2.1c-1.4,0.7-1.8,2.8-0.8,4.7
			C30.7,120.2,32.6,121.2,34.1,120.4z"/>
	</g>
</g>
</svg>
