<?xml version="1.0" encoding="utf-8"?>
<!-- Generator: Adobe Illustrator 21.0.0, SVG Export Plug-In . SVG Version: 6.00 Build 0)  -->
<svg version="1.1" id="图层_1" xmlns="http://www.w3.org/2000/svg" xmlns:xlink="http://www.w3.org/1999/xlink" x="0px" y="0px"
	 viewBox="0 0 23.8 17.2" style="enable-background:new 0 0 23.8 17.2;" xml:space="preserve">
<style type="text/css">
	.st0{fill:#D5E9FA;}
	.st1{fill:#2C3C59;}
	.st2{fill:#FFFFFF;filter:url(#Adobe_OpacityMaskFilter);}
	.st3{mask:url(#path-238-inside-2_2_);fill:#2C3C59;}
	.st4{fill:none;stroke:#2C3C59;stroke-width:0.8056;}
	.st5{fill:none;stroke:#2C3C59;stroke-width:0.5908;stroke-linecap:round;stroke-linejoin:round;stroke-miterlimit:10;}
</style>
<path class="st0" d="M7.4,10.8h4.8c0.3,0,0.5,0.2,0.5,0.4v4.2c0,0.2-0.2,0.4-0.5,0.4H7.4c-0.3,0-0.5-0.2-0.5-0.4v-4.2
	C6.9,11,7.1,10.8,7.4,10.8z"/>
<path class="st0" d="M13.7,11.8h4c0.2,0,0.4,0.2,0.4,0.4v3.5c0,0.2-0.2,0.4-0.4,0.4h-4c-0.2,0-0.4-0.2-0.4-0.4v-3.5
	C13.2,12,13.4,11.8,13.7,11.8z"/>
<path class="st1" d="M12.6,11.4c0-0.1,0.1-0.2,0.2-0.2h1.9c0,0,0,0.1,0,0.1v1.3c0,0.2,0.1,0.3,0.3,0.3h0.3c0.2,0,0.3-0.1,0.3-0.3
	v-1.3c0,0,0-0.1,0-0.1h1.9c0.1,0,0.2,0.1,0.2,0.2v4.3c0,0.1-0.1,0.2-0.2,0.2h-4.7c-0.1,0-0.2-0.1-0.2-0.2V11.4z M12.8,10.8
	c-0.3,0-0.6,0.2-0.6,0.6v4.3c0,0.3,0.3,0.6,0.6,0.6h4.7c0.3,0,0.6-0.2,0.6-0.6v-4.3c0-0.3-0.3-0.6-0.6-0.6H12.8z"/>
<path class="st0" d="M7.4,4.9h4.8c0.3,0,0.5,0.2,0.5,0.4v4.2c0,0.2-0.2,0.4-0.5,0.4H7.4c-0.3,0-0.5-0.2-0.5-0.4V5.4
	C6.9,5.1,7.1,4.9,7.4,4.9z"/>
<path class="st0" d="M13.9,7.9h3.7C17.8,7.9,18,8,18,8.2v2.5c0,0.1-0.2,0.3-0.4,0.3h-3.7c-0.2,0-0.4-0.1-0.4-0.3V8.2
	C13.5,8,13.7,7.9,13.9,7.9z"/>
<path class="st1" d="M12.6,10.5V7.3l0,0c0,0,0,0,0,0c0,0,0.1-0.1,0.2-0.1h1.9c0,0,0,0,0,0v1c0,0.1,0.1,0.2,0.3,0.2h0.3
	c0.2,0,0.3-0.1,0.3-0.2v-1c0,0,0,0,0,0h1.9c0.1,0,0.1,0,0.2,0.1c0,0,0,0,0,0l0,0v3.2c0,0,0,0,0,0.1c0,0-0.1,0-0.2,0h-4.7
	C12.8,10.6,12.7,10.6,12.6,10.5C12.6,10.5,12.6,10.5,12.6,10.5L12.6,10.5z M12.8,6.8c-0.1,0-0.3,0-0.4,0.1c-0.1,0.1-0.2,0.2-0.2,0.4
	v3.2c0,0.2,0.1,0.3,0.2,0.4c0.1,0.1,0.2,0.1,0.4,0.1h4.7c0.1,0,0.3,0,0.4-0.1c0.1-0.1,0.2-0.2,0.2-0.4V7.3c0-0.2-0.1-0.3-0.2-0.4
	c-0.1-0.1-0.2-0.1-0.4-0.1H12.8z"/>
<defs>
	<filter id="Adobe_OpacityMaskFilter" filterUnits="userSpaceOnUse" x="12" y="6.5" width="6.4" height="4.7">
		<feColorMatrix  type="matrix" values="1 0 0 0 0  0 1 0 0 0  0 0 1 0 0  0 0 0 1 0"/>
	</filter>
</defs>
<mask maskUnits="userSpaceOnUse" x="12" y="6.5" width="6.4" height="4.7" id="path-238-inside-2_2_">
	<path class="st2" d="M12.6,10.5V7.3l0,0c0,0,0,0,0,0c0,0,0.1-0.1,0.2-0.1h1.9c0,0,0,0,0,0v1c0,0.1,0.1,0.2,0.3,0.2h0.3
		c0.2,0,0.3-0.1,0.3-0.2v-1c0,0,0,0,0,0h1.9c0.1,0,0.1,0,0.2,0.1c0,0,0,0,0,0l0,0v3.2c0,0,0,0,0,0.1c0,0-0.1,0-0.2,0h-4.7
		C12.8,10.6,12.7,10.6,12.6,10.5C12.6,10.5,12.6,10.5,12.6,10.5L12.6,10.5z M12.8,6.8c-0.1,0-0.3,0-0.4,0.1
		c-0.1,0.1-0.2,0.2-0.2,0.4v3.2c0,0.2,0.1,0.3,0.2,0.4c0.1,0.1,0.2,0.1,0.4,0.1h4.7c0.1,0,0.3,0,0.4-0.1c0.1-0.1,0.2-0.2,0.2-0.4
		V7.3c0-0.2-0.1-0.3-0.2-0.4c-0.1-0.1-0.2-0.1-0.4-0.1H12.8z"/>
</mask>
<path class="st3" d="M12.6,7.3l-0.2-0.2l-0.1,0.1v0.1H12.6z M12.6,10.5h-0.3v0.1l0.1,0.1L12.6,10.5z M12.6,7.3l-0.3-0.1l0,0
	L12.6,7.3z M12.6,7.2L12.5,7l0,0L12.6,7.2z M14.7,7.2L15,7.3l0.1-0.4h-0.4V7.2z M15.6,7.2V6.9h-0.4l0.1,0.4L15.6,7.2z M17.7,7.2
	l-0.2,0.2l0,0L17.7,7.2z M17.8,7.3L18,7.2v0L17.8,7.3z M17.8,7.3H18V7l-0.3,0L17.8,7.3z M17.8,10.5h-0.3l0,0H17.8z M17.7,10.6
	l-0.1-0.2l0,0L17.7,10.6z M12.6,10.6l0.2-0.2l0,0L12.6,10.6z M12.6,10.5l0.3-0.1l0,0L12.6,10.5z M12.4,6.9l0.2,0.2L12.4,6.9z
	 M12.4,10.9l-0.2,0.2l0,0L12.4,10.9z M17.9,10.9l0.1,0.2L17.9,10.9z M17.9,6.9l-0.2,0.2l0,0L17.9,6.9z M12.3,7.3v3.2h0.5V7.3H12.3z
	 M12.3,7.2C12.3,7.2,12.3,7.2,12.3,7.2C12.3,7.2,12.3,7.2,12.3,7.2C12.3,7.2,12.4,7.2,12.3,7.2C12.4,7.2,12.4,7.2,12.3,7.2
	c0-0.1,0-0.1,0.1-0.1l0.4,0.4c0,0,0,0,0-0.1c0,0,0,0,0,0c0,0,0,0,0,0c0,0,0,0,0,0c0,0,0,0,0,0s0,0,0,0h0l0,0L12.3,7.2z M12.5,7
	c-0.1,0.1-0.1,0.1-0.2,0.2l0.5,0.1c0,0,0,0,0,0c0,0,0,0,0,0c0,0,0,0,0,0c0,0,0,0,0,0c0,0,0,0,0,0c0,0,0,0,0,0L12.5,7z M12.8,6.9
	c-0.1,0-0.2,0-0.3,0.1l0.3,0.4c0,0,0,0,0,0c0,0,0,0,0,0V6.9z M14.7,6.9h-1.9v0.5h1.9V6.9z M15,7.2C15,7.2,15,7.2,15,7.2l-0.5-0.1
	c0,0,0,0.1,0,0.1H15z M15,8.2v-1h-0.5v1H15z M15,8.2C15,8.2,15,8.2,15,8.2C15,8.2,15,8.2,15,8.2C14.9,8.2,15,8.2,15,8.2
	C15,8.2,15,8.2,15,8.2l-0.6,0.1c0,0.2,0.1,0.3,0.2,0.4c0.1,0.1,0.2,0.1,0.4,0.1V8.2z M15.3,8.2H15v0.5h0.3V8.2z M15.4,8.2
	C15.4,8.2,15.4,8.2,15.4,8.2C15.4,8.2,15.4,8.2,15.4,8.2C15.4,8.2,15.4,8.2,15.4,8.2C15.4,8.2,15.4,8.2,15.4,8.2l0,0.5
	c0.1,0,0.3,0,0.4-0.1c0.1-0.1,0.2-0.2,0.2-0.4H15.4z M15.4,7.2v1h0.5v-1H15.4z M15.4,7.3C15.4,7.2,15.4,7.2,15.4,7.3l0.5,0
	c0,0,0-0.1,0-0.1L15.4,7.3z M17.5,6.9h-1.9v0.5h1.9V6.9z M17.9,7c-0.1-0.1-0.2-0.1-0.3-0.1v0.5c0,0,0,0,0,0c0,0,0,0,0,0L17.9,7z
	 M18,7.2c0-0.1-0.1-0.1-0.2-0.2l-0.3,0.4c0,0,0,0,0,0c0,0,0,0,0,0c0,0,0,0,0,0c0,0,0,0,0,0c0,0,0,0,0,0c0,0,0,0,0,0L18,7.2z M17.7,7
	c0.1,0,0.2,0,0.2,0.1c0,0,0,0.1,0.1,0.1c0,0,0,0,0,0c0,0,0,0,0,0c0,0,0,0,0,0l-0.5,0.1l0,0l0,0c0,0,0,0,0,0c0,0,0,0,0,0c0,0,0,0,0,0
	c0,0,0,0,0,0c0,0,0,0,0.1,0.1c0,0,0.1,0.1,0.2,0.1L17.7,7z M18,10.5V7.3h-0.5v3.2H18z M17.9,10.8c0,0,0.1-0.1,0.1-0.1
	c0-0.1,0-0.1,0-0.2h-0.5c0,0,0,0,0-0.1c0,0,0,0,0-0.1c0,0,0-0.1,0-0.1L17.9,10.8z M17.5,10.9c0.1,0,0.2,0,0.3-0.1l-0.3-0.4
	c0,0,0,0,0,0c0,0,0,0,0,0V10.9z M12.8,10.9h4.7v-0.5h-4.7V10.9z M12.5,10.8c0.1,0.1,0.2,0.1,0.3,0.1v-0.5c0,0,0,0,0,0c0,0,0,0,0,0
	L12.5,10.8z M12.3,10.6c0,0.1,0.1,0.1,0.2,0.2l0.3-0.4c0,0,0,0,0,0c0,0,0,0,0,0c0,0,0,0,0,0c0,0,0,0,0,0c0,0,0,0,0,0c0,0,0,0,0,0
	L12.3,10.6z M12.4,10.7C12.4,10.7,12.4,10.7,12.4,10.7C12.4,10.6,12.4,10.6,12.4,10.7c-0.1-0.1-0.1-0.1-0.1-0.1c0,0,0,0,0,0
	c0,0,0,0,0,0l0.5-0.1l0,0c0,0,0,0,0,0s0,0,0,0s0,0,0,0c0,0,0,0,0,0c0,0,0,0,0,0c0,0,0,0,0,0c0,0,0,0,0-0.1L12.4,10.7z M12.6,7.1
	c0.1,0,0.1-0.1,0.2-0.1V6.5c-0.2,0-0.4,0.1-0.5,0.2L12.6,7.1z M12.5,7.3c0,0,0-0.1,0.1-0.1l-0.3-0.4C12.1,6.8,12,7,12,7.3H12.5z
	 M12.5,10.5V7.3H12v3.2H12.5z M12.6,10.7c-0.1,0-0.1-0.1-0.1-0.1H12c0,0.3,0.2,0.5,0.3,0.6L12.6,10.7z M12.8,10.7
	c-0.1,0-0.2,0-0.2-0.1l-0.3,0.4c0.2,0.1,0.3,0.2,0.5,0.2V10.7z M17.5,10.7h-4.7v0.5h4.7V10.7z M17.8,10.7c-0.1,0-0.1,0.1-0.2,0.1
	v0.5c0.2,0,0.4,0,0.5-0.2L17.8,10.7z M17.9,10.5c0,0,0,0.1-0.1,0.1l0.3,0.4c0.2-0.1,0.3-0.3,0.3-0.6H17.9z M17.9,7.3v3.2h0.5V7.3
	H17.9z M17.8,7.1c0.1,0,0.1,0.1,0.1,0.1h0.5c0-0.3-0.2-0.5-0.3-0.6L17.8,7.1z M17.5,7.1c0.1,0,0.2,0,0.2,0.1l0.3-0.4
	c-0.2-0.1-0.3-0.2-0.5-0.2V7.1z M12.8,7.1h4.7V6.5h-4.7V7.1z"/>
<g>
	<path class="st1" d="M12.3,9.7c0.1-0.1,0.2-0.3,0.2-0.5V4.1c0-0.4-0.3-0.7-0.7-0.7H6.2c-0.4,0-0.7,0.3-0.7,0.7v5.1
		c0,0.2,0.1,0.3,0.2,0.5C5.6,9.8,5.5,10,5.5,10.2v5.1c0,0.4,0.3,0.7,0.7,0.7h5.6c0.4,0,0.7-0.3,0.7-0.7v-5.1
		C12.5,10,12.4,9.8,12.3,9.7z M5.9,4.1C5.9,4,6,3.8,6.2,3.8h2.3c0,0,0,0.1,0,0.1v1.6c0,0.2,0.2,0.3,0.4,0.3h0.4
		c0.2,0,0.4-0.2,0.4-0.3V4c0-0.1,0-0.1,0-0.1h2.3c0.2,0,0.3,0.1,0.3,0.2v5.1c0,0.1-0.1,0.2-0.3,0.2H6.2C6,9.5,5.9,9.3,5.9,9.2V4.1z
		 M12.1,15.3c0,0.1-0.1,0.2-0.3,0.2H6.2c-0.2,0-0.3-0.1-0.3-0.2v-5.1C5.9,10,6,9.9,6.2,9.9h2.3c0,0,0,0.1,0,0.1v1.6
		c0,0.2,0.2,0.3,0.4,0.3h0.4c0.2,0,0.4-0.2,0.4-0.3v-1.6c0-0.1,0-0.1,0-0.1h2.3c0.2,0,0.3,0.1,0.3,0.2V15.3z"/>
</g>
<path class="st4" d="M3.5,14.3V0"/>
<path class="st5" d="M3.4,16.9c0.7,0,1.3-0.6,1.3-1.3c0-0.7-0.6-1.3-1.3-1.3s-1.3,0.6-1.3,1.3C2.1,16.4,2.7,16.9,3.4,16.9z"/>
<path class="st5" d="M22.2,16.9c0.7,0,1.3-0.6,1.3-1.3c0-0.7-0.6-1.3-1.3-1.3c-0.7,0-1.3,0.6-1.3,1.3C20.8,16.4,21.4,16.9,22.2,16.9
	z"/>
<path class="st4" d="M20.8,15.9H4.8"/>
<path class="st1" d="M0.3,0h3.1c0.2,0,0.3,0.1,0.3,0.3v0.8c0,0.2-0.1,0.3-0.3,0.3H0.3C0.1,1.4,0,1.3,0,1.1V0.3C0,0.1,0.1,0,0.3,0z"
	/>
</svg>
