<?xml version="1.0" encoding="utf-8"?>
<!-- Generator: Adobe Illustrator 21.0.0, SVG Export Plug-In . SVG Version: 6.00 Build 0)  -->
<svg version="1.1" id="图层_1" xmlns="http://www.w3.org/2000/svg" xmlns:xlink="http://www.w3.org/1999/xlink" x="0px" y="0px"
	 viewBox="0 0 22.8 22.5" style="enable-background:new 0 0 22.8 22.5;" xml:space="preserve">
<style type="text/css">
	.st0{fill:#D5E9FA;}
	.st1{fill:#2C3C59;}
	.st2{fill:#FFFFFF;stroke:#2C3C59;stroke-width:0.3325;}
</style>
<path class="st0" d="M3.8,15.2c2.1,0,3.8-0.6,3.8-1.3c0-0.7-1.7-1.3-3.8-1.3c-2.1,0-3.8,0.6-3.8,1.3C0,14.7,1.7,15.2,3.8,15.2z"/>
<path class="st1" d="M7.4,2.1C7.1,2.2,7,2.5,7.1,2.8C7.3,3.1,7.6,3.2,7.9,3L7.4,2.1z M2.6,9.7c0.1-0.3-0.1-0.6-0.4-0.6
	C1.9,9,1.6,9.2,1.6,9.5L2.6,9.7z M20.6,6c0.2-0.2,0.2-0.5,0-0.8C20.4,5,20,5,19.8,5.2L20.6,6z M6.7,6.7C6.5,6.6,6.1,6.8,6.1,7
	C6,7.3,6.1,7.6,6.4,7.7L6.7,6.7z M4.4,11.2c-0.3,0-0.5,0.2-0.5,0.5c0,0.3,0.2,0.5,0.5,0.5V11.2z M7.5,12.3C7.8,12.3,8,12,8,11.7
	c0-0.3-0.2-0.5-0.5-0.5V12.3z M1.9,11.2c-0.3,0-0.5,0.2-0.5,0.5c0,0.3,0.2,0.5,0.5,0.5V11.2z M3.1,12.3c0.3,0,0.5-0.2,0.5-0.5
	c0-0.3-0.2-0.5-0.5-0.5V12.3z M8,16.3c0.3-0.1,0.5-0.4,0.4-0.6c-0.1-0.3-0.4-0.5-0.6-0.4L8,16.3z M3.4,17.2
	c-0.2,0.2-0.2,0.5-0.1,0.8c0.2,0.2,0.5,0.2,0.8,0.1L3.4,17.2z M19.8,18.2c0.2,0.2,0.6,0.2,0.8,0c0.2-0.2,0.2-0.6,0-0.8L19.8,18.2z
	 M7.8,15.3c-0.3,0.1-0.5,0.4-0.4,0.6c0.1,0.3,0.4,0.5,0.6,0.4L7.8,15.3z M7.9,3c1.3-0.6,2.7-1,4.2-1V1c-1.7,0-3.3,0.4-4.7,1.1L7.9,3
	z M12.1,2.1c5.3,0,9.7,4.3,9.7,9.7h1.1C22.8,5.8,18,1,12.1,1V2.1z M21.7,11.7c0,5.3-4.3,9.7-9.7,9.7v1.1c5.9,0,10.7-4.8,10.7-10.7
	H21.7z M12.1,21.4c-5.3,0-9.7-4.3-9.7-9.7H1.3c0,5.9,4.8,10.7,10.7,10.7V21.4z M2.4,11.7c0-0.7,0.1-1.4,0.2-2L1.6,9.5
	c-0.1,0.7-0.2,1.4-0.2,2.2H2.4z M16.1,11.7c0,2.8-0.5,5.2-1.3,7c-0.4,0.9-0.8,1.6-1.3,2c-0.5,0.4-0.9,0.7-1.4,0.7v1.1
	c0.8,0,1.5-0.4,2.1-0.9c0.6-0.6,1.1-1.4,1.6-2.4c0.9-1.9,1.4-4.6,1.4-7.4H16.1z M12.1,21.4c-0.5,0-0.9-0.2-1.4-0.7
	c-0.5-0.5-0.9-1.1-1.3-2c-0.8-1.8-1.3-4.2-1.3-7H7c0,2.9,0.5,5.5,1.4,7.4c0.4,1,1,1.8,1.6,2.4c0.6,0.6,1.3,0.9,2.1,0.9V21.4z
	 M8.1,11.7c0-2.8,0.5-5.2,1.3-7c0.4-0.9,0.8-1.6,1.3-2c0.5-0.5,0.9-0.7,1.4-0.7V1c-0.8,0-1.5,0.4-2.1,0.9C9.3,2.5,8.8,3.3,8.4,4.3
	C7.5,6.2,7,8.9,7,11.7H8.1z M12.1,2.1c0.5,0,0.9,0.2,1.4,0.7c0.5,0.5,0.9,1.1,1.3,2c0.8,1.8,1.3,4.2,1.3,7h1.1
	c0-2.9-0.5-5.5-1.4-7.4c-0.4-1-1-1.8-1.6-2.4C13.6,1.4,12.9,1,12.1,1V2.1z M20.2,5.6c-0.4-0.4-0.4-0.4-0.4-0.4l0,0c0,0,0,0,0,0l0,0
	c0,0,0,0,0,0c0,0,0,0,0,0c0,0,0,0-0.1,0.1c-0.1,0.1-0.2,0.1-0.3,0.3c-0.3,0.2-0.8,0.5-1.4,0.8c-1.3,0.6-3.2,1.2-5.9,1.2v1.1
	c2.9,0,5-0.6,6.4-1.3C19.2,7,19.7,6.7,20,6.4c0.2-0.1,0.3-0.2,0.4-0.3c0,0,0.1-0.1,0.1-0.1c0,0,0,0,0,0c0,0,0,0,0,0c0,0,0,0,0,0
	c0,0,0,0,0,0c0,0,0,0,0,0S20.6,6,20.2,5.6z M12.1,7.5C9.8,7.5,8,7.1,6.7,6.7l-0.3,1c1.4,0.5,3.3,0.9,5.7,0.9V7.5z M4.4,12.3h3.1
	v-1.1H4.4V12.3z M1.9,12.3h1.2v-1.1H1.9V12.3z M7.8,15.3c-1.5,0.3-2.5,0.8-3.3,1.2c-0.4,0.2-0.6,0.4-0.8,0.5
	c-0.1,0.1-0.2,0.1-0.2,0.2c0,0,0,0-0.1,0c0,0,0,0,0,0c0,0,0,0,0,0l0,0c0,0,0,0,0,0h0c0,0,0,0,0.4,0.4C4.1,18,4.1,18,4.1,18l0,0
	c0,0,0,0,0,0c0,0,0,0,0,0s0,0,0,0c0,0,0,0,0,0c0,0,0,0,0,0c0,0,0.1-0.1,0.2-0.1c0.2-0.1,0.4-0.3,0.7-0.4c0.6-0.3,1.6-0.8,3-1.1
	L7.8,15.3z M20.2,17.8c0.4-0.4,0.4-0.4,0.4-0.4s0,0,0,0c0,0,0,0,0,0c0,0,0,0,0,0c0,0,0,0,0,0c0,0,0,0,0,0c0,0-0.1-0.1-0.1-0.1
	c-0.1-0.1-0.2-0.2-0.4-0.3c-0.3-0.2-0.9-0.6-1.6-0.9c-1.4-0.6-3.5-1.3-6.4-1.3v1.1c2.7,0,4.7,0.6,5.9,1.2c0.6,0.3,1.1,0.6,1.4,0.8
	c0.1,0.1,0.3,0.2,0.3,0.3c0,0,0.1,0.1,0.1,0.1c0,0,0,0,0,0c0,0,0,0,0,0l0,0c0,0,0,0,0,0l0,0C19.8,18.2,19.8,18.2,20.2,17.8z
	 M12.1,14.8c-1.7,0-3.1,0.2-4.3,0.5l0.3,1c1.1-0.3,2.4-0.4,4-0.4V14.8z M16.6,11.2H7.5v1.1h9.1V11.2z M7.5,12.3h14.7v-1.1H7.5V12.3z
	"/>
<path class="st1" d="M3.8,0.2c-2,0-3.6,1.6-3.6,3.6c-0.1,3,2.4,6.5,3.6,9.5c1.2-3,3.6-6.5,3.6-9.5C7.3,1.8,5.7,0.2,3.8,0.2z"/>
<path class="st1" d="M3.8,2.3c0.8,0,1.4,0.6,1.4,1.4c0,0.8-0.6,1.4-1.4,1.4C3,5.2,2.4,4.6,2.4,3.8C2.4,3,3,2.3,3.8,2.3z M3.8,2
	C2.8,2,2,2.8,2,3.8s0.8,1.8,1.8,1.8s1.8-0.8,1.8-1.8S4.8,2,3.8,2z"/>
<path class="st1" d="M0.2,3.7l0.2,0v0H0.2z M3.8,13.2l-0.2,0.1l0.2,0.4l0.2-0.4L3.8,13.2z M7.3,3.7H7.2v0L7.3,3.7z M3.8,0
	c-2,0-3.7,1.7-3.7,3.7h0.3c0-1.9,1.5-3.4,3.4-3.4V0z M0.1,3.7c0,1.6,0.6,3.2,1.3,4.8c0.8,1.6,1.7,3.2,2.3,4.7l0.3-0.1
	C3.3,11.6,2.4,10,1.7,8.4C0.9,6.8,0.3,5.2,0.4,3.7L0.1,3.7z M3.9,13.3c0.6-1.5,1.5-3.1,2.3-4.7c0.8-1.6,1.4-3.3,1.3-4.8l-0.3,0
	c0,1.5-0.5,3.1-1.3,4.7c-0.7,1.6-1.7,3.2-2.3,4.8L3.9,13.3z M7.5,3.7c0-2-1.7-3.7-3.7-3.7v0.3c1.9,0,3.4,1.5,3.4,3.4H7.5z M3.8,2.5
	C4.5,2.5,5,3.1,5,3.8h0.3c0-0.9-0.7-1.6-1.6-1.6V2.5z M5,3.8C5,4.5,4.5,5,3.8,5v0.3c0.9,0,1.6-0.7,1.6-1.6H5z M3.8,5
	C3.1,5,2.5,4.5,2.5,3.8H2.2c0,0.9,0.7,1.6,1.6,1.6V5z M2.5,3.8c0-0.7,0.6-1.3,1.3-1.3V2.2c-0.9,0-1.6,0.7-1.6,1.6H2.5z M3.8,1.8
	c-1.1,0-2,0.9-2,2h0.3c0-0.9,0.7-1.6,1.6-1.6V1.8z M1.8,3.8c0,1.1,0.9,2,2,2V5.4c-0.9,0-1.6-0.7-1.6-1.6H1.8z M3.8,5.7
	c1.1,0,2-0.9,2-2H5.4c0,0.9-0.7,1.6-1.6,1.6V5.7z M5.7,3.8c0-1.1-0.9-2-2-2v0.3c0.9,0,1.6,0.7,1.6,1.6H5.7z"/>
<path class="st2" d="M3.8,5.8c1.1,0,1.9-0.9,1.9-1.9c0-1.1-0.9-1.9-1.9-1.9c-1.1,0-1.9,0.9-1.9,1.9C1.9,4.9,2.7,5.8,3.8,5.8z"/>
</svg>
