<?xml version="1.0" encoding="utf-8"?>
<!-- Generator: Adobe Illustrator 21.0.0, SVG Export Plug-In . SVG Version: 6.00 Build 0)  -->
<svg version="1.1" id="图层_1" xmlns="http://www.w3.org/2000/svg" xmlns:xlink="http://www.w3.org/1999/xlink" x="0px" y="0px"
	 viewBox="0 0 24.3 19.6" style="enable-background:new 0 0 24.3 19.6;" xml:space="preserve">
<style type="text/css">
	.st0{fill:#FFFFFF;filter:url(#Adobe_OpacityMaskFilter);}
	.st1{mask:url(#path-123-inside-1_2_);fill:none;stroke:#2C3C59;stroke-width:1.6113;}
	.st2{fill:#2C3C59;}
	.st3{fill:#D5E9FA;}
	.st4{fill:none;stroke:#2C3C59;stroke-width:0.6107;}
	.st5{fill:none;stroke:#2C3C59;stroke-width:0.5371;stroke-linecap:round;stroke-linejoin:round;}
</style>
<defs>
	<filter id="Adobe_OpacityMaskFilter" filterUnits="userSpaceOnUse" x="2.2" y="2" width="20.7" height="16">
		<feColorMatrix  type="matrix" values="1 0 0 0 0  0 1 0 0 0  0 0 1 0 0  0 0 0 1 0"/>
	</filter>
</defs>
<mask maskUnits="userSpaceOnUse" x="2.2" y="2" width="20.7" height="16" id="path-123-inside-1_2_">
	<path class="st0" d="M3.6,2.8h17.9c0.3,0,0.6,0.3,0.6,0.6v13.2c0,0.3-0.3,0.6-0.6,0.6H3.6c-0.3,0-0.6-0.3-0.6-0.6V3.4
		C3,3.1,3.3,2.8,3.6,2.8z"/>
</mask>
<path class="st1" d="M3.6,2.8h17.9c0.3,0,0.6,0.3,0.6,0.6v13.2c0,0.3-0.3,0.6-0.6,0.6H3.6c-0.3,0-0.6-0.3-0.6-0.6V3.4
	C3,3.1,3.3,2.8,3.6,2.8z"/>
<path class="st2" d="M1.1,18.4h22.6c0.3,0,0.6,0.3,0.6,0.6v0c0,0.3-0.3,0.6-0.6,0.6H1.1c-0.3,0-0.6-0.3-0.6-0.6v0
	C0.5,18.6,0.8,18.4,1.1,18.4z"/>
<path class="st3" d="M13.3,11.2c1.1,0,2.1-0.9,2.1-2c0-1.1-0.9-2-2.1-2c-1.1,0-2.1,0.9-2.1,2C11.3,10.3,12.2,11.2,13.3,11.2z"/>
<path class="st3" d="M9.7,15.4c0,0,0.8-3.1,3.5-3.1s3.3,3.1,3.3,3.1H9.7z"/>
<path class="st2" d="M8.2,14.6c-0.1,0.2,0,0.4,0.3,0.5c0.2,0.1,0.4,0,0.5-0.3L8.2,14.6z M15.8,14.8c0,0.2,0.3,0.4,0.5,0.3
	c0.2,0,0.4-0.3,0.3-0.5L15.8,14.8z M14.2,8.7c0,1-0.8,1.7-1.7,1.7v0.8c1.4,0,2.5-1.1,2.5-2.5H14.2z M12.5,10.5c-1,0-1.7-0.8-1.7-1.7
	H9.9c0,1.4,1.1,2.5,2.5,2.5V10.5z M10.7,8.7c0-1,0.8-1.7,1.7-1.7V6.2c-1.4,0-2.5,1.1-2.5,2.5H10.7z M12.5,7c1,0,1.7,0.8,1.7,1.7H15
	c0-1.4-1.1-2.5-2.5-2.5V7z M8.6,14.7c0.4,0.1,0.4,0.1,0.4,0.1l0,0c0,0,0,0,0,0c0,0,0,0,0,0c0,0,0,0,0,0c0,0,0,0,0,0c0,0,0,0,0-0.1
	c0-0.1,0.1-0.2,0.1-0.3c0.1-0.2,0.3-0.5,0.6-0.9c0.6-0.6,1.4-1.2,2.8-1.2v-0.8c-1.7,0-2.8,0.8-3.4,1.5c-0.3,0.4-0.6,0.7-0.7,1
	c-0.1,0.1-0.1,0.3-0.2,0.3c0,0,0,0.1,0,0.1c0,0,0,0,0,0c0,0,0,0,0,0c0,0,0,0,0,0c0,0,0,0,0,0l0,0C8.2,14.6,8.2,14.6,8.6,14.7z
	 M12.5,12.4c1.4,0,2.2,0.6,2.7,1.2c0.2,0.3,0.4,0.6,0.5,0.8c0,0.1,0.1,0.2,0.1,0.3c0,0,0,0.1,0,0.1c0,0,0,0,0,0c0,0,0,0,0,0l0,0
	c0,0,0,0,0,0l0,0c0,0,0,0,0.4-0.1c0.4-0.1,0.4-0.1,0.4-0.1l0,0c0,0,0,0,0,0c0,0,0,0,0,0c0,0,0,0,0,0c0,0,0,0,0,0c0,0,0-0.1,0-0.1
	c0-0.1-0.1-0.2-0.1-0.3c-0.1-0.3-0.3-0.7-0.6-1c-0.6-0.8-1.6-1.5-3.3-1.5V12.4z"/>
<circle class="st3" cx="4.1" cy="3.9" r="2.7"/>
<circle class="st4" cx="3.5" cy="3.5" r="3.2"/>
<path class="st5" d="M3.4,2.2v1.7h1.9"/>
</svg>
