<?xml version="1.0" encoding="utf-8"?>
<!-- Generator: Adobe Illustrator 21.0.0, SVG Export Plug-In . SVG Version: 6.00 Build 0)  -->
<svg version="1.1" id="图层_1" xmlns="http://www.w3.org/2000/svg" xmlns:xlink="http://www.w3.org/1999/xlink" x="0px" y="0px"
	 viewBox="0 0 20.8 21.5" style="enable-background:new 0 0 20.8 21.5;" xml:space="preserve">
<style type="text/css">
	.st0{fill:#D5E9FA;}
	.st1{fill:#2C3C59;}
</style>
<path class="st0" d="M17,1.8c-4.2,0-6.6,0-10.8,0c-2,0-2.3,0.3-2.3,1.8c0,4.3,0,8.8,0,13.1c0,0.1,0,1,0,1.2l0,0.4l0,0.2v0.4
	C4.3,20,3,20,3.9,20c1.2,0,1.7-0.2,2.6,0"/>
<path class="st0" d="M13.8,21.5c-2.1,0-4.1,0-6.1,0c-0.9,0-1.7,0-2.5,0c-2.2,0-3.7-1.7-3.9-4.4c0.2,0,0.3,0,0.5,0c3,0,6,0,9,0
	c0.4,0,0.4,0.3,0.6,0.8c0.3,1.3,1.2,2.1,1.9,3.1C13.4,21,13.5,21.1,13.8,21.5z"/>
<path class="st1" d="M20.8,3.4c0,0.3,0,0.6,0,0.8V3.4z M20.8,0c-4,0-7.9,0-11.9,0c-2,0-3.4,1.1-3.4,2.7c0,4.3,0,8.7,0,13.1
	c0,0.1,0,0.3,0,0.4c-0.2,0-0.4,0-0.6,0c-1.4,0-2.7,0-4.1,0c-0.6,0-0.7,0.1-0.7,0.6c0,1,0.5,2,1.4,2.7C2,20,2.8,20.2,3.7,20.4
	c4.1,0,8.2,0,12.3,0c0.1,0,0.2-0.1,0.3-0.1c2.8-0.4,4.5-2.1,4.5-4.3c0-3.8,0-7.5,0-11.3c0-0.2,0-0.3,0-0.5c0,0,0,0,0,0
	c0-0.3,0-0.6,0-0.8c0-0.9,0-1.7,0-2.5C20.8,0.6,20.8,0.3,20.8,0c0,0.3,0,0.6,0,0.9V0z M6.7,19.5c-0.7,0-1.5,0-2.2,0
	c-1.9,0-3.2-1-3.4-2.5c0.1,0,0.3,0,0.4,0c2.6,0,5.2,0,7.8,0c0.3,0,0.5,0,0.6,0.3c0.2,0.7,0.8,1.3,1.5,1.9c0.1,0.1,0.3,0.2,0.5,0.4
	C10.2,19.5,8.4,19.5,6.7,19.5z M19.6,1.3c0,4.9,0,9.8,0,14.7c0,1.6-1.1,2.8-3.1,3.4c-2.4,0.6-5.2-0.8-5.6-2.7
	c-0.1-0.4-0.3-0.5-0.7-0.5c-1.2,0-2.4,0-3.6,0c0-0.2,0-0.2,0-0.3c0-4.4,0-8.8,0-13.1c0-1.1,0.8-1.8,2.3-1.8c3.5,0,7,0,10.5,0
	c0.1,0,0.1,0,0.3,0C19.6,1,19.6,1.2,19.6,1.3z"/>
<path class="st1" d="M13.1,9.8c-1.4,0-2.7,0-4,0c-0.2,0-0.3,0-0.5,0C8.4,9.7,8.2,9.5,8.2,9.4c0-0.2,0.3-0.3,0.4-0.4c0,0,0.2,0,0.2,0
	c2.8,0,5.6,0,8.4,0c0,0,0,0,0.1,0C17.7,8.9,18,9,18,9.3c0,0.3-0.3,0.4-0.6,0.4c-0.7,0-1.3,0-2,0C14.6,9.8,13.9,9.8,13.1,9.8z"/>
<path class="st1" d="M13.1,11.5c1.4,0,2.8,0,4.1,0c0.4,0,0.8,0.1,0.7,0.4c0,0.4-0.4,0.4-0.8,0.4c-2.8,0-5.5,0-8.3,0
	c-0.4,0-0.8-0.1-0.7-0.4s0.4-0.4,0.8-0.4C10.3,11.5,11.7,11.5,13.1,11.5z"/>
<path class="st1" d="M13.1,14.9c-1.3,0-2.7,0-4,0c-0.2,0-0.3,0-0.5,0c-0.2-0.1-0.4-0.3-0.4-0.4c0-0.2,0.3-0.3,0.4-0.4
	c0.1,0,0.2,0,0.3,0c2.8,0,5.5,0,8.3,0c0.1,0,0.1,0,0.2,0c0.4,0,0.6,0.1,0.6,0.4c0,0.3-0.2,0.4-0.6,0.4c-0.7,0-1.4,0-2.1,0
	C14.5,14.9,13.8,14.9,13.1,14.9z"/>
<path class="st1" d="M10.7,4.1h1c0.1,0,0.3,0,0.4,0c0.1,0,0.2,0.1,0.3,0.1c0.1,0.1,0.2,0.1,0.2,0.2c0.1,0.1,0.1,0.2,0.1,0.4
	c0,0.2-0.1,0.4-0.2,0.5c-0.1,0.1-0.3,0.2-0.5,0.3l0.7,1.2h-0.6l-0.6-1.2h-0.4v1.2h-0.5V4.1z M11.5,5.3c0.1,0,0.1,0,0.2,0
	c0.1,0,0.1,0,0.2-0.1c0.1,0,0.1-0.1,0.1-0.1c0-0.1,0.1-0.1,0.1-0.2c0-0.1,0-0.1,0-0.2c0,0-0.1-0.1-0.1-0.1c-0.1,0-0.1,0-0.2-0.1
	c-0.1,0-0.1,0-0.2,0h-0.4v0.8H11.5z M13.1,4.1h0.7L15,6.1h0V4.1h0.5v2.8h-0.6l-1.3-2.1h0v2.1h-0.5V4.1z"/>
</svg>
