<?xml version="1.0" encoding="utf-8"?>
<!-- Generator: Adobe Illustrator 21.0.0, SVG Export Plug-In . SVG Version: 6.00 Build 0)  -->
<svg version="1.1" id="图层_1" xmlns="http://www.w3.org/2000/svg" xmlns:xlink="http://www.w3.org/1999/xlink" x="0px" y="0px"
	 viewBox="0 0 23.2 22.3" style="enable-background:new 0 0 23.2 22.3;" xml:space="preserve">
<style type="text/css">
	.st0{fill:#D5E9FA;}
	.st1{fill:none;stroke:#2C3C59;stroke-width:1.0742;}
	.st2{fill:#2C3C59;}
	.st3{fill:#D5E9FA;stroke:#2C3C59;stroke-width:1.0742;stroke-miterlimit:10;}
</style>
<rect x="2.1" y="5.1" class="st0" width="19.7" height="15.3"/>
<rect x="0.5" y="3.2" class="st1" width="19.7" height="15.3"/>
<rect x="0.5" y="3.2" class="st2" width="19.7" height="3.2"/>
<path class="st2" d="M4.9,0L4.9,0C5.5,0,6,0.5,6,1.1v2.4c0,0.6-0.5,1.1-1.1,1.1h0c-0.6,0-1.1-0.5-1.1-1.1V1.1C3.9,0.5,4.4,0,4.9,0z"
	/>
<path class="st2" d="M15.8,0L15.8,0c0.6,0,1.1,0.5,1.1,1.1v2.4c0,0.6-0.5,1.1-1.1,1.1h0c-0.6,0-1.1-0.5-1.1-1.1V1.1
	C14.8,0.5,15.2,0,15.8,0z"/>
<rect x="3.4" y="8.4" class="st2" width="3.1" height="3.1"/>
<rect x="8.9" y="8.4" class="st2" width="3.1" height="3.1"/>
<rect x="14.4" y="8.4" class="st2" width="3.1" height="3.1"/>
<rect x="3.4" y="13.4" class="st2" width="3.1" height="3.1"/>
<rect x="8.9" y="13.4" class="st2" width="3.1" height="3.1"/>
<path class="st3" d="M18.3,21.8c2.4,0,4.4-2,4.4-4.4s-2-4.4-4.4-4.4c-2.4,0-4.4,2-4.4,4.4S15.8,21.8,18.3,21.8z"/>
<path class="st2" d="M17.8,18.2c0.2-0.3,0.4-0.5,0.6-0.7c0.4-0.5,0.7-1,1.1-1.5c0.1-0.1,0.2-0.1,0.3-0.1c0.1,0.1,0.2,0.1,0.2,0.2
	c0.1,0.1,0.1,0.3,0.1,0.4c-0.4,0.5-0.7,1-1.1,1.5c-0.3,0.5-0.7,0.9-1.1,1.4c0,0,0,0.1-0.1,0.1c-0.1,0.1-0.1,0.1-0.2,0
	c-0.3-0.3-0.7-0.7-1.1-1c-0.1-0.1-0.2-0.2-0.2-0.2c-0.1-0.1-0.1-0.1,0-0.2c0.1-0.1,0.2-0.2,0.3-0.3c0.1-0.1,0.2-0.1,0.3,0
	c0.2,0.2,0.4,0.4,0.6,0.6C17.8,18.1,17.8,18.2,17.8,18.2z"/>
</svg>
