<?xml version="1.0" encoding="utf-8"?>
<!-- Generator: Adobe Illustrator 21.0.0, SVG Export Plug-In . SVG Version: 6.00 Build 0)  -->
<svg version="1.1" id="图层_1" xmlns="http://www.w3.org/2000/svg" xmlns:xlink="http://www.w3.org/1999/xlink" x="0px" y="0px"
	 viewBox="0 0 24.3 16.1" style="enable-background:new 0 0 24.3 16.1;" xml:space="preserve">
<style type="text/css">
	.st0{fill:#D5E9FA;}
	.st1{fill:#2C3C59;}
</style>
<path class="st0" d="M23.6,6H8.8v10.1h13.7V7.2h1V6z"/>
<path class="st1" d="M11.5,3V0.9c0-0.5,0.4-0.8,0.8-0.8h3.3c0.5,0,0.8,0.4,0.8,0.8V3c0,0.5-0.4,0.8-0.8,0.8h-3.3
	C11.8,3.8,11.5,3.5,11.5,3z"/>
<path class="st1" d="M14.2,3.8l0.7,0.6c0.1,0.1,0,0.2-0.1,0.2H13c-0.1,0-0.1-0.1-0.1-0.2l0.6-0.6c0,0,0,0,0.1,0L14.2,3.8
	C14.1,3.8,14.2,3.8,14.2,3.8z"/>
<path class="st0" d="M15.2,3.2h-2.5c-0.3,0-0.6-0.3-0.6-0.6V1.2c0-0.3,0.3-0.6,0.6-0.6h2.5c0.3,0,0.6,0.3,0.6,0.6v1.3
	C15.8,2.9,15.5,3.2,15.2,3.2z"/>
<path class="st1" d="M7.4,6.8V6.4C7.2,6.4,7,6.5,7,6.8H7.4z M21.2,6.8h0.4c0-0.2-0.2-0.4-0.4-0.4V6.8z M21.2,14.7v0.4
	c0.2,0,0.4-0.2,0.4-0.4H21.2z M7.4,14.7H7c0,0.2,0.2,0.4,0.4,0.4V14.7z M6.6,5.2V4.8C6.4,4.8,6.2,5,6.2,5.2H6.6z M22,5.2h0.4
	c0-0.2-0.2-0.4-0.4-0.4V5.2z M22,6.8v0.4c0.2,0,0.4-0.2,0.4-0.4H22z M6.6,6.8H6.2c0,0.2,0.2,0.4,0.4,0.4V6.8z M7.4,7.2h13.8V6.4H7.4
	V7.2z M20.8,6.8v8h0.8v-8H20.8z M21.2,14.3H7.4v0.8h13.8V14.3z M7.8,14.7v-8H7v8H7.8z M6.6,5.6H22V4.8H6.6V5.6z M21.6,5.2v1.6h0.8
	V5.2H21.6z M22,6.4H6.6v0.8H22V6.4z M7,6.8V5.2H6.2v1.6H7z"/>
<path class="st1" d="M19.3,2c-0.2-0.7-0.9-1-1.5-0.9s-1,0.9-0.9,1.6c0.2,0.6,0.7,0.9,1.3,0.9l0.1,0.2l-0.3,0.1
	c-0.1,0-0.1,0.1-0.1,0.2c0,0.1,0.1,0.1,0.2,0.1l1.2-0.3c0.1,0,0.1-0.1,0.1-0.2c0-0.1-0.1-0.1-0.2-0.1l-0.3,0.1l-0.1-0.2
	C19.2,3.2,19.5,2.6,19.3,2z"/>
<path class="st0" d="M18.1,3c0.4,0,0.7-0.3,0.7-0.7c0-0.4-0.3-0.7-0.7-0.7c-0.4,0-0.7,0.3-0.7,0.7C17.4,2.7,17.7,3,18.1,3z"/>
<path class="st1" d="M18.1,2.7c0.2,0,0.3-0.1,0.3-0.3c0-0.2-0.1-0.3-0.3-0.3c-0.2,0-0.3,0.1-0.3,0.3C17.8,2.5,17.9,2.7,18.1,2.7z"/>
<path class="st1" d="M24,4.8C24,4.8,23.9,4.8,24,4.8C23.9,4.8,23.9,4.8,24,4.8l0.2,0.3c0,0,0.1,0,0.1,0c0,0,0-0.1,0-0.1L24,4.8z"/>
<path class="st1" d="M5.4,8.8C5.3,8.8,5.3,8.8,5.4,8.8c-1.3,0-2.4,0-3.6,0c-0.1,0-0.2,0-0.3-0.1C1.2,8.5,1.1,8.4,1,8.1
	c0-0.2,0-0.3,0.1-0.5c0.3-0.6,0.7-1.2,1-1.7c0,0,0,0,0.1,0C2.3,5.9,2.4,6,2.5,6c0.1,0.1,0.2,0.1,0.3,0.2c0.1,0,0.2,0,0.1-0.1
	c0-0.1,0-0.1-0.1-0.2C2.7,5.7,2.6,5.4,2.5,5.1C2.4,4.9,2.4,4.8,2.3,4.7c0,0-0.1-0.1-0.1-0.1c0,0-0.1,0-0.1,0c-0.3,0-0.6,0.1-0.9,0.1
	c-0.2,0-0.3,0-0.4,0.1c-0.1,0-0.1,0.1,0,0.1C0.7,5,0.8,5,0.9,5.1C1,5.1,1.1,5.2,1.2,5.3c0,0,0,0,0,0.1C1.1,5.6,1,5.8,0.9,6
	C0.6,6.5,0.3,7,0.1,7.4c0,0.1,0,0.1-0.1,0.2C0,7.8,0,8,0,8.2c0.1,0.7,0.6,1.3,1.3,1.5C1.5,9.8,1.8,9.8,2,9.8c1.1,0,2.2,0,3.2,0
	c0,0,0,0,0.1,0C5.4,9.5,5.4,9.1,5.4,8.8z M6.9,9.8C6.9,9.8,6.9,9.8,6.9,9.8c0.4,0,0.8,0,1.1,0c0.4,0,0.7,0,1.1,0
	c0.2,0,0.5,0,0.7-0.2c0.6-0.4,0.9-0.9,0.9-1.6c0-0.3-0.1-0.6-0.2-0.8C10,6.4,9.6,5.6,9.2,4.8C9.1,4.6,8.9,4.4,8.8,4.1
	c0-0.1-0.1-0.1-0.1,0c0,0,0,0-0.1,0C8.3,4.3,8.1,4.4,7.9,4.6c-0.1,0-0.1,0.1,0,0.1c0.3,0.6,0.6,1.1,0.9,1.7c0.3,0.5,0.5,1,0.8,1.4
	C9.6,7.9,9.6,8,9.6,8.1c0,0.2-0.1,0.4-0.3,0.6C9.3,8.7,9.2,8.8,9.1,8.8c-0.1,0-0.3,0-0.4,0c-0.6,0-1.2,0-1.8,0c0,0,0,0-0.1,0
	c0,0,0,0,0-0.1c0-0.2,0-0.3,0-0.5c0-0.1,0-0.1,0-0.2c0-0.1-0.1-0.1-0.1,0c0,0-0.1,0.1-0.1,0.1C6.3,8.5,6,8.9,5.8,9.3
	c0,0.1,0,0.1,0,0.2C5.9,9.6,6.1,9.9,6.2,10c0.1,0.2,0.2,0.3,0.4,0.5c0,0,0.1,0.1,0.1,0.1c0.1,0,0.1,0,0.1,0c0,0,0,0,0-0.1
	c0-0.1,0-0.2,0-0.4C6.9,10,6.9,9.9,6.9,9.8z"/>
<path class="st1" d="M6.9,9.8c0,0.1,0,0.2,0,0.3c0,0.1,0,0.2,0,0.4c0,0,0,0,0,0.1c0,0.1-0.1,0.1-0.1,0c-0.1,0-0.1-0.1-0.1-0.1
	c-0.1-0.2-0.2-0.3-0.4-0.5C6.1,9.8,6,9.6,5.9,9.4c0-0.1,0-0.1,0-0.2c0.2-0.4,0.5-0.8,0.8-1.1c0,0,0.1-0.1,0.1-0.1
	c0.1-0.1,0.1,0,0.1,0c0,0.1,0,0.1,0,0.2c0,0.2,0,0.3,0,0.5c0,0,0,0,0,0.1c0,0,0,0,0.1,0c0.6,0,1.2,0,1.8,0c0.1,0,0.3,0,0.4,0
	c0.1,0,0.2-0.1,0.3-0.2c0.2-0.2,0.2-0.3,0.3-0.6c0-0.1,0-0.2-0.1-0.3c-0.3-0.5-0.5-1-0.8-1.4c-0.3-0.6-0.6-1.1-1-1.7
	c0-0.1,0-0.1,0-0.1c0.2-0.2,0.5-0.3,0.7-0.4c0,0,0,0,0.1,0c0.1,0,0.1,0,0.1,0C9,4.4,9.1,4.6,9.3,4.8c0.4,0.8,0.9,1.6,1.3,2.4
	c0.2,0.2,0.2,0.5,0.2,0.8c0,0.7-0.3,1.2-0.9,1.6C9.7,9.7,9.4,9.8,9.2,9.8c-0.4,0-0.7,0-1.1,0c-0.4,0-0.7,0-1.1,0
	C6.9,9.8,6.9,9.8,6.9,9.8z"/>
<path class="st1" d="M5.4,8.8c0,0.3,0,0.7,0,1c0,0,0,0-0.1,0c-1.1,0-2.2,0-3.2,0c-0.2,0-0.5,0-0.8-0.1C0.6,9.6,0.1,8.9,0,8.3
	c0-0.2,0-0.5,0-0.7c0-0.1,0-0.1,0.1-0.2C0.3,7,0.6,6.5,0.9,6.1C1,5.9,1.1,5.6,1.2,5.4c0,0,0-0.1,0-0.1C1.1,5.2,1,5.1,0.9,5.1
	C0.8,5.1,0.7,5,0.7,5c-0.1-0.1-0.1-0.1,0-0.1c0.2,0,0.3-0.1,0.4-0.1c0.3,0,0.6-0.1,0.9-0.1c0,0,0.1,0,0.1,0c0.1,0,0.1,0,0.1,0.1
	C2.4,4.8,2.4,5,2.5,5.1C2.6,5.4,2.7,5.7,2.8,6c0,0.1,0,0.1,0.1,0.2c0,0.1,0,0.1-0.1,0.1C2.7,6.2,2.6,6.1,2.5,6.1
	C2.4,6,2.3,6,2.2,5.9c0,0,0,0-0.1,0c-0.3,0.6-0.7,1.2-1,1.7C1,7.8,1,8,1,8.1c0,0.2,0.2,0.4,0.4,0.6c0.1,0.1,0.2,0.1,0.3,0.1
	C2.9,8.8,4.1,8.8,5.4,8.8C5.3,8.8,5.3,8.8,5.4,8.8z"/>
<path class="st1" d="M5.4,0c0.1,0,0.2,0,0.4,0C6,0.1,6.3,0.2,6.5,0.3c0.2,0.1,0.3,0.3,0.4,0.4c0.2,0.4,0.4,0.7,0.6,1.1
	c0.2,0.2,0.3,0.5,0.4,0.8C8,2.6,8,2.7,8,2.7c0.1-0.1,0.2-0.2,0.4-0.2c0.1,0,0.2-0.1,0.2-0.1c0,0,0.1,0,0.1,0c0,0,0,0.1,0,0.1
	C8.5,2.8,8.4,3.1,8.3,3.4C8.2,3.5,8.1,3.7,8.1,3.9C8,3.9,8,4,7.9,4c-0.2,0-0.4,0-0.6-0.1C7,3.9,6.8,3.8,6.5,3.7c0,0,0,0,0,0
	c0,0-0.1,0-0.1-0.1c0,0,0-0.1,0.1-0.1c0.2-0.1,0.3-0.2,0.5-0.3c0,0,0,0,0.1,0v0C6.7,2.7,6.4,2.1,6.1,1.6C6,1.5,6,1.4,5.9,1.3
	C5.8,1.2,5.7,1.1,5.5,1.1c-0.2,0-0.3,0-0.4,0C5,1.1,4.9,1.2,4.8,1.3C4.6,1.6,4.4,1.9,4.3,2.2C3.8,2.9,3.4,3.6,3,4.4
	c0,0,0,0.1-0.1,0.1c0,0-0.1,0-0.1-0.1C2.6,4.3,2.4,4.1,2.1,4C2,3.9,2,3.9,2.1,3.8c0.3-0.5,0.6-1,0.9-1.5c0.3-0.6,0.7-1.1,1-1.7
	c0.1-0.2,0.3-0.3,0.6-0.5C4.8,0.1,5,0,5.2,0c0,0,0,0,0.1,0C5.4,0,5.4,0,5.4,0z"/>
</svg>
