<?xml version="1.0" encoding="utf-8"?>
<!-- Generator: Adobe Illustrator 21.0.0, SVG Export Plug-In . SVG Version: 6.00 Build 0)  -->
<svg version="1.1" id="图层_1" xmlns="http://www.w3.org/2000/svg" xmlns:xlink="http://www.w3.org/1999/xlink" x="0px" y="0px"
	 viewBox="0 0 23 16.1" style="enable-background:new 0 0 23 16.1;" xml:space="preserve">
<style type="text/css">
	.st0{fill:#D5E9FA;}
	.st1{fill:#2C3C59;}
	.st2{fill:none;stroke:#2C3C59;stroke-width:1.0742;stroke-linecap:round;stroke-linejoin:round;stroke-miterlimit:10;}
</style>
<path class="st0" d="M22.1,12.6H3c-0.5,0-0.9-0.4-0.9-0.9V2.8c0-0.5,0.4-0.9,0.9-0.9h19.1c0.5,0,0.9,0.4,0.9,0.9v8.9
	C23.1,12.2,22.7,12.6,22.1,12.6z"/>
<path class="st1" d="M21.7,10.7H0.5V12h21.1V10.7z"/>
<path class="st1" d="M2.7,10.9c0,0.3,0.2,0.5,0.5,0.5c0.3,0,0.5-0.2,0.5-0.5H2.7z M3.7,8.5C3.7,8.2,3.5,8,3.2,8
	C2.9,8,2.7,8.2,2.7,8.5H3.7z M5.3,10.9c0,0.3,0.2,0.5,0.5,0.5s0.5-0.2,0.5-0.5H5.3z M6.4,8.6C6.4,8.3,6.2,8,5.9,8S5.3,8.3,5.3,8.6
	H6.4z M7.9,11c0,0.3,0.2,0.5,0.5,0.5C8.8,11.5,9,11.3,9,11H7.9z M9,8.6C9,8.3,8.8,8,8.5,8C8.2,8,7.9,8.3,7.9,8.6H9z M10.6,11.1
	c0,0.3,0.2,0.5,0.5,0.5c0.3,0,0.5-0.2,0.5-0.5H10.6z M11.6,8.6c0-0.3-0.2-0.5-0.5-0.5c-0.3,0-0.5,0.2-0.5,0.5H11.6z M13.2,11.1
	c0,0.3,0.2,0.5,0.5,0.5c0.3,0,0.5-0.2,0.5-0.5H13.2z M14.3,8.7c0-0.3-0.2-0.5-0.5-0.5c-0.3,0-0.5,0.2-0.5,0.5H14.3z M15.8,11.1
	c0,0.3,0.2,0.5,0.5,0.5c0.3,0,0.5-0.2,0.5-0.5H15.8z M16.9,8.7c0-0.3-0.2-0.5-0.5-0.5c-0.3,0-0.5,0.2-0.5,0.5H16.9z M18.5,11.1
	c0,0.3,0.2,0.5,0.5,0.5c0.3,0,0.5-0.2,0.5-0.5H18.5z M19.5,8.7c0-0.3-0.2-0.5-0.5-0.5c-0.3,0-0.5,0.2-0.5,0.5H19.5z M3.7,10.9V8.5
	H2.7v2.4H3.7z M6.4,10.9V8.6H5.3v2.4H6.4z M9,11V8.6H7.9V11H9z M11.6,11.1V8.6h-1.1v2.4H11.6z M14.3,11.1V8.7h-1.1v2.4H14.3z
	 M16.9,11.1V8.7h-1.1v2.4H16.9z M19.5,11.1V8.7h-1.1v2.4H19.5z"/>
<path class="st2" d="M0.5,15.4V1c0-0.3,0.2-0.4,0.4-0.4h20.4c0.2,0,0.4,0.2,0.4,0.4v14.4"/>
<path class="st1" d="M7.7,14.4c0,0.3-0.3,0.6-0.6,0.6v1.1c0.9,0,1.7-0.8,1.7-1.7H7.7z M7,15.1c-0.3,0-0.6-0.3-0.6-0.6H5.3
	c0,0.9,0.8,1.7,1.7,1.7V15.1z M6.4,14.4c0-0.3,0.3-0.6,0.6-0.6v-1.1c-0.9,0-1.7,0.8-1.7,1.7H6.4z M7,13.8c0.3,0,0.6,0.3,0.6,0.6h1.1
	c0-0.9-0.8-1.7-1.7-1.7V13.8z M3.8,14.4c0,0.3-0.3,0.6-0.6,0.6v1.1c0.9,0,1.7-0.8,1.7-1.7H3.8z M3.2,15.1c-0.3,0-0.6-0.3-0.6-0.6
	H1.5c0,0.9,0.8,1.7,1.7,1.7V15.1z M2.6,14.4c0-0.3,0.3-0.6,0.6-0.6v-1.1c-0.9,0-1.7,0.8-1.7,1.7H2.6z M3.2,13.8
	c0.3,0,0.6,0.3,0.6,0.6h1.1c0-0.9-0.8-1.7-1.7-1.7V13.8z"/>
</svg>
