<svg width="25" height="25" viewBox="0 0 25 25" fill="none" xmlns="http://www.w3.org/2000/svg">
<path d="M5.52637 3.87305H15.3614L21.1151 8.11681V23.0363H5.52637V3.87305Z" fill="#D5E9FA"/>
<path d="M13.3351 2.03711L3.5 2.03711V21.2004H19.0888V6.28087M13.3351 2.03711L19.0888 6.28087M13.3351 2.03711V6.28087H19.0888" stroke="#2C3C59" stroke-miterlimit="10"/>
<path d="M7.07422 12.5117H15.7622" stroke="#2C3C59" stroke-miterlimit="10" stroke-linecap="round" stroke-linejoin="round"/>
<path d="M7.07422 9.46484H15.7622" stroke="#2C3C59" stroke-miterlimit="10" stroke-linecap="round" stroke-linejoin="round"/>
<path d="M7.07422 15.8379H15.7622" stroke="#2C3C59" stroke-miterlimit="10" stroke-linecap="round" stroke-linejoin="round"/>
<path d="M19.3729 18.5584C21.4704 18.5584 23.1707 16.8581 23.1707 14.7606C23.1707 12.6632 21.4704 10.9629 19.3729 10.9629C17.2755 10.9629 15.5752 12.6632 15.5752 14.7606C15.5752 16.8581 17.2755 18.5584 19.3729 18.5584Z" fill="#D5E9FA" stroke="#2C3C59" stroke-miterlimit="10"/>
<path d="M19.3727 13.512L19.3727 16.0075" stroke="#2C3C59" stroke-miterlimit="10" stroke-linecap="round" stroke-linejoin="round"/>
<path d="M20.6205 14.7598L18.125 14.7598" stroke="#2C3C59" stroke-miterlimit="10" stroke-linecap="round" stroke-linejoin="round"/>
</svg>
