<svg width="25" height="25" viewBox="0 0 25 25" fill="none" xmlns="http://www.w3.org/2000/svg">
<ellipse cx="12.1631" cy="13.2686" rx="10.1221" ry="10.1221" stroke="#2C3C59"/>
<path d="M18.7935 9.40743C20.9259 9.40743 22.6545 7.67882 22.6545 5.54648C22.6545 3.41415 20.9259 1.68555 18.7935 1.68555C16.6612 1.68555 14.9326 3.41415 14.9326 5.54648C14.9326 7.67882 16.6612 9.40743 18.7935 9.40743Z" fill="#D5E9FA" stroke="#2C3C59" stroke-width="0.75" stroke-miterlimit="10"/>
<path d="M20.0613 5.5703L17.5254 5.52032" stroke="#2C3C59" stroke-width="0.639146" stroke-miterlimit="10" stroke-linecap="round" stroke-linejoin="round"/>
<path d="M18.7684 6.81327L18.8184 4.27734" stroke="#2C3C59" stroke-width="0.639146" stroke-miterlimit="10" stroke-linecap="round" stroke-linejoin="round"/>
<path d="M13.0433 15.0732C14.3078 15.0732 15.3328 14.0803 15.3328 12.8555C15.3328 12.8555 14.3078 12.8555 13.0433 12.8555C11.7789 12.8555 10.7538 12.8555 10.7538 12.8555C10.7538 14.0803 11.7789 15.0732 13.0433 15.0732Z" fill="#D5E9FA"/>
<path d="M9.01465 19.7646C9.01465 19.7646 9.91724 16.2887 12.9332 16.2887C15.9492 16.2887 16.5656 19.7646 16.5656 19.7646H9.01465Z" fill="#D5E9FA"/>
<path d="M14.7965 12.3867C14.7965 12.2102 14.6535 12.0671 14.477 12.0671C14.3005 12.0671 14.1574 12.2102 14.1574 12.3867H14.7965ZM10.0625 12.3867C10.0625 12.2102 9.91943 12.0671 9.74293 12.0671C9.56644 12.0671 9.42336 12.2102 9.42336 12.3867H10.0625ZM7.4568 18.9169C7.40064 19.0843 7.49075 19.2654 7.65807 19.3216C7.82539 19.3778 8.00656 19.2876 8.06273 19.1203L7.4568 18.9169ZM15.9777 19.0884C16.0163 19.2607 16.1871 19.369 16.3594 19.3305C16.5316 19.2919 16.64 19.1211 16.6014 18.9488L15.9777 19.0884ZM14.1574 12.3867C14.1574 13.5175 13.2407 14.4342 12.1099 14.4342V15.0733C13.5937 15.0733 14.7965 13.8705 14.7965 12.3867H14.1574ZM12.1099 14.4342C10.9792 14.4342 10.0625 13.5175 10.0625 12.3867H9.42336C9.42336 13.8705 10.6262 15.0733 12.1099 15.0733V14.4342ZM7.75977 19.0186C8.06273 19.1203 8.06268 19.1205 8.06264 19.1206C8.06263 19.1206 8.06259 19.1207 8.06257 19.1208C8.06254 19.1209 8.06252 19.1209 8.06251 19.121C8.0625 19.121 8.06255 19.1208 8.06266 19.1205C8.06289 19.1199 8.06336 19.1185 8.06409 19.1164C8.06554 19.1123 8.068 19.1055 8.07152 19.0961C8.07855 19.0772 8.08978 19.0481 8.10552 19.0102C8.13701 18.9345 8.18644 18.8239 8.25629 18.6901C8.39631 18.4219 8.61657 18.0641 8.93616 17.7071C9.5711 16.9977 10.5982 16.2888 12.1953 16.2888V15.6497C10.3804 15.6497 9.18975 16.4654 8.45993 17.2808C8.09713 17.6861 7.84825 18.0906 7.68973 18.3942C7.61031 18.5463 7.55311 18.674 7.51531 18.765C7.49639 18.8105 7.4823 18.8469 7.47267 18.8727C7.46785 18.8856 7.46415 18.8959 7.46152 18.9033C7.46021 18.907 7.45916 18.91 7.45838 18.9123C7.45799 18.9135 7.45766 18.9144 7.4574 18.9152C7.45727 18.9156 7.45715 18.9159 7.45705 18.9162C7.457 18.9163 7.45694 18.9165 7.45692 18.9166C7.45686 18.9168 7.4568 18.9169 7.75977 19.0186ZM12.1953 16.2888C13.7888 16.2888 14.7245 16.9941 15.2703 17.691C15.5466 18.0437 15.7249 18.3976 15.834 18.6635C15.8884 18.796 15.925 18.9055 15.9478 18.9805C15.9592 19.0179 15.967 19.0466 15.9719 19.0651C15.9743 19.0744 15.9759 19.0811 15.9769 19.085C15.9774 19.087 15.9777 19.0883 15.9778 19.0888C15.9779 19.0891 15.9779 19.0892 15.9779 19.0892C15.9779 19.0891 15.9779 19.0891 15.9778 19.0889C15.9778 19.0889 15.9778 19.0887 15.9778 19.0887C15.9777 19.0886 15.9777 19.0884 16.2896 19.0186C16.6014 18.9488 16.6014 18.9487 16.6013 18.9485C16.6013 18.9484 16.6013 18.9482 16.6013 18.9481C16.6012 18.9477 16.6011 18.9474 16.601 18.947C16.6008 18.9462 16.6006 18.9452 16.6003 18.944C16.5998 18.9417 16.599 18.9386 16.5981 18.9348C16.5963 18.9272 16.5937 18.9167 16.5903 18.9037C16.5835 18.8775 16.5733 18.8407 16.5594 18.7947C16.5315 18.7029 16.4882 18.5742 16.4253 18.4209C16.2998 18.1149 16.0943 17.7065 15.7735 17.2969C15.1251 16.4691 14.0136 15.6497 12.1953 15.6497V16.2888Z" fill="#2C3C59"/>
<path d="M13.1382 8.68555C13.3808 8.82826 13.4593 9.01378 13.3736 9.30634C13.2737 9.64884 13.2381 10.0056 13.2024 10.3553C13.1953 10.4552 13.2951 10.5622 13.3451 10.6692C13.4236 10.5836 13.552 10.5122 13.5734 10.4195C13.6662 10.0413 13.7233 9.65598 13.8018 9.27066C14.5439 9.45618 15.0862 10.2768 15.3644 11.6396C15.4429 11.6611 15.5714 11.6611 15.6142 11.7181C15.7069 11.8394 15.5105 11.6787 15.4891 11.8072C15.4677 11.9285 15.2965 12.0426 15.1752 12.1354C15.1181 12.1782 15.0111 12.1497 14.9326 12.1497C13.1416 12.1497 11.3434 12.1497 9.5524 12.1425C9.39542 12.1425 9.20276 12.1068 9.09572 12.0141C8.81744 11.7715 9.3064 11.7824 9.79161 11.6111C9.8701 10.5693 10.3339 9.75587 11.3186 9.1993C11.3971 9.62743 11.4542 10.0056 11.5469 10.3767C11.5755 10.4837 11.7039 10.5693 11.7824 10.6621C11.8324 10.5479 11.9323 10.4266 11.918 10.3124C11.8895 9.96994 11.8466 9.62743 11.7539 9.2992C11.6754 9.01378 11.7467 8.82826 11.9965 8.68555C12.3747 8.68555 12.76 8.68555 13.1382 8.68555Z" fill="#D5E9FA"/>
<path d="M12.7504 8.36133C12.993 8.50404 13.0715 8.68956 12.9859 8.98212C12.886 9.32462 12.8503 9.6814 12.8146 10.031C12.8075 10.1309 12.9074 10.238 12.9573 10.345C13.0358 10.2594 13.1642 10.188 13.1857 10.0953C13.2784 9.71707 13.3355 9.33176 13.414 8.94644C14.1561 9.13196 14.6984 9.95255 14.9767 11.3154C15.0552 11.3368 15.1836 11.3368 15.2264 11.3939C15.3192 11.5152 15.4476 11.6793 15.4262 11.8078C15.4048 11.9291 15.2335 12.0432 15.1122 12.136C15.0552 12.1788 14.9481 12.1503 14.8696 12.1503C13.0786 12.1503 11.2805 12.1503 9.48946 12.1431C9.33248 12.1431 9.13982 12.1075 9.03279 12.0147C8.75451 11.7721 8.91862 11.4581 9.40384 11.2869C9.48233 10.2451 9.94613 9.43165 10.9308 8.87508C11.0093 9.30322 11.0664 9.6814 11.1592 10.0524C11.1877 10.1595 11.3162 10.2451 11.3946 10.3379C11.4446 10.2237 11.5445 10.1024 11.5302 9.98822C11.5017 9.64572 11.4589 9.30322 11.3661 8.97498C11.2876 8.68956 11.359 8.50404 11.6087 8.36133C11.9869 8.36133 12.3722 8.36133 12.7504 8.36133Z" stroke="#2C3C59" stroke-width="0.532622"/>
</svg>
