<svg width="25" height="25" viewBox="0 0 25 25" fill="none" xmlns="http://www.w3.org/2000/svg">
<path d="M23.7713 14.8462L12.084 14.7985C12.0176 14.7985 11.9512 14.703 11.9512 14.6075L11.9844 12.984C11.9844 12.8885 11.918 12.793 11.8516 12.793H3.88292C3.75011 12.793 3.6837 13.0317 3.78331 13.1272L7.40239 19.0483L8.43168 20.7196C8.46489 20.7673 8.49808 20.7673 8.53129 20.7673H22.742C22.7752 20.7673 22.8084 20.7196 22.8416 20.6718L23.9041 19.0005C23.9373 18.9528 23.9373 18.905 23.9373 18.8573V14.9895C23.9041 14.9417 23.8377 14.8462 23.7713 14.8462Z" fill="#D5E9FA"/>
<path d="M22.4354 13.0491L10.748 13.0003C10.6816 13.0003 10.6152 12.9028 10.6152 12.8052L10.6484 11.1463C10.6484 11.0487 10.582 10.9512 10.5156 10.9512H2.54698C2.41417 10.9512 2.34777 11.1951 2.44737 11.2927L6.06647 17.3426L7.09575 19.0503C7.12895 19.099 7.16215 19.099 7.19535 19.099H21.4061C21.4393 19.099 21.4725 19.0503 21.5057 19.0015L22.5682 17.2938C22.6014 17.245 22.6014 17.1962 22.6014 17.1475V13.2443C22.5682 13.1467 22.5018 13.0491 22.4354 13.0491Z" stroke="#2C3C59" stroke-miterlimit="10" stroke-linecap="round" stroke-linejoin="round"/>
<path d="M6.06641 17.3418L7.09568 19.0494C7.12888 19.0982 7.16208 19.0982 7.19528 19.0982H21.406C21.4392 19.0982 21.4724 19.0494 21.5056 19.0006L22.5681 17.293" fill="#2C3C59"/>
<path d="M7.46093 7.82862V6.31614C7.46093 6.12098 7.39451 5.97461 7.36131 5.97461H5.73439C5.66799 5.97461 5.63479 6.12098 5.63479 6.31614V7.82862H7.46093Z" fill="#2C3C59"/>
<path d="M8.32416 11.0488H4.73828C4.53906 11.0488 4.40625 10.8536 4.40625 10.5609V7.97503C4.40625 7.68229 4.53906 7.48713 4.73828 7.48713H8.32416C8.52337 7.48713 8.65619 7.68229 8.65619 7.97503V10.5609C8.65619 10.8536 8.49017 11.0488 8.32416 11.0488Z" fill="#2C3C59"/>
<path d="M7.82614 8.16992H5.20312V9.29209H7.82614V8.16992Z" fill="#D5E9FA"/>
</svg>
