<svg width="25" height="25" viewBox="0 0 25 25" fill="none" xmlns="http://www.w3.org/2000/svg">
<path d="M5.94284 6.17283C7.29199 6.17283 8.3857 5.07912 8.3857 3.72997C8.3857 2.38082 7.29199 1.28711 5.94284 1.28711C4.59368 1.28711 3.5 2.38082 3.5 3.72997C3.5 5.07912 4.59368 6.17283 5.94284 6.17283Z" fill="#2C3C59"/>
<path d="M6.5854 3.04492L5.25684 4.3735" stroke="white" stroke-width="0.5" stroke-miterlimit="10" stroke-linecap="round" stroke-linejoin="round"/>
<path d="M6.5854 4.3735L5.25684 3.04492" stroke="white" stroke-width="0.5" stroke-miterlimit="10" stroke-linecap="round" stroke-linejoin="round"/>
<path d="M6.32812 11.1162V21.0286L13.0006 23.7454L20.2571 20.4608V11.4805L13.0006 8.41211L6.32812 11.1162Z" fill="#D5E9FA"/>
<path d="M4.50684 9.75117V18.5797L12.7783 21.8797L20.4926 18.5797V9.75117L12.7783 6.45117L4.50684 9.75117Z" stroke="#2C3C59" stroke-miterlimit="10" stroke-linecap="round" stroke-linejoin="round"/>
<path d="M16.6357 8.12305L8.36426 11.423V14.723" stroke="#2C3C59" stroke-miterlimit="10" stroke-linecap="round" stroke-linejoin="round"/>
<path d="M12.7783 21.8805V13.052L20.4926 9.75195L12.7783 13.052L4.50684 9.75195" stroke="#2C3C59" stroke-miterlimit="10" stroke-linecap="round" stroke-linejoin="round"/>
</svg>
