<svg width="25" height="25" viewBox="0 0 25 25" fill="none" xmlns="http://www.w3.org/2000/svg">
<rect x="3.60352" y="7.14062" width="18.3438" height="14.2395" fill="#D5E9FA"/>
<rect x="2.17969" y="5.37891" width="18.3438" height="14.2395" stroke="#2C3C59"/>
<rect x="2.17969" y="5.37891" width="18.3438" height="2.97673" fill="#2C3C59"/>
<rect x="5.28906" y="2.40234" width="1.99353" height="4.26867" rx="0.996763" fill="#2C3C59"/>
<rect x="15.4209" y="2.40234" width="1.99352" height="4.26867" rx="0.996762" fill="#2C3C59"/>
<rect x="4.80176" y="10.2051" width="2.84789" height="2.84789" fill="#2C3C59"/>
<rect x="9.92773" y="10.2051" width="2.84789" height="2.84789" fill="#2C3C59"/>
<rect x="15.0537" y="10.2051" width="2.84789" height="2.84789" fill="#2C3C59"/>
<rect x="4.80176" y="14.9004" width="2.84789" height="2.84789" fill="#2C3C59"/>
<rect x="9.92773" y="14.9004" width="2.84789" height="2.84789" fill="#2C3C59"/>
<path d="M18.7003 22.6721C20.9758 22.6721 22.8205 20.8274 22.8205 18.5519C22.8205 16.2763 20.9758 14.4316 18.7003 14.4316C16.4248 14.4316 14.5801 16.2763 14.5801 18.5519C14.5801 20.8274 16.4248 22.6721 18.7003 22.6721Z" fill="#D5E9FA" stroke="#2C3C59" stroke-miterlimit="10"/>
<path d="M18.2724 19.3005C18.4864 19.033 18.647 18.8189 18.8075 18.6049C19.1821 18.1233 19.5031 17.6952 19.8777 17.2137C19.9847 17.1066 20.0917 17.1066 20.1987 17.1601C20.2523 17.2137 20.3593 17.2672 20.4128 17.3207C20.5198 17.4277 20.5198 17.5882 20.4663 17.6952C20.0917 18.1768 19.7707 18.6049 19.3961 19.0865C19.075 19.5146 18.754 19.9426 18.3794 20.3707C18.3794 20.3707 18.3794 20.4242 18.3259 20.4242C18.2724 20.4777 18.2189 20.4777 18.1654 20.4242C17.8443 20.1032 17.5233 19.7821 17.1487 19.4611C17.0952 19.4075 16.9882 19.3005 16.9347 19.247C16.8812 19.1935 16.8812 19.14 16.9347 19.0865C17.0417 18.9795 17.1487 18.8725 17.2022 18.7654C17.3092 18.6584 17.4163 18.6584 17.5233 18.7654C17.7373 18.926 17.8978 19.14 18.1119 19.3005C18.2189 19.247 18.2189 19.3005 18.2724 19.3005Z" fill="#2C3C59"/>
</svg>
