<svg width="25" height="25" viewBox="0 0 25 25" fill="none" xmlns="http://www.w3.org/2000/svg">
<path d="M11.2973 10.75H14.536C14.7159 10.75 14.8733 10.9074 14.8733 11.0874V14.326C14.8733 14.506 14.7159 14.6634 14.536 14.6634H11.2973C11.1174 14.6634 10.96 14.506 10.96 14.326V11.0874C10.96 10.9074 11.1174 10.75 11.2973 10.75Z" fill="#D5E9FA"/>
<path d="M14.2877 14.4474H10.4643C10.2844 14.4474 10.127 14.2899 10.127 14.11V10.2866C10.127 10.1067 10.2844 9.94922 10.4643 9.94922H14.2877C14.4677 9.94922 14.6251 10.1067 14.6251 10.2866V14.11C14.6251 14.3124 14.4677 14.4474 14.2877 14.4474Z" stroke="#2C3C59" stroke-width="0.561183" stroke-miterlimit="10"/>
<path d="M12.5245 11.636H12.2274C12.0789 11.636 11.9551 11.5236 11.9551 11.3886V10.1966C11.9551 10.0617 12.0789 9.94922 12.2274 9.94922H12.5245C12.6731 9.94922 12.7969 10.0617 12.7969 10.1966V11.3886C12.7969 11.5236 12.6731 11.636 12.5245 11.636Z" fill="#2C3C59"/>
<path d="M5.36275 10.75H8.60141C8.78134 10.75 8.93878 10.9074 8.93878 11.0874V14.326C8.93878 14.506 8.78134 14.6634 8.60141 14.6634H5.36275C5.18283 14.6634 5.02539 14.506 5.02539 14.326V11.0874C5.02539 10.9074 5.18283 10.75 5.36275 10.75Z" fill="#D5E9FA"/>
<path d="M8.35317 14.4474H4.52974C4.34982 14.4474 4.19238 14.2899 4.19238 14.11V10.2866C4.19238 10.1067 4.34982 9.94922 4.52974 9.94922H8.35317C8.5331 9.94922 8.69054 10.1067 8.69054 10.2866V14.11C8.69054 14.3124 8.5331 14.4474 8.35317 14.4474Z" stroke="#2C3C59" stroke-width="0.561183" stroke-miterlimit="10"/>
<path d="M6.58994 11.636H6.29284C6.14429 11.636 6.02051 11.5236 6.02051 11.3886V10.1966C6.02051 10.0617 6.14429 9.94922 6.29284 9.94922H6.58994C6.73848 9.94922 6.86228 10.0617 6.86228 10.1966V11.3886C6.86228 11.5236 6.73848 11.636 6.58994 11.636Z" fill="#2C3C59"/>
<path d="M17.2319 10.75H20.4706C20.6505 10.75 20.8079 10.9074 20.8079 11.0874V14.326C20.8079 14.506 20.6505 14.6634 20.4706 14.6634H17.2319C17.052 14.6634 16.8945 14.506 16.8945 14.326V11.0874C16.8945 10.9074 17.052 10.75 17.2319 10.75Z" fill="#D5E9FA"/>
<path d="M20.2223 14.4474H16.3989C16.219 14.4474 16.0615 14.2899 16.0615 14.11V10.2866C16.0615 10.1067 16.219 9.94922 16.3989 9.94922H20.2223C20.4022 9.94922 20.5597 10.1067 20.5597 10.2866V14.11C20.5597 14.3124 20.4022 14.4474 20.2223 14.4474Z" stroke="#2C3C59" stroke-width="0.561183" stroke-miterlimit="10"/>
<path d="M18.4591 11.636H18.162C18.0134 11.636 17.8896 11.5236 17.8896 11.3886V10.1966C17.8896 10.0617 18.0134 9.94922 18.162 9.94922H18.4591C18.6076 9.94922 18.7314 10.0617 18.7314 10.1966V11.3886C18.7314 11.5236 18.6076 11.636 18.4591 11.636Z" fill="#2C3C59"/>
<path d="M6.37789 17.7107H1.51563V19.3433H6.37789V17.7107Z" fill="#2C3C59"/>
<path d="M12.0919 17.7462H7.22966V19.3433H12.0919V17.7462Z" fill="#2C3C59"/>
<path d="M17.806 17.7462H12.9437V19.3433H17.806V17.7462Z" fill="#2C3C59"/>
<path d="M23.4846 17.7462H18.6223V19.3433H23.4846V17.7462Z" fill="#2C3C59"/>
<path d="M23.4845 15.8652H1.51562V17.2139H23.4845V15.8652Z" fill="#2C3C59"/>
</svg>
