<svg width="25" height="25" viewBox="0 0 25 25" fill="none" xmlns="http://www.w3.org/2000/svg">
<path d="M8.39253 15.8672H12.8827C13.1321 15.8672 13.3504 16.0593 13.3504 16.2788V20.2302C13.3504 20.4497 13.1321 20.6418 12.8827 20.6418H8.39253C8.14308 20.6418 7.9248 20.4497 7.9248 20.2302V16.2788C7.9248 16.0593 8.14308 15.8672 8.39253 15.8672Z" fill="#D5E9FA"/>
<path d="M14.2162 16.7695H17.9141C18.1195 16.7695 18.2993 16.9278 18.2993 17.1087V20.3652C18.2993 20.5462 18.1195 20.7045 17.9141 20.7045H14.2162C14.0108 20.7045 13.8311 20.5462 13.8311 20.3652V17.1087C13.8311 16.9278 14.0108 16.7695 14.2162 16.7695Z" fill="#D5E9FA"/>
<path fill-rule="evenodd" clip-rule="evenodd" d="M13.232 16.3814C13.232 16.3005 13.3211 16.1988 13.4455 16.1988H15.2203C15.2022 16.2329 15.1919 16.2711 15.1919 16.3111V17.563C15.1919 17.7047 15.3203 17.8228 15.4744 17.8228H15.7826C15.9366 17.8228 16.0651 17.7047 16.0651 17.563V16.3111C16.0651 16.2711 16.0548 16.2329 16.0367 16.1988H17.8111C17.9355 16.1988 18.0246 16.3005 18.0246 16.3814V20.3969C18.0246 20.4944 17.9433 20.5796 17.8111 20.5796H13.4455C13.3211 20.5796 13.232 20.4779 13.232 20.3969V16.3814ZM13.4455 15.8555C13.1591 15.8555 12.8887 16.0844 12.8887 16.3814V20.3969C12.8887 20.6939 13.1591 20.9229 13.4455 20.9229H17.8111C18.0896 20.9229 18.3679 20.7246 18.3679 20.3969V16.3814C18.3679 16.0844 18.0975 15.8555 17.8111 15.8555H13.4455Z" fill="#2C3C59"/>
<path d="M8.39253 10.3555H12.8827C13.1321 10.3555 13.3504 10.5476 13.3504 10.7671V14.7185C13.3504 14.938 13.1321 15.1301 12.8827 15.1301H8.39253C8.14308 15.1301 7.9248 14.938 7.9248 14.7185V10.7671C7.9248 10.5476 8.14308 10.3555 8.39253 10.3555Z" fill="#D5E9FA"/>
<path d="M14.4173 13.1406H17.8894C18.0823 13.1406 18.2511 13.2527 18.2511 13.3807V15.6853C18.2511 15.8133 18.0823 15.9253 17.8894 15.9253H14.4173C14.2244 15.9253 14.0557 15.8133 14.0557 15.6853V13.3807C14.0557 13.2527 14.2244 13.1406 14.4173 13.1406Z" fill="#D5E9FA"/>
<mask id="path-6-inside-1" fill="white">
<path fill-rule="evenodd" clip-rule="evenodd" d="M13.232 15.5656V12.55C13.232 12.55 13.232 12.5499 13.2321 12.5498C13.2326 12.5476 13.2371 12.5292 13.2735 12.5041C13.3139 12.4762 13.3757 12.4547 13.4455 12.4547H15.1986C15.1942 12.4681 15.1919 12.4821 15.1919 12.4963V13.437C15.1919 13.5435 15.3203 13.6322 15.4744 13.6322H15.7825C15.9366 13.6322 16.065 13.5435 16.065 13.437V12.4963C16.065 12.4821 16.0627 12.4681 16.0584 12.4547H17.8111C17.8809 12.4547 17.9427 12.4762 17.9831 12.5041C18.0195 12.5292 18.024 12.5476 18.0245 12.5498C18.0246 12.5499 18.0246 12.55 18.0246 12.55L18.0246 15.5664C18.0246 15.5738 18.0223 15.5922 17.9862 15.6161C17.9484 15.641 17.8864 15.6609 17.8111 15.6609H13.4455C13.3757 15.6609 13.3139 15.6394 13.2735 15.6115C13.2371 15.5864 13.2326 15.568 13.2321 15.5658C13.232 15.5657 13.232 15.5656 13.232 15.5656ZM13.4455 12.1113C13.3099 12.1113 13.1792 12.1519 13.0783 12.2216C12.9802 12.2894 12.8887 12.4022 12.8887 12.5492V15.5664C12.8887 15.7134 12.9802 15.8261 13.0783 15.8939C13.1792 15.9637 13.3099 16.0043 13.4455 16.0043H17.8111C17.9411 16.0043 18.0717 15.971 18.1752 15.9027C18.2803 15.8334 18.3679 15.7186 18.3679 15.5664V12.5492C18.3679 12.4022 18.2764 12.2894 18.1783 12.2216C18.0774 12.1519 17.9467 12.1113 17.8111 12.1113H13.4455Z"/>
</mask>
<path fill-rule="evenodd" clip-rule="evenodd" d="M13.232 15.5656V12.55C13.232 12.55 13.232 12.5499 13.2321 12.5498C13.2326 12.5476 13.2371 12.5292 13.2735 12.5041C13.3139 12.4762 13.3757 12.4547 13.4455 12.4547H15.1986C15.1942 12.4681 15.1919 12.4821 15.1919 12.4963V13.437C15.1919 13.5435 15.3203 13.6322 15.4744 13.6322H15.7825C15.9366 13.6322 16.065 13.5435 16.065 13.437V12.4963C16.065 12.4821 16.0627 12.4681 16.0584 12.4547H17.8111C17.8809 12.4547 17.9427 12.4762 17.9831 12.5041C18.0195 12.5292 18.024 12.5476 18.0245 12.5498C18.0246 12.5499 18.0246 12.55 18.0246 12.55L18.0246 15.5664C18.0246 15.5738 18.0223 15.5922 17.9862 15.6161C17.9484 15.641 17.8864 15.6609 17.8111 15.6609H13.4455C13.3757 15.6609 13.3139 15.6394 13.2735 15.6115C13.2371 15.5864 13.2326 15.568 13.2321 15.5658C13.232 15.5657 13.232 15.5656 13.232 15.5656ZM13.4455 12.1113C13.3099 12.1113 13.1792 12.1519 13.0783 12.2216C12.9802 12.2894 12.8887 12.4022 12.8887 12.5492V15.5664C12.8887 15.7134 12.9802 15.8261 13.0783 15.8939C13.1792 15.9637 13.3099 16.0043 13.4455 16.0043H17.8111C17.9411 16.0043 18.0717 15.971 18.1752 15.9027C18.2803 15.8334 18.3679 15.7186 18.3679 15.5664V12.5492C18.3679 12.4022 18.2764 12.2894 18.1783 12.2216C18.0774 12.1519 17.9467 12.1113 17.8111 12.1113H13.4455Z" fill="#2C3C59"/>
<path d="M13.232 12.55L13.0543 12.3741L12.982 12.4472V12.55H13.232ZM13.232 15.5656H12.982V15.6687L13.0546 15.7418L13.232 15.5656ZM13.2321 12.5498L12.9893 12.49L12.9893 12.49L13.2321 12.5498ZM13.2735 12.5041L13.1314 12.2984L13.1314 12.2984L13.2735 12.5041ZM15.1986 12.4547L15.4364 12.5318L15.5424 12.2047H15.1986V12.4547ZM16.0584 12.4547V12.2047H15.7145L15.8205 12.5318L16.0584 12.4547ZM17.9831 12.5041L18.1252 12.2984V12.2984L17.9831 12.5041ZM18.0245 12.5498L18.2673 12.49L18.2673 12.49L18.0245 12.5498ZM18.0246 12.55L18.2746 12.55V12.2657L17.9927 12.302L18.0246 12.55ZM18.0246 15.5664L17.7746 15.5664V15.5664H18.0246ZM17.9862 15.6161L17.8485 15.4074L17.8485 15.4074L17.9862 15.6161ZM13.2735 15.6115L13.1314 15.8172L13.1314 15.8172L13.2735 15.6115ZM13.2321 15.5658L13.4748 15.5061L13.4748 15.506L13.2321 15.5658ZM13.0783 12.2216L13.2204 12.4273L13.2204 12.4273L13.0783 12.2216ZM13.0783 15.8939L12.9362 16.0996H12.9362L13.0783 15.8939ZM18.1752 15.9027L18.0376 15.694L18.0376 15.694L18.1752 15.9027ZM18.1783 12.2216L18.3204 12.016L18.3204 12.016L18.1783 12.2216ZM12.982 12.55V15.5656H13.482V12.55H12.982ZM12.9893 12.49C12.989 12.4914 12.9898 12.4881 12.9907 12.4848C12.991 12.4835 12.9927 12.4772 12.9954 12.4694C12.9966 12.4657 12.9996 12.457 13.0045 12.4464C13.007 12.4409 13.0112 12.4321 13.0174 12.4218C13.0227 12.4128 13.0346 12.394 13.0543 12.3741L13.4097 12.7259C13.4294 12.7059 13.4413 12.6871 13.4466 12.6782C13.4528 12.6678 13.4571 12.659 13.4595 12.6536C13.4644 12.6429 13.4674 12.6342 13.4687 12.6305C13.4714 12.6227 13.473 12.6164 13.4734 12.615C13.474 12.6128 13.4744 12.611 13.4746 12.6105C13.4747 12.6102 13.4747 12.6099 13.4748 12.6098C13.4748 12.6097 13.4748 12.6096 13.4748 12.6096C13.4748 12.6096 13.4748 12.6095 13.4748 12.6095L12.9893 12.49ZM13.1314 12.2984C13.0503 12.3544 13.006 12.4223 12.9893 12.49L13.4748 12.6095C13.4748 12.6095 13.4746 12.6103 13.4743 12.6114C13.4741 12.6125 13.4737 12.6139 13.4733 12.6154C13.4725 12.6185 13.4715 12.6218 13.4703 12.6253C13.468 12.6324 13.4654 12.6393 13.4624 12.6462C13.4563 12.6599 13.4494 12.6716 13.4425 12.6813C13.4287 12.7005 13.4168 12.7089 13.4156 12.7097L13.1314 12.2984ZM13.4455 12.2047C13.3277 12.2047 13.2157 12.2401 13.1314 12.2984L13.4156 12.7097C13.4123 12.712 13.4139 12.7103 13.421 12.7082C13.4276 12.7062 13.4361 12.7047 13.4455 12.7047V12.2047ZM15.1986 12.2047H13.4455V12.7047H15.1986V12.2047ZM15.4419 12.4963C15.4419 12.5093 15.4398 12.5214 15.4364 12.5318L14.9608 12.3776C14.9487 12.4149 14.9419 12.4548 14.9419 12.4963H15.4419ZM15.4419 13.437V12.4963H14.9419V13.437H15.4419ZM15.4744 13.3822C15.4597 13.3822 15.4467 13.3801 15.4363 13.377C15.4256 13.3738 15.4195 13.3703 15.4175 13.3689C15.4152 13.3673 15.4203 13.3701 15.4269 13.3807C15.434 13.3922 15.4419 13.4117 15.4419 13.437H14.9419C14.9419 13.5976 15.0381 13.7145 15.1332 13.7802C15.2304 13.8474 15.3517 13.8822 15.4744 13.8822V13.3822ZM15.7825 13.3822H15.4744V13.8822H15.7825V13.3822ZM15.815 13.437C15.815 13.4117 15.823 13.3921 15.8301 13.3807C15.8366 13.3701 15.8417 13.3673 15.8394 13.3689C15.8374 13.3703 15.8313 13.3738 15.8207 13.377C15.8102 13.3801 15.7973 13.3822 15.7825 13.3822V13.8822C15.9052 13.8822 16.0265 13.8474 16.1237 13.7802C16.2188 13.7145 16.315 13.5976 16.315 13.437H15.815ZM15.815 12.4963V13.437H16.315V12.4963H15.815ZM15.8205 12.5318C15.8172 12.5214 15.815 12.5093 15.815 12.4963H16.315C16.315 12.4548 16.3083 12.4149 16.2962 12.3776L15.8205 12.5318ZM17.8111 12.2047H16.0584V12.7047H17.8111V12.2047ZM18.1252 12.2984C18.0408 12.2401 17.9288 12.2047 17.8111 12.2047V12.7047C17.8205 12.7047 17.829 12.7062 17.8355 12.7082C17.8426 12.7103 17.8442 12.712 17.8409 12.7097L18.1252 12.2984ZM18.2673 12.49C18.2506 12.4223 18.2063 12.3544 18.1252 12.2984L17.8409 12.7097C17.8398 12.7089 17.8279 12.7005 17.8141 12.6813C17.8072 12.6716 17.8003 12.66 17.7942 12.6462C17.7912 12.6393 17.7885 12.6324 17.7863 12.6253C17.7851 12.6218 17.7841 12.6185 17.7833 12.6154C17.7829 12.6139 17.7825 12.6126 17.7822 12.6114C17.782 12.6104 17.7818 12.6095 17.7818 12.6096L18.2673 12.49ZM17.9927 12.302C18.0909 12.2894 18.1595 12.3365 18.1866 12.3596C18.2146 12.3834 18.2305 12.4077 18.2366 12.4175C18.2498 12.4386 18.2567 12.457 18.2582 12.4611C18.2628 12.473 18.2654 12.4829 18.2656 12.4837C18.2667 12.4877 18.2677 12.492 18.2673 12.49L17.7818 12.6095C17.7813 12.6077 17.7824 12.612 17.7835 12.6162C17.7837 12.617 17.7863 12.6269 17.7909 12.6388C17.7924 12.6429 17.7993 12.6613 17.8126 12.6825C17.8187 12.6922 17.8346 12.7166 17.8626 12.7404C17.8896 12.7634 17.9582 12.8106 18.0565 12.7979L17.9927 12.302ZM18.2746 15.5664L18.2746 12.55L17.7746 12.55L17.7746 15.5664L18.2746 15.5664ZM18.1238 15.8248C18.1635 15.7986 18.204 15.7628 18.2336 15.7132C18.2665 15.6582 18.2746 15.6052 18.2746 15.5664H17.7746C17.7746 15.5542 17.7756 15.5357 17.7809 15.5141C17.7861 15.4929 17.7943 15.4736 17.8043 15.4569C17.8237 15.4244 17.845 15.4097 17.8485 15.4074L18.1238 15.8248ZM17.8111 15.9109C17.9264 15.9109 18.0383 15.8812 18.1238 15.8248L17.8485 15.4074C17.8552 15.403 17.8554 15.4043 17.8468 15.4067C17.8391 15.4088 17.8269 15.4109 17.8111 15.4109V15.9109ZM13.4455 15.9109H17.8111V15.4109H13.4455V15.9109ZM13.1314 15.8172C13.2157 15.8755 13.3277 15.9109 13.4455 15.9109V15.4109C13.4361 15.4109 13.4276 15.4094 13.421 15.4074C13.4139 15.4053 13.4123 15.4036 13.4156 15.4058L13.1314 15.8172ZM12.9893 15.6256C13.006 15.6933 13.0503 15.7612 13.1314 15.8172L13.4156 15.4058C13.4168 15.4066 13.4287 15.4151 13.4425 15.4343C13.4494 15.444 13.4563 15.4556 13.4624 15.4694C13.4654 15.4763 13.468 15.4832 13.4703 15.4903C13.4715 15.4938 13.4725 15.4971 13.4733 15.5002C13.4737 15.5017 13.4741 15.5031 13.4743 15.5042C13.4746 15.5053 13.4748 15.5061 13.4748 15.5061L12.9893 15.6256ZM13.0546 15.7418C13.0348 15.7218 13.0229 15.703 13.0175 15.694C13.0113 15.6836 13.007 15.6748 13.0046 15.6693C12.9997 15.6587 12.9966 15.65 12.9954 15.6463C12.9927 15.6384 12.991 15.6321 12.9907 15.6308C12.9898 15.6275 12.989 15.6242 12.9893 15.6256L13.4748 15.506C13.4748 15.506 13.4748 15.506 13.4748 15.506C13.4748 15.5059 13.4748 15.5059 13.4748 15.5058C13.4747 15.5056 13.4747 15.5054 13.4746 15.505C13.4744 15.5045 13.474 15.5028 13.4734 15.5005C13.473 15.4992 13.4713 15.4929 13.4687 15.485C13.4674 15.4813 13.4644 15.4726 13.4595 15.4619C13.457 15.4565 13.4527 15.4476 13.4465 15.4372C13.4412 15.4283 13.4292 15.4094 13.4094 15.3894L13.0546 15.7418ZM13.2204 12.4273C13.2772 12.3881 13.3578 12.3613 13.4455 12.3613V11.8613C13.262 11.8613 13.0811 11.9158 12.9362 12.016L13.2204 12.4273ZM13.1387 12.5492C13.1387 12.5138 13.1614 12.4681 13.2204 12.4273L12.9362 12.016C12.799 12.1108 12.6387 12.2907 12.6387 12.5492H13.1387ZM13.1387 15.5664V12.5492H12.6387V15.5664H13.1387ZM13.2204 15.6883C13.1614 15.6475 13.1387 15.6018 13.1387 15.5664H12.6387C12.6387 15.8249 12.799 16.0048 12.9362 16.0996L13.2204 15.6883ZM13.4455 15.7543C13.3578 15.7543 13.2772 15.7275 13.2204 15.6883L12.9362 16.0996C13.0811 16.1998 13.262 16.2543 13.4455 16.2543V15.7543ZM17.8111 15.7543H13.4455V16.2543H17.8111V15.7543ZM18.0376 15.694C17.982 15.7307 17.9014 15.7543 17.8111 15.7543V16.2543C17.9808 16.2543 18.1615 16.2113 18.3129 16.1114L18.0376 15.694ZM18.1179 15.5664C18.1179 15.6124 18.0933 15.6572 18.0376 15.694L18.3129 16.1114C18.4673 16.0095 18.6179 15.8249 18.6179 15.5664H18.1179ZM18.1179 12.5492V15.5664H18.6179V12.5492H18.1179ZM18.0362 12.4273C18.0952 12.4681 18.1179 12.5138 18.1179 12.5492H18.6179C18.6179 12.2907 18.4576 12.1108 18.3204 12.016L18.0362 12.4273ZM17.8111 12.3613C17.8988 12.3613 17.9794 12.3881 18.0362 12.4273L18.3204 12.016C18.1755 11.9158 17.9946 11.8613 17.8111 11.8613V12.3613ZM13.4455 12.3613H17.8111V11.8613H13.4455V12.3613Z" fill="#2C3C59" mask="url(#path-6-inside-1)"/>
<path fill-rule="evenodd" clip-rule="evenodd" d="M7.08145 9.82471C7.08145 9.72817 7.18775 9.60684 7.33616 9.60684H9.45328C9.43163 9.64754 9.41943 9.69302 9.41943 9.74074V11.2341C9.41943 11.4032 9.57258 11.5441 9.75638 11.5441H10.124C10.3078 11.5441 10.461 11.4032 10.461 11.2341V9.74074C10.461 9.69302 10.4488 9.64754 10.4271 9.60684H12.5438C12.6922 9.60684 12.7985 9.72817 12.7985 9.82471V14.6148C12.7985 14.7311 12.7016 14.8327 12.5438 14.8327H7.33616C7.18775 14.8327 7.08145 14.7114 7.08145 14.6148V9.82471ZM7.33616 9.19727C6.99444 9.19727 6.67188 9.47042 6.67188 9.82471V14.6148C6.67188 14.7856 6.74678 14.9374 6.86264 15.049C6.74678 15.1606 6.67188 15.3124 6.67188 15.4832V20.2733C6.67188 20.6276 6.99444 20.9007 7.33616 20.9007H12.5438C12.8761 20.9007 13.2081 20.6642 13.2081 20.2733V15.4832C13.2081 15.3153 13.1357 15.1656 13.0231 15.0546C13.135 14.9477 13.2081 14.7982 13.2081 14.6148V9.82471C13.2081 9.47042 12.8855 9.19727 12.5438 9.19727H7.33616ZM7.33616 15.2653C7.18775 15.2653 7.08145 15.3866 7.08145 15.4832V20.2733C7.08145 20.3698 7.18775 20.4912 7.33616 20.4912H12.5438C12.7016 20.4912 12.7985 20.3896 12.7985 20.2733V15.4832C12.7985 15.3866 12.6922 15.2653 12.5438 15.2653H10.4271C10.4488 15.306 10.461 15.3515 10.461 15.3992V16.8926C10.461 17.0617 10.3078 17.2025 10.124 17.2025H9.75638C9.57258 17.2025 9.41943 17.0617 9.41943 16.8926V15.3992C9.41943 15.3515 9.43163 15.306 9.45328 15.2653H7.33616Z" fill="#2C3C59"/>
<path d="M4.72363 19.0489L4.72363 5.77338" stroke="#2C3C59" stroke-width="0.75"/>
<path d="M4.68988 21.5364C5.37507 21.5364 5.93052 20.9983 5.93052 20.3346C5.93052 19.6709 5.37507 19.1328 4.68988 19.1328C4.00469 19.1328 3.44922 19.6709 3.44922 20.3346C3.44922 20.9983 4.00469 21.5364 4.68988 21.5364Z" stroke="#2C3C59" stroke-width="0.55" stroke-miterlimit="10" stroke-linecap="round" stroke-linejoin="round"/>
<path d="M22.1469 21.5364C22.8321 21.5364 23.3876 20.9983 23.3876 20.3346C23.3876 19.6709 22.8321 19.1328 22.1469 19.1328C21.4617 19.1328 20.9062 19.6709 20.9062 20.3346C20.9062 20.9983 21.4617 21.5364 22.1469 21.5364Z" stroke="#2C3C59" stroke-width="0.55" stroke-miterlimit="10" stroke-linecap="round" stroke-linejoin="round"/>
<path d="M20.9066 20.5391L5.93066 20.5391" stroke="#2C3C59" stroke-width="0.75"/>
<rect x="1.5" y="5.77344" width="3.46819" height="1.30329" rx="0.297872" fill="#2C3C59"/>
</svg>
