<svg width="25" height="25" viewBox="0 0 25 25" fill="none" xmlns="http://www.w3.org/2000/svg">
<path d="M9.88696 12.498H17.033C17.43 12.498 17.7774 12.8159 17.7774 13.1791V19.7177C17.7774 20.081 17.43 20.3988 17.033 20.3988H9.88696C9.48995 20.3988 9.14258 20.081 9.14258 19.7177V13.1791C9.14258 12.8159 9.48995 12.498 9.88696 12.498Z" fill="#D5E9FA"/>
<path fill-rule="evenodd" clip-rule="evenodd" d="M7.70959 11.9628C7.70959 11.6922 7.978 11.4274 8.30527 11.4274H11.9263C11.7974 11.5208 11.7135 11.6654 11.7135 11.8255V14.2687C11.7135 14.5453 11.9641 14.7757 12.2648 14.7757H12.8662C13.1669 14.7757 13.4175 14.5453 13.4175 14.2687V11.8255C13.4175 11.6654 13.3336 11.5208 13.2046 11.4274H16.8251C17.1523 11.4274 17.4207 11.6922 17.4207 11.9628V19.7995C17.4207 20.1097 17.1595 20.3349 16.8251 20.3349H8.30527C7.978 20.3349 7.70959 20.07 7.70959 19.7995V11.9628ZM8.30527 11.1152C7.83068 11.1152 7.39746 11.4958 7.39746 11.9628V19.7995C7.39746 20.2665 7.83068 20.647 8.30527 20.647H16.8251C17.2925 20.647 17.7329 20.319 17.7329 19.7995V11.9628C17.7329 11.4958 17.2997 11.1152 16.8251 11.1152H8.30527Z" fill="#2C3C59"/>
<path d="M11.9263 11.4274L12.0731 11.6298L12.6974 11.1774H11.9263V11.4274ZM13.2046 11.4274V11.1774H12.4336L13.0579 11.6298L13.2046 11.4274ZM8.30527 11.1774C7.85834 11.1774 7.45959 11.5364 7.45959 11.9628H7.95959C7.95959 11.848 8.09765 11.6774 8.30527 11.6774V11.1774ZM11.9263 11.1774H8.30527V11.6774H11.9263V11.1774ZM11.9635 11.8255C11.9635 11.7559 12.0001 11.6827 12.0731 11.6298L11.7796 11.2249C11.5947 11.359 11.4635 11.5749 11.4635 11.8255H11.9635ZM11.9635 14.2687V11.8255H11.4635V14.2687H11.9635ZM12.2648 14.5257C12.0821 14.5257 11.9635 14.3879 11.9635 14.2687H11.4635C11.4635 14.7026 11.8461 15.0257 12.2648 15.0257V14.5257ZM12.8662 14.5257H12.2648V15.0257H12.8662V14.5257ZM13.1675 14.2687C13.1675 14.3879 13.0489 14.5257 12.8662 14.5257V15.0257C13.2849 15.0257 13.6675 14.7026 13.6675 14.2687H13.1675ZM13.1675 11.8255V14.2687H13.6675V11.8255H13.1675ZM13.0579 11.6298C13.1309 11.6827 13.1675 11.7559 13.1675 11.8255H13.6675C13.6675 11.5749 13.5363 11.359 13.3513 11.2249L13.0579 11.6298ZM16.8251 11.1774H13.2046V11.6774H16.8251V11.1774ZM17.6707 11.9628C17.6707 11.5364 17.272 11.1774 16.8251 11.1774V11.6774C17.0327 11.6774 17.1707 11.848 17.1707 11.9628H17.6707ZM17.6707 19.7995V11.9628H17.1707V19.7995H17.6707ZM16.8251 20.5849C17.2687 20.5849 17.6707 20.275 17.6707 19.7995H17.1707C17.1707 19.9444 17.0503 20.0849 16.8251 20.0849V20.5849ZM8.30527 20.5849H16.8251V20.0849H8.30527V20.5849ZM7.45959 19.7995C7.45959 20.2258 7.85834 20.5849 8.30527 20.5849V20.0849C8.09765 20.0849 7.95959 19.9142 7.95959 19.7995H7.45959ZM7.45959 11.9628V19.7995H7.95959V11.9628H7.45959ZM7.64746 11.9628C7.64746 11.6541 7.94759 11.3652 8.30527 11.3652V10.8652C7.71378 10.8652 7.14746 11.3374 7.14746 11.9628H7.64746ZM7.64746 19.7995V11.9628H7.14746V19.7995H7.64746ZM8.30527 20.397C7.94759 20.397 7.64746 20.1081 7.64746 19.7995H7.14746C7.14746 20.4248 7.71377 20.897 8.30527 20.897V20.397ZM16.8251 20.397H8.30527V20.897H16.8251V20.397ZM17.4829 19.7995C17.4829 20.1498 17.1877 20.397 16.8251 20.397V20.897C17.3973 20.897 17.9829 20.4881 17.9829 19.7995H17.4829ZM17.4829 11.9628V19.7995H17.9829V11.9628H17.4829ZM16.8251 11.3652C17.1827 11.3652 17.4829 11.6541 17.4829 11.9628H17.9829C17.9829 11.3374 17.4166 10.8652 16.8251 10.8652V11.3652ZM8.30527 11.3652H16.8251V10.8652H8.30527V11.3652Z" fill="#2C3C59"/>
<path d="M4.7832 19.2756L4.7832 7.20698" stroke="#2C3C59" stroke-width="0.75"/>
<path d="M4.7519 21.5386C5.3748 21.5386 5.87975 21.0494 5.87975 20.446C5.87975 19.8427 5.3748 19.3535 4.7519 19.3535C4.129 19.3535 3.62402 19.8427 3.62402 20.446C3.62402 21.0494 4.129 21.5386 4.7519 21.5386Z" stroke="#2C3C59" stroke-miterlimit="10" stroke-linecap="round" stroke-linejoin="round"/>
<path d="M20.623 21.5386C21.2459 21.5386 21.7509 21.0494 21.7509 20.446C21.7509 19.8427 21.2459 19.3535 20.623 19.3535C20.0001 19.3535 19.4951 19.8427 19.4951 20.446C19.4951 21.0494 20.0001 21.5386 20.623 21.5386Z" stroke="#2C3C59" stroke-miterlimit="10" stroke-linecap="round" stroke-linejoin="round"/>
<path d="M19.4944 20.6289L5.87988 20.6289" stroke="#2C3C59" stroke-width="0.75"/>
<rect x="1.49707" y="7.20703" width="3.64758" height="1.30329" rx="0.297872" fill="#2C3C59"/>
</svg>
