<svg width="25" height="25" viewBox="0 0 25 25" fill="none" xmlns="http://www.w3.org/2000/svg">
<path d="M22.7854 23.0038H4.9149C4.59681 23.0038 4.30762 22.7292 4.30762 22.3936V13.7899C4.30762 13.4543 4.5679 13.1797 4.9149 13.1797H22.7854C23.1035 13.1797 23.3927 13.4543 23.3927 13.7899V22.3936C23.3927 22.7292 23.1035 23.0038 22.7854 23.0038Z" fill="#D5E9FA"/>
<path d="M21.5709 12.2833C21.7444 12.2833 21.889 12.4279 21.889 12.6014V20.9873C21.889 21.1608 21.7444 21.3053 21.5709 21.3053H3.35334C3.17984 21.3053 3.03526 21.1608 3.03526 20.9873V12.6014C3.03526 12.4279 3.17984 12.2833 3.35334 12.2833H21.5709ZM21.5709 11.9941H3.35334C3.00634 11.9941 2.74609 12.2544 2.74609 12.6014V20.9873C2.74609 21.3343 3.00634 21.5945 3.35334 21.5945H21.5709C21.9179 21.5945 22.1782 21.3343 22.1782 20.9873V12.6014C22.1782 12.2833 21.889 11.9941 21.5709 11.9941Z" fill="#2C3C59" stroke="#2C3C59" stroke-width="0.5"/>
<path d="M20.9348 10.3967C21.0675 10.4765 21.2397 10.4335 21.3194 10.3008C21.3991 10.1681 21.3562 9.99587 21.2235 9.91615L20.9348 10.3967ZM12.4619 4.98034L12.6063 4.74005C12.5175 4.68669 12.4064 4.68669 12.3176 4.74005L12.4619 4.98034ZM3.70039 9.91615C3.56767 9.99587 3.52471 10.1681 3.60443 10.3008C3.68415 10.4335 3.85635 10.4765 3.98907 10.3967L3.70039 9.91615ZM12.7423 2.43555C12.7423 2.28073 12.6168 2.15523 12.462 2.15523C12.3072 2.15523 12.1817 2.28073 12.1817 2.43555H12.7423ZM12.462 3.47655H12.1817C12.1817 3.63136 12.3072 3.75687 12.462 3.75687V3.47655ZM11.1808 4.98022C11.1808 4.82541 11.0553 4.69991 10.9005 4.69991C10.7456 4.69991 10.6201 4.82541 10.6201 4.98022H11.1808ZM21.2235 9.91615L12.6063 4.74005L12.3176 5.22064L20.9348 10.3967L21.2235 9.91615ZM12.3176 4.74005L3.70039 9.91615L3.98907 10.3967L12.6063 5.22064L12.3176 4.74005ZM12.1817 2.43555V3.47655H12.7423V2.43555H12.1817ZM12.462 3.75687C13.1851 3.75687 13.7432 4.30671 13.7432 4.98022H14.3038C14.3038 3.97656 13.4738 3.19624 12.462 3.19624V3.75687ZM13.7432 4.98022C13.7432 5.65373 13.1851 6.20358 12.462 6.20358V6.76421C13.4738 6.76421 14.3038 5.98389 14.3038 4.98022H13.7432ZM12.462 6.20358C11.7388 6.20358 11.1808 5.65373 11.1808 4.98022H10.6201C10.6201 5.98388 11.4501 6.76421 12.462 6.76421V6.20358Z" fill="#2C3C59"/>
<path d="M13.7339 2.55148H11.1603C10.9868 2.55148 10.8711 2.43581 10.8711 2.26231V2.00206C10.8711 1.82856 10.9868 1.71289 11.1603 1.71289H13.7339C13.9074 1.71289 14.023 1.82856 14.023 2.00206V2.26231C14.023 2.40689 13.9074 2.55148 13.7339 2.55148Z" fill="#2C3C59"/>
<path d="M10.4609 14.2715V19.3172" stroke="#2C3C59" stroke-width="0.75" stroke-linecap="round" stroke-linejoin="round"/>
<path d="M18.4072 14.2715V19.3172" stroke="#2C3C59" stroke-width="0.75" stroke-linecap="round" stroke-linejoin="round"/>
<path d="M14.4346 14.2715V19.3172" stroke="#2C3C59" stroke-width="0.75" stroke-linecap="round" stroke-linejoin="round"/>
<path d="M6.48828 14.2715V19.3172" stroke="#2C3C59" stroke-width="0.75" stroke-linecap="round" stroke-linejoin="round"/>
</svg>
