<svg width="25" height="25" viewBox="0 0 25 25" fill="none" xmlns="http://www.w3.org/2000/svg">
<path d="M17.0088 9.22137V17.725C17.0088 17.9604 16.8256 18.1436 16.5901 18.1436H9.97039C9.73491 18.1436 9.55176 17.9604 9.55176 17.725V10.9483C9.55176 10.8174 9.60408 10.7128 9.70874 10.6343L11.7496 8.90739C11.8281 8.85506 11.9328 8.80273 12.0113 8.80273H16.6163C16.8256 8.80273 17.0088 8.98589 17.0088 9.22137Z" fill="#D5E9FA"/>
<path d="M10.4675 11.8652H11.5403C11.6188 11.8652 11.6973 11.9437 11.6973 12.0222C11.6973 12.1007 11.6188 12.1792 11.5403 12.1792H10.8338C10.7554 12.1792 10.6769 12.2577 10.6769 12.3362V12.5455C10.6769 12.624 10.7554 12.7025 10.8338 12.7025H11.488C11.5665 12.7025 11.645 12.781 11.645 12.8595C11.645 12.938 11.5665 13.0165 11.488 13.0165H10.8338C10.7554 13.0165 10.6769 13.095 10.6769 13.1735V13.4613C10.6769 13.5398 10.7554 13.6183 10.8338 13.6183H11.5926C11.6711 13.6183 11.7496 13.6968 11.7496 13.7753V13.8015C11.7496 13.8799 11.6711 13.9584 11.5926 13.9584H10.4675C10.389 13.9584 10.3105 13.8799 10.3105 13.8015V12.0222C10.3105 11.9437 10.389 11.8652 10.4675 11.8652Z" fill="#2C3C59"/>
<path d="M12.1159 12.0222C12.1159 11.9437 12.1944 11.8652 12.2729 11.8652H12.8485C12.9794 11.8652 13.1102 11.8914 13.2672 11.9176C13.398 11.9437 13.5288 12.0222 13.6335 12.1007C13.7382 12.1792 13.8428 12.2839 13.8951 12.4147C13.9736 12.5455 13.9998 12.7025 13.9998 12.9118C13.9998 13.095 13.9736 13.252 13.8951 13.3828C13.8166 13.5136 13.7382 13.6183 13.6335 13.6968C13.5288 13.7753 13.398 13.8538 13.2672 13.8799C13.1364 13.9323 13.0055 13.9323 12.8485 13.9323H12.2729C12.1944 13.9323 12.1159 13.8538 12.1159 13.7753V12.0222ZM12.7962 13.6183C12.9009 13.6183 12.9794 13.6183 13.084 13.5921C13.1887 13.566 13.2672 13.5398 13.3457 13.4875C13.4242 13.4351 13.4765 13.3566 13.5288 13.2781C13.5812 13.1735 13.6073 13.0688 13.6073 12.938C13.6073 12.781 13.5812 12.6763 13.5288 12.5717C13.4765 12.467 13.4242 12.4147 13.3457 12.3624C13.2672 12.31 13.1887 12.2839 13.084 12.2577C12.9794 12.2315 12.9009 12.2315 12.7962 12.2315H12.6392C12.5607 12.2315 12.4822 12.31 12.4822 12.3885V13.5136C12.4822 13.5921 12.5496 13.6183 12.6281 13.6183H12.7962Z" fill="#2C3C59"/>
<path d="M14.5231 11.8652H14.5754C14.6539 11.8652 14.7324 11.9437 14.7324 12.0222V13.8014C14.7324 13.8799 14.6539 13.9584 14.5754 13.9584H14.5231C14.4446 13.9584 14.3661 13.8799 14.3661 13.8014V12.0222C14.3661 11.9437 14.4184 11.8652 14.5231 11.8652Z" fill="#2C3C59"/>
<path d="M16.2236 8.25407V16.7577C16.2236 16.9931 16.0404 17.1763 15.805 17.1763H9.18523C8.94975 17.1763 8.7666 16.9931 8.7666 16.7577V10.0071C8.7666 9.87629 8.81892 9.77164 8.92358 9.69314L10.9645 7.96626C11.0429 7.91393 11.1476 7.8616 11.2261 7.8616H15.8311C16.0143 7.83543 16.2236 8.04475 16.2236 8.25407Z" stroke="#2C3C59" stroke-width="0.601255" stroke-miterlimit="10"/>
<path d="M18.9453 10.2148H8.45312" stroke="#2C3C59" stroke-width="0.450941" stroke-miterlimit="10"/>
<path d="M18.062 8.906L18.0338 8.87999L18.0084 8.90863L17.7991 9.14411L17.7747 9.17157L17.8016 9.19659L18.8971 10.2157L17.8016 11.2348L17.7747 11.2598L17.7991 11.2872L18.0084 11.5227L18.0338 11.5514L18.062 11.5253L19.4487 10.2433L19.4786 10.2157L19.4487 10.1881L18.062 8.906Z" fill="#2C3C59" stroke="#4C5263" stroke-width="0.0751568"/>
<path d="M6.14654 15.6055H16.6387" stroke="#2C3C59" stroke-width="0.450941" stroke-miterlimit="10"/>
<path d="M7.02981 14.2966L7.05795 14.2706L7.08341 14.2993L7.29273 14.5347L7.31714 14.5622L7.29024 14.5872L6.19473 15.6063L7.29024 16.6254L7.31714 16.6504L7.29273 16.6779L7.08341 16.9133L7.05795 16.942L7.02981 16.916L5.64308 15.6339L5.61323 15.6063L5.64308 15.5787L7.02981 14.2966Z" fill="#2C3C59" stroke="#4C5263" stroke-width="0.0751568"/>
<path d="M12.4823 22.6442C18.0746 22.6442 22.6081 18.1107 22.6081 12.5184C22.6081 6.92606 18.0746 2.39258 12.4823 2.39258C6.88992 2.39258 2.35645 6.92606 2.35645 12.5184C2.35645 18.1107 6.88992 22.6442 12.4823 22.6442Z" stroke="#2C3C59" stroke-width="0.601255" stroke-miterlimit="10" stroke-dasharray="3.05 3.05"/>
</svg>
