<svg width="25" height="25" viewBox="0 0 25 25" fill="none" xmlns="http://www.w3.org/2000/svg">
<path d="M5.52637 3.87305H15.3583L21.1102 8.11548V23.0303H5.52637V3.87305Z" fill="#D5E9FA"/>
<path d="M13.332 2.03711L3.5 2.03711V21.1943H19.0839V6.27954M13.332 2.03711L19.0839 6.27954M13.332 2.03711V6.27954H19.0839" stroke="#2C3C59" stroke-miterlimit="10"/>
<path d="M11.6456 8.87905C11.4503 8.68378 11.1337 8.68378 10.9385 8.87904L7.75647 12.061C7.56121 12.2563 7.56121 12.5729 7.75647 12.7681C7.95173 12.9634 8.26832 12.9634 8.46358 12.7681L11.292 9.93971L14.1204 12.7681C14.3157 12.9634 14.6323 12.9634 14.8275 12.7681C15.0228 12.5729 15.0228 12.2563 14.8275 12.061L11.6456 8.87905ZM11.792 17.4434L11.792 9.2326L10.792 9.2326L10.792 17.4434L11.792 17.4434Z" fill="#2C3C59"/>
</svg>
