<svg width="25" height="25" viewBox="0 0 25 25" fill="none" xmlns="http://www.w3.org/2000/svg">
<path d="M6.5459 7.39339V17.6875H15.8496L15.8496 14.3319L13.1737 7.35352L6.5459 7.39339Z" fill="#D5E9FA"/>
<path d="M21.9088 9.75463L18.5332 10.9141L19.7301 14.1838L23.1057 13.0244L21.9088 9.75463Z" fill="#D5E9FA"/>
<path d="M4.75919 21.0906C5.47457 21.0906 6.05448 20.5107 6.05448 19.7953C6.05448 19.0799 5.47457 18.5 4.75919 18.5C4.04381 18.5 3.46387 19.0799 3.46387 19.7953C3.46387 20.5107 4.04381 21.0906 4.75919 21.0906Z" stroke="#2C3C59" stroke-width="0.75" stroke-miterlimit="10" stroke-linecap="round" stroke-linejoin="round"/>
<path d="M12.0023 21.0906C12.7177 21.0906 13.2976 20.5107 13.2976 19.7953C13.2976 19.0799 12.7177 18.5 12.0023 18.5C11.287 18.5 10.707 19.0799 10.707 19.7953C10.707 20.5107 11.287 21.0906 12.0023 21.0906Z" stroke="#2C3C59" stroke-width="0.75" stroke-miterlimit="10" stroke-linecap="round" stroke-linejoin="round"/>
<path d="M13.2979 4.52148L17.7027 15.7667L22.8485 13.8925" stroke="#2C3C59" stroke-width="0.75" stroke-miterlimit="10" stroke-linecap="round" stroke-linejoin="round"/>
<path d="M1.89453 16.4052H14.5739V14.3316L11.1982 4.88086H4.85854V16.4052" stroke="#2C3C59" stroke-width="0.75" stroke-miterlimit="10" stroke-linecap="round" stroke-linejoin="round"/>
<path d="M6.5459 6.55469V10.662H11.1977L9.63341 6.55469H6.5459Z" stroke="#2C3C59" stroke-width="0.75" stroke-miterlimit="10" stroke-linecap="round" stroke-linejoin="round"/>
<path d="M20.6226 9.31909L17.2471 10.4785L18.444 13.7483L21.8196 12.5889L20.6226 9.31909Z" stroke="#2C3C59" stroke-width="0.75" stroke-miterlimit="10" stroke-linecap="round" stroke-linejoin="round"/>
</svg>
