<svg width="25" height="25" viewBox="0 0 25 25" fill="none" xmlns="http://www.w3.org/2000/svg">
<rect x="3.44824" y="13.918" width="10.2513" height="5.40383" rx="0.5" fill="#D5E9FA"/>
<path d="M20.3311 14.4633V19.323H15.6831L15.6831 17.9297L17.0199 14.4434L20.3311 14.4633Z" fill="#D5E9FA"/>
<path d="M22.1012 21.0613C21.7796 21.0613 21.5188 20.8005 21.5188 20.4789C21.5188 20.1572 21.7796 19.8965 22.1012 19.8965C22.4228 19.8965 22.6836 20.1572 22.6836 20.4789C22.6836 20.8005 22.4228 21.0613 22.1012 21.0613Z" stroke="#2C3C59" stroke-width="0.5" stroke-miterlimit="10" stroke-linecap="round" stroke-linejoin="round"/>
<path d="M18.7809 21.0613C18.4593 21.0613 18.1985 20.8005 18.1985 20.4789C18.1985 20.1572 18.4593 19.8965 18.7809 19.8965C19.1025 19.8965 19.3633 20.1572 19.3633 20.4789C19.3633 20.8005 19.1025 21.0613 18.7809 21.0613Z" stroke="#2C3C59" stroke-width="0.5" stroke-miterlimit="10" stroke-linecap="round" stroke-linejoin="round"/>
<path d="M22.6836 18.4494H16.8707V17.4987L18.4183 13.166H21.3247V18.4494" stroke="#2C3C59" stroke-width="0.75" stroke-miterlimit="10" stroke-linecap="round" stroke-linejoin="round"/>
<path d="M15.7509 15.0703C15.6726 15.2621 15.7645 15.481 15.9563 15.5593C16.148 15.6376 16.3669 15.5456 16.4452 15.3539L15.7509 15.0703ZM16.8711 13.3188L17.2183 13.4605C17.2876 13.2908 17.224 13.0958 17.068 12.9996L16.8711 13.3188ZM7.03223 10.7316C7.03223 10.9387 7.20012 11.1066 7.40723 11.1066C7.61433 11.1066 7.78223 10.9387 7.78223 10.7316H7.03223ZM7.40723 7.48242L7.60407 7.16324C7.48838 7.09189 7.34314 7.08873 7.22446 7.15498C7.10577 7.22122 7.03223 7.3465 7.03223 7.48242H7.40723ZM16.4452 15.3539L17.2183 13.4605L16.524 13.177L15.7509 15.0703L16.4452 15.3539ZM7.78223 10.7316V7.48242H7.03223V10.7316H7.78223ZM7.21039 7.80161L16.6743 13.6379L17.068 12.9996L7.60407 7.16324L7.21039 7.80161Z" fill="#2C3C59"/>
<rect x="2.24902" y="12.5371" width="10.2513" height="5.40383" rx="0.5" stroke="#2C3C59" stroke-width="0.75"/>
<path d="M5.49414 14.2383V16.2425" stroke="#2C3C59" stroke-width="0.5" stroke-linecap="round" stroke-linejoin="round"/>
<path d="M7.40723 14.2383V16.2425" stroke="#2C3C59" stroke-width="0.5" stroke-linecap="round" stroke-linejoin="round"/>
<path d="M9.25488 14.2383V16.2425" stroke="#2C3C59" stroke-width="0.5" stroke-linecap="round" stroke-linejoin="round"/>
</svg>
