<svg width="25" height="25" viewBox="0 0 25 25" fill="none" xmlns="http://www.w3.org/2000/svg">
<path d="M6.5459 7.39339V17.6875H15.8496L15.8496 14.3319L13.1737 7.35352L6.5459 7.39339Z" fill="#D5E9FA"/>
<path d="M4.75919 21.0906C5.47457 21.0906 6.05448 20.5107 6.05448 19.7953C6.05448 19.0799 5.47457 18.5 4.75919 18.5C4.04381 18.5 3.46387 19.0799 3.46387 19.7953C3.46387 20.5107 4.04381 21.0906 4.75919 21.0906Z" stroke="#2C3C59" stroke-width="0.75" stroke-miterlimit="10" stroke-linecap="round" stroke-linejoin="round"/>
<path d="M12.0023 21.0906C12.7177 21.0906 13.2976 20.5107 13.2976 19.7953C13.2976 19.0799 12.7177 18.5 12.0023 18.5C11.287 18.5 10.707 19.0799 10.707 19.7953C10.707 20.5107 11.287 21.0906 12.0023 21.0906Z" stroke="#2C3C59" stroke-width="0.75" stroke-miterlimit="10" stroke-linecap="round" stroke-linejoin="round"/>
<path d="M1.89453 16.4052H14.5739V14.3316L11.1982 4.88086H4.85854V16.4052" stroke="#2C3C59" stroke-width="0.75" stroke-miterlimit="10" stroke-linecap="round" stroke-linejoin="round"/>
<path d="M6.5459 6.55664V10.6639H11.1977L9.6334 6.55664H6.5459Z" stroke="#2C3C59" stroke-width="0.75" stroke-miterlimit="10" stroke-linecap="round" stroke-linejoin="round"/>
<rect x="19.8164" y="8.99609" width="3.525" height="3.525" fill="#D5E9FA"/>
<path d="M22.3128 7.91246L18.8181 7.91144L18.8174 11.3933L22.3121 11.3943L22.3128 7.91246Z" stroke="#2C3C59" stroke-width="0.75" stroke-miterlimit="10" stroke-linecap="round" stroke-linejoin="round"/>
<path d="M17.0449 1.67578V13.7104H23.0187" stroke="#2C3C59" stroke-width="0.75" stroke-linecap="round" stroke-linejoin="round"/>
</svg>
