<svg width="25" height="25" viewBox="0 0 25 25" fill="none" xmlns="http://www.w3.org/2000/svg">
<path d="M5.65764 16.119C7.60165 16.119 9.17759 15.5769 9.17759 14.9081C9.17759 14.2394 7.60165 13.6973 5.65764 13.6973C3.71363 13.6973 2.1377 14.2394 2.1377 14.9081C2.1377 15.5769 3.71363 16.119 5.65764 16.119Z" fill="#D5E9FA"/>
<path d="M9.0105 3.86959C8.76351 3.99308 8.6634 4.29342 8.78689 4.54041C8.91039 4.7874 9.21072 4.88751 9.45771 4.76401L9.0105 3.86959ZM4.57284 10.9674C4.62224 10.6957 4.44204 10.4354 4.17035 10.386C3.89866 10.3366 3.63837 10.5168 3.58897 10.7885L4.57284 10.9674ZM21.2998 7.51643C21.4963 7.32236 21.4982 7.00579 21.3042 6.80933C21.1101 6.61288 20.7935 6.61093 20.5971 6.80499L21.2998 7.51643ZM8.40661 8.17883C8.14464 8.0915 7.86147 8.23308 7.77415 8.49505C7.68683 8.75703 7.82841 9.04018 8.09038 9.12751L8.40661 8.17883ZM6.22101 12.349C5.94487 12.349 5.72101 12.5728 5.72101 12.849C5.72101 13.1251 5.94487 13.349 6.22101 13.349V12.349ZM9.12091 13.349C9.39705 13.349 9.62091 13.1251 9.62091 12.849C9.62091 12.5728 9.39705 12.349 9.12091 12.349V13.349ZM3.91194 12.349C3.6358 12.349 3.41194 12.5728 3.41194 12.849C3.41194 13.1251 3.6358 13.349 3.91194 13.349V12.349ZM5.06649 13.349C5.34263 13.349 5.56649 13.1251 5.56649 12.849C5.56649 12.5728 5.34263 12.349 5.06649 12.349V13.349ZM9.63079 17.1371C9.89951 17.0735 10.0658 16.8041 10.0023 16.5354C9.93868 16.2667 9.66931 16.1003 9.40058 16.1639L9.63079 17.1371ZM5.33101 17.9616C5.12202 18.1421 5.09892 18.4579 5.27941 18.6669C5.4599 18.8759 5.77564 18.899 5.98463 18.7185L5.33101 17.9616ZM20.5971 18.8648C20.7935 19.0588 21.1101 19.0569 21.3042 18.8604C21.4982 18.664 21.4963 18.3474 21.2998 18.1533L20.5971 18.8648ZM9.42567 16.1647C9.15735 16.23 8.99275 16.5004 9.05801 16.7687C9.12328 17.037 9.3937 17.2016 9.66202 17.1364L9.42567 16.1647ZM9.45771 4.76401C10.6258 4.17996 11.9571 3.85938 13.3736 3.85938V2.85938C11.8052 2.85938 10.3204 3.21462 9.0105 3.86959L9.45771 4.76401ZM13.3736 3.85938C18.3351 3.85938 22.3633 7.88761 22.3633 12.8491H23.3633C23.3633 7.33533 18.8874 2.85938 13.3736 2.85938V3.85938ZM22.3633 12.8491C22.3633 17.8107 18.3351 21.8389 13.3736 21.8389V22.8389C18.8874 22.8389 23.3633 18.363 23.3633 12.8491H22.3633ZM13.3736 21.8389C8.41203 21.8389 4.38379 17.8107 4.38379 12.8491H3.38379C3.38379 18.363 7.85974 22.8389 13.3736 22.8389V21.8389ZM4.38379 12.8491C4.38379 12.2131 4.46348 11.5689 4.57284 10.9674L3.58897 10.7885C3.47306 11.426 3.38379 12.1335 3.38379 12.8491H4.38379ZM17.0975 12.849C17.0975 15.4162 16.6333 17.7164 15.9035 19.356C15.5384 20.1765 15.1165 20.8095 14.6733 21.2307C14.2327 21.6494 13.7943 21.8389 13.3736 21.8389V22.8389C14.1192 22.8389 14.7921 22.4973 15.3621 21.9556C15.9296 21.4163 16.4179 20.6596 16.8171 19.7627C17.6161 17.9676 18.0975 15.5228 18.0975 12.849H17.0975ZM13.3736 21.8389C12.9528 21.8389 12.5145 21.6494 12.0738 21.2307C11.6306 20.8095 11.2088 20.1765 10.8436 19.356C10.1138 17.7164 9.64962 15.4162 9.64962 12.849H8.64962C8.64962 15.5228 9.13102 17.9676 9.92999 19.7627C10.3292 20.6596 10.8175 21.4163 11.385 21.9556C11.9551 22.4973 12.6279 22.8389 13.3736 22.8389V21.8389ZM9.64962 12.849C9.64962 10.2817 10.1138 7.98166 10.8436 6.3421C11.2088 5.52171 11.6306 4.88871 12.0738 4.46756C12.5145 4.04887 12.9528 3.85938 13.3736 3.85938V2.85938C12.6279 2.85938 11.9551 3.20094 11.385 3.74264C10.8175 4.28188 10.3292 5.03858 9.93 5.93545C9.13102 7.73043 8.64962 10.1751 8.64962 12.849H9.64962ZM13.3736 3.85938C13.7943 3.85938 14.2327 4.04887 14.6733 4.46756C15.1165 4.88871 15.5384 5.52171 15.9035 6.3421C16.6333 7.98166 17.0975 10.2817 17.0975 12.849H18.0975C18.0975 10.1751 17.6161 7.73043 16.8171 5.93545C16.4179 5.03858 15.9296 4.28188 15.3621 3.74264C14.7921 3.20094 14.1192 2.85938 13.3736 2.85938V3.85938ZM20.9484 7.16071C20.5971 6.80499 20.5973 6.80481 20.5974 6.80463C20.5975 6.80458 20.5977 6.80442 20.5978 6.80432C20.5979 6.80413 20.5981 6.80397 20.5982 6.80385C20.5985 6.80361 20.5986 6.8035 20.5986 6.80353C20.5985 6.80358 20.5979 6.80417 20.5967 6.80529C20.5944 6.80751 20.5898 6.81181 20.583 6.81806C20.5694 6.83056 20.5469 6.85082 20.5152 6.87776C20.4518 6.93165 20.3519 7.01221 20.2145 7.11072C19.9397 7.30772 19.5144 7.57653 18.9292 7.84742C17.7605 8.38834 15.9453 8.94164 13.4017 8.94164V9.94164C16.0957 9.94164 18.0539 9.35447 19.3492 8.75492C19.9959 8.45559 20.4753 8.15416 20.7971 7.92348C20.958 7.80816 21.0795 7.71053 21.1628 7.63967C21.2045 7.60425 21.2367 7.57551 21.2594 7.55459C21.2708 7.54413 21.2799 7.53563 21.2866 7.52922C21.29 7.52602 21.2927 7.52334 21.2949 7.5212C21.296 7.52013 21.297 7.5192 21.2978 7.5184C21.2982 7.518 21.2986 7.51764 21.2989 7.51731C21.2991 7.51714 21.2993 7.51692 21.2994 7.51684C21.2996 7.51663 21.2998 7.51643 20.9484 7.16071ZM13.4017 8.94164C11.2631 8.94164 9.6269 8.58559 8.40661 8.17883L8.09038 9.12751C9.40444 9.56553 11.1473 9.94164 13.4017 9.94164V8.94164ZM6.22101 13.349H9.12091V12.349H6.22101V13.349ZM3.91194 13.349H5.06649V12.349H3.91194V13.349ZM9.40058 16.1639C8.04513 16.4846 7.03952 16.9236 6.36662 17.2879C6.03031 17.47 5.77736 17.6333 5.60553 17.7536C5.51962 17.8138 5.45397 17.8632 5.40832 17.8989C5.38549 17.9167 5.36766 17.9311 5.35479 17.9417C5.34835 17.947 5.34316 17.9513 5.3392 17.9547C5.33721 17.9563 5.33554 17.9578 5.33418 17.9589C5.3335 17.9595 5.33289 17.96 5.33236 17.9605C5.3321 17.9607 5.33186 17.9609 5.33163 17.9611C5.33152 17.9612 5.33136 17.9613 5.33131 17.9614C5.33116 17.9615 5.33101 17.9616 5.65782 18.3401C5.98463 18.7185 5.98449 18.7186 5.98436 18.7187C5.98433 18.7187 5.9842 18.7188 5.98412 18.7189C5.98397 18.719 5.98384 18.7191 5.98373 18.7192C5.98351 18.7194 5.98335 18.7196 5.98328 18.7196C5.98313 18.7198 5.98327 18.7196 5.98371 18.7193C5.9846 18.7185 5.98668 18.7168 5.98996 18.7141C5.99652 18.7087 6.00786 18.6995 6.02403 18.6869C6.05637 18.6616 6.10798 18.6226 6.17915 18.5727C6.32147 18.4731 6.54195 18.3301 6.84275 18.1673C7.44408 17.8417 8.3674 17.4359 9.63079 17.1371L9.40058 16.1639ZM20.9485 18.5091C21.2998 18.1533 21.2996 18.1531 21.2994 18.1529C21.2993 18.1528 21.2991 18.1526 21.299 18.1525C21.2986 18.1521 21.2982 18.1518 21.2978 18.1514C21.297 18.1506 21.2961 18.1496 21.295 18.1486C21.2928 18.1464 21.29 18.1438 21.2866 18.1406C21.2799 18.1341 21.2708 18.1256 21.2595 18.1152C21.2367 18.0943 21.2045 18.0655 21.1629 18.0301C21.0795 17.9592 20.958 17.8616 20.7971 17.7463C20.4753 17.5156 19.996 17.2142 19.3492 16.9148C18.0539 16.3153 16.0958 15.7281 13.4017 15.7281V16.7281C15.9453 16.7281 17.7606 17.2814 18.9292 17.8224C19.5145 18.0932 19.9397 18.362 20.2145 18.559C20.352 18.6576 20.4518 18.7381 20.5152 18.792C20.5469 18.8189 20.5694 18.8392 20.5831 18.8517C20.5899 18.858 20.5944 18.8623 20.5967 18.8645C20.5979 18.8656 20.5985 18.8662 20.5986 18.8662C20.5986 18.8663 20.5985 18.8662 20.5983 18.8659C20.5981 18.8658 20.598 18.8656 20.5978 18.8655C20.5977 18.8654 20.5975 18.8652 20.5975 18.8651C20.5973 18.865 20.5971 18.8648 20.9485 18.5091ZM13.4017 15.7281C11.8447 15.7281 10.5095 15.9011 9.42567 16.1647L9.66202 17.1364C10.662 16.8931 11.9174 16.7281 13.4017 16.7281V15.7281ZM17.5975 12.349H9.14962V13.349H17.5975V12.349ZM9.14962 13.349L22.8633 13.3491L22.8633 12.3491L9.14963 12.349L9.14962 13.349Z" fill="#2C3C59"/>
<path d="M5.65749 2.08984C3.84131 2.08984 2.33947 3.59169 2.33947 5.40787C2.26961 8.23693 4.53984 11.4152 5.65749 14.2443C6.77514 11.4152 9.04537 8.23693 8.97552 5.40787C8.97552 3.59169 7.47368 2.08984 5.65749 2.08984Z" fill="#2C3C59"/>
<path d="M5.65744 4.11568C6.3909 4.11568 6.98465 4.70943 6.98465 5.44289C6.98465 6.17635 6.3909 6.7701 5.65744 6.7701C4.92398 6.7701 4.33023 6.17635 4.33023 5.44289C4.33023 4.70943 4.92398 4.11568 5.65744 4.11568ZM5.65744 3.76642C4.74935 3.76642 3.98097 4.49987 3.98097 5.44289C3.98097 6.38591 4.71442 7.11936 5.65744 7.11936C6.60046 7.11936 7.33391 6.38591 7.33391 5.44289C7.33391 4.49987 6.56553 3.76642 5.65744 3.76642Z" fill="#2C3C59"/>
<path d="M2.33947 5.40787L2.49425 5.41169V5.40787H2.33947ZM5.65749 14.2443L5.51353 14.3012L5.65749 14.6656L5.80145 14.3012L5.65749 14.2443ZM8.97552 5.40787H8.82069L8.82078 5.41169L8.97552 5.40787ZM5.65749 1.93506C3.75582 1.93506 2.18468 3.5062 2.18468 5.40787H2.49425C2.49425 3.67717 3.9268 2.24463 5.65749 2.24463V1.93506ZM2.18473 5.40405C2.14885 6.85703 2.71311 8.38698 3.41282 9.89136C4.11972 11.4112 4.95601 12.8899 5.51353 14.3012L5.80145 14.1874C5.24133 12.7696 4.38367 11.2446 3.69351 9.76081C2.99616 8.2615 2.46023 6.78777 2.4942 5.41169L2.18473 5.40405ZM5.80145 14.3012C6.35898 12.8899 7.19526 11.4112 7.90217 9.89136C8.60188 8.38698 9.16613 6.85703 9.13026 5.40405L8.82078 5.41169C8.85476 6.78777 8.31882 8.2615 7.62147 9.76081C6.93131 11.2446 6.07366 12.7696 5.51353 14.1874L5.80145 14.3012ZM9.1303 5.40787C9.1303 3.5062 7.55916 1.93506 5.65749 1.93506V2.24463C7.38819 2.24463 8.82073 3.67717 8.82073 5.40787H9.1303ZM5.65744 4.27047C6.30541 4.27047 6.82986 4.79492 6.82986 5.44289H7.13943C7.13943 4.62395 6.47638 3.9609 5.65744 3.9609V4.27047ZM6.82986 5.44289C6.82986 6.09086 6.30541 6.61531 5.65744 6.61531V6.92488C6.47638 6.92488 7.13943 6.26183 7.13943 5.44289H6.82986ZM5.65744 6.61531C5.00947 6.61531 4.48502 6.09086 4.48502 5.44289H4.17545C4.17545 6.26183 4.8385 6.92488 5.65744 6.92488V6.61531ZM4.48502 5.44289C4.48502 4.79492 5.00947 4.27047 5.65744 4.27047V3.9609C4.8385 3.9609 4.17545 4.62395 4.17545 5.44289H4.48502ZM5.65744 3.61163C4.66597 3.61163 3.82618 4.41229 3.82618 5.44289H4.13575C4.13575 4.58745 4.83273 3.9212 5.65744 3.9212V3.61163ZM3.82618 5.44289C3.82618 6.47139 4.62894 7.27415 5.65744 7.27415V6.96458C4.79991 6.96458 4.13575 6.30042 4.13575 5.44289H3.82618ZM5.65744 7.27415C6.68594 7.27415 7.4887 6.47139 7.4887 5.44289H7.17913C7.17913 6.30042 6.51497 6.96458 5.65744 6.96458V7.27415ZM7.4887 5.44289C7.4887 4.41229 6.64891 3.61163 5.65744 3.61163V3.9212C6.48215 3.9212 7.17913 4.58745 7.17913 5.44289H7.4887Z" fill="#2C3C59"/>
<path d="M5.65716 7.29137C6.64924 7.29137 7.45348 6.48713 7.45348 5.49505C7.45348 4.50297 6.64924 3.69873 5.65716 3.69873C4.66508 3.69873 3.86084 4.50297 3.86084 5.49505C3.86084 6.48713 4.66508 7.29137 5.65716 7.29137Z" fill="white" stroke="#2C3C59" stroke-width="0.309571"/>
</svg>
