<svg width="25" height="25" viewBox="0 0 25 25" fill="none" xmlns="http://www.w3.org/2000/svg">
<path d="M13.3468 15.8143C14.5624 15.8143 15.5479 14.8288 15.5479 13.6132C15.5479 12.3976 14.5624 11.4121 13.3468 11.4121C12.1311 11.4121 11.1457 12.3976 11.1457 13.6132C11.1457 14.8288 12.1311 15.8143 13.3468 15.8143Z" fill="#D5E9FA"/>
<path d="M9.47363 20.4705C9.47363 20.4705 10.3414 17.0207 13.2409 17.0207C16.1404 17.0207 16.733 20.4705 16.733 20.4705H9.47363Z" fill="#D5E9FA"/>
<path d="M7.91207 19.6109C7.84617 19.8072 7.95191 20.0198 8.14825 20.0857C8.34459 20.1516 8.55718 20.0459 8.62309 19.8495L7.91207 19.6109ZM16.3674 19.8121C16.4126 20.0142 16.6131 20.1414 16.8152 20.0962C17.0173 20.0509 17.1445 19.8504 17.0993 19.6483L16.3674 19.8121ZM14.5594 13.1481C14.5594 14.2384 13.6755 15.1223 12.5851 15.1223V15.8723C14.0897 15.8723 15.3094 14.6527 15.3094 13.1481H14.5594ZM12.5851 15.1223C11.4948 15.1223 10.6109 14.2384 10.6109 13.1481H9.86086C9.86086 14.6526 11.0805 15.8723 12.5851 15.8723V15.1223ZM10.6109 13.1481C10.6109 12.0577 11.4948 11.1738 12.5851 11.1738V10.4238C11.0805 10.4238 9.86086 11.6435 9.86086 13.1481H10.6109ZM12.5851 11.1738C13.6755 11.1738 14.5594 12.0577 14.5594 13.1481H15.3094C15.3094 11.6435 14.0897 10.4238 12.5851 10.4238V11.1738ZM8.26758 19.7302C8.62309 19.8495 8.62303 19.8497 8.62298 19.8499C8.62297 19.8499 8.62292 19.85 8.6229 19.8501C8.62285 19.8503 8.62281 19.8503 8.6228 19.8504C8.62276 19.8505 8.62279 19.8504 8.62287 19.8502C8.62305 19.8497 8.62346 19.8485 8.62413 19.8466C8.62547 19.8428 8.6278 19.8363 8.63117 19.8273C8.63792 19.8092 8.6488 19.781 8.66413 19.7441C8.69482 19.6702 8.74317 19.562 8.81164 19.4309C8.94893 19.168 9.16494 18.8171 9.47823 18.4671C10.0998 17.7726 11.1045 17.0787 12.6698 17.0787V16.3287C10.8488 16.3287 9.65233 17.148 8.9194 17.9669C8.55542 18.3735 8.30582 18.7792 8.14681 19.0838C8.06712 19.2364 8.00965 19.3646 7.97156 19.4563C7.9525 19.5021 7.93824 19.5389 7.92846 19.5652C7.92356 19.5783 7.91978 19.5888 7.91706 19.5965C7.9157 19.6003 7.91461 19.6035 7.91378 19.6059C7.91337 19.6071 7.91302 19.6081 7.91273 19.6089C7.91259 19.6093 7.91246 19.6097 7.91235 19.61C7.9123 19.6102 7.91223 19.6104 7.9122 19.6105C7.91213 19.6107 7.91207 19.6109 8.26758 19.7302ZM12.6698 17.0787C14.2311 17.0787 15.1438 17.7684 15.6762 18.4482C15.9464 18.7931 16.1209 19.1395 16.2277 19.3997C16.2809 19.5293 16.3167 19.6363 16.3388 19.7091C16.3499 19.7455 16.3575 19.7733 16.3621 19.791C16.3644 19.7998 16.3659 19.8061 16.3668 19.8097C16.3672 19.8115 16.3675 19.8126 16.3676 19.813C16.3676 19.8132 16.3677 19.8132 16.3676 19.8131C16.3676 19.813 16.3676 19.8129 16.3675 19.8127C16.3675 19.8127 16.3675 19.8125 16.3675 19.8125C16.3674 19.8123 16.3674 19.8121 16.7333 19.7302C17.0993 19.6483 17.0993 19.6481 17.0992 19.6479C17.0992 19.6478 17.0991 19.6476 17.0991 19.6474C17.099 19.6471 17.0989 19.6467 17.0988 19.6462C17.0986 19.6454 17.0984 19.6443 17.0981 19.643C17.0975 19.6405 17.0967 19.6373 17.0958 19.6334C17.0939 19.6255 17.0912 19.6148 17.0878 19.6015C17.0808 19.5748 17.0705 19.5376 17.0565 19.4912C17.0283 19.3985 16.9848 19.2691 16.9216 19.115C16.7955 18.8077 16.5891 18.3974 16.2667 17.9857C15.6139 17.1523 14.4948 16.3287 12.6698 16.3287V17.0787Z" fill="#2C3C59"/>
<path d="M3.89284 20.4707C2.8433 18.8605 2.2334 16.9375 2.2334 14.8721C2.2334 9.20199 6.82992 4.60547 12.5 4.60547C18.1701 4.60547 22.7666 9.20199 22.7666 14.8721C22.7666 16.9375 22.1567 18.8605 21.1072 20.4707" stroke="#2C3C59" stroke-width="0.75"/>
<path d="M5.88158 19.0578C5.07449 17.8195 4.60547 16.3407 4.60547 14.7524C4.60547 10.3921 8.14019 6.85742 12.5005 6.85742C16.8608 6.85742 20.3955 10.3921 20.3955 14.7524C20.3955 16.3407 19.9265 17.8195 19.1194 19.0578" stroke="#2C3C59" stroke-width="0.75"/>
</svg>
