<svg width="25" height="25" viewBox="0 0 25 25" fill="none" xmlns="http://www.w3.org/2000/svg">
<path d="M19.292 9.91961V20.6028L12.1003 23.4793L5.21251 20.6028V9.91961L12.1003 7.13477L19.292 9.91961Z" fill="#D5E9FA"/>
<path d="M20.6582 8.83376L11.9594 5.36328L3.84663 8.83376M20.6582 12.6081V18.1184L11.9594 21.5889L3.84663 18.1184V12.3312" stroke="#2C3C59" stroke-miterlimit="10" stroke-linecap="round" stroke-linejoin="round"/>
<path d="M3.75634 8.87906L1.63796 11.3129L10.0663 15.0989L11.9142 12.3045L13.7621 15.0989L23.3623 11.5383L20.658 8.83398L11.9593 12.3045L3.84646 8.83398L11.9593 12.3045V21.5891" stroke="#2C3C59" stroke-miterlimit="10" stroke-linecap="round" stroke-linejoin="round"/>
<path d="M7.72698 2.26208C7.49697 2.26208 5.2233 2.23681 5 2.26208C7.36575 2.599 10.8037 5.11734 10.8143 8.17834H9.50193L12.036 10.6211L14.57 8.17834H13.2571C13.2435 4.88749 11.0205 2.26208 7.72698 2.26208Z" fill="#2C3C59"/>
</svg>
