<svg width="25" height="25" viewBox="0 0 25 25" fill="none" xmlns="http://www.w3.org/2000/svg">
<path d="M14 7.28711L6.5 12.906V23.0371H21.5V12.906L14 7.28711Z" fill="#D5E9FA"/>
<path d="M19.514 13.3262V21.6581H5.06055V13.3262" stroke="#2C3C59" stroke-miterlimit="10" stroke-linecap="round" stroke-linejoin="round"/>
<path d="M2 10.9764L12.5 3.53711L23 10.9764" stroke="#2C3C59" stroke-miterlimit="10" stroke-linecap="round" stroke-linejoin="round"/>
<rect x="6.67188" y="11.9473" width="11.2309" height="0.75" rx="0.375" fill="#2C3C59"/>
<rect x="10.5459" y="8.62305" width="3.48407" height="0.75" rx="0.375" fill="#2C3C59"/>
<rect x="10.5459" y="9.95703" width="3.48407" height="0.75" rx="0.375" fill="#2C3C59"/>
<rect x="10.5459" y="7.28711" width="3.48407" height="0.75" rx="0.375" fill="#2C3C59"/>
<path fill-rule="evenodd" clip-rule="evenodd" d="M12.4868 18.3748C12.4868 18.3703 12.4894 18.3565 12.5067 18.3406C12.5237 18.325 12.5464 18.3159 12.5679 18.3159H13.8199C13.8198 18.3187 13.8197 18.3215 13.8197 18.3243V19.2217C13.8197 19.3233 13.9118 19.4079 14.0222 19.4079H14.2431C14.3536 19.4079 14.4456 19.3233 14.4456 19.2217V18.3243C14.4456 18.3215 14.4455 18.3187 14.4454 18.3159H15.6973C15.7188 18.3159 15.7414 18.325 15.7585 18.3406C15.7757 18.3565 15.7783 18.3703 15.7783 18.3748V21.2533C15.7783 21.2706 15.7724 21.2816 15.7618 21.2909C15.7493 21.3019 15.7269 21.3122 15.6973 21.3122H12.5679C12.5464 21.3122 12.5237 21.3032 12.5067 21.2875C12.4894 21.2717 12.4868 21.2579 12.4868 21.2533V18.3748ZM12.5679 17.9258C12.3285 17.9258 12.0967 18.1166 12.0967 18.3748V21.2533C12.0967 21.5116 12.3285 21.7024 12.5679 21.7024H15.6973C15.9277 21.7024 16.1685 21.5365 16.1685 21.2533V18.3748C16.1685 18.1166 15.9366 17.9258 15.6973 17.9258H12.5679Z" fill="#2C3C59"/>
<path fill-rule="evenodd" clip-rule="evenodd" d="M10.6411 14.9198C10.6411 14.9152 10.6437 14.9014 10.661 14.8856C10.678 14.8699 10.7007 14.8609 10.7222 14.8609H11.9757C11.9756 14.8641 11.9755 14.8673 11.9755 14.8705V15.7679C11.9755 15.8695 12.0675 15.9542 12.178 15.9542H12.3989C12.5093 15.9542 12.6014 15.8695 12.6014 15.7679V14.8705C12.6014 14.8673 12.6013 14.8641 12.6011 14.8609H13.8516C13.8731 14.8609 13.8957 14.8699 13.9128 14.8856C13.93 14.9014 13.9326 14.9152 13.9326 14.9198V17.7982C13.9326 17.8155 13.9267 17.8265 13.9161 17.8358C13.9036 17.8468 13.8812 17.8571 13.8516 17.8571H10.7222C10.7007 17.8571 10.678 17.8481 10.661 17.8325C10.6437 17.8166 10.6411 17.8028 10.6411 17.7982V14.9198ZM10.7222 14.4707C10.4828 14.4707 10.251 14.6615 10.251 14.9198V17.7982C10.251 18.0565 10.4828 18.2473 10.7222 18.2473H13.8516C14.082 18.2473 14.3228 18.0815 14.3228 17.7982V14.9198C14.3228 14.6615 14.0909 14.4707 13.8516 14.4707H10.7222Z" fill="#2C3C59"/>
<path fill-rule="evenodd" clip-rule="evenodd" d="M8.79642 18.3584C8.79642 18.3575 8.79725 18.3459 8.81431 18.3306C8.83107 18.3156 8.85435 18.3062 8.87746 18.3062H10.1308C10.1308 18.3076 10.1307 18.3091 10.1307 18.3106V19.1842C10.1307 19.2832 10.2228 19.3656 10.3332 19.3656H10.5541C10.6646 19.3656 10.7566 19.2832 10.7566 19.1842V18.3106C10.7566 18.3091 10.7566 18.3076 10.7566 18.3062H12.0068C12.0299 18.3062 12.0532 18.3156 12.07 18.3306C12.087 18.3459 12.0879 18.3575 12.0879 18.3584V21.1608C12.0879 21.1741 12.0836 21.183 12.0734 21.1918C12.0609 21.2024 12.0379 21.213 12.0068 21.213H8.87746C8.85435 21.213 8.83107 21.2035 8.81431 21.1885C8.79725 21.1733 8.79642 21.1616 8.79642 21.1608V18.3584ZM8.87746 17.916C8.64325 17.916 8.40625 18.0991 8.40625 18.3584V21.1608C8.40625 21.4201 8.64325 21.6031 8.87746 21.6031H12.0068C12.232 21.6031 12.478 21.4445 12.478 21.1608V18.3584C12.478 18.0991 12.241 17.916 12.0068 17.916H8.87746Z" fill="#2C3C59"/>
</svg>
