<svg width="25" height="25" viewBox="0 0 25 25" fill="none" xmlns="http://www.w3.org/2000/svg">
<path d="M13.1771 20.4778C18.987 20.4778 23.6969 18.4187 23.6969 15.8786C23.6969 13.3385 18.987 11.2793 13.1771 11.2793C7.36712 11.2793 2.65723 13.3385 2.65723 15.8786C2.65723 18.4187 7.36712 20.4778 13.1771 20.4778Z" fill="#D5E9FA"/>
<path fill-rule="evenodd" clip-rule="evenodd" d="M16.8625 10.1399L16.8976 10.3627C17.0235 10.3428 17.1094 10.2246 17.0895 10.0988C17.0697 9.97291 16.9515 9.887 16.8256 9.90687L16.8547 10.0909C16.8256 9.90687 16.8256 9.90687 16.8256 9.90687L16.8256 9.90688L16.8255 9.90689L16.8253 9.90693L16.8242 9.9071L16.8199 9.90777L16.8032 9.91043L16.7379 9.92083L16.4881 9.96101C16.2718 9.996 15.9602 10.0469 15.5786 10.1105C15.4529 10.1314 15.368 10.2503 15.389 10.376C15.4099 10.5017 15.5288 10.5866 15.6545 10.5656C16.0352 10.5022 16.3461 10.4514 16.5618 10.4165L16.8107 10.3765L16.8756 10.3662L16.8921 10.3635L16.8963 10.3629L16.8973 10.3627L16.8976 10.3627L16.8976 10.3627L16.8976 10.3627L16.8625 10.1399ZM13.8293 10.7515C13.8603 10.8751 13.7853 11.0004 13.6617 11.0315C13.3832 11.1014 13.117 11.1676 12.8642 11.2304L12.8638 11.2306L12.8637 11.2306L12.8633 11.2307C12.6921 11.2732 12.527 11.3143 12.3683 11.3539C12.2447 11.3848 12.1195 11.3097 12.0885 11.1861C12.0576 11.0624 12.1328 10.9372 12.2564 10.9063C12.4166 10.8662 12.5822 10.8251 12.7537 10.7824C13.0058 10.7198 13.2706 10.6539 13.5493 10.5839C13.6729 10.5529 13.7982 10.6279 13.8293 10.7515ZM9.97407 11.7966C10.0264 11.9127 9.97472 12.0494 9.85855 12.1017C9.59114 12.2223 9.41644 12.3397 9.30966 12.458C9.20928 12.5692 9.16437 12.6855 9.16437 12.8282C9.16437 12.8866 9.1929 12.9681 9.29706 13.0769C9.40113 13.1857 9.56216 13.3016 9.7796 13.4231C9.89082 13.4853 9.93059 13.6258 9.86842 13.7371C9.80625 13.8483 9.66569 13.8881 9.55446 13.8259C9.31867 13.6941 9.113 13.552 8.96369 13.396C8.81448 13.24 8.70294 13.0501 8.70294 12.8282C8.70294 12.5676 8.7927 12.342 8.96718 12.1488C9.13526 11.9626 9.37559 11.8133 9.66892 11.6811C9.78508 11.6287 9.9217 11.6804 9.97407 11.7966ZM11.5376 14.3993C11.5788 14.2787 11.7099 14.2143 11.8305 14.2555C12.0994 14.3472 12.3782 14.4399 12.6593 14.5333L12.6594 14.5333C13.1009 14.68 13.5482 14.8286 13.9719 14.9789C14.092 15.0214 14.1549 15.1533 14.1123 15.2734C14.0697 15.3935 13.9378 15.4563 13.8177 15.4138C13.3966 15.2645 12.9591 15.1191 12.5222 14.974C12.2402 14.8803 11.9584 14.7867 11.6815 14.6922C11.5609 14.651 11.4965 14.5199 11.5376 14.3993ZM15.7615 15.984C15.8306 15.877 15.9733 15.8461 16.0804 15.9152C16.2999 16.0568 16.4897 16.2112 16.6243 16.3823C16.7605 16.5554 16.8482 16.7563 16.838 16.9806L16.838 16.9816C16.829 17.1617 16.7478 17.3234 16.635 17.4636C16.5224 17.6036 16.3686 17.7341 16.1898 17.8565C16.0846 17.9284 15.941 17.9015 15.8691 17.7963C15.7971 17.6912 15.8241 17.5476 15.9293 17.4756C16.0868 17.3679 16.2012 17.2666 16.2756 17.1743C16.3496 17.0823 16.3743 17.0113 16.3771 16.9591C16.3807 16.8758 16.3507 16.7807 16.2617 16.6677C16.1709 16.5523 16.0275 16.4301 15.8303 16.303C15.7233 16.2339 15.6924 16.0911 15.7615 15.984ZM14.6238 18.3699C14.6679 18.4894 14.6067 18.6221 14.4872 18.6662C13.9486 18.8649 13.3486 19.0551 12.7276 19.2334C12.6051 19.2685 12.4773 19.1977 12.4422 19.0753C12.407 18.9528 12.4778 18.825 12.6003 18.7898C13.2141 18.6137 13.8027 18.4269 14.3275 18.2333C14.447 18.1892 14.5797 18.2504 14.6238 18.3699ZM11.1163 19.4242C11.1465 19.548 11.0707 19.6728 10.9469 19.703C10.6438 19.7769 10.3441 19.8474 10.0522 19.9139C9.92794 19.9423 9.80427 19.8645 9.77593 19.7403C9.7476 19.6161 9.82534 19.4924 9.94957 19.464C10.2395 19.3979 10.5369 19.328 10.8375 19.2547C10.9613 19.2245 11.0862 19.3004 11.1163 19.4242ZM7.88932 20.152C7.91431 20.2769 7.83327 20.3985 7.70833 20.4235C7.32526 20.5001 7.01225 20.5576 6.79475 20.5959C6.686 20.6151 6.6011 20.6296 6.54324 20.6392L6.47713 20.6501L6.46002 20.6528L6.45559 20.6535L6.45442 20.6537L6.45409 20.6538L6.454 20.6538L6.45397 20.6538C6.45396 20.6538 6.45395 20.6538 6.41836 20.4284L6.45395 20.6538C6.32808 20.6737 6.20994 20.5877 6.19007 20.4619C6.1702 20.336 6.25612 20.2179 6.38198 20.198H6.38198L6.38199 20.198L6.38202 20.198L6.38223 20.198L6.38317 20.1978L6.38713 20.1972L6.40328 20.1946L6.46739 20.184C6.52388 20.1746 6.60733 20.1605 6.71457 20.1415C6.92905 20.1037 7.23859 20.0468 7.61783 19.971C7.74278 19.946 7.86433 20.027 7.88932 20.152Z" fill="#2C3C59"/>
<path d="M3.71786 11.6094C2.39652 11.6094 1.30388 12.702 1.30388 14.0234C1.25306 16.0816 2.90473 18.3939 3.71786 20.4521C4.53099 18.3939 6.18265 16.0816 6.13183 14.0234C6.13183 12.702 5.03919 11.6094 3.71786 11.6094Z" fill="#2C3C59"/>
<path d="M3.71782 13.0832C4.25143 13.0832 4.68341 13.5152 4.68341 14.0488C4.68341 14.5824 4.25143 15.0144 3.71782 15.0144C3.1842 15.0144 2.75223 14.5824 2.75223 14.0488C2.75223 13.5152 3.1842 13.0832 3.71782 13.0832ZM3.71782 12.8291C3.05715 12.8291 2.49813 13.3628 2.49813 14.0488C2.49813 14.7349 3.03174 15.2685 3.71782 15.2685C4.4039 15.2685 4.93751 14.7349 4.93751 14.0488C4.93751 13.3628 4.37849 12.8291 3.71782 12.8291Z" fill="#2C3C59"/>
<path d="M1.30388 14.0234L1.41924 14.0262V14.0234H1.30388ZM3.71786 20.4521L3.61057 20.4945L3.71786 20.7661L3.82515 20.4945L3.71786 20.4521ZM6.13183 14.0234H6.01644L6.01651 14.0262L6.13183 14.0234ZM3.71786 11.494C2.33281 11.494 1.18852 12.6383 1.18852 14.0234H1.41924C1.41924 12.7657 2.46023 11.7247 3.71786 11.7247V11.494ZM1.18856 14.0205C1.16244 15.0783 1.5732 16.1919 2.08229 17.2864C2.59674 18.3925 3.20497 19.4679 3.61057 20.4945L3.82515 20.4098C3.41762 19.3782 2.79345 18.2683 2.29149 17.1891C1.78416 16.0984 1.3945 15.0267 1.4192 14.0262L1.18856 14.0205ZM3.82515 20.4945C4.23074 19.4679 4.83898 18.3925 5.35343 17.2864C5.86251 16.1919 6.27328 15.0783 6.24716 14.0205L6.01651 14.0262C6.04121 15.0267 5.65155 16.0984 5.14423 17.1891C4.64226 18.2683 4.0181 19.3782 3.61057 20.4098L3.82515 20.4945ZM6.24719 14.0234C6.24719 12.6383 5.1029 11.494 3.71786 11.494V11.7247C4.97548 11.7247 6.01647 12.7657 6.01647 14.0234H6.24719ZM3.71782 13.1986C4.18772 13.1986 4.56805 13.5789 4.56805 14.0488H4.79877C4.79877 13.4515 4.31515 12.9679 3.71782 12.9679V13.1986ZM4.56805 14.0488C4.56805 14.5187 4.18772 14.8991 3.71782 14.8991V15.1298C4.31515 15.1298 4.79877 14.6462 4.79877 14.0488H4.56805ZM3.71782 14.8991C3.24791 14.8991 2.86759 14.5187 2.86759 14.0488H2.63687C2.63687 14.6462 3.12049 15.1298 3.71782 15.1298V14.8991ZM2.86759 14.0488C2.86759 13.5789 3.24791 13.1986 3.71782 13.1986V12.9679C3.12049 12.9679 2.63687 13.4515 2.63687 14.0488H2.86759ZM3.71782 12.7138C2.99501 12.7138 2.38277 13.2975 2.38277 14.0488H2.61349C2.61349 13.428 3.11929 12.9445 3.71782 12.9445V12.7138ZM2.38277 14.0488C2.38277 14.7986 2.96803 15.3839 3.71782 15.3839V15.1532C3.09545 15.1532 2.61349 14.6712 2.61349 14.0488H2.38277ZM3.71782 15.3839C4.46761 15.3839 5.05287 14.7986 5.05287 14.0488H4.82215C4.82215 14.6712 4.34019 15.1532 3.71782 15.1532V15.3839ZM5.05287 14.0488C5.05287 13.2975 4.44063 12.7138 3.71782 12.7138V12.9445C4.31635 12.9445 4.82215 13.428 4.82215 14.0488H5.05287Z" fill="#4C5263"/>
<ellipse cx="3.71771" cy="14.0869" rx="1.19427" ry="1.19427" fill="white"/>
<path d="M18.667 4.2832C17.8351 4.2832 17.1472 4.97113 17.1472 5.80304C17.1152 7.0989 18.1551 8.55474 18.667 9.8506C19.179 8.55474 20.2189 7.0989 20.1869 5.80304C20.1869 4.97113 19.499 4.2832 18.667 4.2832Z" fill="#2C3C59"/>
<path d="M18.667 5.21115C19.003 5.21115 19.2749 5.48312 19.2749 5.81908C19.2749 6.15504 19.003 6.42701 18.667 6.42701C18.3311 6.42701 18.0591 6.15504 18.0591 5.81908C18.0591 5.48312 18.3311 5.21115 18.667 5.21115ZM18.667 5.05116C18.2511 5.05116 17.8991 5.38713 17.8991 5.81908C17.8991 6.25103 18.2351 6.587 18.667 6.587C19.099 6.587 19.4349 6.25103 19.4349 5.81908C19.4349 5.38713 19.083 5.05116 18.667 5.05116Z" fill="#2C3C59"/>
<path d="M17.1472 5.80304L17.2626 5.80589V5.80304H17.1472ZM18.667 9.8506L18.5598 9.89299L18.667 10.1646L18.7743 9.89299L18.667 9.8506ZM20.1869 5.80304H20.0715L20.0716 5.80589L20.1869 5.80304ZM18.667 4.16784C17.7714 4.16784 17.0318 4.90742 17.0318 5.80304H17.2626C17.2626 5.03484 17.8988 4.39856 18.667 4.39856V4.16784ZM17.0319 5.80019C17.0152 6.47678 17.2777 7.18565 17.5985 7.87547C17.9248 8.57681 18.3047 9.24751 18.5598 9.89299L18.7743 9.80822C18.5174 9.15784 18.1215 8.45268 17.8077 7.77817C17.4887 7.09214 17.2472 6.42516 17.2625 5.80589L17.0319 5.80019ZM18.7743 9.89299C19.0293 9.24751 19.4093 8.57681 19.7355 7.87547C20.0564 7.18565 20.3189 6.47678 20.3022 5.80019L20.0716 5.80589C20.0868 6.42516 19.8454 7.09214 19.5263 7.77817C19.2126 8.45268 18.8167 9.15784 18.5598 9.80822L18.7743 9.89299ZM20.3022 5.80304C20.3022 4.90742 19.5627 4.16784 18.667 4.16784V4.39856C19.4352 4.39856 20.0715 5.03484 20.0715 5.80304H20.3022ZM18.667 5.32651C18.9393 5.32651 19.1596 5.54683 19.1596 5.81908H19.3903C19.3903 5.41941 19.0667 5.09579 18.667 5.09579V5.32651ZM19.1596 5.81908C19.1596 6.09133 18.9393 6.31165 18.667 6.31165V6.54237C19.0667 6.54237 19.3903 6.21876 19.3903 5.81908H19.1596ZM18.667 6.31165C18.3948 6.31165 18.1744 6.09133 18.1744 5.81908H17.9437C17.9437 6.21876 18.2673 6.54237 18.667 6.54237V6.31165ZM18.1744 5.81908C18.1744 5.54683 18.3948 5.32651 18.667 5.32651V5.09579C18.2673 5.09579 17.9437 5.41941 17.9437 5.81908H18.1744ZM18.667 4.93581C18.1889 4.93581 17.7837 5.32186 17.7837 5.81908H18.0145C18.0145 5.4524 18.3132 5.16652 18.667 5.16652V4.93581ZM17.7837 5.81908C17.7837 6.31474 18.1714 6.70235 18.667 6.70235V6.47164C18.2988 6.47164 18.0145 6.18732 18.0145 5.81908H17.7837ZM18.667 6.70235C19.1627 6.70235 19.5503 6.31474 19.5503 5.81908H19.3196C19.3196 6.18732 19.0353 6.47164 18.667 6.47164V6.70235ZM19.5503 5.81908C19.5503 5.32186 19.1451 4.93581 18.667 4.93581V5.16652C19.0208 5.16652 19.3196 5.4524 19.3196 5.81908H19.5503Z" fill="#4C5263"/>
<ellipse cx="18.667" cy="5.84371" rx="0.751913" ry="0.751912" fill="white"/>
</svg>
