<svg width="24" height="25" viewBox="0 0 24 25" fill="none" xmlns="http://www.w3.org/2000/svg">
<path d="M21.0536 20.5899C21.3319 20.8682 21.3319 21.3193 21.0536 21.5976C20.7754 21.8758 20.3242 21.8758 20.046 21.5976L16.626 18.1776C16.3477 17.8993 16.3477 17.4482 16.626 17.1699C16.9042 16.8917 17.3554 16.8917 17.6336 17.1699L21.0536 20.5899ZM10.2898 18.3862C6.11867 18.3862 2.7373 15.0049 2.7373 10.8337C2.7373 6.66262 6.11867 3.28125 10.2898 3.28125C14.4609 3.28125 17.8423 6.66262 17.8423 10.8337C17.8423 15.0049 14.4609 18.3862 10.2898 18.3862ZM10.2898 16.9612C13.6739 16.9612 16.4173 14.2179 16.4173 10.8337C16.4173 7.44963 13.6739 4.70625 10.2898 4.70625C6.90568 4.70625 4.1623 7.44963 4.1623 10.8337C4.1623 14.2179 6.90568 16.9612 10.2898 16.9612Z" fill="#C8CDD5"/>
</svg>
