<svg width="25" height="25" viewBox="0 0 25 25" fill="none" xmlns="http://www.w3.org/2000/svg">
<path d="M14.0798 12.5352H18.4081C18.6486 12.5352 18.859 12.7456 18.859 12.986V17.3144C18.859 17.5548 18.6486 17.7653 18.4081 17.7653H14.0798C13.8393 17.7653 13.6289 17.5548 13.6289 17.3144V12.986C13.6289 12.7456 13.8393 12.5352 14.0798 12.5352Z" fill="#D5E9FA"/>
<path d="M18.0764 17.4784H12.9665C12.726 17.4784 12.5156 17.268 12.5156 17.0275V11.9177C12.5156 11.6772 12.726 11.4668 12.9665 11.4668H18.0764C18.3168 11.4668 18.5272 11.6772 18.5272 11.9177V17.0275C18.5272 17.2981 18.3168 17.4784 18.0764 17.4784Z" stroke="#2C3C59" stroke-miterlimit="10"/>
<path d="M15.72 13.7211H15.3229C15.1244 13.7211 14.959 13.5709 14.959 13.3905V11.7974C14.959 11.6171 15.1244 11.4668 15.3229 11.4668H15.72C15.9185 11.4668 16.084 11.6171 16.084 11.7974V13.3905C16.084 13.5709 15.9185 13.7211 15.72 13.7211Z" fill="#2C3C59"/>
<path d="M8.06415 12.5352H12.3925C12.633 12.5352 12.8434 12.7456 12.8434 12.986V17.3144C12.8434 17.5548 12.633 17.7653 12.3925 17.7653H8.06415C7.82369 17.7653 7.61328 17.5548 7.61328 17.3144V12.986C7.61328 12.7456 7.82369 12.5352 8.06415 12.5352Z" fill="#D5E9FA"/>
<path d="M12.0607 17.4784H6.95087C6.71041 17.4784 6.5 17.268 6.5 17.0275V11.9177C6.5 11.6772 6.71041 11.4668 6.95087 11.4668H12.0607C12.3012 11.4668 12.5116 11.6772 12.5116 11.9177V17.0275C12.5116 17.2981 12.3012 17.4784 12.0607 17.4784Z" stroke="#2C3C59" stroke-miterlimit="10"/>
<path d="M9.70438 13.7211H9.30732C9.10879 13.7211 8.94336 13.5709 8.94336 13.3905V11.7974C8.94336 11.6171 9.10879 11.4668 9.30732 11.4668H9.70438C9.90291 11.4668 10.0684 11.6171 10.0684 11.7974V13.3905C10.0684 13.5709 9.90291 13.7211 9.70438 13.7211Z" fill="#2C3C59"/>
<path d="M11.1452 6.23633H15.4736C15.714 6.23633 15.9244 6.44673 15.9244 6.6872V11.0156C15.9244 11.256 15.714 11.4664 15.4736 11.4664H11.1452C10.9047 11.4664 10.6943 11.256 10.6943 11.0156V6.6872C10.6943 6.44673 10.9047 6.23633 11.1452 6.23633Z" fill="#D5E9FA"/>
<path d="M15.1418 11.1796H10.0319C9.79146 11.1796 9.58105 10.9692 9.58105 10.7287V5.61884C9.58105 5.37838 9.79146 5.16797 10.0319 5.16797H15.1418C15.3823 5.16797 15.5927 5.37838 15.5927 5.61884V10.7287C15.5927 10.9992 15.3823 11.1796 15.1418 11.1796Z" stroke="#2C3C59" stroke-miterlimit="10"/>
<path d="M12.7854 7.42232H12.3884C12.1898 7.42232 12.0244 7.27203 12.0244 7.09168V5.4986C12.0244 5.31825 12.1898 5.16797 12.3884 5.16797H12.7854C12.984 5.16797 13.1494 5.31825 13.1494 5.4986V7.09168C13.1494 7.27203 12.984 7.42232 12.7854 7.42232Z" fill="#2C3C59"/>
<path d="M6.37789 20.8201H1.51563V22.4527H6.37789V20.8201Z" fill="#2C3C59"/>
<path d="M12.0919 20.8556H7.22966V22.4527H12.0919V20.8556Z" fill="#2C3C59"/>
<path d="M17.806 20.8556H12.9437V22.4527H17.806V20.8556Z" fill="#2C3C59"/>
<path d="M23.4846 20.8556H18.6223V22.4527H23.4846V20.8556Z" fill="#2C3C59"/>
<path d="M23.4845 18.9746H1.51562V20.3233H23.4845V18.9746Z" fill="#2C3C59"/>
</svg>
