<svg width="25" height="25" viewBox="0 0 25 25" fill="none" xmlns="http://www.w3.org/2000/svg">
<g clip-path="url(#clip0)">
<path d="M21.0598 14.4868L15.5447 9.07177C15.3593 8.88974 15.055 8.91702 14.9049 9.12912L9.42924 16.8689C9.32737 17.0129 9.32587 17.2051 9.42547 17.3506L11.8398 20.879C11.8878 20.9492 11.9134 21.0322 11.9134 21.1172V23.1852C11.9134 23.4181 12.1023 23.607 12.3352 23.607H20.7643C20.9972 23.607 21.1861 23.4181 21.1861 23.1852V14.7877C21.1861 14.6745 21.1406 14.5661 21.0598 14.4868Z" fill="#D5E9FA"/>
<path d="M5.24121 17.0176L5.24121 4.62917C5.24121 3.6975 5.99648 2.94223 6.92815 2.94223H14.6767V17.0176H5.24121Z" fill="#D5E9FA"/>
<path d="M14.707 14.6756L14.707 3.15374C14.707 2.22206 13.9518 1.4668 13.0201 1.4668L5.50057 1.4668C4.5689 1.4668 3.81363 2.22206 3.81363 3.15374L3.81363 15.3315C3.81363 16.2632 4.5689 17.0185 5.50057 17.0185L10.8281 17.0185" stroke="#2C3C59"/>
<path d="M11.9258 1.4668L11.9258 12.2341L9.77934 10.3203L9.77934 1.4668L11.9258 1.4668Z" fill="#2C3C59"/>
<path d="M10.4912 14.7381L10.4912 17.2834L9.78007 17.2834L9.78007 13.7812L10.4912 14.7381Z" fill="#2C3C59"/>
<path d="M7.88672 2.94336L7.88672 7.41878" stroke="#2C3C59"/>
<path d="M14.6768 8.72461L19.4158 13.3421C19.4973 13.4215 19.5432 13.5304 19.5432 13.6442V22.1587" stroke="#2C3C59"/>
<path d="M16.1356 15.8653L10.2308 10.628C9.73293 10.1864 8.97723 10.209 8.50665 10.6796V10.6796C8.01541 11.1708 8.01541 11.9673 8.50665 12.4585L10.5087 14.4606C10.7671 14.719 10.8994 15.0775 10.8811 15.4425C10.7298 18.4618 11.2172 19.2131 13.4487 19.6268" stroke="#2C3C59"/>
<path d="M8.2041 17.1797L10.3153 20.5766V22.1593" stroke="#2C3C59" stroke-width="0.75"/>
</g>
<defs>
<clipPath id="clip0">
<rect width="24" height="24" fill="white" transform="translate(0.5 0.537109)"/>
</clipPath>
</defs>
</svg>
