<svg width="25" height="25" viewBox="0 0 25 25" fill="none" xmlns="http://www.w3.org/2000/svg">
<g clip-path="url(#clip0)">
<path d="M13.7469 9.71918C15.0828 9.71918 16.1657 8.67019 16.1657 7.37619C16.1657 6.0822 15.0828 5.0332 13.7469 5.0332C12.4111 5.0332 11.3281 6.0822 11.3281 7.37619C11.3281 8.67019 12.4111 9.71918 13.7469 9.71918Z" fill="#D5E9FA"/>
<path d="M13.3016 9.15277C14.6375 9.15277 15.7204 8.10378 15.7204 6.80979C15.7204 5.51579 14.6375 4.4668 13.3016 4.4668C11.9657 4.4668 10.8828 5.51579 10.8828 6.80979C10.8828 8.10378 11.9657 9.15277 13.3016 9.15277Z" stroke="#2C3C59" stroke-width="0.5" stroke-miterlimit="10" stroke-linecap="round" stroke-linejoin="round"/>
<path d="M13.2388 6.90396C13.1476 6.88073 13.0588 6.85327 12.9724 6.82159C12.8882 6.7878 12.8134 6.74662 12.748 6.69805C12.6849 6.64736 12.6335 6.58717 12.5938 6.51748C12.554 6.44778 12.5342 6.36331 12.5342 6.26405C12.5342 6.17113 12.5529 6.0877 12.5902 6.01379C12.63 5.93987 12.6814 5.87757 12.7445 5.82688C12.8099 5.77409 12.8847 5.7329 12.9689 5.70334C13.0553 5.67166 13.1453 5.65371 13.2388 5.64948V5.42773H13.4176V5.64632C13.5391 5.64843 13.6618 5.66955 13.7857 5.70967C13.9119 5.74769 14.0194 5.80682 14.1082 5.88707L13.8698 6.08665C13.816 6.0254 13.7471 5.97894 13.663 5.94726C13.5812 5.91558 13.4994 5.89869 13.4176 5.89658V6.65053C13.5064 6.67798 13.594 6.7086 13.6805 6.7424C13.7693 6.77619 13.8476 6.81948 13.9154 6.87228C13.9855 6.92296 14.0416 6.98526 14.0836 7.05918C14.1257 7.1331 14.1467 7.2218 14.1467 7.32528C14.1467 7.42454 14.1269 7.51324 14.0871 7.59138C14.0498 7.66952 13.9972 7.73605 13.9294 7.79096C13.864 7.84587 13.7868 7.8881 13.698 7.91767C13.6092 7.94513 13.5157 7.95991 13.4176 7.96202V8.19011H13.2388V7.96202C13.0822 7.9578 12.9373 7.92929 12.8041 7.87649C12.6709 7.82158 12.5552 7.74555 12.457 7.6484L12.7129 7.452C12.7433 7.49212 12.7807 7.52802 12.8251 7.5597C12.8695 7.59138 12.9151 7.61884 12.9618 7.64207C13.0086 7.66319 13.0553 7.68008 13.1021 7.69275C13.1511 7.70331 13.1967 7.70859 13.2388 7.70859V6.90396ZM13.4176 7.70859C13.469 7.70648 13.5181 7.69698 13.5648 7.68008C13.6116 7.66319 13.6525 7.63996 13.6875 7.61039C13.7249 7.57871 13.7541 7.53964 13.7751 7.49318C13.7985 7.44672 13.8102 7.39181 13.8102 7.32845C13.8102 7.22708 13.7728 7.14683 13.698 7.08769C13.6232 7.02856 13.5298 6.9821 13.4176 6.94831V7.70859ZM13.2388 5.89658C13.136 5.90291 13.0483 5.9367 12.9759 5.99795C12.9034 6.05708 12.8672 6.13945 12.8672 6.24504C12.8672 6.34641 12.9011 6.42455 12.9689 6.47946C13.039 6.53226 13.1289 6.57344 13.2388 6.60301V5.89658Z" fill="#2C3C59" stroke="#2C3C59" stroke-width="0.134842" stroke-linejoin="round"/>
<rect width="6.71299" height="0.809052" rx="0.404526" transform="matrix(-1 0 0 1 24.501 6.0957)" fill="#2C3C59"/>
<rect width="4.04526" height="0.809052" rx="0.404526" transform="matrix(-1 0 0 1 21.2236 7.72656)" fill="#2C3C59"/>
<rect width="2.02263" height="0.809052" rx="0.404526" transform="matrix(-1 0 0 1 19.1455 4.4668)" fill="#2C3C59"/>
<rect width="2.83168" height="0.809052" rx="0.404526" transform="matrix(-1 0 0 1 22.4971 4.4668)" fill="#2C3C59"/>
<path d="M7.6829 14.7637C9.25752 14.7637 10.534 13.5272 10.534 12.002C10.534 12.002 9.25752 12.002 7.6829 12.002C6.10828 12.002 4.8318 12.002 4.8318 12.002C4.8318 13.5272 6.10828 14.7637 7.6829 14.7637Z" fill="#D5E9FA"/>
<path d="M2.66602 20.6059C2.66602 20.6059 3.79 16.2774 7.54577 16.2774C11.3015 16.2774 12.0691 20.6059 12.0691 20.6059H2.66602Z" fill="#D5E9FA"/>
<path d="M9.84341 11.418C9.84341 11.2109 9.67551 11.043 9.46841 11.043C9.2613 11.043 9.09341 11.2109 9.09341 11.418H9.84341ZM3.94814 11.418C3.94814 11.2109 3.78024 11.043 3.57314 11.043C3.36603 11.043 3.19814 11.2109 3.19814 11.418H3.94814ZM0.748009 19.5573C0.682104 19.7536 0.787844 19.9662 0.984185 20.0321C1.18053 20.0981 1.39312 19.9923 1.45902 19.796L0.748009 19.5573ZM11.3597 19.7585C11.4049 19.9606 11.6054 20.0878 11.8075 20.0426C12.0096 19.9974 12.1368 19.7969 12.0916 19.5947L11.3597 19.7585ZM9.09341 11.418C9.09341 12.8388 7.94159 13.9906 6.52076 13.9906V14.7406C8.3558 14.7406 9.84341 13.253 9.84341 11.418H9.09341ZM6.52076 13.9906C5.09994 13.9906 3.94814 12.8388 3.94814 11.418H3.19814C3.19814 13.253 4.68573 14.7406 6.52076 14.7406V13.9906ZM1.10352 19.6766C1.45902 19.796 1.45897 19.7961 1.45892 19.7963C1.45891 19.7963 1.45887 19.7964 1.45885 19.7965C1.45881 19.7966 1.45878 19.7967 1.45878 19.7967C1.45878 19.7967 1.45885 19.7965 1.459 19.796C1.4593 19.7952 1.45991 19.7934 1.46084 19.7908C1.46269 19.7856 1.4658 19.7769 1.47023 19.765C1.47908 19.7413 1.49316 19.7048 1.51287 19.6574C1.55232 19.5625 1.61415 19.4241 1.70148 19.2569C1.87651 18.9217 2.15182 18.4744 2.55136 18.028C3.34546 17.1409 4.63043 16.2542 6.627 16.2542V15.5042C4.37474 15.5042 2.89797 16.5163 1.99253 17.5278C1.5423 18.0308 1.2334 18.5329 1.03665 18.9097C0.9381 19.0985 0.867152 19.2568 0.820297 19.3696C0.796857 19.426 0.779405 19.4711 0.767509 19.5029C0.76156 19.5189 0.756997 19.5316 0.753766 19.5407C0.75215 19.5453 0.750867 19.549 0.74991 19.5517C0.749431 19.5531 0.749034 19.5543 0.748717 19.5552C0.748559 19.5557 0.748421 19.5561 0.748303 19.5564C0.748244 19.5566 0.74817 19.5568 0.748141 19.5569C0.748072 19.5571 0.748009 19.5573 1.10352 19.6766ZM6.627 16.2542C8.61954 16.2542 9.79102 17.1366 10.4744 18.0092C10.82 18.4505 11.0431 18.8932 11.1795 19.2256C11.2475 19.3914 11.2935 19.5285 11.322 19.6224C11.3362 19.6694 11.3461 19.7054 11.3522 19.7287C11.3552 19.7404 11.3573 19.7488 11.3586 19.7539C11.3592 19.7564 11.3596 19.7581 11.3597 19.7589C11.3598 19.7593 11.3599 19.7594 11.3599 19.7594C11.3598 19.7593 11.3598 19.7593 11.3598 19.7591C11.3598 19.7591 11.3597 19.7589 11.3597 19.7589C11.3597 19.7587 11.3597 19.7585 11.7256 19.6766C12.0916 19.5947 12.0915 19.5945 12.0915 19.5943C12.0914 19.5942 12.0914 19.594 12.0914 19.5938C12.0913 19.5934 12.0912 19.593 12.0911 19.5925C12.0908 19.5915 12.0906 19.5903 12.0902 19.5889C12.0896 19.586 12.0887 19.5823 12.0875 19.5776C12.0853 19.5683 12.0821 19.5554 12.0779 19.5393C12.0694 19.507 12.0569 19.4614 12.0396 19.4045C12.0051 19.2908 11.9514 19.1312 11.8734 18.941C11.7177 18.5614 11.4628 18.0548 11.0649 17.5467C10.2611 16.5205 8.8833 15.5042 6.627 15.5042V16.2542Z" fill="#2C3C59"/>
<path d="M7.57835 6.875C7.88046 7.05272 7.97821 7.28375 7.87158 7.64806C7.74718 8.07458 7.70275 8.51887 7.65832 8.95428C7.64943 9.07868 7.77383 9.21196 7.83604 9.34525C7.93378 9.23862 8.09372 9.14976 8.12038 9.03425C8.2359 8.5633 8.30698 8.08347 8.40473 7.60364C9.32885 7.83467 10.0042 8.85653 10.3507 10.5537C10.4485 10.5804 10.6084 10.5804 10.6617 10.6515C10.7772 10.8025 10.5327 10.6024 10.506 10.7623C10.4793 10.9134 10.2661 11.0555 10.115 11.1711C10.0439 11.2244 9.91065 11.1888 9.8129 11.1888C7.58257 11.1888 5.34335 11.1888 3.11301 11.1799C2.91753 11.1799 2.67761 11.1355 2.54432 11.02C2.19778 10.7179 2.80667 10.7314 3.41091 10.5182C3.50865 9.22085 4.08623 8.20787 5.31247 7.51478C5.41021 8.04792 5.4813 8.51887 5.59681 8.98093C5.63236 9.11422 5.7923 9.22085 5.89005 9.33637C5.95225 9.19419 6.07665 9.04313 6.05888 8.90096C6.02333 8.47444 5.97002 8.04792 5.8545 7.63918C5.75676 7.28375 5.84562 7.05272 6.15662 6.875C6.62757 6.875 7.1074 6.875 7.57835 6.875Z" fill="#D5E9FA"/>
<path d="M7.31755 6.4043C7.61967 6.58201 7.71742 6.81304 7.61079 7.17736C7.48638 7.60388 7.44196 8.04817 7.39753 8.48357C7.38864 8.60797 7.51304 8.74126 7.57524 8.87455C7.67299 8.76792 7.83293 8.67906 7.85959 8.56354C7.9751 8.0926 8.04619 7.61276 8.14393 7.13293C9.06806 7.36396 9.74338 8.38583 10.0899 10.083C10.1877 10.1097 10.3476 10.1097 10.4009 10.1808C10.5164 10.3318 10.6764 10.5362 10.6497 10.6961C10.6231 10.8472 10.4098 10.9894 10.2588 11.1049C10.1877 11.1582 10.0544 11.1227 9.95663 11.1227C7.7263 11.1227 5.48708 11.1227 3.25675 11.1138C3.06126 11.1138 2.82134 11.0693 2.68806 10.9538C2.34151 10.6517 2.54588 10.2607 3.15012 10.0475C3.24786 8.75015 3.82544 7.73717 5.05168 7.04407C5.14942 7.57722 5.22051 8.04817 5.33602 8.51023C5.37157 8.64352 5.53151 8.75015 5.62925 8.86566C5.69145 8.72349 5.81586 8.57243 5.79808 8.43026C5.76254 8.00374 5.70923 7.57722 5.59371 7.16848C5.49597 6.81304 5.58482 6.58201 5.89583 6.4043C6.36677 6.4043 6.84661 6.4043 7.31755 6.4043Z" stroke="#2C3C59" stroke-width="0.75"/>
</g>
<defs>
<clipPath id="clip0">
<rect width="24" height="24" fill="white" transform="translate(0.5 0.537109)"/>
</clipPath>
</defs>
</svg>
