<svg width="25" height="25" viewBox="0 0 25 25" fill="none" xmlns="http://www.w3.org/2000/svg">
<path d="M13.4148 23.0614C18.9106 23.0614 23.3657 18.7458 23.3657 13.4223C23.3657 8.09877 18.9106 3.7832 13.4148 3.7832C7.91906 3.7832 3.46387 8.09877 3.46387 13.4223C3.46387 18.7458 7.91906 23.0614 13.4148 23.0614Z" fill="#D5E9FA"/>
<path d="M11.5847 21.2899C17.0804 21.2899 21.5356 16.9743 21.5356 11.6508C21.5356 6.32728 17.0804 2.01172 11.5847 2.01172C6.08895 2.01172 1.63379 6.32728 1.63379 11.6508C1.63379 16.9743 6.08895 21.2899 11.5847 21.2899Z" stroke="#2C3C59" stroke-miterlimit="10" stroke-linecap="round" stroke-linejoin="round"/>
<path d="M10.7386 11.95C10.361 11.849 9.99308 11.7298 9.63485 11.5922C9.28631 11.4454 8.97649 11.2665 8.70539 11.0555C8.44398 10.8353 8.23098 10.5738 8.06639 10.2711C7.9018 9.9683 7.8195 9.60133 7.8195 9.17014C7.8195 8.76647 7.89696 8.40408 8.05187 8.08298C8.21646 7.76188 8.42946 7.49124 8.69087 7.27105C8.96196 7.0417 9.27178 6.8628 9.62033 6.73436C9.97856 6.59674 10.3513 6.51876 10.7386 6.50041V5.53711H11.4793V6.48665C11.9827 6.49582 12.491 6.58757 13.0041 6.76188C13.527 6.92702 13.9723 7.1839 14.3402 7.53252L13.3527 8.39949C13.13 8.13344 12.8444 7.93161 12.4959 7.79399C12.157 7.65638 11.8181 7.58298 11.4793 7.57381V10.849C11.8472 10.9683 12.2102 11.1013 12.5685 11.2481C12.9364 11.3949 13.2607 11.583 13.5415 11.8123C13.832 12.0325 14.0643 12.3032 14.2386 12.6243C14.4129 12.9454 14.5 13.3307 14.5 13.7802C14.5 14.2114 14.4177 14.5967 14.2531 14.9362C14.0982 15.2756 13.8804 15.5646 13.5996 15.8032C13.3285 16.0417 13.009 16.2252 12.6411 16.3536C12.2732 16.4729 11.8859 16.5371 11.4793 16.5463V17.5371H10.7386V16.5463C10.0899 16.5279 9.48963 16.4041 8.93776 16.1747C8.38589 15.9362 7.90664 15.6059 7.5 15.1839L8.56017 14.3307C8.68603 14.505 8.84094 14.661 9.0249 14.7986C9.20885 14.9362 9.39765 15.0555 9.59129 15.1564C9.78492 15.2481 9.97856 15.3215 10.1722 15.3766C10.3755 15.4224 10.5643 15.4454 10.7386 15.4454V11.95ZM11.4793 15.4454C11.6923 15.4362 11.8956 15.3949 12.0892 15.3215C12.2828 15.2481 12.4523 15.1472 12.5975 15.0188C12.7524 14.8811 12.8734 14.7114 12.9606 14.5096C13.0574 14.3078 13.1058 14.0692 13.1058 13.794C13.1058 13.3536 12.9509 13.005 12.6411 12.7481C12.3313 12.4912 11.944 12.2894 11.4793 12.1426V15.4454ZM10.7386 7.57381C10.3126 7.60133 9.94952 7.74812 9.64938 8.01417C9.34924 8.27105 9.19917 8.62885 9.19917 9.08757C9.19917 9.52794 9.33956 9.86738 9.62033 10.1059C9.91079 10.3353 10.2835 10.5142 10.7386 10.6426V7.57381Z" fill="#2C3C59" stroke="#2C3C59" stroke-width="0.320022" stroke-linejoin="round"/>
</svg>
