<svg width="25" height="25" viewBox="0 0 25 25" fill="none" xmlns="http://www.w3.org/2000/svg">
<path d="M5.62402 3.87305H15.3941L21.1098 8.11591V23.0322H5.62402V3.87305Z" fill="#D5E9FA"/>
<path d="M13.3805 2.03711L3.61035 2.03711V21.1963H19.0962V6.27997M13.3805 2.03711L19.0962 6.27997M13.3805 2.03711V6.27997H19.0962" stroke="#2C3C59" stroke-miterlimit="10"/>
<path d="M7.77579 10.0825C8.62849 10.0825 9.31427 9.38769 9.31427 8.53735C9.31427 7.68701 8.62849 6.99219 7.77579 6.99219C6.92309 6.99219 6.2373 7.68701 6.2373 8.53735C6.2373 9.38769 6.92309 10.0825 7.77579 10.0825Z" stroke="#2C3C59"/>
<path d="M19.0723 14.3765L15.4925 11.7344L10.8387 15.8777L8.03447 14.3765L3.5 18.2796" stroke="#2C3C59"/>
</svg>
