<svg width="25" height="25" viewBox="0 0 25 25" fill="none" xmlns="http://www.w3.org/2000/svg">
<path d="M18.6484 4.74002C14.7342 4.78451 12.4961 4.71778 8.58191 4.72519C6.73433 4.72519 6.46767 4.97732 6.46767 6.4085C6.46767 10.4573 6.46767 14.5878 6.46767 18.6366C6.46767 18.7553 6.4772 19.5784 6.46767 19.7341L6.50917 20.0805L6.46767 20.223V20.569C6.82957 21.6443 5.60558 21.6213 6.46767 21.6213C7.58611 21.6213 8.09075 21.4433 8.87168 21.6213" fill="#D5E9FA"/>
<path d="M15.7017 23.0111C13.704 23.0111 11.8609 23.0111 10.0287 23.0111C9.23409 23.0111 8.45048 23.0241 7.65582 23.0111C5.61401 22.9721 4.19026 21.3848 4.01367 18.8997C4.16819 18.8867 4.3227 18.8607 4.47722 18.8607C7.26954 18.8607 10.0729 18.8607 12.8652 18.8477C13.2294 18.8477 13.2808 19.1027 13.3801 19.5841C13.6339 20.7941 14.5431 21.5416 15.1388 22.4386C15.2933 22.5687 15.4368 22.7249 15.7017 23.0111Z" fill="#D5E9FA"/>
<path d="M22.1721 6.21484C22.1721 6.47438 22.1721 6.74133 22.1721 7.00088V6.21484ZM22.1721 3.04102C18.4769 3.07809 14.7722 3.04102 11.0675 3.04843C9.21995 3.04843 7.89617 4.10143 7.89617 5.53261C7.89617 9.58146 7.89617 13.6377 7.89617 17.6866C7.89617 17.8052 7.87712 17.9239 7.8676 18.0796C7.65808 18.0796 7.48665 18.0796 7.31523 18.0796C6.04859 18.0796 4.78194 18.0796 3.50578 18.0796C2.97246 18.0796 2.81055 18.1982 2.8296 18.6061C2.8677 19.5775 3.28674 20.4377 4.15339 21.157C4.7248 21.6316 5.47717 21.8541 6.25811 22.032C10.0676 22.032 13.877 22.032 17.6864 22.032C17.7722 22.0098 17.8579 21.9727 17.9436 21.9579C20.5054 21.5426 22.134 19.9854 22.134 17.9609C22.134 14.4608 22.134 10.9682 22.134 7.46805C22.134 7.32716 22.134 7.17885 22.134 6.99346C22.1435 6.99346 22.153 6.99346 22.1625 6.99346C22.1625 6.73392 22.1625 6.46696 22.1625 6.20742C22.1625 5.39913 22.1625 4.63534 22.1625 3.87896C22.1721 3.60459 22.1721 3.3228 22.1721 3.04102C22.1721 3.3228 22.1721 3.60459 22.1721 3.88638V3.04102ZM9.10567 21.2386C8.41997 21.2386 7.74379 21.246 7.05809 21.2386C5.29622 21.2163 4.06767 20.3116 3.91529 18.8953C4.04863 18.8879 4.18196 18.873 4.31529 18.873C6.72476 18.873 9.14376 18.873 11.5532 18.8656C11.8675 18.8656 12.0199 18.9101 12.1056 19.1845C12.3247 19.8741 12.8484 20.4303 13.5151 20.9123C13.6389 21.0013 13.7627 21.0903 13.9913 21.246C12.277 21.2386 10.6866 21.2386 9.10567 21.2386ZM21.115 4.28681C21.115 8.84733 21.115 13.4004 21.115 17.9609C21.115 19.4959 20.0769 20.6008 18.1912 21.0828C15.9436 21.6538 13.3056 20.3635 13.0008 18.5393C12.9437 18.2056 12.7342 18.0648 12.3151 18.0722C11.2104 18.0796 10.0961 18.0722 8.95329 18.0722C8.94377 17.9313 8.93424 17.8423 8.93424 17.7607C8.93424 13.6822 8.93424 9.6037 8.93424 5.53261C8.93424 4.49445 9.71518 3.85672 11.0485 3.8493C14.3151 3.83447 17.5817 3.84189 20.8578 3.84189C20.9245 3.84189 20.9816 3.8493 21.1245 3.86413C21.115 4.00503 21.115 4.14592 21.115 4.28681Z" fill="#2C3C59"/>
<path d="M15.0292 12.1483C13.772 12.1483 12.5244 12.1483 11.2673 12.1483C11.1245 12.1483 10.9435 12.178 10.8483 12.1187C10.6864 12.0297 10.4673 11.874 10.4769 11.7553C10.4959 11.6144 10.715 11.4809 10.8673 11.3623C10.9054 11.3326 11.0197 11.3475 11.0959 11.3475C13.6958 11.3475 16.2958 11.3475 18.8957 11.3475C18.9148 11.3475 18.9243 11.3475 18.9434 11.3475C19.2957 11.34 19.5529 11.4513 19.5624 11.7331C19.5719 12.0223 19.3053 12.1335 18.9624 12.1409C18.3434 12.1409 17.7243 12.1409 17.1053 12.1409C16.4196 12.1483 15.7244 12.1483 15.0292 12.1483Z" fill="#2C3C59"/>
<path d="M15.0295 13.7285C16.3152 13.7285 17.6009 13.7285 18.8771 13.7285C19.2485 13.7285 19.5818 13.7953 19.5723 14.129C19.5723 14.4701 19.2295 14.522 18.858 14.522C16.2867 14.522 13.7248 14.522 11.1534 14.522C10.7915 14.522 10.4487 14.4626 10.4582 14.1215C10.4677 13.7804 10.7915 13.7285 11.1629 13.7285C12.4582 13.7285 13.7439 13.7285 15.0295 13.7285Z" fill="#2C3C59"/>
<path d="M14.9815 16.8934C13.7435 16.8934 12.5054 16.8934 11.2673 16.8934C11.1245 16.8934 10.9435 16.9231 10.8483 16.8638C10.6864 16.7748 10.4673 16.6116 10.4769 16.5004C10.4959 16.3595 10.715 16.226 10.8769 16.1074C10.9245 16.0703 11.0578 16.0926 11.153 16.0926C13.7244 16.0926 16.2863 16.0926 18.8576 16.0926C18.9053 16.0926 18.9529 16.0926 19.0005 16.0926C19.3338 16.0926 19.5624 16.2186 19.5719 16.4856C19.5814 16.7525 19.3434 16.886 19.01 16.886C18.3434 16.8934 17.6767 16.886 17.0101 16.886C16.3434 16.8934 15.6577 16.8934 14.9815 16.8934Z" fill="#2C3C59"/>
<path d="M12.7454 6.17722H13.6366C13.7574 6.17722 13.8745 6.1905 13.988 6.21707C14.1015 6.24122 14.2018 6.28228 14.2887 6.34025C14.3781 6.39821 14.4493 6.47429 14.5025 6.56849C14.5556 6.66268 14.5822 6.7774 14.5822 6.91266C14.5822 7.09863 14.529 7.25079 14.4228 7.36913C14.3189 7.48506 14.1764 7.56356 13.9953 7.60462L14.68 8.74219H14.1293L13.5352 7.65534H13.2019V8.74219H12.7454V6.17722ZM13.575 7.28218C13.6402 7.28218 13.7054 7.27735 13.7707 7.26769C13.8359 7.25803 13.8938 7.23992 13.9445 7.21335C13.9977 7.18678 14.0412 7.14935 14.075 7.10104C14.1088 7.05032 14.1257 6.98632 14.1257 6.90903C14.1257 6.83899 14.11 6.78223 14.0786 6.73876C14.0472 6.69287 14.0073 6.65664 13.959 6.63007C13.9107 6.60351 13.8552 6.58539 13.7924 6.57573C13.732 6.56607 13.6728 6.56124 13.6149 6.56124H13.2019V7.28218H13.575ZM15.0238 6.17722H15.6288L16.8207 8.09732H16.828V6.17722H17.2845V8.74219H16.7048L15.4875 6.7605H15.4803V8.74219H15.0238V6.17722Z" fill="#2C3C59"/>
</svg>
