<svg width="25" height="25" viewBox="0 0 25 25" fill="none" xmlns="http://www.w3.org/2000/svg">
<g clip-path="url(#clip0)">
<path d="M2.5332 23.6951H7.73032L9.02961 22.3959H14.4072L23.3217 14.0588C23.3217 14.0588 24.0796 12.94 23.1412 12.3986C22.2029 11.8572 21.4811 12.5791 21.4811 12.5791L16.6448 17.0183H6.6115L2.5332 23.6951Z" fill="#D5E9FA"/>
<path d="M1.37793 21.8175C1.37793 21.8175 4.26522 15.1406 6.06978 15.1406C7.87434 15.1406 12.8549 15.1406 14.2986 15.1406C15.7422 15.1406 15.7783 17.0535 14.8038 17.0535C13.8294 17.0535 10.4007 17.0535 10.4007 17.0535" stroke="#2C3C59" stroke-miterlimit="10" stroke-linecap="round" stroke-linejoin="round"/>
<path d="M17.0415 14.9246C17.0415 14.9246 19.6761 12.6148 21.0837 11.3877C22.4551 10.1967 24.368 10.6298 23.3213 12.1456C22.2747 13.6614 15.4174 20.0134 14.3707 20.0134C13.3241 20.0134 8.16304 20.0134 8.16304 20.0134L6.43066 21.818" stroke="#2C3C59" stroke-miterlimit="10" stroke-linecap="round" stroke-linejoin="round"/>
<path d="M12.9664 12.9642C15.7702 12.9642 18.0432 10.7625 18.0432 8.04656C18.0432 5.33062 15.7702 3.12891 12.9664 3.12891C10.1626 3.12891 7.88965 5.33062 7.88965 8.04656C7.88965 10.7625 10.1626 12.9642 12.9664 12.9642Z" fill="#D5E9FA"/>
<path d="M12.0328 11.7767C14.8366 11.7767 17.1096 9.575 17.1096 6.85906C17.1096 4.14311 14.8366 1.94141 12.0328 1.94141C9.22898 1.94141 6.95605 4.14311 6.95605 6.85906C6.95605 9.575 9.22898 11.7767 12.0328 11.7767Z" stroke="#2C3C59" stroke-miterlimit="10" stroke-linecap="round" stroke-linejoin="round"/>
<path d="M11.9006 7.05935C11.7093 7.01059 11.5229 6.95297 11.3414 6.88648C11.1648 6.81556 11.0078 6.72912 10.8705 6.62717C10.738 6.52078 10.6301 6.39445 10.5467 6.24818C10.4633 6.1019 10.4216 5.9246 10.4216 5.71626C10.4216 5.52123 10.4609 5.34614 10.5394 5.19099C10.6228 5.03585 10.7307 4.90509 10.8631 4.79871C11.0005 4.68789 11.1574 4.60145 11.334 4.5394C11.5155 4.47291 11.7044 4.43523 11.9006 4.42636V3.96094H12.2758V4.41972C12.5309 4.42415 12.7884 4.46847 13.0484 4.55269C13.3133 4.63248 13.5389 4.7566 13.7253 4.92504L13.225 5.34392C13.1122 5.21537 12.9675 5.11786 12.7909 5.05137C12.6192 4.98488 12.4475 4.94942 12.2758 4.94498V6.52743C12.4622 6.58506 12.6462 6.64933 12.8277 6.72025C13.0141 6.79118 13.1784 6.88205 13.3207 6.99286C13.4678 7.09924 13.5855 7.23001 13.6738 7.38515C13.7621 7.54029 13.8063 7.72646 13.8063 7.94366C13.8063 8.152 13.7646 8.33817 13.6812 8.50217C13.6027 8.66618 13.4923 8.80581 13.3501 8.92106C13.2127 9.03631 13.0509 9.12496 12.8645 9.18702C12.6781 9.24464 12.4819 9.27567 12.2758 9.2801V9.75883H11.9006V9.2801C11.5719 9.27124 11.2678 9.21139 10.9882 9.10058C10.7086 8.98533 10.4658 8.82576 10.2598 8.62185L10.7969 8.20962C10.8607 8.29384 10.9391 8.36919 11.0323 8.43568C11.1255 8.50217 11.2212 8.5598 11.3193 8.60856C11.4174 8.65288 11.5155 8.68834 11.6136 8.71494C11.7166 8.7371 11.8123 8.74818 11.9006 8.74818V7.05935ZM12.2758 8.74818C12.3837 8.74375 12.4868 8.7238 12.5849 8.68834C12.683 8.65288 12.7688 8.60412 12.8424 8.54207C12.9209 8.47558 12.9822 8.39357 13.0263 8.29606C13.0754 8.19854 13.0999 8.08329 13.0999 7.95031C13.0999 7.73754 13.0214 7.5691 12.8645 7.44499C12.7075 7.32088 12.5113 7.22336 12.2758 7.15244V8.74818ZM11.9006 4.94498C11.6847 4.95828 11.5008 5.0292 11.3487 5.15775C11.1967 5.28186 11.1206 5.45474 11.1206 5.67637C11.1206 5.88913 11.1918 6.05314 11.334 6.16839C11.4812 6.27921 11.67 6.36564 11.9006 6.4277V4.94498Z" fill="#2C3C59" stroke="#4C5263" stroke-width="0.13382" stroke-linejoin="round"/>
</g>
<defs>
<clipPath id="clip0">
<rect width="24" height="24" fill="white" transform="translate(0.5 0.537109)"/>
</clipPath>
</defs>
</svg>
