<svg width="25" height="25" viewBox="0 0 25 25" fill="none" xmlns="http://www.w3.org/2000/svg">
<g clip-path="url(#clip0)">
<path d="M3.22266 13.9506V20.4425L7.59261 22.2218L12.345 20.0707V14.1892L7.59261 12.1797L3.22266 13.9506Z" fill="#D5E9FA"/>
<path d="M2.03027 13.0577V18.8398L7.44744 21.001L12.4997 18.8398V13.0577L7.44744 10.8965L2.03027 13.0577Z" stroke="#2C3C59" stroke-width="0.75" stroke-miterlimit="10" stroke-linecap="round" stroke-linejoin="round"/>
<path d="M9.9738 11.9902L4.55664 14.1515V16.3127" stroke="#2C3C59" stroke-width="0.75" stroke-miterlimit="10" stroke-linecap="round" stroke-linejoin="round"/>
<path d="M7.44744 21.0019V15.2198L12.4997 13.0586L7.44744 15.2198L2.03027 13.0586" stroke="#2C3C59" stroke-width="0.75" stroke-miterlimit="10" stroke-linecap="round" stroke-linejoin="round"/>
<path d="M21.7773 13.9506V20.4425L17.4074 22.2218L12.655 20.0707V14.1892L17.4074 12.1797L21.7773 13.9506Z" fill="#D5E9FA"/>
<path d="M22.9697 13.0577V18.8398L17.5526 21.001L12.5003 18.8398V13.0577L17.5526 10.8965L22.9697 13.0577Z" stroke="#2C3C59" stroke-width="0.75" stroke-miterlimit="10" stroke-linecap="round" stroke-linejoin="round"/>
<path d="M15.0262 11.9902L20.4434 14.1515V16.3127" stroke="#2C3C59" stroke-width="0.75" stroke-miterlimit="10" stroke-linecap="round" stroke-linejoin="round"/>
<path d="M17.5526 21.0019V15.2198L12.5003 13.0586L17.5526 15.2198L22.9697 13.0586" stroke="#2C3C59" stroke-width="0.75" stroke-miterlimit="10" stroke-linecap="round" stroke-linejoin="round"/>
<path d="M16.6963 5.90571V11.2777L12.3263 13.057L7.57392 10.9059V6.1443L12.3263 4.13477L16.6963 5.90571Z" fill="#D5E9FA"/>
<path d="M17.8887 5.01281V10.7948L12.4715 12.9561L7.41925 10.7948V5.01281L12.4715 2.85156L17.8887 5.01281Z" stroke="#2C3C59" stroke-width="0.75" stroke-miterlimit="10" stroke-linecap="round" stroke-linejoin="round"/>
<path d="M9.94514 3.94531L15.3623 6.10656V8.2678" stroke="#2C3C59" stroke-width="0.75" stroke-miterlimit="10" stroke-linecap="round" stroke-linejoin="round"/>
<path d="M12.4715 12.957V7.17492L7.41925 5.01367L12.4715 7.17492L17.8887 5.01367" stroke="#2C3C59" stroke-width="0.75" stroke-miterlimit="10" stroke-linecap="round" stroke-linejoin="round"/>
<path d="M0.507287 4.52697C0.507287 4.37717 0.490825 3.663 0.507287 3.51758C0.726709 5.05829 2.3668 6.5307 4.36031 6.53765V5.68293L5.95117 7.33324L4.36031 8.98356V8.12851C2.21711 8.11965 0.507287 6.67192 0.507287 4.52697Z" fill="#2C3C59"/>
</g>
<defs>
<clipPath id="clip0">
<rect width="24" height="24" fill="white" transform="translate(0.5 0.537109)"/>
</clipPath>
</defs>
</svg>
