<svg width="25" height="25" viewBox="0 0 25 25" fill="none" xmlns="http://www.w3.org/2000/svg">
<path d="M23.1339 10.5996H9.41895V20.0375H22.1929V11.7401H23.1339V10.5996Z" fill="#D5E9FA"/>
<path d="M11.8711 7.83377V5.86634C11.8711 5.43864 12.2133 5.125 12.6124 5.125H15.6634C16.0911 5.125 16.4047 5.46715 16.4047 5.86634V7.83377C16.4047 8.26147 16.0626 8.57511 15.6634 8.57511H12.6124C12.2133 8.60362 11.8711 8.26147 11.8711 7.83377Z" fill="#2C3C59"/>
<path d="M14.3802 8.57538L15.0075 9.08862C15.0645 9.14564 15.036 9.23118 14.9504 9.23118H13.2967C13.2111 9.23118 13.1826 9.14564 13.2396 9.08862L13.8384 8.57538C13.8384 8.57538 13.8669 8.54688 13.8954 8.54688H14.3231C14.3516 8.57539 14.3802 8.57538 14.3802 8.57538Z" fill="#2C3C59"/>
<path d="M15.3239 8.00521H12.9801C12.6676 8.00521 12.4072 7.74479 12.4072 7.43229V6.18229C12.4072 5.86979 12.6676 5.60938 12.9801 5.60938H15.3239C15.6364 5.60938 15.8968 5.86979 15.8968 6.18229V7.43229C15.8968 7.74479 15.6364 8.00521 15.3239 8.00521Z" fill="#D5E9FA"/>
<path d="M8.10697 11.3409V10.9659C7.89986 10.9659 7.73197 11.1338 7.73197 11.3409H8.10697ZM20.9095 11.3409H21.2845C21.2845 11.1338 21.1166 10.9659 20.9095 10.9659V11.3409ZM20.9095 18.7544V19.1294C21.1166 19.1294 21.2845 18.9615 21.2845 18.7544H20.9095ZM8.10697 18.7544H7.73197C7.73197 18.9615 7.89986 19.1294 8.10697 19.1294V18.7544ZM7.30859 9.88672V9.51172C7.10149 9.51172 6.93359 9.67961 6.93359 9.88672H7.30859ZM21.7078 9.88672H22.0828C22.0828 9.67961 21.9149 9.51172 21.7078 9.51172V9.88672ZM21.7078 11.3409V11.7159C21.9149 11.7159 22.0828 11.548 22.0828 11.3409H21.7078ZM7.30859 11.3409H6.93359C6.93359 11.548 7.10149 11.7159 7.30859 11.7159V11.3409ZM8.10697 11.7159H20.9095V10.9659H8.10697V11.7159ZM20.5345 11.3409V18.7544H21.2845V11.3409H20.5345ZM20.9095 18.3794H8.10697V19.1294H20.9095V18.3794ZM8.48197 18.7544V11.3409H7.73197V18.7544H8.48197ZM7.30859 10.2617H21.7078V9.51172H7.30859V10.2617ZM21.3328 9.88672V11.3409H22.0828V9.88672H21.3328ZM21.7078 10.9659H7.30859V11.7159H21.7078V10.9659ZM7.68359 11.3409V9.88672H6.93359V11.3409H7.68359Z" fill="#2C3C59"/>
<path d="M19.1486 6.93037C18.9719 6.312 18.3241 5.95865 17.7058 6.13532C17.0874 6.312 16.734 6.95982 16.9107 7.57819C17.0579 8.10822 17.588 8.46157 18.118 8.40268L18.1769 8.6088L17.8824 8.69714C17.7941 8.72658 17.7647 8.81493 17.7941 8.87382C17.8235 8.96216 17.9119 8.99161 17.9708 8.96216L19.0603 8.63824C19.1486 8.6088 19.1781 8.52046 19.1486 8.46157C19.1192 8.40268 19.0308 8.34379 18.9719 8.37324L18.6775 8.46157L18.6186 8.25545C19.0603 8.01988 19.3253 7.4604 19.1486 6.93037Z" fill="#2C3C59"/>
<path d="M18.0295 7.87346C18.371 7.87346 18.6479 7.59661 18.6479 7.2551C18.6479 6.91358 18.371 6.63672 18.0295 6.63672C17.688 6.63672 17.4111 6.91358 17.4111 7.2551C17.4111 7.59661 17.688 7.87346 18.0295 7.87346Z" fill="#D5E9FA"/>
<path d="M18.0297 7.52026C18.176 7.52026 18.2947 7.40162 18.2947 7.25526C18.2947 7.10889 18.176 6.99023 18.0297 6.99023C17.8833 6.99023 17.7646 7.10889 17.7646 7.25526C17.7646 7.40162 17.8833 7.52026 18.0297 7.52026Z" fill="#2C3C59"/>
<path fill-rule="evenodd" clip-rule="evenodd" d="M22.3061 8.78214C22.1694 8.74796 22.0849 8.67011 22.0141 8.56468C21.9776 8.51037 21.9457 8.45004 21.9121 8.38394L21.8971 8.35445C21.8687 8.29824 21.8383 8.23816 21.8045 8.18112C21.7238 8.04459 21.6149 7.90935 21.4298 7.83629C21.2473 7.76425 21.0092 7.75991 20.684 7.8412C20.0572 7.99792 19.7543 8.17048 19.6294 8.40242C19.5665 8.51939 19.5554 8.6396 19.5574 8.7528C19.5582 8.80278 19.5617 8.85411 19.5651 8.90365L19.5663 8.92165C19.5701 8.97785 19.5734 9.03298 19.5734 9.08952C19.5734 9.17421 19.5337 9.25965 19.4584 9.34552C19.3832 9.43132 19.2795 9.50915 19.1705 9.57561C19.0621 9.64161 18.953 9.69367 18.8705 9.72933C18.8344 9.74497 18.8036 9.75734 18.7806 9.76623L18.7362 9.78273L18.7378 9.78219L18.7445 9.77977C18.7506 9.77756 18.7598 9.77418 18.7716 9.76967L18.7806 9.76623L19.6713 9.43527C19.6567 9.45489 19.6414 9.47381 19.6255 9.492C19.6041 9.51633 19.5814 9.53977 19.5576 9.56232L18.667 9.924C18.6869 9.98203 18.7501 10.0129 18.8082 9.99295L18.7721 9.88789L18.8082 9.99293L18.8083 9.9929L18.8085 9.99283L18.8092 9.99259L18.8116 9.99176L18.8201 9.98873C18.8273 9.9861 18.8377 9.98227 18.8509 9.97726C18.8771 9.96724 18.9143 9.9525 18.9587 9.93328C19.0473 9.89499 19.1663 9.83835 19.2861 9.76535C19.3786 9.70895 19.4745 9.6411 19.5576 9.56232L21.8047 8.64974C21.8128 8.6628 21.8211 8.67576 21.8297 8.68856C21.921 8.8246 22.0468 8.94635 22.2523 8.9977C22.3118 9.01258 22.3721 8.97639 22.387 8.91687C22.4019 8.85734 22.3657 8.79702 22.3061 8.78214ZM21.8011 8.64385L19.6713 9.43527C19.7439 9.33699 19.7956 9.22095 19.7956 9.08952C19.7956 9.02488 19.7918 8.96327 19.788 8.90676L19.7868 8.88884L19.7868 8.88882C19.7833 8.8384 19.7803 8.79298 19.7795 8.74904C19.7779 8.65196 19.7883 8.57614 19.8251 8.50777C19.8998 8.36904 20.1102 8.2137 20.7379 8.05676C21.04 7.98123 21.226 7.99471 21.3483 8.04296C21.4679 8.09019 21.5444 8.17771 21.6133 8.29424C21.643 8.34445 21.6697 8.39706 21.6982 8.45345L21.6982 8.45345L21.6982 8.45345L21.6982 8.45345L21.7141 8.4847C21.7404 8.53651 21.7688 8.59094 21.8011 8.64385ZM21.8011 8.64385L21.8047 8.64974L22.0141 8.56468L21.8011 8.64385ZM22.9052 9.55249L22.6505 9.29777L23.1314 8.81681L23.3862 9.07155L23.3862 9.07155C23.528 9.21337 23.5196 9.41237 23.3918 9.51889L23.3915 9.51863L23.3862 9.52397L23.3577 9.55248L23.3577 9.55249C23.2158 9.69431 23.0168 9.68589 22.9103 9.55807L22.9106 9.55785L22.9052 9.55249ZM23.0725 8.64006L22.4737 9.23885L22.4737 9.35669L22.7849 9.66778C22.9151 9.82144 23.1158 9.8584 23.2923 9.79037L23.4952 9.96787C23.5183 9.98808 23.5534 9.98574 23.5736 9.96265C23.5938 9.93956 23.5914 9.90447 23.5683 9.88427L23.3977 9.73493C23.425 9.71628 23.4511 9.69473 23.4755 9.67033L23.4755 9.67033L23.5015 9.64437C23.5103 9.63689 23.5187 9.62918 23.5268 9.62126L23.6948 9.76826C23.7179 9.78847 23.753 9.78613 23.7732 9.76304C23.7934 9.73995 23.791 9.70486 23.7679 9.68466L23.5956 9.5339C23.7029 9.35457 23.6668 9.11653 23.504 8.95372L23.504 8.95372L23.1904 8.64006L23.0725 8.64006Z" fill="#2C3C59"/>
<path d="M6.16826 13.2224C6.13974 13.2224 6.13974 13.2224 6.11123 13.2224C4.99921 13.2224 3.9157 13.1939 2.80368 13.1939C2.68963 13.1939 2.57557 13.1654 2.49003 13.1084C2.31895 12.9943 2.2049 12.8232 2.14787 12.5951C2.11936 12.4525 2.17639 12.31 2.23341 12.1674C2.54706 11.6257 2.86071 11.0839 3.17435 10.5422C3.20287 10.5136 3.20287 10.5136 3.23138 10.5136C3.31692 10.5707 3.40246 10.5992 3.488 10.6562C3.57354 10.7132 3.65908 10.7703 3.77313 10.7988C3.85867 10.8273 3.9157 10.7988 3.88719 10.7132C3.88719 10.6562 3.85867 10.5992 3.83016 10.5707C3.71611 10.314 3.60205 10.0289 3.488 9.7723C3.43097 9.62973 3.37395 9.51567 3.31692 9.3731C3.28841 9.34459 3.25989 9.31607 3.23138 9.31607C3.20287 9.31607 3.14584 9.31608 3.11733 9.3446C2.83219 9.37311 2.51855 9.43013 2.23341 9.45864C2.09085 9.48715 1.97679 9.48716 1.83423 9.51567C1.74869 9.54418 1.72017 9.5727 1.80571 9.62973C1.86274 9.68676 1.91977 9.71526 1.97679 9.74377C2.09085 9.82931 2.2049 9.88634 2.31895 9.94337C2.34747 9.97188 2.34747 9.97188 2.34747 10.0289C2.23341 10.2285 2.11936 10.4281 1.97679 10.6562C1.74869 11.0839 1.49207 11.5116 1.26396 11.9393C1.23545 11.9963 1.23545 12.0248 1.20693 12.0819C1.17842 12.2815 1.17842 12.5096 1.20693 12.7092C1.29247 13.3365 1.7772 13.9067 2.37598 14.0778C2.60409 14.1348 2.83219 14.1348 3.08881 14.1348C4.08678 14.1348 5.11326 14.1348 6.11123 14.1633C6.13974 14.1633 6.13974 14.1633 6.16826 14.1633C6.16826 13.8497 6.16826 13.5361 6.16826 13.2224ZM7.59392 14.1633C7.62244 14.1633 7.65095 14.1633 7.65095 14.1633C7.99311 14.1633 8.30676 14.1633 8.64892 14.1633C8.99108 14.1633 9.33324 14.1633 9.64688 14.1633C9.87499 14.1633 10.1031 14.1348 10.3027 13.9923C10.8444 13.6501 11.1581 13.1654 11.1581 12.5096C11.1581 12.2244 11.1011 11.9963 10.9585 11.7397C10.5308 11.0269 10.1316 10.2855 9.73242 9.54419C9.61837 9.31609 9.4758 9.08797 9.33324 8.88837C9.30472 8.83134 9.27621 8.83135 9.21918 8.85986C9.19067 8.85986 9.19067 8.85986 9.16216 8.88837C8.93405 9.03094 8.73446 9.145 8.50635 9.28757C8.44932 9.31608 8.44932 9.3446 8.47784 9.40163C8.79148 9.91487 9.07662 10.4281 9.36175 10.9699C9.61837 11.4261 9.84648 11.8538 10.1031 12.31C10.1601 12.3955 10.1601 12.4811 10.1601 12.5951C10.1316 12.7947 10.0461 12.9658 9.9035 13.1084C9.81796 13.1654 9.73242 13.2224 9.64688 13.2509C9.53283 13.2509 9.39026 13.2794 9.27621 13.2794C8.73446 13.2794 8.16419 13.2794 7.62244 13.2794C7.59392 13.2794 7.59392 13.2794 7.56541 13.2794C7.56541 13.2509 7.56541 13.2509 7.56541 13.2224C7.56541 13.0513 7.56541 12.9088 7.56541 12.7377C7.56541 12.6806 7.56541 12.6521 7.5369 12.5951C7.50838 12.5096 7.47987 12.5096 7.42284 12.5666C7.39433 12.5951 7.36582 12.6236 7.3373 12.6521C7.05217 12.9658 6.79555 13.3365 6.56744 13.6786C6.53893 13.7357 6.53893 13.7642 6.56744 13.8212C6.71001 14.0208 6.85258 14.2204 6.96663 14.3915C7.08068 14.534 7.19474 14.6766 7.30879 14.8192C7.3373 14.8477 7.39433 14.9047 7.42284 14.9332C7.47987 14.9617 7.50838 14.9617 7.50838 14.9047C7.50838 14.8762 7.50838 14.8762 7.50838 14.8477C7.50838 14.7336 7.50838 14.6196 7.50838 14.5055C7.59392 14.3629 7.59392 14.2774 7.59392 14.1633Z" fill="#2C3C59"/>
<path d="M7.59392 14.1633C7.59392 14.2774 7.59392 14.3915 7.59392 14.477C7.59392 14.5911 7.59392 14.7051 7.59392 14.8192C7.59392 14.8477 7.59392 14.8477 7.59392 14.8762C7.5654 14.9332 7.5369 14.9332 7.50838 14.9047C7.45136 14.8762 7.42284 14.8477 7.39432 14.7906C7.28027 14.6481 7.16622 14.5055 7.05216 14.3629C6.9096 14.1633 6.76703 13.9923 6.65298 13.7927C6.62446 13.7356 6.62446 13.7071 6.65298 13.6501C6.88108 13.2794 7.1377 12.9373 7.42284 12.6236C7.45135 12.5951 7.47986 12.5666 7.50838 12.5381C7.5654 12.4811 7.59392 12.5096 7.62243 12.5666C7.62243 12.6236 7.62243 12.6521 7.65094 12.7092C7.65094 12.8802 7.65094 13.0228 7.65094 13.1939C7.65094 13.2224 7.65094 13.2224 7.65094 13.2509C7.67946 13.2509 7.67946 13.2509 7.70797 13.2509C8.24972 13.2509 8.81999 13.2509 9.36174 13.2509C9.4758 13.2509 9.61837 13.2509 9.73242 13.2224C9.84647 13.2224 9.93201 13.1654 9.98904 13.0798C10.1316 12.9373 10.2171 12.7662 10.2457 12.5666C10.2457 12.4525 10.2457 12.367 10.1886 12.2815C9.93201 11.8253 9.70391 11.3976 9.44728 10.9413C9.16215 10.4281 8.8485 9.88634 8.56337 9.3731C8.53486 9.31608 8.53486 9.28757 8.59188 9.25906C8.81999 9.11649 9.0481 9.00243 9.24769 8.85987C9.24769 8.85987 9.2762 8.85987 9.30472 8.83136C9.36174 8.80285 9.39026 8.80284 9.41877 8.85987C9.56134 9.08797 9.67539 9.28756 9.81796 9.51567C10.2171 10.257 10.6448 10.9699 11.044 11.7112C11.1866 11.9393 11.2436 12.1959 11.2436 12.4811C11.2436 13.1369 10.93 13.6216 10.3882 13.9638C10.1886 14.0778 9.96053 14.1348 9.73242 14.1348C9.39026 14.1348 9.0481 14.1348 8.73445 14.1348C8.39229 14.1348 8.07864 14.1348 7.73648 14.1348C7.65094 14.1633 7.62244 14.1633 7.59392 14.1633Z" fill="#2C3C59"/>
<path d="M6.16826 13.2224C6.16826 13.5361 6.16826 13.8782 6.16826 14.1918C6.13974 14.1918 6.13974 14.1918 6.11123 14.1918C5.11326 14.1918 4.08678 14.1918 3.08881 14.1633C2.86071 14.1633 2.60409 14.1633 2.37598 14.1063C1.7772 13.9352 1.26396 13.3649 1.20693 12.7377C1.17842 12.5381 1.17842 12.31 1.20693 12.1104C1.20693 12.0533 1.23545 11.9963 1.26396 11.9678C1.49207 11.5401 1.74869 11.1124 1.97679 10.6847C2.09085 10.4851 2.2049 10.257 2.34747 10.0574C2.37598 10.0289 2.37598 10.0004 2.31895 9.97187C2.2049 9.91484 2.09085 9.8293 1.97679 9.77227C1.91977 9.74376 1.86274 9.68673 1.80571 9.65821C1.74869 9.60119 1.74869 9.54417 1.83423 9.54417C1.97679 9.51566 2.09085 9.48714 2.23341 9.48714C2.51855 9.45863 2.83219 9.40159 3.11733 9.37308C3.14584 9.37308 3.20287 9.37309 3.23138 9.34457C3.28841 9.34457 3.31692 9.34458 3.31692 9.4016C3.37395 9.54417 3.43097 9.65821 3.488 9.80078C3.60205 10.0574 3.71611 10.3425 3.83016 10.5991C3.85867 10.6562 3.85867 10.7132 3.88719 10.7417C3.9157 10.8273 3.85867 10.8558 3.77313 10.8273C3.68759 10.7702 3.60205 10.7417 3.488 10.6847C3.40246 10.6277 3.31692 10.5992 3.23138 10.5421C3.20287 10.5136 3.20287 10.5421 3.17435 10.5706C2.86071 11.1124 2.54706 11.6542 2.23341 12.1959C2.14787 12.3385 2.11936 12.4525 2.14787 12.6236C2.17639 12.8517 2.29044 13.0228 2.49003 13.1368C2.57557 13.1939 2.68963 13.2224 2.80368 13.2224C3.9157 13.2224 4.99921 13.2224 6.11123 13.2509C6.13974 13.2224 6.13974 13.2224 6.16826 13.2224Z" fill="#2C3C59"/>
<path d="M6.22528 5.03906C6.33934 5.03906 6.45339 5.06759 6.56744 5.06759C6.79555 5.12461 7.02366 5.18163 7.22325 5.3242C7.36582 5.43825 7.47987 5.58082 7.56541 5.72339C7.76501 6.06555 7.9646 6.4077 8.16419 6.74986C8.30676 6.97797 8.42081 7.20608 8.56338 7.4627C8.59189 7.49121 8.62041 7.51973 8.62041 7.57676C8.73446 7.51973 8.84851 7.43419 8.96257 7.37716C9.01959 7.34865 9.10513 7.29163 9.16216 7.26312C9.19067 7.26312 9.21919 7.26312 9.2477 7.26312C9.27621 7.29163 9.27621 7.32014 9.2477 7.34865C9.13365 7.63379 9.01959 7.91891 8.90554 8.17553C8.84851 8.3181 8.76297 8.46068 8.70595 8.63176C8.67743 8.68878 8.62041 8.71729 8.56338 8.71729C8.3923 8.68878 8.22122 8.68878 8.02163 8.66026C7.73649 8.63175 7.47987 8.57472 7.19474 8.5177C7.19474 8.5177 7.19474 8.5177 7.16622 8.5177C7.13771 8.5177 7.08068 8.48918 7.08068 8.46067C7.08068 8.43215 7.1092 8.40364 7.13771 8.37513C7.30879 8.28959 7.45136 8.20405 7.62244 8.08999C7.65095 8.08999 7.65095 8.06149 7.67947 8.06149V8.03296C7.39433 7.51972 7.1092 7.00649 6.82407 6.49325C6.76704 6.40771 6.73853 6.35069 6.6815 6.26515C6.59596 6.1511 6.4819 6.06554 6.33934 6.03703C6.19677 6.00852 6.08272 6.00853 5.94015 6.06555C5.8261 6.09407 5.74056 6.15109 5.68353 6.23663C5.51245 6.52176 5.31286 6.80689 5.14178 7.09203C4.74259 7.74783 4.3434 8.43216 3.94421 9.08796C3.94421 9.11648 3.9157 9.14499 3.88719 9.1735C3.85868 9.14499 3.83016 9.145 3.77313 9.11649C3.57354 9.00243 3.37395 8.85985 3.17436 8.7458C3.03179 8.66026 3.0603 8.66027 3.11733 8.54622C3.37395 8.09001 3.65908 7.63378 3.94421 7.17756C4.25786 6.66432 4.60002 6.15109 4.91367 5.63785C5.02772 5.43826 5.22732 5.32421 5.42691 5.21015C5.6265 5.0961 5.85461 5.06758 6.0542 5.03906C6.08272 5.03906 6.08272 5.03906 6.11123 5.03906C6.16826 5.03906 6.19677 5.03906 6.22528 5.03906Z" fill="#2C3C59"/>
</svg>
