<svg width="25" height="25" viewBox="0 0 25 25" fill="none" xmlns="http://www.w3.org/2000/svg">
<path d="M16.6445 8.44141H1.60156V14.081H16.6445V8.44141Z" fill="#D5E9FA"/>
<path d="M19.8516 10.2617V15.2999H23.399V11.321L22.5722 10.2617H19.8516Z" fill="#D5E9FA"/>
<path d="M17.5783 7.26562H3.12695V13.2597H17.5783V7.26562Z" stroke="#2C3C59" stroke-width="0.75" stroke-miterlimit="10" stroke-linecap="round" stroke-linejoin="round"/>
<path d="M3.93463 17.4712C4.36183 17.4712 4.70814 17.1357 4.70814 16.7219C4.70814 16.3081 4.36183 15.9727 3.93463 15.9727C3.50743 15.9727 3.16113 16.3081 3.16113 16.7219C3.16113 17.1357 3.50743 17.4712 3.93463 17.4712Z" stroke="#2C3C59" stroke-width="0.75" stroke-miterlimit="10"/>
<path d="M6.69537 17.4712C7.12257 17.4712 7.46888 17.1357 7.46888 16.7219C7.46888 16.3081 7.12257 15.9727 6.69537 15.9727C6.26818 15.9727 5.92188 16.3081 5.92188 16.7219C5.92188 17.1357 6.26818 17.4712 6.69537 17.4712Z" stroke="#2C3C59" stroke-width="0.75" stroke-miterlimit="10"/>
<path d="M18.0919 17.4712C18.5191 17.4712 18.8654 17.1357 18.8654 16.7219C18.8654 16.3081 18.5191 15.9727 18.0919 15.9727C17.6647 15.9727 17.3184 16.3081 17.3184 16.7219C17.3184 17.1357 17.6647 17.4712 18.0919 17.4712Z" stroke="#2C3C59" stroke-width="0.75" stroke-miterlimit="10"/>
<path d="M20.8516 17.4712C21.2788 17.4712 21.6251 17.1357 21.6251 16.7219C21.6251 16.3081 21.2788 15.9727 20.8516 15.9727C20.4244 15.9727 20.0781 16.3081 20.0781 16.7219C20.0781 17.1357 20.4244 17.4712 20.8516 17.4712Z" stroke="#2C3C59" stroke-width="0.75" stroke-miterlimit="10"/>
<path d="M3.12696 14.7322H19.0245M19.0245 14.7322V9.20312H21.1583L22.572 11.2701V14.7322H19.0245Z" stroke="#2C3C59" stroke-width="0.75" stroke-miterlimit="10" stroke-linecap="round" stroke-linejoin="round"/>
</svg>
