<svg width="25" height="25" viewBox="0 0 25 25" fill="none" xmlns="http://www.w3.org/2000/svg">
<path d="M4.18965 15.5371H10.8103C11.1782 15.5371 11.5 15.7584 11.5 16.0112V20.563C11.5 20.8158 11.1782 21.0371 10.8103 21.0371H4.18965C3.82184 21.0371 3.5 20.8158 3.5 20.563V16.0112C3.5 15.7584 3.82184 15.5371 4.18965 15.5371Z" fill="#D5E9FA"/>
<path d="M4.18965 9.53711H10.8103C11.1782 9.53711 11.5 9.75837 11.5 10.0112V14.563C11.5 14.8158 11.1782 15.0371 10.8103 15.0371H4.18965C3.82184 15.0371 3.5 14.8158 3.5 14.563V10.0112C3.5 9.75837 3.82184 9.53711 4.18965 9.53711Z" fill="#D5E9FA"/>
<path d="M4.18965 3.53711H10.8103C11.1782 3.53711 11.5 3.75837 11.5 4.01125V8.56297C11.5 8.81585 11.1782 9.03711 10.8103 9.03711H4.18965C3.82184 9.03711 3.5 8.81585 3.5 8.56297V4.01125C3.5 3.75837 3.82184 3.53711 4.18965 3.53711Z" fill="#D5E9FA"/>
<path fill-rule="evenodd" clip-rule="evenodd" d="M2.80631 19.6661V15.0182C2.80796 15.0135 2.81748 14.9912 2.86297 14.9599C2.92281 14.9188 3.01584 14.8864 3.12149 14.8864H5.86236C5.84386 14.9238 5.83369 14.9641 5.83369 15.0061V16.6474C5.83369 16.8332 6.03309 16.9881 6.27238 16.9881H6.75096C7.03013 16.9881 7.22955 16.8332 7.18967 16.6474V15.0061C7.18967 14.9641 7.1795 14.9238 7.161 14.8864H9.90134C10.007 14.8864 10.1 14.9188 10.1599 14.9599C10.2054 14.9912 10.2149 15.0135 10.2165 15.0182V19.6702C10.2165 19.6721 10.2163 19.6769 10.2112 19.6858C10.2057 19.6954 10.1936 19.7108 10.1698 19.728C10.1214 19.7628 10.0324 19.798 9.90134 19.798H3.12149C3.01584 19.798 2.92281 19.7656 2.86297 19.7245C2.81748 19.6932 2.80796 19.6709 2.80631 19.6661ZM3.12149 14.3203C2.9081 14.3203 2.70202 14.3837 2.54251 14.4933C2.38775 14.5996 2.24023 14.7785 2.24023 15.0142V19.6702C2.24023 19.9059 2.38775 20.0848 2.54251 20.1911C2.70202 20.3006 2.9081 20.3641 3.12149 20.3641H9.90134C10.1292 20.3641 10.3394 20.3033 10.5003 20.1875C10.6616 20.0715 10.7826 19.8903 10.7826 19.6702V15.0142C10.7826 14.7785 10.6351 14.5996 10.4803 14.4933C10.3208 14.3837 10.1147 14.3203 9.90134 14.3203H3.12149Z" fill="#2C3C59"/>
<path fill-rule="evenodd" clip-rule="evenodd" d="M2.80631 13.8829V9.23503C2.80796 9.23032 2.81748 9.20795 2.86297 9.17671C2.92281 9.13562 3.01584 9.10319 3.12149 9.10319H5.86236C5.84386 9.14056 5.83369 9.18094 5.83369 9.22289V10.8642C5.83369 11.05 6.03309 11.2049 6.27238 11.2049H6.75096C7.03013 11.2049 7.22955 11.05 7.18967 10.8642V9.22289C7.18967 9.18094 7.1795 9.14056 7.161 9.10319H9.90134C10.007 9.10319 10.1 9.13562 10.1599 9.17671C10.2054 9.20795 10.2149 9.23032 10.2165 9.23503V13.887C10.2165 13.8889 10.2163 13.8937 10.2112 13.9026C10.2057 13.9122 10.1936 13.9276 10.1698 13.9448C10.1214 13.9796 10.0324 14.0148 9.90134 14.0148H3.12149C3.01584 14.0148 2.92281 13.9824 2.86297 13.9413C2.81748 13.91 2.80796 13.8877 2.80631 13.8829ZM3.12149 8.53711C2.9081 8.53711 2.70202 8.60054 2.54251 8.71008C2.38775 8.81636 2.24023 8.99529 2.24023 9.23097V13.887C2.24023 14.1227 2.38775 14.3016 2.54251 14.4079C2.70202 14.5174 2.9081 14.5809 3.12149 14.5809H9.90134C10.1292 14.5809 10.3394 14.5201 10.5003 14.4043C10.6616 14.2883 10.7826 14.1071 10.7826 13.887V9.23097C10.7826 8.99529 10.6351 8.81636 10.4803 8.71008C10.3208 8.60054 10.1147 8.53711 9.90134 8.53711H3.12149Z" fill="#2C3C59"/>
<path fill-rule="evenodd" clip-rule="evenodd" d="M2.80631 7.88294V3.23503C2.80796 3.23032 2.81748 3.20795 2.86297 3.17671C2.92281 3.13562 3.01584 3.10319 3.12149 3.10319H5.86236C5.84386 3.14056 5.83369 3.18094 5.83369 3.22289V4.86422C5.83369 5.05003 6.03309 5.20488 6.27238 5.20488H6.75096C7.03013 5.20488 7.22955 5.05003 7.18967 4.86422V3.22289C7.18967 3.18094 7.1795 3.14056 7.161 3.10319H9.90134C10.007 3.10319 10.1 3.13562 10.1599 3.17671C10.2054 3.20795 10.2149 3.23032 10.2165 3.23503V7.887C10.2165 7.88889 10.2163 7.89367 10.2112 7.90257C10.2057 7.91217 10.1936 7.92765 10.1698 7.94482C10.1214 7.97964 10.0324 8.01478 9.90134 8.01478H3.12149C3.01584 8.01478 2.92281 7.98235 2.86297 7.94126C2.81748 7.91002 2.80796 7.88765 2.80631 7.88294ZM3.12149 2.53711C2.9081 2.53711 2.70202 2.60054 2.54251 2.71008C2.38775 2.81636 2.24023 2.99529 2.24023 3.23097V7.887C2.24023 8.12267 2.38775 8.30161 2.54251 8.40789C2.70202 8.51743 2.9081 8.58086 3.12149 8.58086H9.90134C10.1292 8.58086 10.3394 8.52015 10.5003 8.40433C10.6616 8.2883 10.7826 8.10705 10.7826 7.887V3.23097C10.7826 2.99529 10.6351 2.81636 10.4803 2.71008C10.3208 2.60054 10.1147 2.53711 9.90134 2.53711H3.12149Z" fill="#2C3C59"/>
<path d="M23.119 11.1777H14.5957V21.0386H23.119V11.1777Z" fill="#D5E9FA"/>
<path d="M19.8057 10.1159V9.31354H18.443C18.443 9.31354 18.443 8.64062 17.7483 8.64062C17.0536 8.64062 17.0536 9.31354 17.0536 9.31354H15.691V10.1159H13.5V20.1062H21.8897V10.1159H19.8057Z" stroke="#2C3C59" stroke-width="0.75" stroke-miterlimit="10"/>
<path d="M15.6914 9.88331V10.9186H19.8061V9.85742" stroke="#2C3C59" stroke-width="0.75" stroke-miterlimit="10"/>
<path d="M15.2637 13.6309H18.2637" stroke="#2C3C59" stroke-width="0.5" stroke-miterlimit="10" stroke-linecap="round" stroke-linejoin="round"/>
<path d="M19.8179 13.6037C19.9026 13.5011 19.9662 13.4191 20.0297 13.337C20.178 13.1523 20.3051 12.9882 20.4533 12.8035C20.4957 12.7625 20.538 12.7625 20.5804 12.783C20.6016 12.8035 20.644 12.824 20.6651 12.8446C20.7075 12.8856 20.7075 12.9471 20.6863 12.9882C20.538 13.1728 20.411 13.337 20.2627 13.5216C20.1356 13.6858 20.0085 13.8499 19.8602 14.0141C19.8602 14.0141 19.8602 14.0346 19.8391 14.0346C19.8179 14.0551 19.7967 14.0551 19.7755 14.0346C19.6484 13.9115 19.5213 13.7884 19.3731 13.6653C19.3519 13.6447 19.3095 13.6037 19.2883 13.5832C19.2672 13.5627 19.2672 13.5422 19.2883 13.5216C19.3307 13.4806 19.3731 13.4396 19.3943 13.3985C19.4366 13.3575 19.479 13.3575 19.5213 13.3985C19.6061 13.4601 19.6696 13.5422 19.7543 13.6037C19.7967 13.5832 19.7967 13.6037 19.8179 13.6037Z" fill="#2C3C59"/>
<path d="M15.2637 15.6895H18.2637" stroke="#2C3C59" stroke-width="0.5" stroke-miterlimit="10" stroke-linecap="round" stroke-linejoin="round"/>
<path d="M19.8179 15.6623C19.9026 15.5597 19.9662 15.4776 20.0297 15.3956C20.178 15.2109 20.3051 15.0468 20.4533 14.8621C20.4957 14.8211 20.538 14.8211 20.5804 14.8416C20.6016 14.8621 20.644 14.8826 20.6651 14.9032C20.7075 14.9442 20.7075 15.0057 20.6863 15.0468C20.538 15.2314 20.411 15.3956 20.2627 15.5802C20.1356 15.7444 20.0085 15.9085 19.8602 16.0727C19.8602 16.0727 19.8602 16.0932 19.8391 16.0932C19.8179 16.1137 19.7967 16.1137 19.7755 16.0932C19.6484 15.9701 19.5213 15.847 19.3731 15.7239C19.3519 15.7033 19.3095 15.6623 19.2883 15.6418C19.2672 15.6213 19.2672 15.6007 19.2883 15.5802C19.3307 15.5392 19.3731 15.4982 19.3943 15.4571C19.4366 15.4161 19.479 15.4161 19.5213 15.4571C19.6061 15.5187 19.6696 15.6008 19.7543 15.6623C19.7967 15.6418 19.7967 15.6623 19.8179 15.6623Z" fill="#2C3C59"/>
<path d="M15.2637 17.748H18.2637" stroke="#2C3C59" stroke-width="0.5" stroke-miterlimit="10" stroke-linecap="round" stroke-linejoin="round"/>
<path d="M19.8179 17.7189C19.9026 17.6164 19.9662 17.5343 20.0297 17.4522C20.178 17.2676 20.3051 17.1034 20.4533 16.9188C20.4957 16.8777 20.538 16.8777 20.5804 16.8982C20.6016 16.9188 20.644 16.9393 20.6651 16.9598C20.7075 17.0008 20.7075 17.0624 20.6863 17.1034C20.538 17.2881 20.411 17.4522 20.2627 17.6369C20.1356 17.801 20.0085 17.9652 19.8602 18.1293C19.8602 18.1293 19.8602 18.1498 19.8391 18.1498C19.8179 18.1703 19.7967 18.1703 19.7755 18.1498C19.6484 18.0267 19.5213 17.9036 19.3731 17.7805C19.3519 17.76 19.3095 17.7189 19.2883 17.6984C19.2672 17.6779 19.2672 17.6574 19.2883 17.6369C19.3307 17.5958 19.3731 17.5548 19.3943 17.5138C19.4366 17.4727 19.479 17.4727 19.5213 17.5138C19.6061 17.5753 19.6696 17.6574 19.7543 17.7189C19.7967 17.6984 19.7967 17.7189 19.8179 17.7189Z" fill="#2C3C59"/>
</svg>
