<svg width="25" height="25" viewBox="0 0 25 25" fill="none" xmlns="http://www.w3.org/2000/svg">
<path d="M23.75 8.13086H13.7812V20.0371H23.75V8.13086Z" fill="#D5E9FA"/>
<path d="M19.9063 6.81835V5.84961H18.3125C18.3125 5.84961 18.3125 5.03711 17.5 5.03711C16.6875 5.03711 16.6875 5.84961 16.6875 5.84961H15.0625V6.81835H12.5V18.8809H22.3125V6.81835H19.9063Z" stroke="#2C3C59" stroke-width="0.75" stroke-miterlimit="10"/>
<path d="M15.0625 6.56836V7.78711H19.9062V6.50586" stroke="#2C3C59" stroke-width="0.75" stroke-miterlimit="10"/>
<path d="M14.6426 15.752H20.1113" stroke="#2C3C59" stroke-width="0.75" stroke-miterlimit="10" stroke-linecap="round" stroke-linejoin="round"/>
<path d="M14.6426 13.6094L19.9997 13.6094" stroke="#2C3C59" stroke-width="0.75" stroke-miterlimit="10" stroke-linecap="round" stroke-linejoin="round"/>
<path d="M14.6426 11.4648L17.8569 11.4648" stroke="#2C3C59" stroke-width="0.75" stroke-miterlimit="10" stroke-linecap="round" stroke-linejoin="round"/>
<path d="M3.47438 6.47895L1.25 7.66992L2.19668 9.43804L7.14825 18.6861L9.21465 20.1689L9.37263 17.4951L4.42106 8.24707L3.47438 6.47895Z" fill="#D5E9FA"/>
<path d="M10.0272 16.3553L7.80287 17.5462M10.0272 16.3553L4.94014 6.85406M10.0272 16.3553L9.89877 19.0842L7.80287 17.5462M7.80287 17.5462L2.71576 8.04503M4.94014 6.85406L3.96754 5.03755L1.74316 6.22852L2.71576 8.04503M4.94014 6.85406L2.71576 8.04503" stroke="#2C3C59" stroke-width="0.75"/>
</svg>
