<svg width="25" height="25" viewBox="0 0 25 25" fill="none" xmlns="http://www.w3.org/2000/svg">
<g clip-path="url(#clip0)">
<path d="M10.2518 1.57986L13.5449 9.24644C16.3573 9.00196 19.1767 10.5958 20.284 13.2201C21.2274 15.4637 20.4094 18.0651 18.9371 19.9066L16.8528 14.1378L13.1339 14.0031L9.8107 17.435L12.2507 23.0388C9.91699 22.8169 8.66722 20.7947 7.70392 18.5713C6.59658 15.9471 7.43657 13.0051 9.55195 11.1381L5.18058 3.49313" fill="#DFE8F2"/>
<path d="M10.0397 1.64686L13.3182 9.14563C16.4538 8.87305 19.0998 10.3694 20.3344 13.2952C21.3862 15.7967 20.4742 18.697 18.8327 20.7502L16.5088 14.3184L12.3626 14.1683L9.63009 17.2669L12.3506 23.5146C9.7486 23.2673 7.38255 21.7404 6.30855 19.2615C5.07395 16.3356 6.01047 13.0556 8.36896 10.974L4.16842 3.84888" stroke="#2C3C59"/>
<path d="M14.9619 20.5189L12.4135 20.182L11.4299 17.7897L12.9945 15.7506L15.5592 16.0878L16.5427 18.4801L14.9619 20.5189Z" fill="#D5E9FA" stroke="#2C3C59" stroke-width="0.75"/>
</g>
<defs>
<clipPath id="clip0">
<rect width="24" height="24" fill="white" transform="translate(0.5 0.537109)"/>
</clipPath>
</defs>
</svg>
