<svg width="25" height="25" viewBox="0 0 25 25" fill="none" xmlns="http://www.w3.org/2000/svg">
<path d="M12.0769 11.0869C13.4647 11.0869 14.5897 9.99712 14.5897 8.65282C14.5897 7.30852 13.4647 6.21875 12.0769 6.21875C10.6891 6.21875 9.56409 7.30852 9.56409 8.65282C9.56409 9.99712 10.6891 11.0869 12.0769 11.0869Z" fill="#D5E9FA"/>
<path d="M7.65527 16.2359C7.65527 16.2359 8.6459 12.4209 11.956 12.4209C15.2662 12.4209 15.9427 16.2359 15.9427 16.2359H7.65527Z" fill="#D5E9FA"/>
<path d="M5.92281 15.2984C5.85691 15.4947 5.96265 15.7073 6.15899 15.7732C6.35533 15.8391 6.56792 15.7334 6.63383 15.537L5.92281 15.2984ZM15.2742 15.4996C15.3194 15.7017 15.5199 15.8289 15.722 15.7836C15.9241 15.7384 16.0513 15.5379 16.0061 15.3358L15.2742 15.4996ZM13.2757 8.13892C13.2757 9.36659 12.2805 10.3618 11.0528 10.3618V11.1118C12.6947 11.1118 14.0257 9.78081 14.0257 8.13892H13.2757ZM11.0528 10.3618C9.82514 10.3618 8.82992 9.36659 8.82992 8.13892H8.07992C8.07992 9.7808 9.41093 11.1118 11.0528 11.1118V10.3618ZM8.82992 8.13892C8.82992 6.91125 9.82514 5.91602 11.0528 5.91602V5.16602C9.41092 5.16602 8.07992 6.49704 8.07992 8.13892H8.82992ZM11.0528 5.91602C12.2805 5.91602 13.2757 6.91125 13.2757 8.13892H14.0257C14.0257 6.49703 12.6947 5.16602 11.0528 5.16602V5.91602ZM6.27832 15.4177C6.63383 15.537 6.63377 15.5372 6.63372 15.5373C6.63371 15.5374 6.63367 15.5375 6.63364 15.5376C6.6336 15.5377 6.63357 15.5378 6.63356 15.5378C6.63354 15.5379 6.63358 15.5378 6.63369 15.5374C6.63392 15.5368 6.63442 15.5353 6.63519 15.5331C6.63674 15.5288 6.6394 15.5214 6.64321 15.5112C6.65083 15.4907 6.66304 15.4591 6.68019 15.4178C6.71452 15.3352 6.76847 15.2145 6.84478 15.0683C6.99775 14.7754 7.23841 14.3844 7.58753 13.9944C8.2808 13.2199 9.40193 12.4459 11.1464 12.4459V11.6959C9.14625 11.6959 7.83331 12.5953 7.0287 13.4942C6.62888 13.9408 6.35464 14.3866 6.17995 14.7212C6.09242 14.8888 6.02935 15.0296 5.98762 15.13C5.96674 15.1802 5.95116 15.2205 5.94049 15.2491C5.93516 15.2634 5.93105 15.2748 5.92812 15.283C5.92666 15.2872 5.92549 15.2906 5.9246 15.2931C5.92416 15.2944 5.92379 15.2955 5.92349 15.2964C5.92335 15.2968 5.92321 15.2972 5.9231 15.2975C5.92304 15.2977 5.92297 15.2979 5.92294 15.298C5.92288 15.2982 5.92281 15.2984 6.27832 15.4177ZM11.1464 12.4459C12.8869 12.4459 13.9072 13.2156 14.5023 13.9755C14.8038 14.3605 14.9986 14.7469 15.1176 15.0371C15.177 15.1818 15.217 15.3012 15.2418 15.3829C15.2542 15.4236 15.2627 15.4548 15.2679 15.4748C15.2706 15.4848 15.2723 15.492 15.2733 15.4962C15.2739 15.4983 15.2742 15.4997 15.2743 15.5002C15.2744 15.5005 15.2744 15.5006 15.2744 15.5005C15.2744 15.5005 15.2743 15.5004 15.2743 15.5002C15.2743 15.5001 15.2742 15.5 15.2742 15.4999C15.2742 15.4998 15.2742 15.4996 15.6401 15.4177C16.0061 15.3358 16.006 15.3356 16.006 15.3354C16.0059 15.3353 16.0059 15.3351 16.0058 15.3349C16.0058 15.3345 16.0057 15.3341 16.0056 15.3337C16.0054 15.3327 16.0051 15.3316 16.0048 15.3303C16.0042 15.3276 16.0034 15.3242 16.0023 15.32C16.0003 15.3115 15.9974 15.2999 15.9936 15.2854C15.986 15.2564 15.9748 15.2157 15.9594 15.1649C15.9286 15.0635 15.8809 14.9215 15.8115 14.7524C15.6731 14.4151 15.4466 13.9648 15.0928 13.5131C14.3773 12.5995 13.1507 11.6959 11.1464 11.6959V12.4459Z" fill="#2C3C59"/>
<circle cx="10.9735" cy="10.2811" r="8.53308" stroke="#2C3C59"/>
<path d="M18.584 18.5566L23.0604 23.0331" stroke="#2C3C59" stroke-linecap="round"/>
</svg>
