<svg width="25" height="25" viewBox="0 0 25 25" fill="none" xmlns="http://www.w3.org/2000/svg">
<path d="M17.2373 17.4629L23.0621 22.9119" stroke="#2C3C59" stroke-miterlimit="10" stroke-linecap="round" stroke-linejoin="round"/>
<path d="M11.3086 18.6095C15.5333 18.6095 18.9581 15.1847 18.9581 10.96C18.9581 6.73533 15.5333 3.31055 11.3086 3.31055C7.08394 3.31055 3.65918 6.73533 3.65918 10.96C3.65918 15.1847 7.08394 18.6095 11.3086 18.6095Z" fill="#D5E9FA"/>
<path d="M9.58792 17.463C13.8126 17.463 17.2374 14.0382 17.2374 9.81353C17.2374 5.58884 13.8126 2.16406 9.58792 2.16406C5.36324 2.16406 1.93848 5.58884 1.93848 9.81353C1.93848 14.0382 5.36324 17.463 9.58792 17.463Z" stroke="#2C3C59" stroke-miterlimit="10"/>
<path d="M8.52 11.5291V11.0731C8.52 10.8811 8.532 10.7091 8.556 10.5571C8.588 10.4051 8.632 10.2611 8.688 10.1251C8.752 9.98911 8.832 9.85711 8.928 9.72911C9.032 9.60111 9.16 9.46511 9.312 9.32111L9.852 8.80511C10.004 8.66911 10.132 8.51711 10.236 8.34911C10.348 8.18111 10.404 7.97711 10.404 7.73711C10.404 7.42511 10.304 7.16511 10.104 6.95711C9.912 6.74111 9.636 6.63311 9.276 6.63311C9.092 6.63311 8.924 6.66911 8.772 6.74111C8.628 6.80511 8.5 6.89711 8.388 7.01711C8.284 7.12911 8.204 7.26111 8.148 7.41311C8.092 7.56511 8.06 7.72111 8.052 7.88111L6.576 7.74911C6.624 7.36511 6.724 7.02511 6.876 6.72911C7.036 6.42511 7.24 6.16911 7.488 5.96111C7.736 5.75311 8.02 5.59711 8.34 5.49311C8.66 5.38111 9.004 5.32511 9.372 5.32511C9.716 5.32511 10.04 5.37711 10.344 5.48111C10.656 5.57711 10.928 5.72511 11.16 5.92511C11.4 6.11711 11.588 6.35711 11.724 6.64511C11.86 6.93311 11.928 7.26511 11.928 7.64111C11.928 7.89711 11.9 8.12111 11.844 8.31311C11.788 8.50511 11.708 8.68111 11.604 8.84111C11.5 9.00111 11.372 9.15711 11.22 9.30911C11.076 9.45311 10.912 9.60511 10.728 9.76511C10.568 9.90111 10.436 10.0211 10.332 10.1251C10.236 10.2291 10.156 10.3331 10.092 10.4371C10.036 10.5411 9.996 10.6531 9.972 10.7731C9.948 10.8931 9.936 11.0411 9.936 11.2171V11.5291H8.52ZM8.28 13.1971C8.28 12.9411 8.372 12.7211 8.556 12.5371C8.748 12.3531 8.976 12.2611 9.24 12.2611C9.496 12.2611 9.72 12.3491 9.912 12.5251C10.104 12.7011 10.2 12.9171 10.2 13.1731C10.2 13.4291 10.104 13.6491 9.912 13.8331C9.728 14.0171 9.504 14.1091 9.24 14.1091C9.112 14.1091 8.988 14.0851 8.868 14.0371C8.756 13.9891 8.656 13.9251 8.568 13.8451C8.48 13.7651 8.408 13.6691 8.352 13.5571C8.304 13.4451 8.28 13.3251 8.28 13.1971Z" fill="#2C3C59"/>
</svg>
