<svg width="25" height="25" viewBox="0 0 25 25" fill="none" xmlns="http://www.w3.org/2000/svg">
<path d="M22.7376 16.8301H4.91207C4.45286 16.8301 4.07715 16.4608 4.07715 16.0094V7.72103C4.07715 7.26968 4.45286 6.90039 4.91207 6.90039H22.7376C23.1968 6.90039 23.5726 7.26968 23.5726 7.72103V16.0094C23.6143 16.4608 23.2386 16.8301 22.7376 16.8301Z" fill="#D5E9FA"/>
<path d="M22.308 15.0566H2.65039V16.3369H22.308V15.0566Z" fill="#2C3C59"/>
<path d="M4.62793 15.284C4.62793 15.5601 4.85179 15.784 5.12793 15.784C5.40407 15.784 5.62793 15.5601 5.62793 15.284H4.62793ZM5.62793 13.0762C5.62793 12.8 5.40407 12.5762 5.12793 12.5762C4.85179 12.5762 4.62793 12.8 4.62793 13.0762H5.62793ZM7.10578 15.332C7.10578 15.6082 7.32964 15.832 7.60578 15.832C7.88192 15.832 8.10578 15.6082 8.10578 15.332H7.10578ZM8.10578 13.1242C8.10578 12.8481 7.88192 12.6242 7.60578 12.6242C7.32964 12.6242 7.10578 12.8481 7.10578 13.1242H8.10578ZM9.5423 15.38C9.5423 15.6562 9.76615 15.88 10.0423 15.88C10.3184 15.88 10.5423 15.6562 10.5423 15.38H9.5423ZM10.5423 13.1242C10.5423 12.8481 10.3184 12.6242 10.0423 12.6242C9.76615 12.6242 9.5423 12.8481 9.5423 13.1242H10.5423ZM11.9789 15.4279C11.9789 15.7041 12.2027 15.9279 12.4789 15.9279C12.755 15.9279 12.9789 15.7041 12.9789 15.4279H11.9789ZM12.9789 13.1721C12.9789 12.896 12.755 12.6721 12.4789 12.6721C12.2027 12.6721 11.9789 12.896 11.9789 13.1721H12.9789ZM14.4567 15.428C14.4567 15.7041 14.6806 15.928 14.9567 15.928C15.2329 15.928 15.4567 15.7041 15.4567 15.428H14.4567ZM15.4567 13.2202C15.4567 12.944 15.2329 12.7202 14.9567 12.7202C14.6806 12.7202 14.4567 12.944 14.4567 13.2202H15.4567ZM16.8933 15.4759C16.8933 15.7521 17.1171 15.9759 17.3933 15.9759C17.6694 15.9759 17.8933 15.7521 17.8933 15.4759H16.8933ZM17.8933 13.2681C17.8933 12.992 17.6694 12.7681 17.3933 12.7681C17.1171 12.7681 16.8933 12.992 16.8933 13.2681H17.8933ZM19.3298 15.4759C19.3298 15.7521 19.5537 15.9759 19.8298 15.9759C20.106 15.9759 20.3298 15.7521 20.3298 15.4759H19.3298ZM20.3298 13.2681C20.3298 12.992 20.106 12.7681 19.8298 12.7681C19.5537 12.7681 19.3298 12.992 19.3298 13.2681H20.3298ZM5.62793 15.284V13.0762H4.62793V15.284H5.62793ZM8.10578 15.332V13.1242H7.10578V15.332H8.10578ZM10.5423 15.38V13.1242H9.5423V15.38H10.5423ZM12.9789 15.4279V13.1721H11.9789V15.4279H12.9789ZM15.4567 15.428V13.2202H14.4567V15.428H15.4567ZM17.8933 15.4759V13.2681H16.8933V15.4759H17.8933ZM20.3298 15.4759V13.2681H19.3298V15.4759H20.3298Z" fill="#2C3C59"/>
<path d="M2.65039 19.434V6.0536C2.65039 5.80582 2.81554 5.64062 3.02203 5.64062H21.9776C22.1841 5.64062 22.3493 5.80582 22.3493 6.0536V19.434" stroke="#2C3C59" stroke-miterlimit="10" stroke-linecap="round" stroke-linejoin="round"/>
<path d="M9.27624 18.5914C9.27624 18.9082 9.01937 19.1651 8.70251 19.1651V20.1651C9.57167 20.1651 10.2762 19.4605 10.2762 18.5914H9.27624ZM8.70251 19.1651C8.38566 19.1651 8.12879 18.9082 8.12879 18.5914H7.12879C7.12879 19.4605 7.83336 20.1651 8.70251 20.1651V19.1651ZM8.12879 18.5914C8.12879 18.2745 8.38566 18.0176 8.70251 18.0176V17.0176C7.83336 17.0176 7.12879 17.7222 7.12879 18.5914H8.12879ZM8.70251 18.0176C9.01937 18.0176 9.27624 18.2745 9.27624 18.5914H10.2762C10.2762 17.7222 9.57167 17.0176 8.70251 17.0176V18.0176ZM5.72465 18.5913C5.72465 18.9082 5.46778 19.1651 5.15092 19.1651V20.1651C6.02008 20.1651 6.72465 19.4605 6.72465 18.5913H5.72465ZM5.15092 19.1651C4.83404 19.1651 4.57715 18.9082 4.57715 18.5913H3.57715C3.57715 19.4605 4.2818 20.1651 5.15092 20.1651V19.1651ZM4.57715 18.5913C4.57715 18.2745 4.83404 18.0176 5.15092 18.0176V17.0176C4.2818 17.0176 3.57715 17.7221 3.57715 18.5913H4.57715ZM5.15092 18.0176C5.46778 18.0176 5.72465 18.2744 5.72465 18.5913H6.72465C6.72465 17.7222 6.02008 17.0176 5.15092 17.0176V18.0176Z" fill="#2C3C59"/>
</svg>
