<svg width="25" height="25" viewBox="0 0 25 25" fill="none" xmlns="http://www.w3.org/2000/svg">
<path d="M15.1607 23.5371H13.7071C13.3143 23.5371 13 23.2342 13 22.8556V22.5148C13 22.1362 13.3143 21.8333 13.7071 21.8333H15.1607C15.5536 21.8333 15.8679 22.1362 15.8679 22.5148V22.8556C15.8679 23.2342 15.5536 23.5371 15.1607 23.5371Z" fill="#2C3C59"/>
<path d="M24 16.419C24 14.8288 22.7821 13.5416 21.2107 13.2765C21.0536 10.2854 19.7964 6.53711 18.9714 6.53711C18.0679 6.53711 17.7929 6.57496 18.1857 7.74868C18.5 8.73309 19.4429 11.4213 19.7964 13.3522C18.4214 13.7309 17.3607 14.9424 17.3607 16.419C17.3607 18.0092 18.5786 19.3344 20.15 19.5616V21.8333C20.15 22.0605 19.9536 22.2498 19.7179 22.2498H15.7893C15.5536 22.2498 15.3571 22.4391 15.3571 22.6663C15.3571 22.8934 15.5536 23.0827 15.7893 23.0827H20.7786C21.0143 23.0827 21.2107 22.8934 21.2107 22.6663V19.5616C21.2107 19.5616 21.2107 19.5616 21.2107 19.5237C22.8214 19.2966 24 18.0092 24 16.419Z" fill="#2C3C59"/>
<path d="M15.0451 3.24023H4.3833C3.62561 3.24023 3.03027 3.78144 3.03027 4.48501V8.32761C3.03027 8.97707 3.62561 9.57239 4.3833 9.57239H12.3391L14.8828 10.9254V9.57239H15.0451C15.8028 9.57239 16.3982 9.03119 16.3982 8.32761V4.48501C16.3982 3.83556 15.8028 3.24023 15.0451 3.24023Z" fill="#D5E9FA"/>
<path d="M13.8547 2.53711H3.19287C2.43518 2.53711 1.83984 3.07833 1.83984 3.7819V7.62449C1.83984 8.27394 2.43518 8.86928 3.19287 8.86928H11.1487L13.6924 10.2223V8.86928H13.8547C14.6124 8.86928 15.2078 8.32806 15.2078 7.62449V3.7819C15.2078 3.07833 14.6124 2.53711 13.8547 2.53711Z" stroke="#2C3C59" stroke-width="0.75" stroke-miterlimit="10"/>
<path d="M6.38594 7.08242C6.68484 7.08242 6.92715 6.84011 6.92715 6.54121C6.92715 6.24231 6.68484 6 6.38594 6C6.08703 6 5.84473 6.24231 5.84473 6.54121C5.84473 6.84011 6.08703 7.08242 6.38594 7.08242Z" fill="#2C3C59"/>
<path d="M8.49629 7.08242C8.79519 7.08242 9.0375 6.84011 9.0375 6.54121C9.0375 6.24231 8.79519 6 8.49629 6C8.19739 6 7.95508 6.24231 7.95508 6.54121C7.95508 6.84011 8.19739 7.08242 8.49629 7.08242Z" fill="#2C3C59"/>
<path d="M10.6613 7.08242C10.9602 7.08242 11.2025 6.84011 11.2025 6.54121C11.2025 6.24231 10.9602 6 10.6613 6C10.3624 6 10.1201 6.24231 10.1201 6.54121C10.1201 6.84011 10.3624 7.08242 10.6613 7.08242Z" fill="#2C3C59"/>
</svg>
