<svg width="25" height="25" viewBox="0 0 25 25" fill="none" xmlns="http://www.w3.org/2000/svg">
<path d="M14.327 12.9249C16.9507 12.9249 19.0775 10.798 19.0775 8.17439C19.0775 5.55073 16.9507 3.42383 14.327 3.42383C11.7034 3.42383 9.57644 5.55073 9.57644 8.17439C9.57644 10.798 11.7034 12.9249 14.327 12.9249Z" fill="#D5E9FA"/>
<path d="M5.96777 22.9742C5.96777 22.9742 7.84058 15.5286 14.0985 15.5286C20.3565 15.5286 21.6355 22.9742 21.6355 22.9742H5.96777Z" fill="#D5E9FA"/>
<path d="M2.89025 21.2168C2.80238 21.4786 2.94336 21.762 3.20515 21.8499C3.46694 21.9378 3.75039 21.7968 3.83827 21.535L2.89025 21.2168ZM21.1477 21.4851C21.208 21.7546 21.4753 21.9241 21.7448 21.8638C22.0143 21.8035 22.1838 21.5362 22.1235 21.2667L21.1477 21.4851ZM17.2529 7.16993C17.2529 9.69403 15.2067 11.7402 12.6826 11.7402V12.7402C15.759 12.7402 18.2529 10.2463 18.2529 7.16993H17.2529ZM12.6826 11.7402C10.1585 11.7402 8.11232 9.69404 8.11232 7.16993H7.11232C7.11232 10.2463 9.60622 12.7402 12.6826 12.7402V11.7402ZM8.11232 7.16993C8.11232 4.64582 10.1585 2.59961 12.6826 2.59961V1.59961C9.60622 1.59961 7.11232 4.09354 7.11232 7.16993H8.11232ZM12.6826 2.59961C15.2067 2.59961 17.2529 4.64582 17.2529 7.16993H18.2529C18.2529 4.09354 15.759 1.59961 12.6826 1.59961V2.59961ZM3.36426 21.3759C3.83827 21.535 3.8382 21.5352 3.83814 21.5354C3.83813 21.5354 3.83807 21.5356 3.83805 21.5356C3.83801 21.5357 3.83801 21.5358 3.83804 21.5357C3.83809 21.5355 3.83828 21.535 3.8386 21.534C3.83925 21.5322 3.84043 21.5288 3.84215 21.5239C3.8456 21.5141 3.85124 21.4985 3.85914 21.4773C3.87496 21.4349 3.89983 21.3704 3.93446 21.2871C4.00375 21.1204 4.11187 20.8786 4.26426 20.5867C4.56953 20.002 5.0496 19.2221 5.74666 18.4434C7.13414 16.8933 9.38154 15.3439 12.8654 15.3439V14.3439C9.04063 14.3439 6.53749 16.0605 5.00155 17.7764C4.2369 18.6307 3.71205 19.4837 3.37782 20.1238C3.21047 20.4444 3.09019 20.7129 3.01103 20.9033C2.97143 20.9986 2.94206 21.0745 2.92219 21.1278C2.91225 21.1545 2.90468 21.1755 2.89939 21.1904C2.89674 21.1979 2.89467 21.2039 2.89315 21.2083C2.89239 21.2105 2.89177 21.2123 2.89128 21.2137C2.89104 21.2144 2.89084 21.215 2.89066 21.2156C2.89058 21.2158 2.89047 21.2161 2.89043 21.2162C2.89034 21.2165 2.89025 21.2168 3.36426 21.3759ZM12.8654 15.3439C16.3438 15.3439 18.3988 16.8876 19.5976 18.4182C20.2022 19.1902 20.5921 19.9641 20.8304 20.545C20.9494 20.835 21.0299 21.0751 21.0801 21.2405C21.1052 21.3232 21.1227 21.387 21.1336 21.4288C21.1391 21.4498 21.1429 21.4652 21.1452 21.4747C21.1464 21.4794 21.1471 21.4827 21.1475 21.4845C21.1477 21.4853 21.1479 21.4858 21.1479 21.4859C21.1479 21.486 21.1479 21.4859 21.1478 21.4858C21.1478 21.4857 21.1478 21.4855 21.1478 21.4855C21.1477 21.4853 21.1477 21.4851 21.6356 21.3759C22.1235 21.2667 22.1235 21.2664 22.1234 21.2661C22.1234 21.266 22.1233 21.2657 22.1233 21.2654C22.1231 21.2648 22.123 21.2642 22.1228 21.2635C22.1225 21.262 22.122 21.2601 22.1215 21.2579C22.1205 21.2533 22.119 21.2472 22.1172 21.2396C22.1135 21.2244 22.1082 21.2032 22.1012 21.1762C22.0871 21.1224 22.0661 21.0459 22.037 20.9499C21.9787 20.7581 21.8879 20.4879 21.7556 20.1655C21.4915 19.5217 21.0592 18.6626 20.3848 17.8016C19.0256 16.0661 16.6955 14.3439 12.8654 14.3439V15.3439Z" fill="#2C3C59"/>
</svg>
