<svg width="25" height="25" viewBox="0 0 25 25" fill="none" xmlns="http://www.w3.org/2000/svg">
<g clip-path="url(#clip0)">
<ellipse cx="13.5249" cy="12.538" rx="9.99264" ry="10.8857" fill="#D5E9FA"/>
<path d="M10.7337 13.0737C11.0291 12.7631 11.4832 12.3282 11.7048 12.0797C12.2217 11.5206 12.6649 11.0236 13.1818 10.4644C13.3296 10.3402 13.4708 10.3463 13.6185 10.4084C13.6984 10.4569 13.7221 10.4644 13.7988 10.529C13.9465 10.6533 13.9465 10.8396 13.8727 10.9639C13.3557 11.523 12.9126 12.02 12.3956 12.5791C11.9525 13.0761 10.9185 14.1322 10.9185 14.1322C10.8446 14.1943 10.7708 14.1943 10.6969 14.1322C10.2538 13.7595 9.93224 13.4464 9.41526 13.0737C9.3414 13.0116 9.1937 12.8873 9.11984 12.8252C9.04599 12.763 9.04599 12.7009 9.11984 12.6388C9.26755 12.5145 9.41526 12.3618 9.41526 12.3618C9.56297 12.2376 9.71068 12.2376 9.85839 12.3618C10.1538 12.5482 10.4383 12.8873 10.7337 13.0737Z" fill="#2C3C59"/>
<path d="M6.65901 9.81394L6.83405 10.2823L6.83405 10.2823L6.65901 9.81394ZM11.4067 18.1095L11.4029 17.6095L11.4067 18.1095ZM16.3254 9.81394L16.1504 10.2823L16.3254 9.81394ZM6.44763 10.4712L6.92258 10.315L6.44763 10.4712ZM16.5375 10.4654L17.0091 10.6316L16.5375 10.4654ZM16.5838 10.3617L17.04 10.5664L16.5838 10.3617ZM11.074 7.25155L10.7533 6.86794L11.074 7.25155ZM11.7405 7.25007L12.058 6.86384L11.7405 7.25007ZM10.7533 6.86794C9.47973 7.93259 8.18704 8.70907 6.48396 9.34558L6.83405 10.2823C8.64611 9.60505 10.0368 8.7703 11.3947 7.63517L10.7533 6.86794ZM5.97268 10.6275C6.09047 10.9855 6.74435 12.9272 7.67438 14.7844C8.13818 15.7105 8.6828 16.6406 9.2786 17.3452C9.85348 18.025 10.5771 18.6157 11.4104 18.6095L11.4029 17.6095C11.0464 17.6122 10.5841 17.3404 10.0422 16.6995C9.52121 16.0833 9.01814 15.2344 8.56853 14.3366C7.67176 12.5459 7.03595 10.6595 6.92258 10.315L5.97268 10.6275ZM6.48396 9.34558C6.01501 9.52085 5.72005 10.0474 5.93945 10.5551L6.8574 10.1584C6.87238 10.193 6.86853 10.2301 6.85697 10.2545C6.84588 10.2778 6.83198 10.2831 6.83405 10.2823L6.48396 9.34558ZM11.423 7.63631C12.8125 8.77864 14.3511 9.60983 16.1504 10.2823L16.5005 9.34558C14.783 8.7037 13.3462 7.9228 12.058 6.86384L11.423 7.63631ZM16.0659 10.2992C15.9507 10.6262 15.2739 12.5059 14.3357 14.2992C13.8654 15.1981 13.3414 16.0517 12.8035 16.6747C12.244 17.3226 11.7675 17.6068 11.4029 17.6095L11.4104 18.6095C12.2389 18.6033 12.9709 18.0109 13.5604 17.3282C14.1715 16.6205 14.737 15.6893 15.2217 14.7628C16.1936 12.9052 16.8892 10.9718 17.0091 10.6316L16.0659 10.2992ZM16.1504 10.2823C16.1524 10.2831 16.1383 10.2777 16.1272 10.2539C16.1156 10.229 16.1122 10.1914 16.1276 10.157L17.04 10.5664C17.2689 10.0561 16.9731 9.52221 16.5005 9.34558L16.1504 10.2823ZM6.92258 10.315C6.9074 10.2688 6.89069 10.2309 6.87917 10.2057C6.8638 10.172 6.86375 10.1731 6.8574 10.1584L5.93945 10.5551C5.9464 10.5712 5.95298 10.5855 5.95799 10.5963C5.96398 10.6091 5.96619 10.6138 5.96961 10.6213C5.97503 10.6331 5.97435 10.6326 5.97268 10.6275L6.92258 10.315ZM17.0091 10.6316C17.0074 10.6364 17.0067 10.6371 17.0116 10.6267C17.0148 10.6199 17.0168 10.6159 17.0224 10.6041C17.0272 10.5942 17.0334 10.5812 17.04 10.5664L16.1276 10.157C16.1217 10.1702 16.1218 10.169 16.1074 10.1995C16.0965 10.2226 16.0808 10.2571 16.0659 10.2992L17.0091 10.6316ZM11.3947 7.63517C11.3977 7.63266 11.4016 7.63086 11.4075 7.63085C11.4135 7.63085 11.4187 7.63278 11.423 7.63631L12.058 6.86384C11.6805 6.55348 11.1318 6.55154 10.7533 6.86794L11.3947 7.63517Z" fill="#2C3C59"/>
<circle cx="11.4925" cy="11.6624" r="10.01" stroke="#2C3C59"/>
</g>
<defs>
<clipPath id="clip0">
<rect width="24" height="24" fill="white" transform="translate(0.5 0.537109)"/>
</clipPath>
</defs>
</svg>
