<svg width="25" height="25" viewBox="0 0 25 25" fill="none" xmlns="http://www.w3.org/2000/svg">
<mask id="path-1-inside-1" fill="white">
<rect x="3.96973" y="6.00781" width="17.7639" height="13.4056" rx="0.568562"/>
</mask>
<rect x="3.96973" y="6.00781" width="17.7639" height="13.4056" rx="0.568562" stroke="#2C3C59" stroke-width="1.5" mask="url(#path-1-inside-1)"/>
<rect x="1.66992" y="20.5137" width="22.1336" height="1.14171" rx="0.568562" fill="#2C3C59"/>
<path d="M13.5901 13.8012C14.6498 13.8012 15.5088 12.969 15.5088 11.9426C15.5088 10.9161 14.6498 10.084 13.5901 10.084C12.5304 10.084 11.6714 10.9161 11.6714 11.9426C11.6714 12.969 12.5304 13.8012 13.5901 13.8012Z" fill="#D5E9FA"/>
<path d="M10.2139 17.7328C10.2139 17.7328 10.9703 14.8198 13.4978 14.8198C16.0254 14.8198 16.5419 17.7328 16.5419 17.7328H10.2139Z" fill="#D5E9FA"/>
<path d="M8.8066 16.9887C8.7407 17.185 8.84644 17.3976 9.04278 17.4635C9.23912 17.5294 9.45171 17.4237 9.51762 17.2273L8.8066 16.9887ZM15.9446 17.1899C15.9898 17.392 16.1903 17.5192 16.3924 17.4739C16.5945 17.4287 16.7217 17.2282 16.6765 17.0261L15.9446 17.1899ZM14.4165 11.5501C14.4165 12.4385 13.6962 13.1588 12.8078 13.1588V13.9088C14.1105 13.9088 15.1665 12.8528 15.1665 11.5501H14.4165ZM12.8078 13.1588C11.9193 13.1588 11.1991 12.4386 11.1991 11.5501H10.4491C10.4491 12.8528 11.5051 13.9088 12.8078 13.9088V13.1588ZM11.1991 11.5501C11.1991 10.6616 11.9193 9.94141 12.8078 9.94141V9.19141C11.5051 9.19141 10.4491 10.2474 10.4491 11.5501H11.1991ZM12.8078 9.94141C13.6962 9.94141 14.4165 10.6616 14.4165 11.5501H15.1665C15.1665 10.2474 14.1105 9.19141 12.8078 9.19141V9.94141ZM9.16211 17.108C9.51762 17.2273 9.51756 17.2275 9.51751 17.2276C9.5175 17.2277 9.51745 17.2278 9.51742 17.2279C9.51737 17.2281 9.51733 17.2282 9.5173 17.2283C9.51724 17.2284 9.51724 17.2284 9.51729 17.2283C9.51738 17.228 9.51768 17.2271 9.51819 17.2257C9.51921 17.2228 9.52107 17.2176 9.5238 17.2103C9.52926 17.1957 9.53818 17.1725 9.55084 17.1421C9.57618 17.0811 9.6163 16.9913 9.67323 16.8823C9.78747 16.6635 9.96726 16.3714 10.2278 16.0803C10.7441 15.5036 11.5774 14.9274 12.8793 14.9274V14.1774C11.3218 14.1774 10.2966 14.879 9.66902 15.5801C9.35774 15.9279 9.14436 16.2747 9.00841 16.5351C8.94025 16.6657 8.89101 16.7755 8.85827 16.8543C8.84188 16.8937 8.82959 16.9254 8.82108 16.9482C8.81683 16.9596 8.81352 16.9688 8.81112 16.9756C8.80992 16.979 8.80895 16.9818 8.8082 16.984C8.80782 16.9851 8.8075 16.986 8.80723 16.9868C8.8071 16.9872 8.80698 16.9875 8.80688 16.9878C8.80683 16.988 8.80676 16.9882 8.80673 16.9883C8.80666 16.9885 8.8066 16.9887 9.16211 17.108ZM12.8793 14.9274C14.1771 14.9274 14.9317 15.4994 15.3719 16.0614C15.596 16.3475 15.7409 16.635 15.8296 16.851C15.8737 16.9586 15.9033 17.0472 15.9216 17.1072C15.9306 17.1371 15.9369 17.1598 15.9406 17.174C15.9424 17.1811 15.9437 17.1861 15.9443 17.1888C15.9446 17.1901 15.9448 17.1909 15.9449 17.1911C15.9449 17.1912 15.9449 17.1912 15.9448 17.1909C15.9448 17.1908 15.9448 17.1907 15.9447 17.1905C15.9447 17.1904 15.9447 17.1903 15.9447 17.1902C15.9446 17.1901 15.9446 17.1899 16.3105 17.108C16.6765 17.0261 16.6764 17.0259 16.6764 17.0257C16.6764 17.0256 16.6763 17.0254 16.6763 17.0252C16.6762 17.0249 16.6761 17.0245 16.676 17.0241C16.6758 17.0233 16.6756 17.0223 16.6753 17.0212C16.6748 17.0189 16.6741 17.016 16.6733 17.0125C16.6716 17.0055 16.6693 16.9962 16.6662 16.9846C16.6602 16.9613 16.6513 16.9291 16.6392 16.8892C16.615 16.8094 16.5776 16.6983 16.5234 16.5663C16.4155 16.3032 16.2387 15.9518 15.9624 15.599C15.4018 14.8833 14.4408 14.1774 12.8793 14.1774V14.9274Z" fill="#2C3C59"/>
<circle cx="5" cy="7.03711" r="2.5" fill="#D5E9FA"/>
<circle cx="4.44359" cy="6.66723" r="2.96302" stroke="#2C3C59" stroke-width="0.568562"/>
<path d="M4.35938 5.50192V7.04897H6.1158" stroke="#2C3C59" stroke-width="0.5" stroke-linecap="round" stroke-linejoin="round"/>
</svg>
