<svg width="25" height="25" viewBox="0 0 25 25" fill="none" xmlns="http://www.w3.org/2000/svg">
<path d="M1.78516 15.0524C1.50901 15.0524 1.28516 15.2763 1.28516 15.5524C1.28516 15.8286 1.50901 16.0524 1.78516 16.0524V15.0524ZM19.3309 16.0524C19.607 16.0524 19.8309 15.8286 19.8309 15.5524C19.8309 15.2763 19.607 15.0524 19.3309 15.0524V16.0524ZM14.2273 12.3642C13.9512 12.3642 13.7273 12.5881 13.7273 12.8642C13.7273 13.1404 13.9512 13.3642 14.2273 13.3642V12.3642ZM21.494 13.3642C21.7701 13.3642 21.994 13.1404 21.994 12.8642C21.994 12.5881 21.7701 12.3642 21.494 12.3642V13.3642ZM23.6036 11.04C23.7767 10.8249 23.7427 10.5101 23.5275 10.337C23.3124 10.1639 22.9976 10.198 22.8245 10.4131L23.6036 11.04ZM17.4993 17.0311C17.3262 17.2463 17.3603 17.561 17.5754 17.7341C17.7905 17.9073 18.1053 17.8732 18.2784 17.658L17.4993 17.0311ZM1.78516 16.0524H19.3309V15.0524H1.78516V16.0524ZM14.2273 13.3642H21.494V12.3642H14.2273V13.3642ZM22.8245 10.4131L17.4993 17.0311L18.2784 17.658L23.6036 11.04L22.8245 10.4131Z" fill="#2C3C59"/>
<path d="M10.0051 18.5633C13.8286 18.5633 16.9282 18.2212 16.9282 17.7993C16.9282 17.3773 13.8286 17.0352 10.0051 17.0352C6.18162 17.0352 3.08203 17.3773 3.08203 17.7993C3.08203 18.2212 6.18162 18.5633 10.0051 18.5633Z" fill="#D5E9FA"/>
<path d="M11.3478 9.23828H1.78516V13.9751H11.3478V9.23828Z" fill="#D5E9FA"/>
<path d="M13.8506 10.7676V14.9992H16.8302V11.6573L16.1357 10.7676H13.8506Z" fill="#D5E9FA"/>
<path d="M11.9414 8.25H2.75488V13.2846H11.9414V8.25Z" stroke="#2C3C59" stroke-width="0.5" stroke-miterlimit="10" stroke-linecap="round" stroke-linejoin="round"/>
<path d="M6.84304 17.6532C7.20185 17.6532 7.49273 17.3714 7.49273 17.0239C7.49273 16.6763 7.20185 16.3945 6.84304 16.3945C6.48422 16.3945 6.19336 16.6763 6.19336 17.0239C6.19336 17.3714 6.48422 17.6532 6.84304 17.6532Z" stroke="#2C3C59" stroke-width="0.5" stroke-miterlimit="10"/>
<path d="M14.6907 17.6532C15.0495 17.6532 15.3404 17.3714 15.3404 17.0239C15.3404 16.6763 15.0495 16.3945 14.6907 16.3945C14.3319 16.3945 14.041 16.6763 14.041 17.0239C14.041 17.3714 14.3319 17.6532 14.6907 17.6532Z" stroke="#2C3C59" stroke-width="0.5" stroke-miterlimit="10"/>
<path d="M2.74805 14.5209H13.1563M13.1563 14.5209V9.87695H14.9486L16.1359 11.613V14.5209H13.1563Z" stroke="#2C3C59" stroke-width="0.5" stroke-miterlimit="10" stroke-linecap="round" stroke-linejoin="round"/>
</svg>
